<?xml version="1.0" encoding="UTF-8"?>
<svg xmlns="http://www.w3.org/2000/svg" xmlns:xlink="http://www.w3.org/1999/xlink" width="720pt" height="360pt" viewBox="0 0 720 360">
<defs>
<g>
<g id="glyph-0-0">
<path d="M 4.28125 -2.40625 C 4.28125 -2.976562 4.160156 -3.429688 3.921875 -3.765625 C 3.679688 -4.097656 3.351562 -4.265625 2.9375 -4.265625 C 2.519531 -4.265625 2.191406 -4.097656 1.953125 -3.765625 C 1.710938 -3.429688 1.59375 -2.976562 1.59375 -2.40625 C 1.59375 -1.820312 1.710938 -1.363281 1.953125 -1.03125 C 2.191406 -0.695312 2.519531 -0.53125 2.9375 -0.53125 C 3.351562 -0.53125 3.679688 -0.695312 3.921875 -1.03125 C 4.160156 -1.363281 4.28125 -1.820312 4.28125 -2.40625 Z M 1.59375 -4.078125 C 1.757812 -4.367188 1.96875 -4.582031 2.21875 -4.71875 C 2.476562 -4.851562 2.78125 -4.921875 3.125 -4.921875 C 3.707031 -4.921875 4.179688 -4.6875 4.546875 -4.21875 C 4.921875 -3.757812 5.109375 -3.15625 5.109375 -2.40625 C 5.109375 -1.644531 4.921875 -1.03125 4.546875 -0.5625 C 4.179688 -0.101562 3.707031 0.125 3.125 0.125 C 2.78125 0.125 2.476562 0.0546875 2.21875 -0.078125 C 1.96875 -0.222656 1.757812 -0.4375 1.59375 -0.71875 L 1.59375 0 L 0.796875 0 L 0.796875 -6.6875 L 1.59375 -6.6875 Z M 1.59375 -4.078125 "/>
</g>
<g id="glyph-0-1">
<path d="M 4.828125 -2.90625 L 4.828125 0 L 4.03125 0 L 4.03125 -2.875 C 4.03125 -3.332031 3.941406 -3.671875 3.765625 -3.890625 C 3.585938 -4.117188 3.320312 -4.234375 2.96875 -4.234375 C 2.539062 -4.234375 2.203125 -4.097656 1.953125 -3.828125 C 1.710938 -3.554688 1.59375 -3.1875 1.59375 -2.71875 L 1.59375 0 L 0.796875 0 L 0.796875 -4.8125 L 1.59375 -4.8125 L 1.59375 -4.0625 C 1.78125 -4.351562 2 -4.566406 2.25 -4.703125 C 2.507812 -4.847656 2.8125 -4.921875 3.15625 -4.921875 C 3.707031 -4.921875 4.125 -4.75 4.40625 -4.40625 C 4.6875 -4.070312 4.828125 -3.570312 4.828125 -2.90625 Z M 4.828125 -2.90625 "/>
</g>
<g id="glyph-0-2">
<path d="M 1.59375 -0.71875 L 1.59375 1.828125 L 0.796875 1.828125 L 0.796875 -4.8125 L 1.59375 -4.8125 L 1.59375 -4.078125 C 1.757812 -4.367188 1.96875 -4.582031 2.21875 -4.71875 C 2.476562 -4.851562 2.78125 -4.921875 3.125 -4.921875 C 3.707031 -4.921875 4.179688 -4.6875 4.546875 -4.21875 C 4.921875 -3.757812 5.109375 -3.15625 5.109375 -2.40625 C 5.109375 -1.644531 4.921875 -1.03125 4.546875 -0.5625 C 4.179688 -0.101562 3.707031 0.125 3.125 0.125 C 2.78125 0.125 2.476562 0.0546875 2.21875 -0.078125 C 1.96875 -0.222656 1.757812 -0.4375 1.59375 -0.71875 Z M 4.28125 -2.40625 C 4.28125 -2.976562 4.160156 -3.429688 3.921875 -3.765625 C 3.679688 -4.097656 3.351562 -4.265625 2.9375 -4.265625 C 2.519531 -4.265625 2.191406 -4.097656 1.953125 -3.765625 C 1.710938 -3.429688 1.59375 -2.976562 1.59375 -2.40625 C 1.59375 -1.820312 1.710938 -1.363281 1.953125 -1.03125 C 2.191406 -0.695312 2.519531 -0.53125 2.9375 -0.53125 C 3.351562 -0.53125 3.679688 -0.695312 3.921875 -1.03125 C 4.160156 -1.363281 4.28125 -1.820312 4.28125 -2.40625 Z M 4.28125 -2.40625 "/>
</g>
<g id="glyph-0-3">
<path d="M 4.828125 -2.90625 L 4.828125 0 L 4.03125 0 L 4.03125 -2.875 C 4.03125 -3.332031 3.941406 -3.671875 3.765625 -3.890625 C 3.585938 -4.117188 3.320312 -4.234375 2.96875 -4.234375 C 2.539062 -4.234375 2.203125 -4.097656 1.953125 -3.828125 C 1.710938 -3.554688 1.59375 -3.1875 1.59375 -2.71875 L 1.59375 0 L 0.796875 0 L 0.796875 -6.6875 L 1.59375 -6.6875 L 1.59375 -4.0625 C 1.78125 -4.351562 2 -4.566406 2.25 -4.703125 C 2.507812 -4.847656 2.8125 -4.921875 3.15625 -4.921875 C 3.707031 -4.921875 4.125 -4.75 4.40625 -4.40625 C 4.6875 -4.070312 4.828125 -3.570312 4.828125 -2.90625 Z M 4.828125 -2.90625 "/>
</g>
<g id="glyph-0-4">
<path d="M 3.265625 -6.6875 L 3.265625 -6.03125 L 2.515625 -6.03125 C 2.222656 -6.03125 2.019531 -5.972656 1.90625 -5.859375 C 1.800781 -5.742188 1.75 -5.535156 1.75 -5.234375 L 1.75 -4.8125 L 3.046875 -4.8125 L 3.046875 -4.203125 L 1.75 -4.203125 L 1.75 0 L 0.953125 0 L 0.953125 -4.203125 L 0.203125 -4.203125 L 0.203125 -4.8125 L 0.953125 -4.8125 L 0.953125 -5.140625 C 0.953125 -5.679688 1.078125 -6.070312 1.328125 -6.3125 C 1.578125 -6.5625 1.972656 -6.6875 2.515625 -6.6875 Z M 3.265625 -6.6875 "/>
</g>
<g id="glyph-0-5">
<path d="M 3.890625 -4.671875 L 3.890625 -3.921875 C 3.671875 -4.035156 3.441406 -4.117188 3.203125 -4.171875 C 2.960938 -4.234375 2.710938 -4.265625 2.453125 -4.265625 C 2.054688 -4.265625 1.757812 -4.203125 1.5625 -4.078125 C 1.375 -3.960938 1.28125 -3.785156 1.28125 -3.546875 C 1.28125 -3.359375 1.347656 -3.210938 1.484375 -3.109375 C 1.628906 -3.003906 1.910156 -2.90625 2.328125 -2.8125 L 2.609375 -2.75 C 3.160156 -2.632812 3.554688 -2.46875 3.796875 -2.25 C 4.035156 -2.03125 4.15625 -1.722656 4.15625 -1.328125 C 4.15625 -0.878906 3.976562 -0.523438 3.625 -0.265625 C 3.269531 -0.00390625 2.785156 0.125 2.171875 0.125 C 1.910156 0.125 1.640625 0.0976562 1.359375 0.046875 C 1.078125 -0.00390625 0.785156 -0.078125 0.484375 -0.171875 L 0.484375 -1 C 0.773438 -0.84375 1.0625 -0.722656 1.34375 -0.640625 C 1.625 -0.566406 1.90625 -0.53125 2.1875 -0.53125 C 2.550781 -0.53125 2.832031 -0.59375 3.03125 -0.71875 C 3.238281 -0.851562 3.34375 -1.035156 3.34375 -1.265625 C 3.34375 -1.484375 3.269531 -1.648438 3.125 -1.765625 C 2.976562 -1.878906 2.660156 -1.988281 2.171875 -2.09375 L 1.90625 -2.15625 C 1.40625 -2.257812 1.046875 -2.414062 0.828125 -2.625 C 0.617188 -2.84375 0.515625 -3.140625 0.515625 -3.515625 C 0.515625 -3.960938 0.671875 -4.304688 0.984375 -4.546875 C 1.304688 -4.796875 1.765625 -4.921875 2.359375 -4.921875 C 2.648438 -4.921875 2.921875 -4.898438 3.171875 -4.859375 C 3.429688 -4.816406 3.671875 -4.753906 3.890625 -4.671875 Z M 3.890625 -4.671875 "/>
</g>
<g id="glyph-0-6">
<path d="M 4.9375 -2.609375 L 4.9375 -2.21875 L 1.3125 -2.21875 C 1.34375 -1.675781 1.503906 -1.257812 1.796875 -0.96875 C 2.085938 -0.6875 2.5 -0.546875 3.03125 -0.546875 C 3.332031 -0.546875 3.625 -0.582031 3.90625 -0.65625 C 4.195312 -0.726562 4.484375 -0.84375 4.765625 -1 L 4.765625 -0.25 C 4.472656 -0.125 4.175781 -0.03125 3.875 0.03125 C 3.582031 0.09375 3.285156 0.125 2.984375 0.125 C 2.210938 0.125 1.601562 -0.0976562 1.15625 -0.546875 C 0.707031 -0.992188 0.484375 -1.597656 0.484375 -2.359375 C 0.484375 -3.148438 0.695312 -3.773438 1.125 -4.234375 C 1.550781 -4.691406 2.125 -4.921875 2.84375 -4.921875 C 3.488281 -4.921875 4 -4.710938 4.375 -4.296875 C 4.75 -3.878906 4.9375 -3.316406 4.9375 -2.609375 Z M 4.15625 -2.828125 C 4.144531 -3.265625 4.019531 -3.609375 3.78125 -3.859375 C 3.550781 -4.117188 3.242188 -4.25 2.859375 -4.25 C 2.410156 -4.25 2.050781 -4.125 1.78125 -3.875 C 1.519531 -3.632812 1.367188 -3.285156 1.328125 -2.828125 Z M 4.15625 -2.828125 "/>
</g>
<g id="glyph-0-7">
<path d="M 4.828125 -4.8125 L 3.09375 -2.46875 L 4.921875 0 L 3.984375 0 L 2.578125 -1.890625 L 1.1875 0 L 0.25 0 L 2.125 -2.515625 L 0.40625 -4.8125 L 1.34375 -4.8125 L 2.625 -3.09375 L 3.890625 -4.8125 Z M 4.828125 -4.8125 "/>
</g>
<g id="glyph-0-8">
<path d="M 4.578125 -3.890625 C 4.773438 -4.242188 5.007812 -4.503906 5.28125 -4.671875 C 5.5625 -4.835938 5.882812 -4.921875 6.25 -4.921875 C 6.75 -4.921875 7.132812 -4.742188 7.40625 -4.390625 C 7.6875 -4.046875 7.828125 -3.550781 7.828125 -2.90625 L 7.828125 0 L 7.03125 0 L 7.03125 -2.875 C 7.03125 -3.332031 6.945312 -3.671875 6.78125 -3.890625 C 6.613281 -4.117188 6.363281 -4.234375 6.03125 -4.234375 C 5.625 -4.234375 5.300781 -4.097656 5.0625 -3.828125 C 4.820312 -3.554688 4.703125 -3.1875 4.703125 -2.71875 L 4.703125 0 L 3.90625 0 L 3.90625 -2.875 C 3.90625 -3.34375 3.820312 -3.6875 3.65625 -3.90625 C 3.5 -4.125 3.25 -4.234375 2.90625 -4.234375 C 2.507812 -4.234375 2.191406 -4.097656 1.953125 -3.828125 C 1.710938 -3.554688 1.59375 -3.1875 1.59375 -2.71875 L 1.59375 0 L 0.796875 0 L 0.796875 -4.8125 L 1.59375 -4.8125 L 1.59375 -4.0625 C 1.769531 -4.351562 1.984375 -4.566406 2.234375 -4.703125 C 2.492188 -4.847656 2.796875 -4.921875 3.140625 -4.921875 C 3.484375 -4.921875 3.78125 -4.832031 4.03125 -4.65625 C 4.28125 -4.476562 4.460938 -4.222656 4.578125 -3.890625 Z M 4.578125 -3.890625 "/>
</g>
<g id="glyph-0-9">
<path d="M 1.09375 -0.734375 L 2.515625 -0.734375 L 2.515625 -5.625 L 0.96875 -5.3125 L 0.96875 -6.109375 L 2.5 -6.40625 L 3.375 -6.40625 L 3.375 -0.734375 L 4.78125 -0.734375 L 4.78125 0 L 1.09375 0 Z M 1.09375 -0.734375 "/>
</g>
<g id="glyph-0-10">
<path d="M 0.828125 -6.6875 L 1.625 -6.6875 L 1.625 0 L 0.828125 0 Z M 0.828125 -6.6875 "/>
</g>
<g id="glyph-0-11">
<path d="M 0.265625 -4.8125 L 1.09375 -4.8125 L 2.609375 -0.765625 L 4.109375 -4.8125 L 4.9375 -4.8125 L 3.140625 0 L 2.0625 0 Z M 0.265625 -4.8125 "/>
</g>
<g id="glyph-0-12">
<path d="M 3.015625 -2.421875 C 2.378906 -2.421875 1.9375 -2.347656 1.6875 -2.203125 C 1.4375 -2.054688 1.3125 -1.804688 1.3125 -1.453125 C 1.3125 -1.171875 1.40625 -0.945312 1.59375 -0.78125 C 1.78125 -0.613281 2.03125 -0.53125 2.34375 -0.53125 C 2.78125 -0.53125 3.128906 -0.6875 3.390625 -1 C 3.660156 -1.3125 3.796875 -1.722656 3.796875 -2.234375 L 3.796875 -2.421875 Z M 4.59375 -2.75 L 4.59375 0 L 3.796875 0 L 3.796875 -0.734375 C 3.617188 -0.441406 3.394531 -0.222656 3.125 -0.078125 C 2.851562 0.0546875 2.523438 0.125 2.140625 0.125 C 1.648438 0.125 1.257812 -0.0078125 0.96875 -0.28125 C 0.675781 -0.5625 0.53125 -0.9375 0.53125 -1.40625 C 0.53125 -1.945312 0.707031 -2.351562 1.0625 -2.625 C 1.425781 -2.894531 1.96875 -3.03125 2.6875 -3.03125 L 3.796875 -3.03125 L 3.796875 -3.109375 C 3.796875 -3.472656 3.675781 -3.753906 3.4375 -3.953125 C 3.195312 -4.148438 2.863281 -4.25 2.4375 -4.25 C 2.15625 -4.25 1.882812 -4.21875 1.625 -4.15625 C 1.363281 -4.09375 1.113281 -3.992188 0.875 -3.859375 L 0.875 -4.59375 C 1.164062 -4.707031 1.445312 -4.789062 1.71875 -4.84375 C 1.988281 -4.894531 2.253906 -4.921875 2.515625 -4.921875 C 3.210938 -4.921875 3.734375 -4.738281 4.078125 -4.375 C 4.421875 -4.019531 4.59375 -3.476562 4.59375 -2.75 Z M 4.59375 -2.75 "/>
</g>
<g id="glyph-0-13">
<path d="M 4 -2.46875 C 4 -3.03125 3.878906 -3.46875 3.640625 -3.78125 C 3.398438 -4.101562 3.066406 -4.265625 2.640625 -4.265625 C 2.222656 -4.265625 1.894531 -4.101562 1.65625 -3.78125 C 1.414062 -3.46875 1.296875 -3.03125 1.296875 -2.46875 C 1.296875 -1.894531 1.414062 -1.445312 1.65625 -1.125 C 1.894531 -0.8125 2.222656 -0.65625 2.640625 -0.65625 C 3.066406 -0.65625 3.398438 -0.8125 3.640625 -1.125 C 3.878906 -1.445312 4 -1.894531 4 -2.46875 Z M 4.78125 -0.59375 C 4.78125 0.21875 4.597656 0.820312 4.234375 1.21875 C 3.867188 1.625 3.3125 1.828125 2.5625 1.828125 C 2.289062 1.828125 2.03125 1.804688 1.78125 1.765625 C 1.53125 1.722656 1.289062 1.660156 1.0625 1.578125 L 1.0625 0.8125 C 1.289062 0.9375 1.519531 1.023438 1.75 1.078125 C 1.976562 1.140625 2.207031 1.171875 2.4375 1.171875 C 2.957031 1.171875 3.347656 1.035156 3.609375 0.765625 C 3.867188 0.492188 4 0.0859375 4 -0.453125 L 4 -0.84375 C 3.832031 -0.5625 3.617188 -0.347656 3.359375 -0.203125 C 3.109375 -0.0664062 2.804688 0 2.453125 0 C 1.859375 0 1.378906 -0.222656 1.015625 -0.671875 C 0.660156 -1.117188 0.484375 -1.71875 0.484375 -2.46875 C 0.484375 -3.207031 0.660156 -3.800781 1.015625 -4.25 C 1.378906 -4.695312 1.859375 -4.921875 2.453125 -4.921875 C 2.804688 -4.921875 3.109375 -4.847656 3.359375 -4.703125 C 3.617188 -4.566406 3.832031 -4.359375 4 -4.078125 L 4 -4.8125 L 4.78125 -4.8125 Z M 4.78125 -0.59375 "/>
</g>
<g id="glyph-0-14">
<path d="M 0.828125 -4.8125 L 1.625 -4.8125 L 1.625 0 L 0.828125 0 Z M 0.828125 -6.6875 L 1.625 -6.6875 L 1.625 -5.6875 L 0.828125 -5.6875 Z M 0.828125 -6.6875 "/>
</g>
<g id="glyph-0-15">
<path d="M 2.796875 -5.84375 C 2.347656 -5.84375 2.007812 -5.617188 1.78125 -5.171875 C 1.5625 -4.734375 1.453125 -4.078125 1.453125 -3.203125 C 1.453125 -2.316406 1.5625 -1.65625 1.78125 -1.21875 C 2.007812 -0.78125 2.347656 -0.5625 2.796875 -0.5625 C 3.242188 -0.5625 3.578125 -0.78125 3.796875 -1.21875 C 4.023438 -1.65625 4.140625 -2.316406 4.140625 -3.203125 C 4.140625 -4.078125 4.023438 -4.734375 3.796875 -5.171875 C 3.578125 -5.617188 3.242188 -5.84375 2.796875 -5.84375 Z M 2.796875 -6.53125 C 3.515625 -6.53125 4.0625 -6.242188 4.4375 -5.671875 C 4.820312 -5.109375 5.015625 -4.285156 5.015625 -3.203125 C 5.015625 -2.117188 4.820312 -1.289062 4.4375 -0.71875 C 4.0625 -0.15625 3.515625 0.125 2.796875 0.125 C 2.078125 0.125 1.523438 -0.15625 1.140625 -0.71875 C 0.765625 -1.289062 0.578125 -2.117188 0.578125 -3.203125 C 0.578125 -4.285156 0.765625 -5.109375 1.140625 -5.671875 C 1.523438 -6.242188 2.078125 -6.53125 2.796875 -6.53125 Z M 2.796875 -6.53125 "/>
</g>
<g id="glyph-0-16">
<path d="M 0.9375 -1.09375 L 1.84375 -1.09375 L 1.84375 0 L 0.9375 0 Z M 0.9375 -1.09375 "/>
</g>
<g id="glyph-0-17">
<path d="M 1.6875 -0.734375 L 4.71875 -0.734375 L 4.71875 0 L 0.640625 0 L 0.640625 -0.734375 C 0.972656 -1.066406 1.421875 -1.519531 1.984375 -2.09375 C 2.554688 -2.675781 2.914062 -3.050781 3.0625 -3.21875 C 3.34375 -3.53125 3.535156 -3.789062 3.640625 -4 C 3.753906 -4.21875 3.8125 -4.429688 3.8125 -4.640625 C 3.8125 -4.984375 3.691406 -5.257812 3.453125 -5.46875 C 3.210938 -5.6875 2.898438 -5.796875 2.515625 -5.796875 C 2.242188 -5.796875 1.957031 -5.75 1.65625 -5.65625 C 1.351562 -5.5625 1.03125 -5.421875 0.6875 -5.234375 L 0.6875 -6.109375 C 1.039062 -6.242188 1.367188 -6.347656 1.671875 -6.421875 C 1.972656 -6.492188 2.25 -6.53125 2.5 -6.53125 C 3.164062 -6.53125 3.695312 -6.363281 4.09375 -6.03125 C 4.488281 -5.695312 4.6875 -5.253906 4.6875 -4.703125 C 4.6875 -4.429688 4.632812 -4.175781 4.53125 -3.9375 C 4.4375 -3.707031 4.257812 -3.429688 4 -3.109375 C 3.925781 -3.023438 3.695312 -2.785156 3.3125 -2.390625 C 2.925781 -1.992188 2.382812 -1.441406 1.6875 -0.734375 Z M 1.6875 -0.734375 "/>
</g>
<g id="glyph-0-18">
<path d="M 3.5625 -3.453125 C 3.976562 -3.367188 4.300781 -3.1875 4.53125 -2.90625 C 4.769531 -2.625 4.890625 -2.273438 4.890625 -1.859375 C 4.890625 -1.234375 4.671875 -0.742188 4.234375 -0.390625 C 3.804688 -0.046875 3.191406 0.125 2.390625 0.125 C 2.117188 0.125 1.835938 0.0976562 1.546875 0.046875 C 1.265625 -0.00390625 0.972656 -0.0820312 0.671875 -0.1875 L 0.671875 -1.03125 C 0.910156 -0.894531 1.171875 -0.789062 1.453125 -0.71875 C 1.742188 -0.644531 2.046875 -0.609375 2.359375 -0.609375 C 2.898438 -0.609375 3.3125 -0.710938 3.59375 -0.921875 C 3.882812 -1.140625 4.03125 -1.453125 4.03125 -1.859375 C 4.03125 -2.242188 3.894531 -2.539062 3.625 -2.75 C 3.363281 -2.96875 3 -3.078125 2.53125 -3.078125 L 1.78125 -3.078125 L 1.78125 -3.78125 L 2.5625 -3.78125 C 2.988281 -3.78125 3.3125 -3.863281 3.53125 -4.03125 C 3.757812 -4.207031 3.875 -4.457031 3.875 -4.78125 C 3.875 -5.101562 3.753906 -5.351562 3.515625 -5.53125 C 3.285156 -5.707031 2.957031 -5.796875 2.53125 -5.796875 C 2.289062 -5.796875 2.035156 -5.769531 1.765625 -5.71875 C 1.492188 -5.664062 1.191406 -5.585938 0.859375 -5.484375 L 0.859375 -6.25 C 1.191406 -6.34375 1.5 -6.410156 1.78125 -6.453125 C 2.070312 -6.503906 2.347656 -6.53125 2.609375 -6.53125 C 3.265625 -6.53125 3.78125 -6.378906 4.15625 -6.078125 C 4.539062 -5.773438 4.734375 -5.367188 4.734375 -4.859375 C 4.734375 -4.503906 4.628906 -4.203125 4.421875 -3.953125 C 4.222656 -3.710938 3.9375 -3.546875 3.5625 -3.453125 Z M 3.5625 -3.453125 "/>
</g>
<g id="glyph-0-19">
<path d="M 3.328125 -5.65625 L 1.140625 -2.234375 L 3.328125 -2.234375 Z M 3.09375 -6.40625 L 4.1875 -6.40625 L 4.1875 -2.234375 L 5.109375 -2.234375 L 5.109375 -1.515625 L 4.1875 -1.515625 L 4.1875 0 L 3.328125 0 L 3.328125 -1.515625 L 0.421875 -1.515625 L 0.421875 -2.34375 Z M 3.09375 -6.40625 "/>
</g>
<g id="glyph-0-20">
<path d="M 1.734375 -3.0625 L 1.734375 -0.71875 L 3.125 -0.71875 C 3.59375 -0.71875 3.9375 -0.8125 4.15625 -1 C 4.382812 -1.195312 4.5 -1.492188 4.5 -1.890625 C 4.5 -2.285156 4.382812 -2.578125 4.15625 -2.765625 C 3.9375 -2.960938 3.59375 -3.0625 3.125 -3.0625 Z M 1.734375 -5.703125 L 1.734375 -3.765625 L 3.015625 -3.765625 C 3.441406 -3.765625 3.757812 -3.84375 3.96875 -4 C 4.175781 -4.164062 4.28125 -4.410156 4.28125 -4.734375 C 4.28125 -5.054688 4.175781 -5.296875 3.96875 -5.453125 C 3.757812 -5.617188 3.441406 -5.703125 3.015625 -5.703125 Z M 0.859375 -6.40625 L 3.078125 -6.40625 C 3.742188 -6.40625 4.253906 -6.269531 4.609375 -6 C 4.960938 -5.726562 5.140625 -5.335938 5.140625 -4.828125 C 5.140625 -4.429688 5.046875 -4.117188 4.859375 -3.890625 C 4.679688 -3.660156 4.414062 -3.515625 4.0625 -3.453125 C 4.488281 -3.359375 4.816406 -3.164062 5.046875 -2.875 C 5.285156 -2.59375 5.40625 -2.234375 5.40625 -1.796875 C 5.40625 -1.222656 5.210938 -0.78125 4.828125 -0.46875 C 4.441406 -0.15625 3.890625 0 3.171875 0 L 0.859375 0 Z M 0.859375 -6.40625 "/>
</g>
<g id="glyph-0-21">
<path d="M 2.6875 -4.25 C 2.269531 -4.25 1.9375 -4.082031 1.6875 -3.75 C 1.4375 -3.425781 1.3125 -2.976562 1.3125 -2.40625 C 1.3125 -1.820312 1.429688 -1.363281 1.671875 -1.03125 C 1.921875 -0.707031 2.257812 -0.546875 2.6875 -0.546875 C 3.113281 -0.546875 3.445312 -0.710938 3.6875 -1.046875 C 3.9375 -1.378906 4.0625 -1.832031 4.0625 -2.40625 C 4.0625 -2.96875 3.9375 -3.414062 3.6875 -3.75 C 3.445312 -4.082031 3.113281 -4.25 2.6875 -4.25 Z M 2.6875 -4.921875 C 3.375 -4.921875 3.914062 -4.695312 4.3125 -4.25 C 4.707031 -3.8125 4.90625 -3.195312 4.90625 -2.40625 C 4.90625 -1.613281 4.707031 -0.992188 4.3125 -0.546875 C 3.914062 -0.0976562 3.375 0.125 2.6875 0.125 C 2 0.125 1.457031 -0.0976562 1.0625 -0.546875 C 0.675781 -0.992188 0.484375 -1.613281 0.484375 -2.40625 C 0.484375 -3.195312 0.675781 -3.8125 1.0625 -4.25 C 1.457031 -4.695312 2 -4.921875 2.6875 -4.921875 Z M 2.6875 -4.921875 "/>
</g>
<g id="glyph-0-22">
<path d="M 3.609375 -4.078125 C 3.523438 -4.128906 3.429688 -4.164062 3.328125 -4.1875 C 3.222656 -4.207031 3.109375 -4.21875 2.984375 -4.21875 C 2.535156 -4.21875 2.191406 -4.070312 1.953125 -3.78125 C 1.710938 -3.488281 1.59375 -3.070312 1.59375 -2.53125 L 1.59375 0 L 0.796875 0 L 0.796875 -4.8125 L 1.59375 -4.8125 L 1.59375 -4.0625 C 1.757812 -4.351562 1.972656 -4.566406 2.234375 -4.703125 C 2.503906 -4.847656 2.832031 -4.921875 3.21875 -4.921875 C 3.269531 -4.921875 3.328125 -4.914062 3.390625 -4.90625 C 3.453125 -4.90625 3.523438 -4.898438 3.609375 -4.890625 Z M 3.609375 -4.078125 "/>
</g>
<g id="glyph-0-23">
</g>
<g id="glyph-0-24">
<path d="M 0.375 -4.8125 L 1.15625 -4.8125 L 2.140625 -1.0625 L 3.125 -4.8125 L 4.0625 -4.8125 L 5.046875 -1.0625 L 6.03125 -4.8125 L 6.828125 -4.8125 L 5.5625 0 L 4.640625 0 L 3.59375 -3.9375 L 2.5625 0 L 1.625 0 Z M 0.375 -4.8125 "/>
</g>
<g id="glyph-0-25">
<path d="M 1.609375 -6.171875 L 1.609375 -4.8125 L 3.234375 -4.8125 L 3.234375 -4.203125 L 1.609375 -4.203125 L 1.609375 -1.578125 C 1.609375 -1.191406 1.660156 -0.941406 1.765625 -0.828125 C 1.878906 -0.710938 2.097656 -0.65625 2.421875 -0.65625 L 3.234375 -0.65625 L 3.234375 0 L 2.421875 0 C 1.816406 0 1.394531 -0.113281 1.15625 -0.34375 C 0.925781 -0.570312 0.8125 -0.984375 0.8125 -1.578125 L 0.8125 -4.203125 L 0.234375 -4.203125 L 0.234375 -4.8125 L 0.8125 -4.8125 L 0.8125 -6.171875 Z M 1.609375 -6.171875 "/>
</g>
<g id="glyph-0-26">
<path d="M 3 -5.5625 L 1.828125 -2.359375 L 4.1875 -2.359375 Z M 2.515625 -6.40625 L 3.5 -6.40625 L 5.9375 0 L 5.046875 0 L 4.453125 -1.640625 L 1.5625 -1.640625 L 0.984375 0 L 0.0625 0 Z M 2.515625 -6.40625 "/>
</g>
<g id="glyph-1-0">
<path d="M 3.765625 -6.953125 L 2.28125 -2.953125 L 5.234375 -2.953125 Z M 3.140625 -8.015625 L 4.375 -8.015625 L 7.4375 0 L 6.3125 0 L 5.578125 -2.0625 L 1.953125 -2.0625 L 1.234375 0 L 0.09375 0 Z M 3.140625 -8.015625 "/>
</g>
<g id="glyph-1-1">
<path d="M 5.359375 -3 C 5.359375 -3.726562 5.207031 -4.296875 4.90625 -4.703125 C 4.601562 -5.117188 4.191406 -5.328125 3.671875 -5.328125 C 3.148438 -5.328125 2.738281 -5.117188 2.4375 -4.703125 C 2.144531 -4.296875 2 -3.726562 2 -3 C 2 -2.269531 2.144531 -1.695312 2.4375 -1.28125 C 2.738281 -0.875 3.148438 -0.671875 3.671875 -0.671875 C 4.191406 -0.671875 4.601562 -0.875 4.90625 -1.28125 C 5.207031 -1.695312 5.359375 -2.269531 5.359375 -3 Z M 2 -5.109375 C 2.195312 -5.460938 2.453125 -5.722656 2.765625 -5.890625 C 3.085938 -6.066406 3.472656 -6.15625 3.921875 -6.15625 C 4.648438 -6.15625 5.238281 -5.863281 5.6875 -5.28125 C 6.144531 -4.707031 6.375 -3.945312 6.375 -3 C 6.375 -2.050781 6.144531 -1.285156 5.6875 -0.703125 C 5.238281 -0.128906 4.648438 0.15625 3.921875 0.15625 C 3.472656 0.15625 3.085938 0.0703125 2.765625 -0.09375 C 2.453125 -0.269531 2.195312 -0.539062 2 -0.90625 L 2 0 L 1 0 L 1 -8.359375 L 2 -8.359375 Z M 2 -5.109375 "/>
</g>
<g id="glyph-1-2">
<path d="M 4.875 -5.84375 L 4.875 -4.90625 C 4.59375 -5.050781 4.300781 -5.15625 4 -5.21875 C 3.695312 -5.289062 3.382812 -5.328125 3.0625 -5.328125 C 2.570312 -5.328125 2.203125 -5.25 1.953125 -5.09375 C 1.710938 -4.945312 1.59375 -4.726562 1.59375 -4.4375 C 1.59375 -4.207031 1.679688 -4.023438 1.859375 -3.890625 C 2.035156 -3.765625 2.390625 -3.640625 2.921875 -3.515625 L 3.25 -3.4375 C 3.957031 -3.289062 4.457031 -3.078125 4.75 -2.796875 C 5.039062 -2.523438 5.1875 -2.144531 5.1875 -1.65625 C 5.1875 -1.101562 4.96875 -0.660156 4.53125 -0.328125 C 4.09375 -0.00390625 3.484375 0.15625 2.703125 0.15625 C 2.378906 0.15625 2.039062 0.125 1.6875 0.0625 C 1.34375 0 0.976562 -0.09375 0.59375 -0.21875 L 0.59375 -1.234375 C 0.957031 -1.046875 1.316406 -0.90625 1.671875 -0.8125 C 2.023438 -0.71875 2.378906 -0.671875 2.734375 -0.671875 C 3.191406 -0.671875 3.546875 -0.75 3.796875 -0.90625 C 4.046875 -1.070312 4.171875 -1.296875 4.171875 -1.578125 C 4.171875 -1.847656 4.082031 -2.054688 3.90625 -2.203125 C 3.726562 -2.347656 3.332031 -2.484375 2.71875 -2.609375 L 2.375 -2.703125 C 1.757812 -2.828125 1.316406 -3.019531 1.046875 -3.28125 C 0.773438 -3.550781 0.640625 -3.921875 0.640625 -4.390625 C 0.640625 -4.953125 0.835938 -5.382812 1.234375 -5.6875 C 1.640625 -6 2.210938 -6.15625 2.953125 -6.15625 C 3.316406 -6.15625 3.660156 -6.128906 3.984375 -6.078125 C 4.304688 -6.023438 4.601562 -5.945312 4.875 -5.84375 Z M 4.875 -5.84375 "/>
</g>
<g id="glyph-1-3">
<path d="M 3.375 -5.328125 C 2.84375 -5.328125 2.421875 -5.117188 2.109375 -4.703125 C 1.804688 -4.285156 1.65625 -3.71875 1.65625 -3 C 1.65625 -2.28125 1.804688 -1.710938 2.109375 -1.296875 C 2.410156 -0.890625 2.832031 -0.6875 3.375 -0.6875 C 3.894531 -0.6875 4.304688 -0.890625 4.609375 -1.296875 C 4.921875 -1.710938 5.078125 -2.28125 5.078125 -3 C 5.078125 -3.71875 4.921875 -4.285156 4.609375 -4.703125 C 4.304688 -5.117188 3.894531 -5.328125 3.375 -5.328125 Z M 3.375 -6.15625 C 4.226562 -6.15625 4.898438 -5.875 5.390625 -5.3125 C 5.878906 -4.757812 6.125 -3.988281 6.125 -3 C 6.125 -2.019531 5.878906 -1.25 5.390625 -0.6875 C 4.898438 -0.125 4.226562 0.15625 3.375 0.15625 C 2.507812 0.15625 1.832031 -0.125 1.34375 -0.6875 C 0.851562 -1.25 0.609375 -2.019531 0.609375 -3 C 0.609375 -3.988281 0.851562 -4.757812 1.34375 -5.3125 C 1.832031 -5.875 2.507812 -6.15625 3.375 -6.15625 Z M 3.375 -6.15625 "/>
</g>
<g id="glyph-1-4">
<path d="M 1.03125 -8.359375 L 2.03125 -8.359375 L 2.03125 0 L 1.03125 0 Z M 1.03125 -8.359375 "/>
</g>
<g id="glyph-1-5">
<path d="M 0.9375 -2.375 L 0.9375 -6.015625 L 1.921875 -6.015625 L 1.921875 -2.40625 C 1.921875 -1.84375 2.03125 -1.414062 2.25 -1.125 C 2.476562 -0.84375 2.8125 -0.703125 3.25 -0.703125 C 3.789062 -0.703125 4.210938 -0.867188 4.515625 -1.203125 C 4.828125 -1.546875 4.984375 -2.015625 4.984375 -2.609375 L 4.984375 -6.015625 L 5.96875 -6.015625 L 5.96875 0 L 4.984375 0 L 4.984375 -0.921875 C 4.742188 -0.554688 4.460938 -0.285156 4.140625 -0.109375 C 3.828125 0.0664062 3.460938 0.15625 3.046875 0.15625 C 2.359375 0.15625 1.832031 -0.0546875 1.46875 -0.484375 C 1.113281 -0.921875 0.9375 -1.550781 0.9375 -2.375 Z M 3.421875 -6.15625 Z M 3.421875 -6.15625 "/>
</g>
<g id="glyph-1-6">
<path d="M 2.015625 -7.71875 L 2.015625 -6.015625 L 4.046875 -6.015625 L 4.046875 -5.25 L 2.015625 -5.25 L 2.015625 -1.984375 C 2.015625 -1.492188 2.082031 -1.175781 2.21875 -1.03125 C 2.351562 -0.894531 2.625 -0.828125 3.03125 -0.828125 L 4.046875 -0.828125 L 4.046875 0 L 3.03125 0 C 2.269531 0 1.742188 -0.140625 1.453125 -0.421875 C 1.160156 -0.710938 1.015625 -1.234375 1.015625 -1.984375 L 1.015625 -5.25 L 0.296875 -5.25 L 0.296875 -6.015625 L 1.015625 -6.015625 L 1.015625 -7.71875 Z M 2.015625 -7.71875 "/>
</g>
<g id="glyph-1-7">
<path d="M 6.1875 -3.25 L 6.1875 -2.765625 L 1.640625 -2.765625 C 1.679688 -2.085938 1.882812 -1.570312 2.25 -1.21875 C 2.613281 -0.863281 3.125 -0.6875 3.78125 -0.6875 C 4.164062 -0.6875 4.535156 -0.734375 4.890625 -0.828125 C 5.242188 -0.921875 5.597656 -1.054688 5.953125 -1.234375 L 5.953125 -0.3125 C 5.597656 -0.15625 5.234375 -0.0390625 4.859375 0.03125 C 4.484375 0.113281 4.109375 0.15625 3.734375 0.15625 C 2.765625 0.15625 2 -0.117188 1.4375 -0.671875 C 0.882812 -1.234375 0.609375 -1.992188 0.609375 -2.953125 C 0.609375 -3.929688 0.875 -4.707031 1.40625 -5.28125 C 1.9375 -5.863281 2.65625 -6.15625 3.5625 -6.15625 C 4.363281 -6.15625 5 -5.894531 5.46875 -5.375 C 5.945312 -4.851562 6.1875 -4.144531 6.1875 -3.25 Z M 5.1875 -3.546875 C 5.1875 -4.085938 5.035156 -4.519531 4.734375 -4.84375 C 4.441406 -5.164062 4.050781 -5.328125 3.5625 -5.328125 C 3.007812 -5.328125 2.566406 -5.171875 2.234375 -4.859375 C 1.910156 -4.546875 1.722656 -4.109375 1.671875 -3.546875 Z M 5.1875 -3.546875 "/>
</g>
<g id="glyph-1-8">
</g>
<g id="glyph-1-9">
<path d="M 5.890625 -7.75 L 5.890625 -6.703125 C 5.472656 -6.898438 5.082031 -7.046875 4.71875 -7.140625 C 4.351562 -7.234375 4 -7.28125 3.65625 -7.28125 C 3.070312 -7.28125 2.617188 -7.164062 2.296875 -6.9375 C 1.972656 -6.707031 1.8125 -6.382812 1.8125 -5.96875 C 1.8125 -5.613281 1.914062 -5.34375 2.125 -5.15625 C 2.34375 -4.976562 2.75 -4.832031 3.34375 -4.71875 L 4 -4.59375 C 4.8125 -4.4375 5.410156 -4.160156 5.796875 -3.765625 C 6.179688 -3.378906 6.375 -2.863281 6.375 -2.21875 C 6.375 -1.4375 6.113281 -0.84375 5.59375 -0.4375 C 5.070312 -0.0390625 4.304688 0.15625 3.296875 0.15625 C 2.921875 0.15625 2.515625 0.109375 2.078125 0.015625 C 1.648438 -0.0664062 1.207031 -0.191406 0.75 -0.359375 L 0.75 -1.46875 C 1.195312 -1.21875 1.628906 -1.03125 2.046875 -0.90625 C 2.472656 -0.78125 2.890625 -0.71875 3.296875 -0.71875 C 3.921875 -0.71875 4.398438 -0.835938 4.734375 -1.078125 C 5.066406 -1.328125 5.234375 -1.675781 5.234375 -2.125 C 5.234375 -2.519531 5.113281 -2.828125 4.875 -3.046875 C 4.632812 -3.273438 4.238281 -3.445312 3.6875 -3.5625 L 3.03125 -3.6875 C 2.21875 -3.84375 1.628906 -4.09375 1.265625 -4.4375 C 0.898438 -4.78125 0.71875 -5.257812 0.71875 -5.875 C 0.71875 -6.582031 0.96875 -7.140625 1.46875 -7.546875 C 1.96875 -7.960938 2.660156 -8.171875 3.546875 -8.171875 C 3.921875 -8.171875 4.300781 -8.132812 4.6875 -8.0625 C 5.082031 -7.988281 5.484375 -7.882812 5.890625 -7.75 Z M 5.890625 -7.75 "/>
</g>
<g id="glyph-1-10">
<path d="M 3.765625 -3.03125 C 2.972656 -3.03125 2.421875 -2.9375 2.109375 -2.75 C 1.804688 -2.5625 1.65625 -2.25 1.65625 -1.8125 C 1.65625 -1.46875 1.769531 -1.191406 2 -0.984375 C 2.226562 -0.773438 2.539062 -0.671875 2.9375 -0.671875 C 3.488281 -0.671875 3.925781 -0.863281 4.25 -1.25 C 4.582031 -1.644531 4.75 -2.160156 4.75 -2.796875 L 4.75 -3.03125 Z M 5.734375 -3.4375 L 5.734375 0 L 4.75 0 L 4.75 -0.90625 C 4.53125 -0.539062 4.25 -0.269531 3.90625 -0.09375 C 3.570312 0.0703125 3.160156 0.15625 2.671875 0.15625 C 2.054688 0.15625 1.566406 -0.015625 1.203125 -0.359375 C 0.835938 -0.703125 0.65625 -1.164062 0.65625 -1.75 C 0.65625 -2.425781 0.878906 -2.9375 1.328125 -3.28125 C 1.785156 -3.625 2.46875 -3.796875 3.375 -3.796875 L 4.75 -3.796875 L 4.75 -3.890625 C 4.75 -4.347656 4.597656 -4.703125 4.296875 -4.953125 C 4.003906 -5.203125 3.585938 -5.328125 3.046875 -5.328125 C 2.703125 -5.328125 2.363281 -5.285156 2.03125 -5.203125 C 1.707031 -5.117188 1.394531 -4.992188 1.09375 -4.828125 L 1.09375 -5.734375 C 1.457031 -5.878906 1.8125 -5.984375 2.15625 -6.046875 C 2.5 -6.117188 2.828125 -6.15625 3.140625 -6.15625 C 4.015625 -6.15625 4.664062 -5.929688 5.09375 -5.484375 C 5.519531 -5.035156 5.734375 -4.351562 5.734375 -3.4375 Z M 5.734375 -3.4375 "/>
</g>
<g id="glyph-1-11">
<path d="M 6.03125 -3.625 L 6.03125 0 L 5.046875 0 L 5.046875 -3.59375 C 5.046875 -4.164062 4.9375 -4.59375 4.71875 -4.875 C 4.5 -5.15625 4.164062 -5.296875 3.71875 -5.296875 C 3.1875 -5.296875 2.765625 -5.125 2.453125 -4.78125 C 2.148438 -4.445312 2 -3.988281 2 -3.40625 L 2 0 L 1 0 L 1 -6.015625 L 2 -6.015625 L 2 -5.078125 C 2.226562 -5.441406 2.503906 -5.710938 2.828125 -5.890625 C 3.148438 -6.066406 3.519531 -6.15625 3.9375 -6.15625 C 4.625 -6.15625 5.144531 -5.941406 5.5 -5.515625 C 5.851562 -5.085938 6.03125 -4.457031 6.03125 -3.625 Z M 6.03125 -3.625 "/>
</g>
<g id="glyph-1-12">
<path d="M 5 -5.109375 L 5 -8.359375 L 5.984375 -8.359375 L 5.984375 0 L 5 0 L 5 -0.90625 C 4.789062 -0.539062 4.523438 -0.269531 4.203125 -0.09375 C 3.890625 0.0703125 3.507812 0.15625 3.0625 0.15625 C 2.34375 0.15625 1.753906 -0.128906 1.296875 -0.703125 C 0.835938 -1.285156 0.609375 -2.050781 0.609375 -3 C 0.609375 -3.945312 0.835938 -4.707031 1.296875 -5.28125 C 1.753906 -5.863281 2.34375 -6.15625 3.0625 -6.15625 C 3.507812 -6.15625 3.890625 -6.066406 4.203125 -5.890625 C 4.523438 -5.722656 4.789062 -5.460938 5 -5.109375 Z M 1.625 -3 C 1.625 -2.269531 1.773438 -1.695312 2.078125 -1.28125 C 2.378906 -0.875 2.789062 -0.671875 3.3125 -0.671875 C 3.832031 -0.671875 4.242188 -0.875 4.546875 -1.28125 C 4.847656 -1.695312 5 -2.269531 5 -3 C 5 -3.726562 4.847656 -4.296875 4.546875 -4.703125 C 4.242188 -5.117188 3.832031 -5.328125 3.3125 -5.328125 C 2.789062 -5.328125 2.378906 -5.117188 2.078125 -4.703125 C 1.773438 -4.296875 1.625 -3.726562 1.625 -3 Z M 1.625 -3 "/>
</g>
<g id="glyph-1-13">
<path d="M 4.515625 -5.09375 C 4.410156 -5.15625 4.289062 -5.203125 4.15625 -5.234375 C 4.03125 -5.265625 3.890625 -5.28125 3.734375 -5.28125 C 3.171875 -5.28125 2.738281 -5.097656 2.4375 -4.734375 C 2.144531 -4.367188 2 -3.847656 2 -3.171875 L 2 0 L 1 0 L 1 -6.015625 L 2 -6.015625 L 2 -5.078125 C 2.195312 -5.441406 2.460938 -5.710938 2.796875 -5.890625 C 3.128906 -6.066406 3.535156 -6.15625 4.015625 -6.15625 C 4.085938 -6.15625 4.160156 -6.148438 4.234375 -6.140625 C 4.316406 -6.140625 4.410156 -6.128906 4.515625 -6.109375 Z M 4.515625 -5.09375 "/>
</g>
<g id="glyph-1-14">
<path d="M 1.03125 -6.015625 L 2.03125 -6.015625 L 2.03125 0 L 1.03125 0 Z M 1.03125 -8.359375 L 2.03125 -8.359375 L 2.03125 -7.109375 L 1.03125 -7.109375 Z M 1.03125 -8.359375 "/>
</g>
<g id="glyph-1-15">
<path d="M 0.609375 -6.015625 L 5.296875 -6.015625 L 5.296875 -5.109375 L 1.578125 -0.796875 L 5.296875 -0.796875 L 5.296875 0 L 0.46875 0 L 0.46875 -0.90625 L 4.1875 -5.21875 L 0.609375 -5.21875 Z M 0.609375 -6.015625 "/>
</g>
<g id="glyph-1-16">
<path d="M 1.078125 -8.015625 L 2.703125 -8.015625 L 4.75 -2.5625 L 6.796875 -8.015625 L 8.421875 -8.015625 L 8.421875 0 L 7.359375 0 L 7.359375 -7.046875 L 5.296875 -1.546875 L 4.203125 -1.546875 L 2.125 -7.046875 L 2.125 0 L 1.078125 0 Z M 1.078125 -8.015625 "/>
</g>
<g id="glyph-1-17">
<path d="M 2.171875 -7.125 L 2.171875 -0.890625 L 3.46875 -0.890625 C 4.582031 -0.890625 5.394531 -1.140625 5.90625 -1.640625 C 6.414062 -2.140625 6.671875 -2.929688 6.671875 -4.015625 C 6.671875 -5.085938 6.414062 -5.875 5.90625 -6.375 C 5.394531 -6.875 4.582031 -7.125 3.46875 -7.125 Z M 1.078125 -8.015625 L 3.3125 -8.015625 C 4.863281 -8.015625 6.003906 -7.691406 6.734375 -7.046875 C 7.460938 -6.398438 7.828125 -5.390625 7.828125 -4.015625 C 7.828125 -2.628906 7.457031 -1.613281 6.71875 -0.96875 C 5.988281 -0.320312 4.851562 0 3.3125 0 L 1.078125 0 Z M 1.078125 -8.015625 "/>
</g>
<g id="glyph-1-18">
<path d="M 7.78125 -8.359375 L 7.78125 -7.53125 L 6.84375 -7.53125 C 6.488281 -7.53125 6.238281 -7.457031 6.09375 -7.3125 C 5.957031 -7.175781 5.890625 -6.921875 5.890625 -6.546875 L 5.890625 -6.015625 L 7.53125 -6.015625 L 7.53125 -5.25 L 5.890625 -5.25 L 5.890625 0 L 4.90625 0 L 4.90625 -5.25 L 2.1875 -5.25 L 2.1875 0 L 1.203125 0 L 1.203125 -5.25 L 0.25 -5.25 L 0.25 -6.015625 L 1.203125 -6.015625 L 1.203125 -6.4375 C 1.203125 -7.101562 1.351562 -7.585938 1.65625 -7.890625 C 1.96875 -8.203125 2.460938 -8.359375 3.140625 -8.359375 L 4.078125 -8.359375 L 4.078125 -7.53125 L 3.140625 -7.53125 C 2.785156 -7.53125 2.535156 -7.460938 2.390625 -7.328125 C 2.253906 -7.179688 2.1875 -6.921875 2.1875 -6.546875 L 2.1875 -6.015625 L 4.90625 -6.015625 L 4.90625 -6.4375 C 4.90625 -7.101562 5.0625 -7.585938 5.375 -7.890625 C 5.6875 -8.203125 6.179688 -8.359375 6.859375 -8.359375 Z M 7.78125 -8.359375 "/>
</g>
<g id="glyph-1-19">
<path d="M 5.359375 -5.78125 L 5.359375 -4.859375 C 5.085938 -5.015625 4.8125 -5.128906 4.53125 -5.203125 C 4.25 -5.285156 3.960938 -5.328125 3.671875 -5.328125 C 3.035156 -5.328125 2.539062 -5.125 2.1875 -4.71875 C 1.832031 -4.3125 1.65625 -3.738281 1.65625 -3 C 1.65625 -2.269531 1.832031 -1.703125 2.1875 -1.296875 C 2.539062 -0.890625 3.035156 -0.6875 3.671875 -0.6875 C 3.960938 -0.6875 4.25 -0.722656 4.53125 -0.796875 C 4.8125 -0.867188 5.085938 -0.984375 5.359375 -1.140625 L 5.359375 -0.234375 C 5.085938 -0.0976562 4.800781 0 4.5 0.0625 C 4.207031 0.125 3.894531 0.15625 3.5625 0.15625 C 2.65625 0.15625 1.9375 -0.125 1.40625 -0.6875 C 0.875 -1.257812 0.609375 -2.03125 0.609375 -3 C 0.609375 -3.976562 0.875 -4.75 1.40625 -5.3125 C 1.945312 -5.875 2.6875 -6.15625 3.625 -6.15625 C 3.9375 -6.15625 4.234375 -6.125 4.515625 -6.0625 C 4.804688 -6 5.085938 -5.90625 5.359375 -5.78125 Z M 5.359375 -5.78125 "/>
</g>
<g id="glyph-1-20">
<path d="M 5.71875 -4.859375 C 5.96875 -5.304688 6.265625 -5.632812 6.609375 -5.84375 C 6.953125 -6.050781 7.359375 -6.15625 7.828125 -6.15625 C 8.453125 -6.15625 8.929688 -5.9375 9.265625 -5.5 C 9.609375 -5.0625 9.78125 -4.4375 9.78125 -3.625 L 9.78125 0 L 8.78125 0 L 8.78125 -3.59375 C 8.78125 -4.175781 8.675781 -4.601562 8.46875 -4.875 C 8.269531 -5.15625 7.960938 -5.296875 7.546875 -5.296875 C 7.035156 -5.296875 6.628906 -5.125 6.328125 -4.78125 C 6.035156 -4.445312 5.890625 -3.988281 5.890625 -3.40625 L 5.890625 0 L 4.890625 0 L 4.890625 -3.59375 C 4.890625 -4.175781 4.785156 -4.601562 4.578125 -4.875 C 4.378906 -5.15625 4.066406 -5.296875 3.640625 -5.296875 C 3.140625 -5.296875 2.738281 -5.125 2.4375 -4.78125 C 2.144531 -4.445312 2 -3.988281 2 -3.40625 L 2 0 L 1 0 L 1 -6.015625 L 2 -6.015625 L 2 -5.078125 C 2.21875 -5.453125 2.484375 -5.722656 2.796875 -5.890625 C 3.117188 -6.066406 3.492188 -6.15625 3.921875 -6.15625 C 4.359375 -6.15625 4.726562 -6.046875 5.03125 -5.828125 C 5.34375 -5.609375 5.570312 -5.285156 5.71875 -4.859375 Z M 5.71875 -4.859375 "/>
</g>
<g id="glyph-1-21">
<path d="M 2 -0.90625 L 2 2.28125 L 1 2.28125 L 1 -6.015625 L 2 -6.015625 L 2 -5.109375 C 2.195312 -5.460938 2.453125 -5.722656 2.765625 -5.890625 C 3.085938 -6.066406 3.472656 -6.15625 3.921875 -6.15625 C 4.648438 -6.15625 5.238281 -5.863281 5.6875 -5.28125 C 6.144531 -4.707031 6.375 -3.945312 6.375 -3 C 6.375 -2.050781 6.144531 -1.285156 5.6875 -0.703125 C 5.238281 -0.128906 4.648438 0.15625 3.921875 0.15625 C 3.472656 0.15625 3.085938 0.0703125 2.765625 -0.09375 C 2.453125 -0.269531 2.195312 -0.539062 2 -0.90625 Z M 5.359375 -3 C 5.359375 -3.726562 5.207031 -4.296875 4.90625 -4.703125 C 4.601562 -5.117188 4.191406 -5.328125 3.671875 -5.328125 C 3.148438 -5.328125 2.738281 -5.117188 2.4375 -4.703125 C 2.144531 -4.296875 2 -3.726562 2 -3 C 2 -2.269531 2.144531 -1.695312 2.4375 -1.28125 C 2.738281 -0.875 3.148438 -0.671875 3.671875 -0.671875 C 4.191406 -0.671875 4.601562 -0.875 4.90625 -1.28125 C 5.207031 -1.695312 5.359375 -2.269531 5.359375 -3 Z M 5.359375 -3 "/>
</g>
<g id="glyph-2-0">
<path d="M 8.5 -8.890625 L 8.5 -7.515625 C 8.0625 -7.921875 7.59375 -8.222656 7.09375 -8.421875 C 6.601562 -8.628906 6.078125 -8.734375 5.515625 -8.734375 C 4.421875 -8.734375 3.578125 -8.394531 2.984375 -7.71875 C 2.398438 -7.050781 2.109375 -6.078125 2.109375 -4.796875 C 2.109375 -3.535156 2.398438 -2.566406 2.984375 -1.890625 C 3.578125 -1.222656 4.421875 -0.890625 5.515625 -0.890625 C 6.078125 -0.890625 6.601562 -0.988281 7.09375 -1.1875 C 7.59375 -1.382812 8.0625 -1.691406 8.5 -2.109375 L 8.5 -0.734375 C 8.039062 -0.429688 7.554688 -0.203125 7.046875 -0.046875 C 6.546875 0.109375 6.007812 0.1875 5.4375 0.1875 C 3.976562 0.1875 2.828125 -0.253906 1.984375 -1.140625 C 1.148438 -2.035156 0.734375 -3.253906 0.734375 -4.796875 C 0.734375 -6.347656 1.148438 -7.566406 1.984375 -8.453125 C 2.828125 -9.347656 3.976562 -9.796875 5.4375 -9.796875 C 6.019531 -9.796875 6.5625 -9.71875 7.0625 -9.5625 C 7.570312 -9.414062 8.050781 -9.191406 8.5 -8.890625 Z M 8.5 -8.890625 "/>
</g>
<g id="glyph-2-1">
<path d="M 4.046875 -6.390625 C 3.410156 -6.390625 2.90625 -6.140625 2.53125 -5.640625 C 2.164062 -5.148438 1.984375 -4.472656 1.984375 -3.609375 C 1.984375 -2.742188 2.164062 -2.0625 2.53125 -1.5625 C 2.894531 -1.0625 3.398438 -0.8125 4.046875 -0.8125 C 4.671875 -0.8125 5.164062 -1.0625 5.53125 -1.5625 C 5.90625 -2.0625 6.09375 -2.742188 6.09375 -3.609375 C 6.09375 -4.460938 5.90625 -5.140625 5.53125 -5.640625 C 5.164062 -6.140625 4.671875 -6.390625 4.046875 -6.390625 Z M 4.046875 -7.390625 C 5.078125 -7.390625 5.882812 -7.054688 6.46875 -6.390625 C 7.0625 -5.722656 7.359375 -4.796875 7.359375 -3.609375 C 7.359375 -2.421875 7.0625 -1.488281 6.46875 -0.8125 C 5.882812 -0.144531 5.078125 0.1875 4.046875 0.1875 C 3.003906 0.1875 2.191406 -0.144531 1.609375 -0.8125 C 1.023438 -1.488281 0.734375 -2.421875 0.734375 -3.609375 C 0.734375 -4.796875 1.023438 -5.722656 1.609375 -6.390625 C 2.191406 -7.054688 3.003906 -7.390625 4.046875 -7.390625 Z M 4.046875 -7.390625 "/>
</g>
<g id="glyph-2-2">
<path d="M 0.390625 -7.21875 L 1.65625 -7.21875 L 3.90625 -1.15625 L 6.15625 -7.21875 L 7.421875 -7.21875 L 4.71875 0 L 3.09375 0 Z M 0.390625 -7.21875 "/>
</g>
<g id="glyph-2-3">
<path d="M 4.53125 -3.625 C 3.570312 -3.625 2.90625 -3.515625 2.53125 -3.296875 C 2.164062 -3.078125 1.984375 -2.703125 1.984375 -2.171875 C 1.984375 -1.753906 2.117188 -1.421875 2.390625 -1.171875 C 2.671875 -0.929688 3.050781 -0.8125 3.53125 -0.8125 C 4.1875 -0.8125 4.710938 -1.039062 5.109375 -1.5 C 5.503906 -1.96875 5.703125 -2.585938 5.703125 -3.359375 L 5.703125 -3.625 Z M 6.890625 -4.125 L 6.890625 0 L 5.703125 0 L 5.703125 -1.09375 C 5.429688 -0.65625 5.09375 -0.332031 4.6875 -0.125 C 4.289062 0.0820312 3.796875 0.1875 3.203125 0.1875 C 2.472656 0.1875 1.890625 -0.0195312 1.453125 -0.4375 C 1.015625 -0.851562 0.796875 -1.410156 0.796875 -2.109375 C 0.796875 -2.910156 1.066406 -3.519531 1.609375 -3.9375 C 2.148438 -4.351562 2.960938 -4.5625 4.046875 -4.5625 L 5.703125 -4.5625 L 5.703125 -4.671875 C 5.703125 -5.222656 5.519531 -5.644531 5.15625 -5.9375 C 4.800781 -6.238281 4.300781 -6.390625 3.65625 -6.390625 C 3.238281 -6.390625 2.832031 -6.335938 2.4375 -6.234375 C 2.050781 -6.140625 1.679688 -5.992188 1.328125 -5.796875 L 1.328125 -6.890625 C 1.753906 -7.054688 2.171875 -7.179688 2.578125 -7.265625 C 2.992188 -7.347656 3.394531 -7.390625 3.78125 -7.390625 C 4.820312 -7.390625 5.597656 -7.117188 6.109375 -6.578125 C 6.628906 -6.035156 6.890625 -5.21875 6.890625 -4.125 Z M 6.890625 -4.125 "/>
</g>
<g id="glyph-2-4">
<path d="M 5.421875 -6.109375 C 5.296875 -6.191406 5.148438 -6.25 4.984375 -6.28125 C 4.828125 -6.320312 4.65625 -6.34375 4.46875 -6.34375 C 3.800781 -6.34375 3.285156 -6.125 2.921875 -5.6875 C 2.566406 -5.25 2.390625 -4.617188 2.390625 -3.796875 L 2.390625 0 L 1.203125 0 L 1.203125 -7.21875 L 2.390625 -7.21875 L 2.390625 -6.09375 C 2.640625 -6.53125 2.960938 -6.851562 3.359375 -7.0625 C 3.765625 -7.28125 4.253906 -7.390625 4.828125 -7.390625 C 4.898438 -7.390625 4.984375 -7.382812 5.078125 -7.375 C 5.179688 -7.363281 5.296875 -7.347656 5.421875 -7.328125 Z M 5.421875 -6.109375 "/>
</g>
<g id="glyph-2-5">
<path d="M 1.25 -7.21875 L 2.4375 -7.21875 L 2.4375 0 L 1.25 0 Z M 1.25 -10.03125 L 2.4375 -10.03125 L 2.4375 -8.53125 L 1.25 -8.53125 Z M 1.25 -10.03125 "/>
</g>
<g id="glyph-2-6">
<path d="M 2.421875 -9.265625 L 2.421875 -7.21875 L 4.859375 -7.21875 L 4.859375 -6.296875 L 2.421875 -6.296875 L 2.421875 -2.375 C 2.421875 -1.789062 2.5 -1.414062 2.65625 -1.25 C 2.820312 -1.082031 3.148438 -1 3.640625 -1 L 4.859375 -1 L 4.859375 0 L 3.640625 0 C 2.722656 0 2.085938 -0.171875 1.734375 -0.515625 C 1.390625 -0.859375 1.21875 -1.476562 1.21875 -2.375 L 1.21875 -6.296875 L 0.359375 -6.296875 L 0.359375 -7.21875 L 1.21875 -7.21875 L 1.21875 -9.265625 Z M 2.421875 -9.265625 "/>
</g>
<g id="glyph-2-7">
<path d="M 7.421875 -3.90625 L 7.421875 -3.328125 L 1.96875 -3.328125 C 2.019531 -2.515625 2.265625 -1.890625 2.703125 -1.453125 C 3.140625 -1.023438 3.753906 -0.8125 4.546875 -0.8125 C 5.003906 -0.8125 5.445312 -0.867188 5.875 -0.984375 C 6.300781 -1.097656 6.722656 -1.265625 7.140625 -1.484375 L 7.140625 -0.375 C 6.710938 -0.1875 6.273438 -0.046875 5.828125 0.046875 C 5.378906 0.140625 4.925781 0.1875 4.46875 0.1875 C 3.320312 0.1875 2.410156 -0.144531 1.734375 -0.8125 C 1.066406 -1.488281 0.734375 -2.398438 0.734375 -3.546875 C 0.734375 -4.722656 1.050781 -5.65625 1.6875 -6.34375 C 2.320312 -7.039062 3.179688 -7.390625 4.265625 -7.390625 C 5.234375 -7.390625 6 -7.078125 6.5625 -6.453125 C 7.132812 -5.828125 7.421875 -4.976562 7.421875 -3.90625 Z M 6.234375 -4.25 C 6.222656 -4.90625 6.039062 -5.425781 5.6875 -5.8125 C 5.332031 -6.195312 4.863281 -6.390625 4.28125 -6.390625 C 3.613281 -6.390625 3.082031 -6.203125 2.6875 -5.828125 C 2.289062 -5.453125 2.0625 -4.925781 2 -4.25 Z M 6.234375 -4.25 "/>
</g>
<g id="glyph-2-8">
</g>
<g id="glyph-2-9">
<path d="M 2.59375 -4.59375 L 2.59375 -1.0625 L 4.6875 -1.0625 C 5.382812 -1.0625 5.898438 -1.207031 6.234375 -1.5 C 6.578125 -1.789062 6.75 -2.238281 6.75 -2.84375 C 6.75 -3.4375 6.578125 -3.875 6.234375 -4.15625 C 5.898438 -4.445312 5.382812 -4.59375 4.6875 -4.59375 Z M 2.59375 -8.5625 L 2.59375 -5.65625 L 4.53125 -5.65625 C 5.164062 -5.65625 5.640625 -5.773438 5.953125 -6.015625 C 6.265625 -6.253906 6.421875 -6.617188 6.421875 -7.109375 C 6.421875 -7.585938 6.265625 -7.945312 5.953125 -8.1875 C 5.640625 -8.4375 5.164062 -8.5625 4.53125 -8.5625 Z M 1.296875 -9.625 L 4.625 -9.625 C 5.613281 -9.625 6.375 -9.414062 6.90625 -9 C 7.445312 -8.59375 7.71875 -8.007812 7.71875 -7.25 C 7.71875 -6.65625 7.578125 -6.179688 7.296875 -5.828125 C 7.023438 -5.484375 6.625 -5.269531 6.09375 -5.1875 C 6.738281 -5.050781 7.238281 -4.765625 7.59375 -4.328125 C 7.945312 -3.890625 8.125 -3.34375 8.125 -2.6875 C 8.125 -1.832031 7.832031 -1.171875 7.25 -0.703125 C 6.664062 -0.234375 5.832031 0 4.75 0 L 1.296875 0 Z M 1.296875 -9.625 "/>
</g>
<g id="glyph-2-10">
<path d="M 1.25 -10.03125 L 2.4375 -10.03125 L 2.4375 0 L 1.25 0 Z M 1.25 -10.03125 "/>
</g>
<g id="glyph-2-11">
<path d="M 7.25 -4.359375 L 7.25 0 L 6.0625 0 L 6.0625 -4.3125 C 6.0625 -5 5.925781 -5.507812 5.65625 -5.84375 C 5.394531 -6.1875 5 -6.359375 4.46875 -6.359375 C 3.820312 -6.359375 3.3125 -6.15625 2.9375 -5.75 C 2.570312 -5.34375 2.390625 -4.785156 2.390625 -4.078125 L 2.390625 0 L 1.203125 0 L 1.203125 -7.21875 L 2.390625 -7.21875 L 2.390625 -6.09375 C 2.671875 -6.53125 3.003906 -6.851562 3.390625 -7.0625 C 3.773438 -7.28125 4.21875 -7.390625 4.71875 -7.390625 C 5.550781 -7.390625 6.179688 -7.132812 6.609375 -6.625 C 7.035156 -6.113281 7.25 -5.359375 7.25 -4.359375 Z M 7.25 -4.359375 "/>
</g>
<g id="glyph-2-12">
<path d="M 6.4375 -6.9375 L 6.4375 -5.828125 C 6.101562 -6.015625 5.765625 -6.15625 5.421875 -6.25 C 5.085938 -6.34375 4.75 -6.390625 4.40625 -6.390625 C 3.632812 -6.390625 3.035156 -6.144531 2.609375 -5.65625 C 2.191406 -5.164062 1.984375 -4.484375 1.984375 -3.609375 C 1.984375 -2.722656 2.191406 -2.035156 2.609375 -1.546875 C 3.035156 -1.054688 3.632812 -0.8125 4.40625 -0.8125 C 4.75 -0.8125 5.085938 -0.859375 5.421875 -0.953125 C 5.765625 -1.046875 6.101562 -1.1875 6.4375 -1.375 L 6.4375 -0.28125 C 6.101562 -0.125 5.757812 -0.0078125 5.40625 0.0625 C 5.050781 0.144531 4.675781 0.1875 4.28125 0.1875 C 3.195312 0.1875 2.332031 -0.148438 1.6875 -0.828125 C 1.050781 -1.515625 0.734375 -2.441406 0.734375 -3.609375 C 0.734375 -4.785156 1.054688 -5.707031 1.703125 -6.375 C 2.347656 -7.050781 3.234375 -7.390625 4.359375 -7.390625 C 4.722656 -7.390625 5.078125 -7.351562 5.421875 -7.28125 C 5.773438 -7.207031 6.113281 -7.09375 6.4375 -6.9375 Z M 6.4375 -6.9375 "/>
</g>
</g>
<clipPath id="clip-0">
<path clip-rule="nonzero" d="M 40.410156 23.957031 L 596.84375 23.957031 L 596.84375 313.96875 L 40.410156 313.96875 Z M 40.410156 23.957031 "/>
</clipPath>
<clipPath id="clip-1">
<path clip-rule="nonzero" d="M 65 23.957031 L 67 23.957031 L 67 313.96875 L 65 313.96875 Z M 65 23.957031 "/>
</clipPath>
<clipPath id="clip-2">
<path clip-rule="nonzero" d="M 283 23.957031 L 285 23.957031 L 285 313.96875 L 283 313.96875 Z M 283 23.957031 "/>
</clipPath>
<clipPath id="clip-3">
<path clip-rule="nonzero" d="M 40.410156 23.957031 L 596.84375 23.957031 L 596.84375 313.96875 L 40.410156 313.96875 Z M 40.410156 23.957031 "/>
</clipPath>
</defs>
<rect x="-72" y="-36" width="864" height="432" fill="rgb(100%, 100%, 100%)" fill-opacity="1"/>
<g clip-path="url(#clip-0)">
<path fill-rule="nonzero" fill="rgb(100%, 100%, 100%)" fill-opacity="1" d="M 40.410156 313.96875 L 596.84375 313.96875 L 596.84375 23.957031 L 40.410156 23.957031 Z M 40.410156 313.96875 "/>
</g>
<g clip-path="url(#clip-1)">
<path fill="none" stroke-width="1.066978" stroke-linecap="butt" stroke-linejoin="round" stroke="rgb(5.098039%, 5.098039%, 5.098039%)" stroke-opacity="1" stroke-miterlimit="10" d="M 65.703125 313.96875 L 65.703125 23.957031 "/>
</g>
<g clip-path="url(#clip-2)">
<path fill="none" stroke-width="1.066978" stroke-linecap="butt" stroke-linejoin="round" stroke="rgb(7.843137%, 7.843137%, 7.843137%)" stroke-opacity="1" stroke-dasharray="4.267913 4.267913" stroke-miterlimit="10" d="M 283.695312 313.96875 L 283.695312 23.957031 "/>
</g>
<path fill="none" stroke-width="1.707165" stroke-linecap="butt" stroke-linejoin="round" stroke="rgb(88.235294%, 34.117647%, 34.901961%)" stroke-opacity="1" stroke-miterlimit="10" d="M 131.578125 285.902344 L 354.324219 239.128906 L 370.054688 192.351562 L 387.976562 145.578125 L 435.707031 98.800781 L 571.550781 52.023438 "/>
<path fill="none" stroke-width="1.707165" stroke-linecap="butt" stroke-linejoin="round" stroke="rgb(30.588235%, 47.45098%, 65.490196%)" stroke-opacity="1" stroke-miterlimit="10" d="M 74.175781 285.902344 L 182.386719 239.128906 L 198.757812 192.351562 L 203.601562 145.578125 L 226.59375 98.800781 L 163.632812 52.023438 "/>
<path fill-rule="nonzero" fill="rgb(88.235294%, 34.117647%, 34.901961%)" fill-opacity="1" d="M 134.777344 285.902344 C 134.777344 290.171875 128.375 290.171875 128.375 285.902344 C 128.375 281.636719 134.777344 281.636719 134.777344 285.902344 "/>
<path fill-rule="nonzero" fill="rgb(30.588235%, 47.45098%, 65.490196%)" fill-opacity="1" d="M 74.175781 280.925781 L 78.484375 288.394531 L 69.863281 288.394531 Z M 74.175781 280.925781 "/>
<path fill-rule="nonzero" fill="rgb(88.235294%, 34.117647%, 34.901961%)" fill-opacity="1" d="M 357.523438 239.128906 C 357.523438 243.394531 351.125 243.394531 351.125 239.128906 C 351.125 234.859375 357.523438 234.859375 357.523438 239.128906 "/>
<path fill-rule="nonzero" fill="rgb(30.588235%, 47.45098%, 65.490196%)" fill-opacity="1" d="M 182.386719 234.148438 L 186.699219 241.617188 L 178.078125 241.617188 Z M 182.386719 234.148438 "/>
<path fill-rule="nonzero" fill="rgb(88.235294%, 34.117647%, 34.901961%)" fill-opacity="1" d="M 373.253906 192.351562 C 373.253906 196.621094 366.855469 196.621094 366.855469 192.351562 C 366.855469 188.085938 373.253906 188.085938 373.253906 192.351562 "/>
<path fill-rule="nonzero" fill="rgb(30.588235%, 47.45098%, 65.490196%)" fill-opacity="1" d="M 198.757812 187.375 L 203.070312 194.839844 L 194.449219 194.839844 Z M 198.757812 187.375 "/>
<path fill-rule="nonzero" fill="rgb(88.235294%, 34.117647%, 34.901961%)" fill-opacity="1" d="M 391.179688 145.578125 C 391.179688 149.84375 384.777344 149.84375 384.777344 145.578125 C 384.777344 141.308594 391.179688 141.308594 391.179688 145.578125 "/>
<path fill-rule="nonzero" fill="rgb(30.588235%, 47.45098%, 65.490196%)" fill-opacity="1" d="M 203.601562 140.597656 L 207.914062 148.066406 L 199.289062 148.066406 Z M 203.601562 140.597656 "/>
<path fill-rule="nonzero" fill="rgb(88.235294%, 34.117647%, 34.901961%)" fill-opacity="1" d="M 438.90625 98.800781 C 438.90625 103.066406 432.503906 103.066406 432.503906 98.800781 C 432.503906 94.53125 438.90625 94.53125 438.90625 98.800781 "/>
<path fill-rule="nonzero" fill="rgb(30.588235%, 47.45098%, 65.490196%)" fill-opacity="1" d="M 226.59375 93.824219 L 230.902344 101.289062 L 222.28125 101.289062 Z M 226.59375 93.824219 "/>
<path fill-rule="nonzero" fill="rgb(88.235294%, 34.117647%, 34.901961%)" fill-opacity="1" d="M 574.75 52.023438 C 574.75 56.292969 568.351562 56.292969 568.351562 52.023438 C 568.351562 47.757812 574.75 47.757812 574.75 52.023438 "/>
<path fill-rule="nonzero" fill="rgb(30.588235%, 47.45098%, 65.490196%)" fill-opacity="1" d="M 163.632812 47.046875 L 167.945312 54.511719 L 159.324219 54.511719 Z M 163.632812 47.046875 "/>
<g clip-path="url(#clip-3)">
<path fill="none" stroke-width="1.066978" stroke-linecap="round" stroke-linejoin="round" stroke="rgb(0%, 0%, 0%)" stroke-opacity="1" stroke-miterlimit="10" d="M 40.410156 313.96875 L 596.84375 313.96875 L 596.84375 23.957031 L 40.410156 23.957031 Z M 40.410156 313.96875 "/>
</g>
<g fill="rgb(0%, 0%, 0%)" fill-opacity="1">
<use xlink:href="#glyph-0-0" x="17.480469" y="288.570312"/>
<use xlink:href="#glyph-0-1" x="23.480469" y="288.570312"/>
<use xlink:href="#glyph-0-2" x="29.480469" y="288.570312"/>
</g>
<g fill="rgb(0%, 0%, 0%)" fill-opacity="1">
<use xlink:href="#glyph-0-3" x="26.480469" y="241.796875"/>
<use xlink:href="#glyph-0-4" x="32.480469" y="241.796875"/>
</g>
<g fill="rgb(0%, 0%, 0%)" fill-opacity="1">
<use xlink:href="#glyph-0-5" x="5.480469" y="195.019531"/>
<use xlink:href="#glyph-0-6" x="10.480469" y="195.019531"/>
<use xlink:href="#glyph-0-7" x="15.480469" y="195.019531"/>
<use xlink:href="#glyph-0-8" x="20.480469" y="195.019531"/>
<use xlink:href="#glyph-0-9" x="29.480469" y="195.019531"/>
</g>
<g fill="rgb(0%, 0%, 0%)" fill-opacity="1">
<use xlink:href="#glyph-0-10" x="20.480469" y="148.246094"/>
<use xlink:href="#glyph-0-11" x="22.480469" y="148.246094"/>
<use xlink:href="#glyph-0-6" x="27.480469" y="148.246094"/>
<use xlink:href="#glyph-0-4" x="32.480469" y="148.246094"/>
</g>
<g fill="rgb(0%, 0%, 0%)" fill-opacity="1">
<use xlink:href="#glyph-0-12" x="19.480469" y="101.46875"/>
<use xlink:href="#glyph-0-13" x="24.480469" y="101.46875"/>
<use xlink:href="#glyph-0-6" x="30.480469" y="101.46875"/>
</g>
<g fill="rgb(0%, 0%, 0%)" fill-opacity="1">
<use xlink:href="#glyph-0-0" x="18.480469" y="54.691406"/>
<use xlink:href="#glyph-0-8" x="24.480469" y="54.691406"/>
<use xlink:href="#glyph-0-14" x="33.480469" y="54.691406"/>
</g>
<path fill="none" stroke-width="1.066978" stroke-linecap="butt" stroke-linejoin="round" stroke="rgb(20%, 20%, 20%)" stroke-opacity="1" stroke-miterlimit="10" d="M 37.671875 285.902344 L 40.410156 285.902344 "/>
<path fill="none" stroke-width="1.066978" stroke-linecap="butt" stroke-linejoin="round" stroke="rgb(20%, 20%, 20%)" stroke-opacity="1" stroke-miterlimit="10" d="M 37.671875 239.128906 L 40.410156 239.128906 "/>
<path fill="none" stroke-width="1.066978" stroke-linecap="butt" stroke-linejoin="round" stroke="rgb(20%, 20%, 20%)" stroke-opacity="1" stroke-miterlimit="10" d="M 37.671875 192.351562 L 40.410156 192.351562 "/>
<path fill="none" stroke-width="1.066978" stroke-linecap="butt" stroke-linejoin="round" stroke="rgb(20%, 20%, 20%)" stroke-opacity="1" stroke-miterlimit="10" d="M 37.671875 145.578125 L 40.410156 145.578125 "/>
<path fill="none" stroke-width="1.066978" stroke-linecap="butt" stroke-linejoin="round" stroke="rgb(20%, 20%, 20%)" stroke-opacity="1" stroke-miterlimit="10" d="M 37.671875 98.800781 L 40.410156 98.800781 "/>
<path fill="none" stroke-width="1.066978" stroke-linecap="butt" stroke-linejoin="round" stroke="rgb(20%, 20%, 20%)" stroke-opacity="1" stroke-miterlimit="10" d="M 37.671875 52.023438 L 40.410156 52.023438 "/>
<path fill="none" stroke-width="1.066978" stroke-linecap="butt" stroke-linejoin="round" stroke="rgb(20%, 20%, 20%)" stroke-opacity="1" stroke-miterlimit="10" d="M 65.703125 316.710938 L 65.703125 313.96875 "/>
<path fill="none" stroke-width="1.066978" stroke-linecap="butt" stroke-linejoin="round" stroke="rgb(20%, 20%, 20%)" stroke-opacity="1" stroke-miterlimit="10" d="M 174.699219 316.710938 L 174.699219 313.96875 "/>
<path fill="none" stroke-width="1.066978" stroke-linecap="butt" stroke-linejoin="round" stroke="rgb(20%, 20%, 20%)" stroke-opacity="1" stroke-miterlimit="10" d="M 283.695312 316.710938 L 283.695312 313.96875 "/>
<path fill="none" stroke-width="1.066978" stroke-linecap="butt" stroke-linejoin="round" stroke="rgb(20%, 20%, 20%)" stroke-opacity="1" stroke-miterlimit="10" d="M 392.691406 316.710938 L 392.691406 313.96875 "/>
<path fill="none" stroke-width="1.066978" stroke-linecap="butt" stroke-linejoin="round" stroke="rgb(20%, 20%, 20%)" stroke-opacity="1" stroke-miterlimit="10" d="M 501.6875 316.710938 L 501.6875 313.96875 "/>
<g fill="rgb(0%, 0%, 0%)" fill-opacity="1">
<use xlink:href="#glyph-0-15" x="58.203125" y="325.070312"/>
<use xlink:href="#glyph-0-16" x="64.203125" y="325.070312"/>
<use xlink:href="#glyph-0-15" x="67.203125" y="325.070312"/>
</g>
<g fill="rgb(0%, 0%, 0%)" fill-opacity="1">
<use xlink:href="#glyph-0-15" x="167.199219" y="325.070312"/>
<use xlink:href="#glyph-0-16" x="173.199219" y="325.070312"/>
<use xlink:href="#glyph-0-9" x="176.199219" y="325.070312"/>
</g>
<g fill="rgb(0%, 0%, 0%)" fill-opacity="1">
<use xlink:href="#glyph-0-15" x="276.195312" y="325.070312"/>
<use xlink:href="#glyph-0-16" x="282.195312" y="325.070312"/>
<use xlink:href="#glyph-0-17" x="285.195312" y="325.070312"/>
</g>
<g fill="rgb(0%, 0%, 0%)" fill-opacity="1">
<use xlink:href="#glyph-0-15" x="385.191406" y="325.070312"/>
<use xlink:href="#glyph-0-16" x="391.191406" y="325.070312"/>
<use xlink:href="#glyph-0-18" x="394.191406" y="325.070312"/>
</g>
<g fill="rgb(0%, 0%, 0%)" fill-opacity="1">
<use xlink:href="#glyph-0-15" x="494.1875" y="325.070312"/>
<use xlink:href="#glyph-0-16" x="500.1875" y="325.070312"/>
<use xlink:href="#glyph-0-19" x="503.1875" y="325.070312"/>
</g>
<g fill="rgb(0%, 0%, 0%)" fill-opacity="1">
<use xlink:href="#glyph-1-0" x="239.628906" y="338.851562"/>
<use xlink:href="#glyph-1-1" x="247.628906" y="338.851562"/>
<use xlink:href="#glyph-1-2" x="254.628906" y="338.851562"/>
<use xlink:href="#glyph-1-3" x="260.628906" y="338.851562"/>
<use xlink:href="#glyph-1-4" x="267.628906" y="338.851562"/>
<use xlink:href="#glyph-1-5" x="270.628906" y="338.851562"/>
<use xlink:href="#glyph-1-6" x="277.628906" y="338.851562"/>
<use xlink:href="#glyph-1-7" x="281.628906" y="338.851562"/>
<use xlink:href="#glyph-1-8" x="288.628906" y="338.851562"/>
<use xlink:href="#glyph-1-9" x="291.628906" y="338.851562"/>
<use xlink:href="#glyph-1-6" x="298.628906" y="338.851562"/>
<use xlink:href="#glyph-1-10" x="302.628906" y="338.851562"/>
<use xlink:href="#glyph-1-11" x="309.628906" y="338.851562"/>
<use xlink:href="#glyph-1-12" x="316.628906" y="338.851562"/>
<use xlink:href="#glyph-1-10" x="323.628906" y="338.851562"/>
<use xlink:href="#glyph-1-13" x="330.628906" y="338.851562"/>
<use xlink:href="#glyph-1-12" x="334.628906" y="338.851562"/>
<use xlink:href="#glyph-1-14" x="341.628906" y="338.851562"/>
<use xlink:href="#glyph-1-15" x="344.628906" y="338.851562"/>
<use xlink:href="#glyph-1-7" x="350.628906" y="338.851562"/>
<use xlink:href="#glyph-1-12" x="357.628906" y="338.851562"/>
<use xlink:href="#glyph-1-8" x="364.628906" y="338.851562"/>
<use xlink:href="#glyph-1-16" x="367.628906" y="338.851562"/>
<use xlink:href="#glyph-1-7" x="376.628906" y="338.851562"/>
<use xlink:href="#glyph-1-10" x="383.628906" y="338.851562"/>
<use xlink:href="#glyph-1-11" x="390.628906" y="338.851562"/>
</g>
<g fill="rgb(0%, 0%, 0%)" fill-opacity="1">
<use xlink:href="#glyph-1-17" x="287.128906" y="350.730469"/>
<use xlink:href="#glyph-1-14" x="295.128906" y="350.730469"/>
<use xlink:href="#glyph-1-18" x="298.128906" y="350.730469"/>
<use xlink:href="#glyph-1-7" x="306.128906" y="350.730469"/>
<use xlink:href="#glyph-1-13" x="313.128906" y="350.730469"/>
<use xlink:href="#glyph-1-7" x="317.128906" y="350.730469"/>
<use xlink:href="#glyph-1-11" x="324.128906" y="350.730469"/>
<use xlink:href="#glyph-1-19" x="331.128906" y="350.730469"/>
<use xlink:href="#glyph-1-7" x="337.128906" y="350.730469"/>
<use xlink:href="#glyph-1-2" x="344.128906" y="350.730469"/>
</g>
<g fill="rgb(0%, 0%, 0%)" fill-opacity="1">
<use xlink:href="#glyph-1-9" x="613.28125" y="152.65625"/>
<use xlink:href="#glyph-1-10" x="620.28125" y="152.65625"/>
<use xlink:href="#glyph-1-20" x="627.28125" y="152.65625"/>
<use xlink:href="#glyph-1-21" x="638.28125" y="152.65625"/>
<use xlink:href="#glyph-1-4" x="645.28125" y="152.65625"/>
<use xlink:href="#glyph-1-7" x="648.28125" y="152.65625"/>
</g>
<path fill="none" stroke-width="1.707165" stroke-linecap="butt" stroke-linejoin="round" stroke="rgb(88.235294%, 34.117647%, 34.901961%)" stroke-opacity="1" stroke-miterlimit="10" d="M 615.007812 169.0625 L 628.832031 169.0625 "/>
<path fill-rule="nonzero" fill="rgb(88.235294%, 34.117647%, 34.901961%)" fill-opacity="1" d="M 623.875 169.0625 C 623.875 171.671875 619.96875 171.671875 619.96875 169.0625 C 619.96875 166.457031 623.875 166.457031 623.875 169.0625 "/>
<path fill="none" stroke-width="1.707165" stroke-linecap="butt" stroke-linejoin="round" stroke="rgb(30.588235%, 47.45098%, 65.490196%)" stroke-opacity="1" stroke-miterlimit="10" d="M 615.007812 186.34375 L 628.832031 186.34375 "/>
<path fill-rule="nonzero" fill="rgb(30.588235%, 47.45098%, 65.490196%)" fill-opacity="1" d="M 621.921875 183.304688 L 624.554688 187.863281 L 619.289062 187.863281 Z M 621.921875 183.304688 "/>
<g fill="rgb(0%, 0%, 0%)" fill-opacity="1">
<use xlink:href="#glyph-0-20" x="636.042969" y="171.730469"/>
<use xlink:href="#glyph-0-6" x="642.042969" y="171.730469"/>
<use xlink:href="#glyph-0-4" x="647.042969" y="171.730469"/>
<use xlink:href="#glyph-0-21" x="650.042969" y="171.730469"/>
<use xlink:href="#glyph-0-22" x="655.042969" y="171.730469"/>
<use xlink:href="#glyph-0-6" x="658.042969" y="171.730469"/>
<use xlink:href="#glyph-0-23" x="663.042969" y="171.730469"/>
<use xlink:href="#glyph-0-24" x="666.042969" y="171.730469"/>
<use xlink:href="#glyph-0-6" x="673.042969" y="171.730469"/>
<use xlink:href="#glyph-0-14" x="678.042969" y="171.730469"/>
<use xlink:href="#glyph-0-13" x="680.042969" y="171.730469"/>
<use xlink:href="#glyph-0-3" x="686.042969" y="171.730469"/>
<use xlink:href="#glyph-0-25" x="692.042969" y="171.730469"/>
<use xlink:href="#glyph-0-14" x="695.042969" y="171.730469"/>
<use xlink:href="#glyph-0-1" x="697.042969" y="171.730469"/>
<use xlink:href="#glyph-0-13" x="703.042969" y="171.730469"/>
</g>
<g fill="rgb(0%, 0%, 0%)" fill-opacity="1">
<use xlink:href="#glyph-0-26" x="636.042969" y="189.011719"/>
<use xlink:href="#glyph-0-4" x="642.042969" y="189.011719"/>
<use xlink:href="#glyph-0-25" x="645.042969" y="189.011719"/>
<use xlink:href="#glyph-0-6" x="648.042969" y="189.011719"/>
<use xlink:href="#glyph-0-22" x="653.042969" y="189.011719"/>
<use xlink:href="#glyph-0-23" x="657.042969" y="189.011719"/>
<use xlink:href="#glyph-0-24" x="660.042969" y="189.011719"/>
<use xlink:href="#glyph-0-6" x="667.042969" y="189.011719"/>
<use xlink:href="#glyph-0-14" x="672.042969" y="189.011719"/>
<use xlink:href="#glyph-0-13" x="674.042969" y="189.011719"/>
<use xlink:href="#glyph-0-3" x="680.042969" y="189.011719"/>
<use xlink:href="#glyph-0-25" x="686.042969" y="189.011719"/>
<use xlink:href="#glyph-0-14" x="689.042969" y="189.011719"/>
<use xlink:href="#glyph-0-1" x="691.042969" y="189.011719"/>
<use xlink:href="#glyph-0-13" x="697.042969" y="189.011719"/>
</g>
<g fill="rgb(0%, 0%, 0%)" fill-opacity="1">
<use xlink:href="#glyph-2-0" x="259.128906" y="14.732422"/>
<use xlink:href="#glyph-2-1" x="268.128906" y="14.732422"/>
<use xlink:href="#glyph-2-2" x="276.128906" y="14.732422"/>
<use xlink:href="#glyph-2-3" x="284.128906" y="14.732422"/>
<use xlink:href="#glyph-2-4" x="292.128906" y="14.732422"/>
<use xlink:href="#glyph-2-5" x="297.128906" y="14.732422"/>
<use xlink:href="#glyph-2-3" x="301.128906" y="14.732422"/>
<use xlink:href="#glyph-2-6" x="309.128906" y="14.732422"/>
<use xlink:href="#glyph-2-7" x="314.128906" y="14.732422"/>
<use xlink:href="#glyph-2-8" x="322.128906" y="14.732422"/>
<use xlink:href="#glyph-2-9" x="326.128906" y="14.732422"/>
<use xlink:href="#glyph-2-3" x="335.128906" y="14.732422"/>
<use xlink:href="#glyph-2-10" x="343.128906" y="14.732422"/>
<use xlink:href="#glyph-2-3" x="347.128906" y="14.732422"/>
<use xlink:href="#glyph-2-11" x="355.128906" y="14.732422"/>
<use xlink:href="#glyph-2-12" x="363.128906" y="14.732422"/>
<use xlink:href="#glyph-2-7" x="370.128906" y="14.732422"/>
</g>
</svg>
