<?xml version="1.0" encoding="UTF-8"?>
<svg xmlns="http://www.w3.org/2000/svg" xmlns:xlink="http://www.w3.org/1999/xlink" width="720pt" height="324pt" viewBox="0 0 720 324">
<defs>
<g>
<g id="glyph-0-0">
<path d="M 3.46875 -5.828125 C 2.832031 -5.828125 2.328125 -5.59375 1.953125 -5.125 C 1.585938 -4.65625 1.40625 -4.015625 1.40625 -3.203125 C 1.40625 -2.390625 1.585938 -1.75 1.953125 -1.28125 C 2.328125 -0.8125 2.832031 -0.578125 3.46875 -0.578125 C 4.09375 -0.578125 4.585938 -0.8125 4.953125 -1.28125 C 5.328125 -1.75 5.515625 -2.390625 5.515625 -3.203125 C 5.515625 -4.015625 5.328125 -4.65625 4.953125 -5.125 C 4.585938 -5.59375 4.09375 -5.828125 3.46875 -5.828125 Z M 4.6875 -0.109375 L 5.828125 1.140625 L 4.78125 1.140625 L 3.828125 0.109375 C 3.734375 0.109375 3.660156 0.109375 3.609375 0.109375 C 3.554688 0.117188 3.507812 0.125 3.46875 0.125 C 2.5625 0.125 1.835938 -0.175781 1.296875 -0.78125 C 0.765625 -1.382812 0.5 -2.191406 0.5 -3.203125 C 0.5 -4.210938 0.765625 -5.019531 1.296875 -5.625 C 1.835938 -6.226562 2.5625 -6.53125 3.46875 -6.53125 C 4.363281 -6.53125 5.082031 -6.226562 5.625 -5.625 C 6.164062 -5.019531 6.4375 -4.210938 6.4375 -3.203125 C 6.4375 -2.453125 6.285156 -1.8125 5.984375 -1.28125 C 5.679688 -0.757812 5.25 -0.367188 4.6875 -0.109375 Z M 4.6875 -0.109375 "/>
</g>
<g id="glyph-0-1">
<path d="M 0.828125 -4.8125 L 1.625 -4.8125 L 1.625 0 L 0.828125 0 Z M 0.828125 -6.6875 L 1.625 -6.6875 L 1.625 -5.6875 L 0.828125 -5.6875 Z M 0.828125 -6.6875 "/>
</g>
<g id="glyph-0-2">
<path d="M 4.828125 -2.90625 L 4.828125 0 L 4.03125 0 L 4.03125 -2.875 C 4.03125 -3.332031 3.941406 -3.671875 3.765625 -3.890625 C 3.585938 -4.117188 3.320312 -4.234375 2.96875 -4.234375 C 2.539062 -4.234375 2.203125 -4.097656 1.953125 -3.828125 C 1.710938 -3.554688 1.59375 -3.1875 1.59375 -2.71875 L 1.59375 0 L 0.796875 0 L 0.796875 -4.8125 L 1.59375 -4.8125 L 1.59375 -4.0625 C 1.78125 -4.351562 2 -4.566406 2.25 -4.703125 C 2.507812 -4.847656 2.8125 -4.921875 3.15625 -4.921875 C 3.707031 -4.921875 4.125 -4.75 4.40625 -4.40625 C 4.6875 -4.070312 4.828125 -3.570312 4.828125 -2.90625 Z M 4.828125 -2.90625 "/>
</g>
<g id="glyph-0-3">
<path d="M -0.03125 -6.40625 L 5.40625 -6.40625 L 5.40625 -5.6875 L 3.125 -5.6875 L 3.125 0 L 2.25 0 L 2.25 -5.6875 L -0.03125 -5.6875 Z M -0.03125 -6.40625 "/>
</g>
<g id="glyph-0-4">
<path d="M 3.46875 -5.828125 C 2.832031 -5.828125 2.328125 -5.59375 1.953125 -5.125 C 1.585938 -4.65625 1.40625 -4.015625 1.40625 -3.203125 C 1.40625 -2.390625 1.585938 -1.75 1.953125 -1.28125 C 2.328125 -0.8125 2.832031 -0.578125 3.46875 -0.578125 C 4.09375 -0.578125 4.585938 -0.8125 4.953125 -1.28125 C 5.328125 -1.75 5.515625 -2.390625 5.515625 -3.203125 C 5.515625 -4.015625 5.328125 -4.65625 4.953125 -5.125 C 4.585938 -5.59375 4.09375 -5.828125 3.46875 -5.828125 Z M 3.46875 -6.53125 C 4.363281 -6.53125 5.082031 -6.226562 5.625 -5.625 C 6.164062 -5.019531 6.4375 -4.210938 6.4375 -3.203125 C 6.4375 -2.191406 6.164062 -1.382812 5.625 -0.78125 C 5.082031 -0.175781 4.363281 0.125 3.46875 0.125 C 2.5625 0.125 1.835938 -0.171875 1.296875 -0.765625 C 0.765625 -1.367188 0.5 -2.179688 0.5 -3.203125 C 0.5 -4.210938 0.765625 -5.019531 1.296875 -5.625 C 1.835938 -6.226562 2.5625 -6.53125 3.46875 -6.53125 Z M 3.46875 -6.53125 "/>
</g>
<g id="glyph-0-5">
<path d="M 5.671875 -5.921875 L 5.671875 -5 C 5.378906 -5.269531 5.066406 -5.472656 4.734375 -5.609375 C 4.398438 -5.742188 4.046875 -5.8125 3.671875 -5.8125 C 2.941406 -5.8125 2.378906 -5.585938 1.984375 -5.140625 C 1.597656 -4.691406 1.40625 -4.046875 1.40625 -3.203125 C 1.40625 -2.359375 1.597656 -1.710938 1.984375 -1.265625 C 2.378906 -0.816406 2.941406 -0.59375 3.671875 -0.59375 C 4.046875 -0.59375 4.398438 -0.660156 4.734375 -0.796875 C 5.066406 -0.929688 5.378906 -1.132812 5.671875 -1.40625 L 5.671875 -0.5 C 5.359375 -0.289062 5.03125 -0.132812 4.6875 -0.03125 C 4.351562 0.0703125 4 0.125 3.625 0.125 C 2.65625 0.125 1.890625 -0.171875 1.328125 -0.765625 C 0.773438 -1.359375 0.5 -2.171875 0.5 -3.203125 C 0.5 -4.234375 0.773438 -5.046875 1.328125 -5.640625 C 1.890625 -6.234375 2.65625 -6.53125 3.625 -6.53125 C 4.007812 -6.53125 4.367188 -6.476562 4.703125 -6.375 C 5.046875 -6.269531 5.367188 -6.117188 5.671875 -5.921875 Z M 5.671875 -5.921875 "/>
</g>
<g id="glyph-1-0">
<path d="M 2.453125 0.109375 C 3.671875 0.109375 4.453125 -1 4.453125 -3.25 C 4.453125 -5.484375 3.671875 -6.5625 2.453125 -6.5625 C 1.21875 -6.5625 0.4375 -5.484375 0.4375 -3.25 C 0.4375 -1 1.21875 0.109375 2.453125 0.109375 Z M 2.453125 -0.53125 C 1.71875 -0.53125 1.21875 -1.359375 1.21875 -3.25 C 1.21875 -5.125 1.71875 -5.921875 2.453125 -5.921875 C 3.171875 -5.921875 3.671875 -5.125 3.671875 -3.25 C 3.671875 -1.359375 3.171875 -0.53125 2.453125 -0.53125 Z M 2.453125 -0.53125 "/>
</g>
<g id="glyph-1-1">
<path d="M 1.21875 0.109375 C 1.546875 0.109375 1.796875 -0.125 1.796875 -0.5 C 1.796875 -0.859375 1.546875 -1.109375 1.21875 -1.109375 C 0.890625 -1.109375 0.640625 -0.859375 0.640625 -0.5 C 0.640625 -0.125 0.890625 0.109375 1.21875 0.109375 Z M 1.21875 0.109375 "/>
</g>
<g id="glyph-1-2">
<path d="M 0.390625 0 L 4.4375 0 L 4.4375 -0.6875 L 2.65625 -0.6875 C 2.328125 -0.6875 1.9375 -0.65625 1.59375 -0.640625 C 3.109375 -2.0625 4.140625 -3.375 4.140625 -4.671875 C 4.140625 -5.8125 3.40625 -6.5625 2.25 -6.5625 C 1.4375 -6.5625 0.875 -6.1875 0.359375 -5.625 L 0.8125 -5.15625 C 1.171875 -5.59375 1.625 -5.90625 2.15625 -5.90625 C 2.953125 -5.90625 3.34375 -5.375 3.34375 -4.640625 C 3.34375 -3.53125 2.40625 -2.25 0.390625 -0.46875 Z M 0.390625 0 "/>
</g>
<g id="glyph-1-3">
<path d="M 2.3125 0.109375 C 3.390625 0.109375 4.421875 -0.6875 4.421875 -2.09375 C 4.421875 -3.515625 3.53125 -4.15625 2.46875 -4.15625 C 2.078125 -4.15625 1.796875 -4.0625 1.5 -3.890625 L 1.671875 -5.765625 L 4.09375 -5.765625 L 4.09375 -6.453125 L 0.96875 -6.453125 L 0.75 -3.4375 L 1.1875 -3.171875 C 1.5625 -3.40625 1.828125 -3.546875 2.265625 -3.546875 C 3.0625 -3.546875 3.59375 -3 3.59375 -2.078125 C 3.59375 -1.140625 2.984375 -0.546875 2.21875 -0.546875 C 1.484375 -0.546875 1 -0.890625 0.640625 -1.265625 L 0.234375 -0.734375 C 0.671875 -0.3125 1.296875 0.109375 2.3125 0.109375 Z M 2.3125 0.109375 "/>
</g>
<g id="glyph-1-4">
<path d="M 1.734375 0 L 2.578125 0 C 2.6875 -2.53125 2.953125 -4.03125 4.46875 -5.96875 L 4.46875 -6.453125 L 0.4375 -6.453125 L 0.4375 -5.765625 L 3.5625 -5.765625 C 2.296875 -4 1.859375 -2.453125 1.734375 0 Z M 1.734375 0 "/>
</g>
<g id="glyph-1-5">
<path d="M 0.78125 0 L 4.3125 0 L 4.3125 -0.671875 L 3.015625 -0.671875 L 3.015625 -6.453125 L 2.40625 -6.453125 C 2.046875 -6.25 1.640625 -6.09375 1.0625 -5.984375 L 1.0625 -5.484375 L 2.21875 -5.484375 L 2.21875 -0.671875 L 0.78125 -0.671875 Z M 0.78125 0 "/>
</g>
<g id="glyph-1-6">
<path d="M 2.3125 0.109375 C 3.46875 0.109375 4.390625 -0.578125 4.390625 -1.71875 C 4.390625 -2.609375 3.78125 -3.171875 3.03125 -3.359375 L 3.03125 -3.40625 C 3.71875 -3.640625 4.171875 -4.171875 4.171875 -4.953125 C 4.171875 -5.96875 3.375 -6.5625 2.28125 -6.5625 C 1.546875 -6.5625 0.96875 -6.234375 0.5 -5.796875 L 0.921875 -5.28125 C 1.296875 -5.65625 1.734375 -5.90625 2.265625 -5.90625 C 2.9375 -5.90625 3.359375 -5.5 3.359375 -4.890625 C 3.359375 -4.203125 2.90625 -3.65625 1.5625 -3.65625 L 1.5625 -3.046875 C 3.0625 -3.046875 3.578125 -2.53125 3.578125 -1.75 C 3.578125 -1.015625 3.03125 -0.546875 2.265625 -0.546875 C 1.53125 -0.546875 1.046875 -0.90625 0.671875 -1.296875 L 0.25 -0.78125 C 0.671875 -0.3125 1.3125 0.109375 2.3125 0.109375 Z M 2.3125 0.109375 "/>
</g>
<g id="glyph-1-7">
<path d="M 2.984375 0 L 3.75 0 L 3.75 -1.78125 L 4.609375 -1.78125 L 4.609375 -2.421875 L 3.75 -2.421875 L 3.75 -6.453125 L 2.859375 -6.453125 L 0.171875 -2.3125 L 0.171875 -1.78125 L 2.984375 -1.78125 Z M 2.984375 -2.421875 L 1.015625 -2.421875 L 2.484375 -4.625 C 2.671875 -4.9375 2.84375 -5.265625 3 -5.5625 L 3.03125 -5.5625 C 3.015625 -5.25 2.984375 -4.71875 2.984375 -4.40625 Z M 2.984375 -2.421875 "/>
</g>
<g id="glyph-1-8">
<path d="M 2.640625 0.109375 C 3.65625 0.109375 4.5 -0.734375 4.5 -1.984375 C 4.5 -3.328125 3.796875 -4 2.703125 -4 C 2.203125 -4 1.640625 -3.71875 1.25 -3.234375 C 1.28125 -5.21875 2.015625 -5.90625 2.90625 -5.90625 C 3.296875 -5.90625 3.6875 -5.703125 3.9375 -5.40625 L 4.390625 -5.90625 C 4.03125 -6.296875 3.546875 -6.5625 2.875 -6.5625 C 1.625 -6.5625 0.5 -5.609375 0.5 -3.078125 C 0.5 -0.953125 1.421875 0.109375 2.640625 0.109375 Z M 1.265625 -2.59375 C 1.6875 -3.1875 2.1875 -3.40625 2.578125 -3.40625 C 3.359375 -3.40625 3.734375 -2.84375 3.734375 -1.984375 C 3.734375 -1.09375 3.265625 -0.515625 2.640625 -0.515625 C 1.84375 -0.515625 1.359375 -1.25 1.265625 -2.59375 Z M 1.265625 -2.59375 "/>
</g>
<g id="glyph-1-9">
<path d="M 2.46875 0.109375 C 3.671875 0.109375 4.484375 -0.609375 4.484375 -1.546875 C 4.484375 -2.4375 3.953125 -2.921875 3.390625 -3.25 L 3.390625 -3.296875 C 3.78125 -3.59375 4.25 -4.171875 4.25 -4.84375 C 4.25 -5.84375 3.578125 -6.546875 2.484375 -6.546875 C 1.484375 -6.546875 0.71875 -5.890625 0.71875 -4.90625 C 0.71875 -4.234375 1.125 -3.75 1.578125 -3.421875 L 1.578125 -3.390625 C 1 -3.0625 0.40625 -2.46875 0.40625 -1.59375 C 0.40625 -0.609375 1.265625 0.109375 2.46875 0.109375 Z M 2.90625 -3.5 C 2.140625 -3.796875 1.4375 -4.140625 1.4375 -4.90625 C 1.4375 -5.53125 1.875 -5.953125 2.46875 -5.953125 C 3.15625 -5.953125 3.5625 -5.4375 3.5625 -4.796875 C 3.5625 -4.328125 3.328125 -3.890625 2.90625 -3.5 Z M 2.46875 -0.484375 C 1.703125 -0.484375 1.125 -0.984375 1.125 -1.671875 C 1.125 -2.28125 1.484375 -2.796875 2 -3.125 C 2.921875 -2.765625 3.71875 -2.453125 3.71875 -1.578125 C 3.71875 -0.9375 3.21875 -0.484375 2.46875 -0.484375 Z M 2.46875 -0.484375 "/>
</g>
<g id="glyph-2-0">
<path d="M -0.03125 -8.015625 L 6.75 -8.015625 L 6.75 -7.109375 L 3.90625 -7.109375 L 3.90625 0 L 2.8125 0 L 2.8125 -7.109375 L -0.03125 -7.109375 Z M -0.03125 -8.015625 "/>
</g>
<g id="glyph-2-1">
<path d="M 3.375 -5.328125 C 2.84375 -5.328125 2.421875 -5.117188 2.109375 -4.703125 C 1.804688 -4.285156 1.65625 -3.71875 1.65625 -3 C 1.65625 -2.28125 1.804688 -1.710938 2.109375 -1.296875 C 2.410156 -0.890625 2.832031 -0.6875 3.375 -0.6875 C 3.894531 -0.6875 4.304688 -0.890625 4.609375 -1.296875 C 4.921875 -1.710938 5.078125 -2.28125 5.078125 -3 C 5.078125 -3.71875 4.921875 -4.285156 4.609375 -4.703125 C 4.304688 -5.117188 3.894531 -5.328125 3.375 -5.328125 Z M 3.375 -6.15625 C 4.226562 -6.15625 4.898438 -5.875 5.390625 -5.3125 C 5.878906 -4.757812 6.125 -3.988281 6.125 -3 C 6.125 -2.019531 5.878906 -1.25 5.390625 -0.6875 C 4.898438 -0.125 4.226562 0.15625 3.375 0.15625 C 2.507812 0.15625 1.832031 -0.125 1.34375 -0.6875 C 0.851562 -1.25 0.609375 -2.019531 0.609375 -3 C 0.609375 -3.988281 0.851562 -4.757812 1.34375 -5.3125 C 1.832031 -5.875 2.507812 -6.15625 3.375 -6.15625 Z M 3.375 -6.15625 "/>
</g>
<g id="glyph-2-2">
<path d="M 2 -0.90625 L 2 2.28125 L 1 2.28125 L 1 -6.015625 L 2 -6.015625 L 2 -5.109375 C 2.195312 -5.460938 2.453125 -5.722656 2.765625 -5.890625 C 3.085938 -6.066406 3.472656 -6.15625 3.921875 -6.15625 C 4.648438 -6.15625 5.238281 -5.863281 5.6875 -5.28125 C 6.144531 -4.707031 6.375 -3.945312 6.375 -3 C 6.375 -2.050781 6.144531 -1.285156 5.6875 -0.703125 C 5.238281 -0.128906 4.648438 0.15625 3.921875 0.15625 C 3.472656 0.15625 3.085938 0.0703125 2.765625 -0.09375 C 2.453125 -0.269531 2.195312 -0.539062 2 -0.90625 Z M 5.359375 -3 C 5.359375 -3.726562 5.207031 -4.296875 4.90625 -4.703125 C 4.601562 -5.117188 4.191406 -5.328125 3.671875 -5.328125 C 3.148438 -5.328125 2.738281 -5.117188 2.4375 -4.703125 C 2.144531 -4.296875 2 -3.726562 2 -3 C 2 -2.269531 2.144531 -1.695312 2.4375 -1.28125 C 2.738281 -0.875 3.148438 -0.671875 3.671875 -0.671875 C 4.191406 -0.671875 4.601562 -0.875 4.90625 -1.28125 C 5.207031 -1.695312 5.359375 -2.269531 5.359375 -3 Z M 5.359375 -3 "/>
</g>
<g id="glyph-2-3">
</g>
<g id="glyph-2-4">
<path d="M 4.078125 -8.359375 L 4.078125 -7.53125 L 3.140625 -7.53125 C 2.785156 -7.53125 2.535156 -7.457031 2.390625 -7.3125 C 2.253906 -7.175781 2.1875 -6.921875 2.1875 -6.546875 L 2.1875 -6.015625 L 3.8125 -6.015625 L 3.8125 -5.25 L 2.1875 -5.25 L 2.1875 0 L 1.203125 0 L 1.203125 -5.25 L 0.25 -5.25 L 0.25 -6.015625 L 1.203125 -6.015625 L 1.203125 -6.4375 C 1.203125 -7.101562 1.351562 -7.585938 1.65625 -7.890625 C 1.96875 -8.203125 2.460938 -8.359375 3.140625 -8.359375 Z M 4.078125 -8.359375 "/>
</g>
<g id="glyph-2-5">
<path d="M 4.515625 -5.09375 C 4.410156 -5.15625 4.289062 -5.203125 4.15625 -5.234375 C 4.03125 -5.265625 3.890625 -5.28125 3.734375 -5.28125 C 3.171875 -5.28125 2.738281 -5.097656 2.4375 -4.734375 C 2.144531 -4.367188 2 -3.847656 2 -3.171875 L 2 0 L 1 0 L 1 -6.015625 L 2 -6.015625 L 2 -5.078125 C 2.195312 -5.441406 2.460938 -5.710938 2.796875 -5.890625 C 3.128906 -6.066406 3.535156 -6.15625 4.015625 -6.15625 C 4.085938 -6.15625 4.160156 -6.148438 4.234375 -6.140625 C 4.316406 -6.140625 4.410156 -6.128906 4.515625 -6.109375 Z M 4.515625 -5.09375 "/>
</g>
<g id="glyph-2-6">
<path d="M 3.765625 -3.03125 C 2.972656 -3.03125 2.421875 -2.9375 2.109375 -2.75 C 1.804688 -2.5625 1.65625 -2.25 1.65625 -1.8125 C 1.65625 -1.46875 1.769531 -1.191406 2 -0.984375 C 2.226562 -0.773438 2.539062 -0.671875 2.9375 -0.671875 C 3.488281 -0.671875 3.925781 -0.863281 4.25 -1.25 C 4.582031 -1.644531 4.75 -2.160156 4.75 -2.796875 L 4.75 -3.03125 Z M 5.734375 -3.4375 L 5.734375 0 L 4.75 0 L 4.75 -0.90625 C 4.53125 -0.539062 4.25 -0.269531 3.90625 -0.09375 C 3.570312 0.0703125 3.160156 0.15625 2.671875 0.15625 C 2.054688 0.15625 1.566406 -0.015625 1.203125 -0.359375 C 0.835938 -0.703125 0.65625 -1.164062 0.65625 -1.75 C 0.65625 -2.425781 0.878906 -2.9375 1.328125 -3.28125 C 1.785156 -3.625 2.46875 -3.796875 3.375 -3.796875 L 4.75 -3.796875 L 4.75 -3.890625 C 4.75 -4.347656 4.597656 -4.703125 4.296875 -4.953125 C 4.003906 -5.203125 3.585938 -5.328125 3.046875 -5.328125 C 2.703125 -5.328125 2.363281 -5.285156 2.03125 -5.203125 C 1.707031 -5.117188 1.394531 -4.992188 1.09375 -4.828125 L 1.09375 -5.734375 C 1.457031 -5.878906 1.8125 -5.984375 2.15625 -6.046875 C 2.5 -6.117188 2.828125 -6.15625 3.140625 -6.15625 C 4.015625 -6.15625 4.664062 -5.929688 5.09375 -5.484375 C 5.519531 -5.035156 5.734375 -4.351562 5.734375 -3.4375 Z M 5.734375 -3.4375 "/>
</g>
<g id="glyph-2-7">
<path d="M 5.359375 -5.78125 L 5.359375 -4.859375 C 5.085938 -5.015625 4.8125 -5.128906 4.53125 -5.203125 C 4.25 -5.285156 3.960938 -5.328125 3.671875 -5.328125 C 3.035156 -5.328125 2.539062 -5.125 2.1875 -4.71875 C 1.832031 -4.3125 1.65625 -3.738281 1.65625 -3 C 1.65625 -2.269531 1.832031 -1.703125 2.1875 -1.296875 C 2.539062 -0.890625 3.035156 -0.6875 3.671875 -0.6875 C 3.960938 -0.6875 4.25 -0.722656 4.53125 -0.796875 C 4.8125 -0.867188 5.085938 -0.984375 5.359375 -1.140625 L 5.359375 -0.234375 C 5.085938 -0.0976562 4.800781 0 4.5 0.0625 C 4.207031 0.125 3.894531 0.15625 3.5625 0.15625 C 2.65625 0.15625 1.9375 -0.125 1.40625 -0.6875 C 0.875 -1.257812 0.609375 -2.03125 0.609375 -3 C 0.609375 -3.976562 0.875 -4.75 1.40625 -5.3125 C 1.945312 -5.875 2.6875 -6.15625 3.625 -6.15625 C 3.9375 -6.15625 4.234375 -6.125 4.515625 -6.0625 C 4.804688 -6 5.085938 -5.90625 5.359375 -5.78125 Z M 5.359375 -5.78125 "/>
</g>
<g id="glyph-2-8">
<path d="M 2.015625 -7.71875 L 2.015625 -6.015625 L 4.046875 -6.015625 L 4.046875 -5.25 L 2.015625 -5.25 L 2.015625 -1.984375 C 2.015625 -1.492188 2.082031 -1.175781 2.21875 -1.03125 C 2.351562 -0.894531 2.625 -0.828125 3.03125 -0.828125 L 4.046875 -0.828125 L 4.046875 0 L 3.03125 0 C 2.269531 0 1.742188 -0.140625 1.453125 -0.421875 C 1.160156 -0.710938 1.015625 -1.234375 1.015625 -1.984375 L 1.015625 -5.25 L 0.296875 -5.25 L 0.296875 -6.015625 L 1.015625 -6.015625 L 1.015625 -7.71875 Z M 2.015625 -7.71875 "/>
</g>
<g id="glyph-2-9">
<path d="M 1.03125 -6.015625 L 2.03125 -6.015625 L 2.03125 0 L 1.03125 0 Z M 1.03125 -8.359375 L 2.03125 -8.359375 L 2.03125 -7.109375 L 1.03125 -7.109375 Z M 1.03125 -8.359375 "/>
</g>
<g id="glyph-2-10">
<path d="M 6.03125 -3.625 L 6.03125 0 L 5.046875 0 L 5.046875 -3.59375 C 5.046875 -4.164062 4.9375 -4.59375 4.71875 -4.875 C 4.5 -5.15625 4.164062 -5.296875 3.71875 -5.296875 C 3.1875 -5.296875 2.765625 -5.125 2.453125 -4.78125 C 2.148438 -4.445312 2 -3.988281 2 -3.40625 L 2 0 L 1 0 L 1 -6.015625 L 2 -6.015625 L 2 -5.078125 C 2.226562 -5.441406 2.503906 -5.710938 2.828125 -5.890625 C 3.148438 -6.066406 3.519531 -6.15625 3.9375 -6.15625 C 4.625 -6.15625 5.144531 -5.941406 5.5 -5.515625 C 5.851562 -5.085938 6.03125 -4.457031 6.03125 -3.625 Z M 6.03125 -3.625 "/>
</g>
<g id="glyph-2-11">
<path d="M 1 -8.359375 L 2 -8.359375 L 2 -3.421875 L 4.9375 -6.015625 L 6.203125 -6.015625 L 3.015625 -3.203125 L 6.34375 0 L 5.046875 0 L 2 -2.9375 L 2 0 L 1 0 Z M 1 -8.359375 "/>
</g>
<g id="glyph-2-12">
<path d="M 6.1875 -3.25 L 6.1875 -2.765625 L 1.640625 -2.765625 C 1.679688 -2.085938 1.882812 -1.570312 2.25 -1.21875 C 2.613281 -0.863281 3.125 -0.6875 3.78125 -0.6875 C 4.164062 -0.6875 4.535156 -0.734375 4.890625 -0.828125 C 5.242188 -0.921875 5.597656 -1.054688 5.953125 -1.234375 L 5.953125 -0.3125 C 5.597656 -0.15625 5.234375 -0.0390625 4.859375 0.03125 C 4.484375 0.113281 4.109375 0.15625 3.734375 0.15625 C 2.765625 0.15625 2 -0.117188 1.4375 -0.671875 C 0.882812 -1.234375 0.609375 -1.992188 0.609375 -2.953125 C 0.609375 -3.929688 0.875 -4.707031 1.40625 -5.28125 C 1.9375 -5.863281 2.65625 -6.15625 3.5625 -6.15625 C 4.363281 -6.15625 5 -5.894531 5.46875 -5.375 C 5.945312 -4.851562 6.1875 -4.144531 6.1875 -3.25 Z M 5.1875 -3.546875 C 5.1875 -4.085938 5.035156 -4.519531 4.734375 -4.84375 C 4.441406 -5.164062 4.050781 -5.328125 3.5625 -5.328125 C 3.007812 -5.328125 2.566406 -5.171875 2.234375 -4.859375 C 1.910156 -4.546875 1.722656 -4.109375 1.671875 -3.546875 Z M 5.1875 -3.546875 "/>
</g>
<g id="glyph-2-13">
<path d="M 5 -5.109375 L 5 -8.359375 L 5.984375 -8.359375 L 5.984375 0 L 5 0 L 5 -0.90625 C 4.789062 -0.539062 4.523438 -0.269531 4.203125 -0.09375 C 3.890625 0.0703125 3.507812 0.15625 3.0625 0.15625 C 2.34375 0.15625 1.753906 -0.128906 1.296875 -0.703125 C 0.835938 -1.285156 0.609375 -2.050781 0.609375 -3 C 0.609375 -3.945312 0.835938 -4.707031 1.296875 -5.28125 C 1.753906 -5.863281 2.34375 -6.15625 3.0625 -6.15625 C 3.507812 -6.15625 3.890625 -6.066406 4.203125 -5.890625 C 4.523438 -5.722656 4.789062 -5.460938 5 -5.109375 Z M 1.625 -3 C 1.625 -2.269531 1.773438 -1.695312 2.078125 -1.28125 C 2.378906 -0.875 2.789062 -0.671875 3.3125 -0.671875 C 3.832031 -0.671875 4.242188 -0.875 4.546875 -1.28125 C 4.847656 -1.695312 5 -2.269531 5 -3 C 5 -3.726562 4.847656 -4.296875 4.546875 -4.703125 C 4.242188 -5.117188 3.832031 -5.328125 3.3125 -5.328125 C 2.789062 -5.328125 2.378906 -5.117188 2.078125 -4.703125 C 1.773438 -4.296875 1.625 -3.726562 1.625 -3 Z M 1.625 -3 "/>
</g>
<g id="glyph-2-14">
<path d="M 5.359375 -3 C 5.359375 -3.726562 5.207031 -4.296875 4.90625 -4.703125 C 4.601562 -5.117188 4.191406 -5.328125 3.671875 -5.328125 C 3.148438 -5.328125 2.738281 -5.117188 2.4375 -4.703125 C 2.144531 -4.296875 2 -3.726562 2 -3 C 2 -2.269531 2.144531 -1.695312 2.4375 -1.28125 C 2.738281 -0.875 3.148438 -0.671875 3.671875 -0.671875 C 4.191406 -0.671875 4.601562 -0.875 4.90625 -1.28125 C 5.207031 -1.695312 5.359375 -2.269531 5.359375 -3 Z M 2 -5.109375 C 2.195312 -5.460938 2.453125 -5.722656 2.765625 -5.890625 C 3.085938 -6.066406 3.472656 -6.15625 3.921875 -6.15625 C 4.648438 -6.15625 5.238281 -5.863281 5.6875 -5.28125 C 6.144531 -4.707031 6.375 -3.945312 6.375 -3 C 6.375 -2.050781 6.144531 -1.285156 5.6875 -0.703125 C 5.238281 -0.128906 4.648438 0.15625 3.921875 0.15625 C 3.472656 0.15625 3.085938 0.0703125 2.765625 -0.09375 C 2.453125 -0.269531 2.195312 -0.539062 2 -0.90625 L 2 0 L 1 0 L 1 -8.359375 L 2 -8.359375 Z M 2 -5.109375 "/>
</g>
<g id="glyph-2-15">
<path d="M 3.546875 0.5625 C 3.265625 1.28125 2.988281 1.742188 2.71875 1.953125 C 2.457031 2.171875 2.101562 2.28125 1.65625 2.28125 L 0.875 2.28125 L 0.875 1.46875 L 1.453125 1.46875 C 1.722656 1.46875 1.929688 1.398438 2.078125 1.265625 C 2.234375 1.140625 2.398438 0.835938 2.578125 0.359375 L 2.765625 -0.09375 L 0.328125 -6.015625 L 1.375 -6.015625 L 3.25 -1.3125 L 5.140625 -6.015625 L 6.1875 -6.015625 Z M 3.546875 0.5625 "/>
</g>
<g id="glyph-2-16">
<path d="M 5.890625 -6.015625 L 5.890625 0 L 4.90625 0 L 4.90625 -5.25 L 2.1875 -5.25 L 2.1875 0 L 1.203125 0 L 1.203125 -5.25 L 0.25 -5.25 L 0.25 -6.015625 L 1.203125 -6.015625 L 1.203125 -6.4375 C 1.203125 -7.09375 1.351562 -7.578125 1.65625 -7.890625 C 1.96875 -8.203125 2.445312 -8.359375 3.09375 -8.359375 L 4.078125 -8.359375 L 4.078125 -7.53125 L 3.140625 -7.53125 C 2.785156 -7.53125 2.535156 -7.457031 2.390625 -7.3125 C 2.253906 -7.175781 2.1875 -6.921875 2.1875 -6.546875 L 2.1875 -6.015625 Z M 4.90625 -8.34375 L 5.890625 -8.34375 L 5.890625 -7.09375 L 4.90625 -7.09375 Z M 4.90625 -8.34375 "/>
</g>
<g id="glyph-3-0">
<path d="M -1.140625 -6.546875 L -3.296875 -6.546875 L -3.296875 -4.78125 L -4.1875 -4.78125 L -4.1875 -7.625 L -0.75 -7.625 C -0.445312 -7.207031 -0.21875 -6.742188 -0.0625 -6.234375 C 0.0820312 -5.734375 0.15625 -5.195312 0.15625 -4.625 C 0.15625 -3.363281 -0.207031 -2.378906 -0.9375 -1.671875 C -1.675781 -0.972656 -2.695312 -0.625 -4 -0.625 C -5.3125 -0.625 -6.332031 -0.972656 -7.0625 -1.671875 C -7.800781 -2.378906 -8.171875 -3.363281 -8.171875 -4.625 C -8.171875 -5.144531 -8.101562 -5.640625 -7.96875 -6.109375 C -7.84375 -6.578125 -7.65625 -7.007812 -7.40625 -7.40625 L -6.25 -7.40625 C -6.582031 -7.007812 -6.832031 -6.582031 -7 -6.125 C -7.175781 -5.675781 -7.265625 -5.203125 -7.265625 -4.703125 C -7.265625 -3.722656 -6.988281 -2.988281 -6.4375 -2.5 C -5.894531 -2.007812 -5.082031 -1.765625 -4 -1.765625 C -2.914062 -1.765625 -2.097656 -2.007812 -1.546875 -2.5 C -1.003906 -2.988281 -0.734375 -3.722656 -0.734375 -4.703125 C -0.734375 -5.085938 -0.765625 -5.429688 -0.828125 -5.734375 C -0.898438 -6.035156 -1.003906 -6.304688 -1.140625 -6.546875 Z M -1.140625 -6.546875 "/>
</g>
<g id="glyph-3-1">
<path d="M -3.03125 -3.765625 C -3.03125 -2.972656 -2.9375 -2.421875 -2.75 -2.109375 C -2.5625 -1.804688 -2.25 -1.65625 -1.8125 -1.65625 C -1.46875 -1.65625 -1.191406 -1.769531 -0.984375 -2 C -0.773438 -2.226562 -0.671875 -2.539062 -0.671875 -2.9375 C -0.671875 -3.488281 -0.863281 -3.925781 -1.25 -4.25 C -1.644531 -4.582031 -2.160156 -4.75 -2.796875 -4.75 L -3.03125 -4.75 Z M -3.4375 -5.734375 L 0 -5.734375 L 0 -4.75 L -0.90625 -4.75 C -0.539062 -4.53125 -0.269531 -4.25 -0.09375 -3.90625 C 0.0703125 -3.570312 0.15625 -3.160156 0.15625 -2.671875 C 0.15625 -2.054688 -0.015625 -1.566406 -0.359375 -1.203125 C -0.703125 -0.835938 -1.164062 -0.65625 -1.75 -0.65625 C -2.425781 -0.65625 -2.9375 -0.878906 -3.28125 -1.328125 C -3.625 -1.785156 -3.796875 -2.46875 -3.796875 -3.375 L -3.796875 -4.75 L -3.890625 -4.75 C -4.347656 -4.75 -4.703125 -4.597656 -4.953125 -4.296875 C -5.203125 -4.003906 -5.328125 -3.585938 -5.328125 -3.046875 C -5.328125 -2.703125 -5.285156 -2.363281 -5.203125 -2.03125 C -5.117188 -1.707031 -4.992188 -1.394531 -4.828125 -1.09375 L -5.734375 -1.09375 C -5.878906 -1.457031 -5.984375 -1.8125 -6.046875 -2.15625 C -6.117188 -2.5 -6.15625 -2.828125 -6.15625 -3.140625 C -6.15625 -4.015625 -5.929688 -4.664062 -5.484375 -5.09375 C -5.035156 -5.519531 -4.351562 -5.734375 -3.4375 -5.734375 Z M -3.4375 -5.734375 "/>
</g>
<g id="glyph-3-2">
<path d="M -6.015625 -1.03125 L -6.015625 -2.03125 L 0 -2.03125 L 0 -1.03125 Z M -8.359375 -1.03125 L -8.359375 -2.03125 L -7.109375 -2.03125 L -7.109375 -1.03125 Z M -8.359375 -1.03125 "/>
</g>
<g id="glyph-3-3">
<path d="M -3.625 -6.03125 L 0 -6.03125 L 0 -5.046875 L -3.59375 -5.046875 C -4.164062 -5.046875 -4.59375 -4.9375 -4.875 -4.71875 C -5.15625 -4.5 -5.296875 -4.164062 -5.296875 -3.71875 C -5.296875 -3.1875 -5.125 -2.765625 -4.78125 -2.453125 C -4.445312 -2.148438 -3.988281 -2 -3.40625 -2 L 0 -2 L 0 -1 L -6.015625 -1 L -6.015625 -2 L -5.078125 -2 C -5.441406 -2.226562 -5.710938 -2.503906 -5.890625 -2.828125 C -6.066406 -3.148438 -6.15625 -3.519531 -6.15625 -3.9375 C -6.15625 -4.625 -5.941406 -5.144531 -5.515625 -5.5 C -5.085938 -5.851562 -4.457031 -6.03125 -3.625 -6.03125 Z M -3.625 -6.03125 "/>
</g>
<g id="glyph-3-4">
</g>
<g id="glyph-3-5">
<path d="M -5.328125 -3.375 C -5.328125 -2.84375 -5.117188 -2.421875 -4.703125 -2.109375 C -4.285156 -1.804688 -3.71875 -1.65625 -3 -1.65625 C -2.28125 -1.65625 -1.710938 -1.804688 -1.296875 -2.109375 C -0.890625 -2.410156 -0.6875 -2.832031 -0.6875 -3.375 C -0.6875 -3.894531 -0.890625 -4.304688 -1.296875 -4.609375 C -1.710938 -4.921875 -2.28125 -5.078125 -3 -5.078125 C -3.71875 -5.078125 -4.285156 -4.921875 -4.703125 -4.609375 C -5.117188 -4.304688 -5.328125 -3.894531 -5.328125 -3.375 Z M -6.15625 -3.375 C -6.15625 -4.226562 -5.875 -4.898438 -5.3125 -5.390625 C -4.757812 -5.878906 -3.988281 -6.125 -3 -6.125 C -2.019531 -6.125 -1.25 -5.878906 -0.6875 -5.390625 C -0.125 -4.898438 0.15625 -4.226562 0.15625 -3.375 C 0.15625 -2.507812 -0.125 -1.832031 -0.6875 -1.34375 C -1.25 -0.851562 -2.019531 -0.609375 -3 -0.609375 C -3.988281 -0.609375 -4.757812 -0.851562 -5.3125 -1.34375 C -5.875 -1.832031 -6.15625 -2.507812 -6.15625 -3.375 Z M -6.15625 -3.375 "/>
</g>
<g id="glyph-3-6">
<path d="M -6.015625 -0.328125 L -6.015625 -1.375 L -0.96875 -3.25 L -6.015625 -5.140625 L -6.015625 -6.1875 L 0 -3.921875 L 0 -2.578125 Z M -6.015625 -0.328125 "/>
</g>
<g id="glyph-3-7">
<path d="M -3.25 -6.1875 L -2.765625 -6.1875 L -2.765625 -1.640625 C -2.085938 -1.679688 -1.570312 -1.882812 -1.21875 -2.25 C -0.863281 -2.613281 -0.6875 -3.125 -0.6875 -3.78125 C -0.6875 -4.164062 -0.734375 -4.535156 -0.828125 -4.890625 C -0.921875 -5.242188 -1.054688 -5.597656 -1.234375 -5.953125 L -0.3125 -5.953125 C -0.15625 -5.597656 -0.0390625 -5.234375 0.03125 -4.859375 C 0.113281 -4.484375 0.15625 -4.109375 0.15625 -3.734375 C 0.15625 -2.765625 -0.117188 -2 -0.671875 -1.4375 C -1.234375 -0.882812 -1.992188 -0.609375 -2.953125 -0.609375 C -3.929688 -0.609375 -4.707031 -0.875 -5.28125 -1.40625 C -5.863281 -1.9375 -6.15625 -2.65625 -6.15625 -3.5625 C -6.15625 -4.363281 -5.894531 -5 -5.375 -5.46875 C -4.851562 -5.945312 -4.144531 -6.1875 -3.25 -6.1875 Z M -3.546875 -5.1875 C -4.085938 -5.1875 -4.519531 -5.035156 -4.84375 -4.734375 C -5.164062 -4.441406 -5.328125 -4.050781 -5.328125 -3.5625 C -5.328125 -3.007812 -5.171875 -2.566406 -4.859375 -2.234375 C -4.546875 -1.910156 -4.109375 -1.722656 -3.546875 -1.671875 Z M -3.546875 -5.1875 "/>
</g>
<g id="glyph-3-8">
<path d="M -5.09375 -4.515625 C -5.15625 -4.410156 -5.203125 -4.289062 -5.234375 -4.15625 C -5.265625 -4.03125 -5.28125 -3.890625 -5.28125 -3.734375 C -5.28125 -3.171875 -5.097656 -2.738281 -4.734375 -2.4375 C -4.367188 -2.144531 -3.847656 -2 -3.171875 -2 L 0 -2 L 0 -1 L -6.015625 -1 L -6.015625 -2 L -5.078125 -2 C -5.441406 -2.195312 -5.710938 -2.460938 -5.890625 -2.796875 C -6.066406 -3.128906 -6.15625 -3.535156 -6.15625 -4.015625 C -6.15625 -4.085938 -6.148438 -4.160156 -6.140625 -4.234375 C -6.140625 -4.316406 -6.128906 -4.410156 -6.109375 -4.515625 Z M -5.09375 -4.515625 "/>
</g>
<g id="glyph-3-9">
<path d="M -5.109375 -5 L -8.359375 -5 L -8.359375 -5.984375 L 0 -5.984375 L 0 -5 L -0.90625 -5 C -0.539062 -4.789062 -0.269531 -4.523438 -0.09375 -4.203125 C 0.0703125 -3.890625 0.15625 -3.507812 0.15625 -3.0625 C 0.15625 -2.34375 -0.128906 -1.753906 -0.703125 -1.296875 C -1.285156 -0.835938 -2.050781 -0.609375 -3 -0.609375 C -3.945312 -0.609375 -4.707031 -0.835938 -5.28125 -1.296875 C -5.863281 -1.753906 -6.15625 -2.34375 -6.15625 -3.0625 C -6.15625 -3.507812 -6.066406 -3.890625 -5.890625 -4.203125 C -5.722656 -4.523438 -5.460938 -4.789062 -5.109375 -5 Z M -3 -1.625 C -2.269531 -1.625 -1.695312 -1.773438 -1.28125 -2.078125 C -0.875 -2.378906 -0.671875 -2.789062 -0.671875 -3.3125 C -0.671875 -3.832031 -0.875 -4.242188 -1.28125 -4.546875 C -1.695312 -4.847656 -2.269531 -5 -3 -5 C -3.726562 -5 -4.296875 -4.847656 -4.703125 -4.546875 C -5.117188 -4.242188 -5.328125 -3.832031 -5.328125 -3.3125 C -5.328125 -2.789062 -5.117188 -2.378906 -4.703125 -2.078125 C -4.296875 -1.773438 -3.726562 -1.625 -3 -1.625 Z M -3 -1.625 "/>
</g>
<g id="glyph-3-10">
<path d="M -4.859375 -5.71875 C -5.304688 -5.96875 -5.632812 -6.265625 -5.84375 -6.609375 C -6.050781 -6.953125 -6.15625 -7.359375 -6.15625 -7.828125 C -6.15625 -8.453125 -5.9375 -8.929688 -5.5 -9.265625 C -5.0625 -9.609375 -4.4375 -9.78125 -3.625 -9.78125 L 0 -9.78125 L 0 -8.78125 L -3.59375 -8.78125 C -4.175781 -8.78125 -4.601562 -8.675781 -4.875 -8.46875 C -5.15625 -8.269531 -5.296875 -7.960938 -5.296875 -7.546875 C -5.296875 -7.035156 -5.125 -6.628906 -4.78125 -6.328125 C -4.445312 -6.035156 -3.988281 -5.890625 -3.40625 -5.890625 L 0 -5.890625 L 0 -4.890625 L -3.59375 -4.890625 C -4.175781 -4.890625 -4.601562 -4.785156 -4.875 -4.578125 C -5.15625 -4.378906 -5.296875 -4.066406 -5.296875 -3.640625 C -5.296875 -3.140625 -5.125 -2.738281 -4.78125 -2.4375 C -4.445312 -2.144531 -3.988281 -2 -3.40625 -2 L 0 -2 L 0 -1 L -6.015625 -1 L -6.015625 -2 L -5.078125 -2 C -5.453125 -2.21875 -5.722656 -2.484375 -5.890625 -2.796875 C -6.066406 -3.117188 -6.15625 -3.492188 -6.15625 -3.921875 C -6.15625 -4.359375 -6.046875 -4.726562 -5.828125 -5.03125 C -5.609375 -5.34375 -5.285156 -5.570312 -4.859375 -5.71875 Z M -4.859375 -5.71875 "/>
</g>
<g id="glyph-3-11">
<path d="M -7.71875 -2.015625 L -6.015625 -2.015625 L -6.015625 -4.046875 L -5.25 -4.046875 L -5.25 -2.015625 L -1.984375 -2.015625 C -1.492188 -2.015625 -1.175781 -2.082031 -1.03125 -2.21875 C -0.894531 -2.351562 -0.828125 -2.625 -0.828125 -3.03125 L -0.828125 -4.046875 L 0 -4.046875 L 0 -3.03125 C 0 -2.269531 -0.140625 -1.742188 -0.421875 -1.453125 C -0.710938 -1.160156 -1.234375 -1.015625 -1.984375 -1.015625 L -5.25 -1.015625 L -5.25 -0.296875 L -6.015625 -0.296875 L -6.015625 -1.015625 L -7.71875 -1.015625 Z M -7.71875 -2.015625 "/>
</g>
<g id="glyph-3-12">
<path d="M -3.078125 -5 C -3.796875 -5 -4.347656 -4.847656 -4.734375 -4.546875 C -5.128906 -4.253906 -5.328125 -3.84375 -5.328125 -3.3125 C -5.328125 -2.78125 -5.128906 -2.363281 -4.734375 -2.0625 C -4.347656 -1.769531 -3.796875 -1.625 -3.078125 -1.625 C -2.367188 -1.625 -1.816406 -1.769531 -1.421875 -2.0625 C -1.023438 -2.363281 -0.828125 -2.78125 -0.828125 -3.3125 C -0.828125 -3.84375 -1.023438 -4.253906 -1.421875 -4.546875 C -1.816406 -4.847656 -2.367188 -5 -3.078125 -5 Z M -0.75 -5.984375 C 0.28125 -5.984375 1.039062 -5.753906 1.53125 -5.296875 C 2.03125 -4.847656 2.28125 -4.15625 2.28125 -3.21875 C 2.28125 -2.863281 2.253906 -2.53125 2.203125 -2.21875 C 2.148438 -1.914062 2.070312 -1.617188 1.96875 -1.328125 L 1.015625 -1.328125 C 1.171875 -1.617188 1.285156 -1.90625 1.359375 -2.1875 C 1.429688 -2.46875 1.46875 -2.757812 1.46875 -3.0625 C 1.46875 -3.707031 1.296875 -4.191406 0.953125 -4.515625 C 0.617188 -4.835938 0.113281 -5 -0.5625 -5 L -1.0625 -5 C -0.707031 -4.789062 -0.441406 -4.523438 -0.265625 -4.203125 C -0.0859375 -3.890625 0 -3.507812 0 -3.0625 C 0 -2.320312 -0.28125 -1.726562 -0.84375 -1.28125 C -1.40625 -0.832031 -2.148438 -0.609375 -3.078125 -0.609375 C -4.003906 -0.609375 -4.75 -0.832031 -5.3125 -1.28125 C -5.875 -1.726562 -6.15625 -2.320312 -6.15625 -3.0625 C -6.15625 -3.507812 -6.066406 -3.890625 -5.890625 -4.203125 C -5.722656 -4.523438 -5.460938 -4.789062 -5.109375 -5 L -6.015625 -5 L -6.015625 -5.984375 Z M -0.75 -5.984375 "/>
</g>
</g>
<clipPath id="clip-0">
<path clip-rule="nonzero" d="M 42.152344 23.246094 L 367.132812 23.246094 L 367.132812 289.847656 L 42.152344 289.847656 Z M 42.152344 23.246094 "/>
</clipPath>
<clipPath id="clip-1">
<path clip-rule="nonzero" d="M 42.152344 234 L 367.132812 234 L 367.132812 236 L 42.152344 236 Z M 42.152344 234 "/>
</clipPath>
<clipPath id="clip-2">
<path clip-rule="nonzero" d="M 42.152344 175 L 367.132812 175 L 367.132812 176 L 42.152344 176 Z M 42.152344 175 "/>
</clipPath>
<clipPath id="clip-3">
<path clip-rule="nonzero" d="M 42.152344 116 L 367.132812 116 L 367.132812 117 L 42.152344 117 Z M 42.152344 116 "/>
</clipPath>
<clipPath id="clip-4">
<path clip-rule="nonzero" d="M 42.152344 56 L 367.132812 56 L 367.132812 58 L 42.152344 58 Z M 42.152344 56 "/>
</clipPath>
<clipPath id="clip-5">
<path clip-rule="nonzero" d="M 64 23.246094 L 66 23.246094 L 66 289.847656 L 64 289.847656 Z M 64 23.246094 "/>
</clipPath>
<clipPath id="clip-6">
<path clip-rule="nonzero" d="M 146 23.246094 L 148 23.246094 L 148 289.847656 L 146 289.847656 Z M 146 23.246094 "/>
</clipPath>
<clipPath id="clip-7">
<path clip-rule="nonzero" d="M 228 23.246094 L 230 23.246094 L 230 289.847656 L 228 289.847656 Z M 228 23.246094 "/>
</clipPath>
<clipPath id="clip-8">
<path clip-rule="nonzero" d="M 311 23.246094 L 312 23.246094 L 312 289.847656 L 311 289.847656 Z M 311 23.246094 "/>
</clipPath>
<clipPath id="clip-9">
<path clip-rule="nonzero" d="M 42.152344 264 L 367.132812 264 L 367.132812 266 L 42.152344 266 Z M 42.152344 264 "/>
</clipPath>
<clipPath id="clip-10">
<path clip-rule="nonzero" d="M 42.152344 204 L 367.132812 204 L 367.132812 206 L 42.152344 206 Z M 42.152344 204 "/>
</clipPath>
<clipPath id="clip-11">
<path clip-rule="nonzero" d="M 42.152344 145 L 367.132812 145 L 367.132812 147 L 42.152344 147 Z M 42.152344 145 "/>
</clipPath>
<clipPath id="clip-12">
<path clip-rule="nonzero" d="M 42.152344 86 L 367.132812 86 L 367.132812 88 L 42.152344 88 Z M 42.152344 86 "/>
</clipPath>
<clipPath id="clip-13">
<path clip-rule="nonzero" d="M 42.152344 26 L 367.132812 26 L 367.132812 28 L 42.152344 28 Z M 42.152344 26 "/>
</clipPath>
<clipPath id="clip-14">
<path clip-rule="nonzero" d="M 105 23.246094 L 107 23.246094 L 107 289.847656 L 105 289.847656 Z M 105 23.246094 "/>
</clipPath>
<clipPath id="clip-15">
<path clip-rule="nonzero" d="M 187 23.246094 L 189 23.246094 L 189 289.847656 L 187 289.847656 Z M 187 23.246094 "/>
</clipPath>
<clipPath id="clip-16">
<path clip-rule="nonzero" d="M 269 23.246094 L 271 23.246094 L 271 289.847656 L 269 289.847656 Z M 269 23.246094 "/>
</clipPath>
<clipPath id="clip-17">
<path clip-rule="nonzero" d="M 351 23.246094 L 353 23.246094 L 353 289.847656 L 351 289.847656 Z M 351 23.246094 "/>
</clipPath>
<clipPath id="clip-18">
<path clip-rule="nonzero" d="M 42.152344 264 L 367.132812 264 L 367.132812 266 L 42.152344 266 Z M 42.152344 264 "/>
</clipPath>
<clipPath id="clip-19">
<path clip-rule="nonzero" d="M 42.152344 23.246094 L 367.132812 23.246094 L 367.132812 289.847656 L 42.152344 289.847656 Z M 42.152344 23.246094 "/>
</clipPath>
<clipPath id="clip-20">
<path clip-rule="nonzero" d="M 389.542969 23.246094 L 714.523438 23.246094 L 714.523438 289.847656 L 389.542969 289.847656 Z M 389.542969 23.246094 "/>
</clipPath>
<clipPath id="clip-21">
<path clip-rule="nonzero" d="M 389.542969 238 L 714.523438 238 L 714.523438 240 L 389.542969 240 Z M 389.542969 238 "/>
</clipPath>
<clipPath id="clip-22">
<path clip-rule="nonzero" d="M 389.542969 168 L 714.523438 168 L 714.523438 169 L 389.542969 169 Z M 389.542969 168 "/>
</clipPath>
<clipPath id="clip-23">
<path clip-rule="nonzero" d="M 389.542969 97 L 714.523438 97 L 714.523438 99 L 389.542969 99 Z M 389.542969 97 "/>
</clipPath>
<clipPath id="clip-24">
<path clip-rule="nonzero" d="M 389.542969 27 L 714.523438 27 L 714.523438 28 L 389.542969 28 Z M 389.542969 27 "/>
</clipPath>
<clipPath id="clip-25">
<path clip-rule="nonzero" d="M 412 23.246094 L 413 23.246094 L 413 289.847656 L 412 289.847656 Z M 412 23.246094 "/>
</clipPath>
<clipPath id="clip-26">
<path clip-rule="nonzero" d="M 494 23.246094 L 495 23.246094 L 495 289.847656 L 494 289.847656 Z M 494 23.246094 "/>
</clipPath>
<clipPath id="clip-27">
<path clip-rule="nonzero" d="M 576 23.246094 L 577 23.246094 L 577 289.847656 L 576 289.847656 Z M 576 23.246094 "/>
</clipPath>
<clipPath id="clip-28">
<path clip-rule="nonzero" d="M 658 23.246094 L 659 23.246094 L 659 289.847656 L 658 289.847656 Z M 658 23.246094 "/>
</clipPath>
<clipPath id="clip-29">
<path clip-rule="nonzero" d="M 389.542969 273 L 714.523438 273 L 714.523438 275 L 389.542969 275 Z M 389.542969 273 "/>
</clipPath>
<clipPath id="clip-30">
<path clip-rule="nonzero" d="M 389.542969 203 L 714.523438 203 L 714.523438 205 L 389.542969 205 Z M 389.542969 203 "/>
</clipPath>
<clipPath id="clip-31">
<path clip-rule="nonzero" d="M 389.542969 132 L 714.523438 132 L 714.523438 134 L 389.542969 134 Z M 389.542969 132 "/>
</clipPath>
<clipPath id="clip-32">
<path clip-rule="nonzero" d="M 389.542969 62 L 714.523438 62 L 714.523438 64 L 389.542969 64 Z M 389.542969 62 "/>
</clipPath>
<clipPath id="clip-33">
<path clip-rule="nonzero" d="M 453 23.246094 L 455 23.246094 L 455 289.847656 L 453 289.847656 Z M 453 23.246094 "/>
</clipPath>
<clipPath id="clip-34">
<path clip-rule="nonzero" d="M 535 23.246094 L 537 23.246094 L 537 289.847656 L 535 289.847656 Z M 535 23.246094 "/>
</clipPath>
<clipPath id="clip-35">
<path clip-rule="nonzero" d="M 617 23.246094 L 619 23.246094 L 619 289.847656 L 617 289.847656 Z M 617 23.246094 "/>
</clipPath>
<clipPath id="clip-36">
<path clip-rule="nonzero" d="M 699 23.246094 L 701 23.246094 L 701 289.847656 L 699 289.847656 Z M 699 23.246094 "/>
</clipPath>
<clipPath id="clip-37">
<path clip-rule="nonzero" d="M 389.542969 273 L 714.523438 273 L 714.523438 275 L 389.542969 275 Z M 389.542969 273 "/>
</clipPath>
<clipPath id="clip-38">
<path clip-rule="nonzero" d="M 389.542969 23.246094 L 714.523438 23.246094 L 714.523438 289.847656 L 389.542969 289.847656 Z M 389.542969 23.246094 "/>
</clipPath>
<clipPath id="clip-39">
<path clip-rule="nonzero" d="M 42.152344 5.480469 L 367.132812 5.480469 L 367.132812 23.246094 L 42.152344 23.246094 Z M 42.152344 5.480469 "/>
</clipPath>
<clipPath id="clip-40">
<path clip-rule="nonzero" d="M 389.542969 5.480469 L 714.523438 5.480469 L 714.523438 23.246094 L 389.542969 23.246094 Z M 389.542969 5.480469 "/>
</clipPath>
</defs>
<rect x="-72" y="-32.4" width="864" height="388.8" fill="rgb(100%, 100%, 100%)" fill-opacity="1"/>
<rect x="-72" y="-32.4" width="864" height="388.8" fill="rgb(100%, 100%, 100%)" fill-opacity="1"/>
<path fill="none" stroke-width="1.066978" stroke-linecap="round" stroke-linejoin="round" stroke="rgb(100%, 100%, 100%)" stroke-opacity="1" stroke-miterlimit="10" d="M 0 324 L 720 324 L 720 0 L 0 0 Z M 0 324 "/>
<g clip-path="url(#clip-0)">
<path fill-rule="nonzero" fill="rgb(100%, 100%, 100%)" fill-opacity="1" d="M 42.152344 289.847656 L 367.132812 289.847656 L 367.132812 23.246094 L 42.152344 23.246094 Z M 42.152344 289.847656 "/>
</g>
<g clip-path="url(#clip-1)">
<path fill="none" stroke-width="0.533489" stroke-linecap="butt" stroke-linejoin="round" stroke="rgb(92.156863%, 92.156863%, 92.156863%)" stroke-opacity="1" stroke-miterlimit="10" d="M 42.152344 235.003906 L 367.128906 235.003906 "/>
</g>
<g clip-path="url(#clip-2)">
<path fill="none" stroke-width="0.533489" stroke-linecap="butt" stroke-linejoin="round" stroke="rgb(92.156863%, 92.156863%, 92.156863%)" stroke-opacity="1" stroke-miterlimit="10" d="M 42.152344 175.699219 L 367.128906 175.699219 "/>
</g>
<g clip-path="url(#clip-3)">
<path fill="none" stroke-width="0.533489" stroke-linecap="butt" stroke-linejoin="round" stroke="rgb(92.156863%, 92.156863%, 92.156863%)" stroke-opacity="1" stroke-miterlimit="10" d="M 42.152344 116.390625 L 367.128906 116.390625 "/>
</g>
<g clip-path="url(#clip-4)">
<path fill="none" stroke-width="0.533489" stroke-linecap="butt" stroke-linejoin="round" stroke="rgb(92.156863%, 92.156863%, 92.156863%)" stroke-opacity="1" stroke-miterlimit="10" d="M 42.152344 57.085938 L 367.128906 57.085938 "/>
</g>
<g clip-path="url(#clip-5)">
<path fill="none" stroke-width="0.533489" stroke-linecap="butt" stroke-linejoin="round" stroke="rgb(92.156863%, 92.156863%, 92.156863%)" stroke-opacity="1" stroke-miterlimit="10" d="M 65.128906 289.847656 L 65.128906 23.246094 "/>
</g>
<g clip-path="url(#clip-6)">
<path fill="none" stroke-width="0.533489" stroke-linecap="butt" stroke-linejoin="round" stroke="rgb(92.156863%, 92.156863%, 92.156863%)" stroke-opacity="1" stroke-miterlimit="10" d="M 147.195312 289.847656 L 147.195312 23.246094 "/>
</g>
<g clip-path="url(#clip-7)">
<path fill="none" stroke-width="0.533489" stroke-linecap="butt" stroke-linejoin="round" stroke="rgb(92.156863%, 92.156863%, 92.156863%)" stroke-opacity="1" stroke-miterlimit="10" d="M 229.261719 289.847656 L 229.261719 23.246094 "/>
</g>
<g clip-path="url(#clip-8)">
<path fill="none" stroke-width="0.533489" stroke-linecap="butt" stroke-linejoin="round" stroke="rgb(92.156863%, 92.156863%, 92.156863%)" stroke-opacity="1" stroke-miterlimit="10" d="M 311.324219 289.847656 L 311.324219 23.246094 "/>
</g>
<g clip-path="url(#clip-9)">
<path fill="none" stroke-width="1.066978" stroke-linecap="butt" stroke-linejoin="round" stroke="rgb(92.156863%, 92.156863%, 92.156863%)" stroke-opacity="1" stroke-miterlimit="10" d="M 42.152344 264.660156 L 367.128906 264.660156 "/>
</g>
<g clip-path="url(#clip-10)">
<path fill="none" stroke-width="1.066978" stroke-linecap="butt" stroke-linejoin="round" stroke="rgb(92.156863%, 92.156863%, 92.156863%)" stroke-opacity="1" stroke-miterlimit="10" d="M 42.152344 205.351562 L 367.128906 205.351562 "/>
</g>
<g clip-path="url(#clip-11)">
<path fill="none" stroke-width="1.066978" stroke-linecap="butt" stroke-linejoin="round" stroke="rgb(92.156863%, 92.156863%, 92.156863%)" stroke-opacity="1" stroke-miterlimit="10" d="M 42.152344 146.046875 L 367.128906 146.046875 "/>
</g>
<g clip-path="url(#clip-12)">
<path fill="none" stroke-width="1.066978" stroke-linecap="butt" stroke-linejoin="round" stroke="rgb(92.156863%, 92.156863%, 92.156863%)" stroke-opacity="1" stroke-miterlimit="10" d="M 42.152344 86.738281 L 367.128906 86.738281 "/>
</g>
<g clip-path="url(#clip-13)">
<path fill="none" stroke-width="1.066978" stroke-linecap="butt" stroke-linejoin="round" stroke="rgb(92.156863%, 92.156863%, 92.156863%)" stroke-opacity="1" stroke-miterlimit="10" d="M 42.152344 27.433594 L 367.128906 27.433594 "/>
</g>
<g clip-path="url(#clip-14)">
<path fill="none" stroke-width="1.066978" stroke-linecap="butt" stroke-linejoin="round" stroke="rgb(92.156863%, 92.156863%, 92.156863%)" stroke-opacity="1" stroke-miterlimit="10" d="M 106.160156 289.847656 L 106.160156 23.246094 "/>
</g>
<g clip-path="url(#clip-15)">
<path fill="none" stroke-width="1.066978" stroke-linecap="butt" stroke-linejoin="round" stroke="rgb(92.156863%, 92.156863%, 92.156863%)" stroke-opacity="1" stroke-miterlimit="10" d="M 188.226562 289.847656 L 188.226562 23.246094 "/>
</g>
<g clip-path="url(#clip-16)">
<path fill="none" stroke-width="1.066978" stroke-linecap="butt" stroke-linejoin="round" stroke="rgb(92.156863%, 92.156863%, 92.156863%)" stroke-opacity="1" stroke-miterlimit="10" d="M 270.292969 289.847656 L 270.292969 23.246094 "/>
</g>
<g clip-path="url(#clip-17)">
<path fill="none" stroke-width="1.066978" stroke-linecap="butt" stroke-linejoin="round" stroke="rgb(92.156863%, 92.156863%, 92.156863%)" stroke-opacity="1" stroke-miterlimit="10" d="M 352.359375 289.847656 L 352.359375 23.246094 "/>
</g>
<g clip-path="url(#clip-18)">
<path fill="none" stroke-width="1.066978" stroke-linecap="butt" stroke-linejoin="round" stroke="rgb(54.901961%, 54.901961%, 54.901961%)" stroke-opacity="1" stroke-dasharray="4.267913 4.267913" stroke-miterlimit="10" d="M 42.152344 264.660156 L 367.128906 264.660156 "/>
</g>
<path fill-rule="nonzero" fill="rgb(30.588235%, 47.45098%, 65.490196%)" fill-opacity="0.14902" d="M 56.921875 164.238281 L 89.75 76.292969 L 122.574219 35.363281 L 155.402344 42.214844 L 188.226562 74.070312 L 221.054688 87.769531 L 253.878906 113.65625 L 286.707031 143.566406 L 319.53125 194.058594 L 352.359375 264.660156 L 319.53125 277.730469 L 286.707031 262.707031 L 253.878906 236.050781 L 221.054688 212.003906 L 188.226562 201.917969 L 155.402344 177.515625 L 122.574219 167.175781 L 89.75 186.730469 L 56.921875 253.175781 Z M 56.921875 164.238281 "/>
<path fill="none" stroke-width="2.133957" stroke-linecap="butt" stroke-linejoin="round" stroke="rgb(30.588235%, 47.45098%, 65.490196%)" stroke-opacity="1" stroke-miterlimit="10" d="M 56.921875 208.707031 L 89.75 131.511719 L 122.574219 101.269531 L 155.402344 109.863281 L 188.226562 137.996094 L 221.054688 149.886719 L 253.878906 174.855469 L 286.707031 203.136719 L 319.53125 235.894531 L 352.359375 264.660156 "/>
<g clip-path="url(#clip-19)">
<path fill="none" stroke-width="1.066978" stroke-linecap="round" stroke-linejoin="round" stroke="rgb(20%, 20%, 20%)" stroke-opacity="1" stroke-miterlimit="10" d="M 42.152344 289.847656 L 367.132812 289.847656 L 367.132812 23.246094 L 42.152344 23.246094 Z M 42.152344 289.847656 "/>
</g>
<g clip-path="url(#clip-20)">
<path fill-rule="nonzero" fill="rgb(100%, 100%, 100%)" fill-opacity="1" d="M 389.542969 289.847656 L 714.523438 289.847656 L 714.523438 23.246094 L 389.542969 23.246094 Z M 389.542969 289.847656 "/>
</g>
<g clip-path="url(#clip-21)">
<path fill="none" stroke-width="0.533489" stroke-linecap="butt" stroke-linejoin="round" stroke="rgb(92.156863%, 92.156863%, 92.156863%)" stroke-opacity="1" stroke-miterlimit="10" d="M 389.542969 239 L 714.519531 239 "/>
</g>
<g clip-path="url(#clip-22)">
<path fill="none" stroke-width="0.533489" stroke-linecap="butt" stroke-linejoin="round" stroke="rgb(92.156863%, 92.156863%, 92.156863%)" stroke-opacity="1" stroke-miterlimit="10" d="M 389.542969 168.453125 L 714.519531 168.453125 "/>
</g>
<g clip-path="url(#clip-23)">
<path fill="none" stroke-width="0.533489" stroke-linecap="butt" stroke-linejoin="round" stroke="rgb(92.156863%, 92.156863%, 92.156863%)" stroke-opacity="1" stroke-miterlimit="10" d="M 389.542969 97.902344 L 714.519531 97.902344 "/>
</g>
<g clip-path="url(#clip-24)">
<path fill="none" stroke-width="0.533489" stroke-linecap="butt" stroke-linejoin="round" stroke="rgb(92.156863%, 92.156863%, 92.156863%)" stroke-opacity="1" stroke-miterlimit="10" d="M 389.542969 27.355469 L 714.519531 27.355469 "/>
</g>
<g clip-path="url(#clip-25)">
<path fill="none" stroke-width="0.533489" stroke-linecap="butt" stroke-linejoin="round" stroke="rgb(92.156863%, 92.156863%, 92.156863%)" stroke-opacity="1" stroke-miterlimit="10" d="M 412.519531 289.847656 L 412.519531 23.246094 "/>
</g>
<g clip-path="url(#clip-26)">
<path fill="none" stroke-width="0.533489" stroke-linecap="butt" stroke-linejoin="round" stroke="rgb(92.156863%, 92.156863%, 92.156863%)" stroke-opacity="1" stroke-miterlimit="10" d="M 494.585938 289.847656 L 494.585938 23.246094 "/>
</g>
<g clip-path="url(#clip-27)">
<path fill="none" stroke-width="0.533489" stroke-linecap="butt" stroke-linejoin="round" stroke="rgb(92.156863%, 92.156863%, 92.156863%)" stroke-opacity="1" stroke-miterlimit="10" d="M 576.652344 289.847656 L 576.652344 23.246094 "/>
</g>
<g clip-path="url(#clip-28)">
<path fill="none" stroke-width="0.533489" stroke-linecap="butt" stroke-linejoin="round" stroke="rgb(92.156863%, 92.156863%, 92.156863%)" stroke-opacity="1" stroke-miterlimit="10" d="M 658.714844 289.847656 L 658.714844 23.246094 "/>
</g>
<g clip-path="url(#clip-29)">
<path fill="none" stroke-width="1.066978" stroke-linecap="butt" stroke-linejoin="round" stroke="rgb(92.156863%, 92.156863%, 92.156863%)" stroke-opacity="1" stroke-miterlimit="10" d="M 389.542969 274.273438 L 714.519531 274.273438 "/>
</g>
<g clip-path="url(#clip-30)">
<path fill="none" stroke-width="1.066978" stroke-linecap="butt" stroke-linejoin="round" stroke="rgb(92.156863%, 92.156863%, 92.156863%)" stroke-opacity="1" stroke-miterlimit="10" d="M 389.542969 203.726562 L 714.519531 203.726562 "/>
</g>
<g clip-path="url(#clip-31)">
<path fill="none" stroke-width="1.066978" stroke-linecap="butt" stroke-linejoin="round" stroke="rgb(92.156863%, 92.156863%, 92.156863%)" stroke-opacity="1" stroke-miterlimit="10" d="M 389.542969 133.179688 L 714.519531 133.179688 "/>
</g>
<g clip-path="url(#clip-32)">
<path fill="none" stroke-width="1.066978" stroke-linecap="butt" stroke-linejoin="round" stroke="rgb(92.156863%, 92.156863%, 92.156863%)" stroke-opacity="1" stroke-miterlimit="10" d="M 389.542969 62.628906 L 714.519531 62.628906 "/>
</g>
<g clip-path="url(#clip-33)">
<path fill="none" stroke-width="1.066978" stroke-linecap="butt" stroke-linejoin="round" stroke="rgb(92.156863%, 92.156863%, 92.156863%)" stroke-opacity="1" stroke-miterlimit="10" d="M 453.550781 289.847656 L 453.550781 23.246094 "/>
</g>
<g clip-path="url(#clip-34)">
<path fill="none" stroke-width="1.066978" stroke-linecap="butt" stroke-linejoin="round" stroke="rgb(92.156863%, 92.156863%, 92.156863%)" stroke-opacity="1" stroke-miterlimit="10" d="M 535.617188 289.847656 L 535.617188 23.246094 "/>
</g>
<g clip-path="url(#clip-35)">
<path fill="none" stroke-width="1.066978" stroke-linecap="butt" stroke-linejoin="round" stroke="rgb(92.156863%, 92.156863%, 92.156863%)" stroke-opacity="1" stroke-miterlimit="10" d="M 617.683594 289.847656 L 617.683594 23.246094 "/>
</g>
<g clip-path="url(#clip-36)">
<path fill="none" stroke-width="1.066978" stroke-linecap="butt" stroke-linejoin="round" stroke="rgb(92.156863%, 92.156863%, 92.156863%)" stroke-opacity="1" stroke-miterlimit="10" d="M 699.75 289.847656 L 699.75 23.246094 "/>
</g>
<g clip-path="url(#clip-37)">
<path fill="none" stroke-width="1.066978" stroke-linecap="butt" stroke-linejoin="round" stroke="rgb(54.901961%, 54.901961%, 54.901961%)" stroke-opacity="1" stroke-dasharray="4.267913 4.267913" stroke-miterlimit="10" d="M 389.542969 274.273438 L 714.519531 274.273438 "/>
</g>
<path fill-rule="nonzero" fill="rgb(30.588235%, 47.45098%, 65.490196%)" fill-opacity="0.14902" d="M 404.3125 35.363281 L 437.140625 50.203125 L 469.964844 92.4375 L 502.792969 141.96875 L 535.617188 183.589844 L 568.445312 204.136719 L 601.269531 222.953125 L 634.097656 238.261719 L 666.921875 255.613281 L 699.75 274.273438 L 666.921875 277.730469 L 634.097656 273.695312 L 601.269531 264.550781 L 568.445312 253.398438 L 535.617188 244.421875 L 502.792969 222.445312 L 469.964844 196.96875 L 437.140625 181.574219 L 404.3125 246.957031 Z M 404.3125 35.363281 "/>
<path fill="none" stroke-width="2.133957" stroke-linecap="butt" stroke-linejoin="round" stroke="rgb(30.588235%, 47.45098%, 65.490196%)" stroke-opacity="1" stroke-miterlimit="10" d="M 404.3125 141.160156 L 437.140625 115.886719 L 469.964844 144.703125 L 502.792969 182.207031 L 535.617188 214.003906 L 568.445312 228.765625 L 601.269531 243.753906 L 634.097656 255.980469 L 666.921875 266.671875 L 699.75 274.273438 "/>
<g clip-path="url(#clip-38)">
<path fill="none" stroke-width="1.066978" stroke-linecap="round" stroke-linejoin="round" stroke="rgb(20%, 20%, 20%)" stroke-opacity="1" stroke-miterlimit="10" d="M 389.542969 289.847656 L 714.523438 289.847656 L 714.523438 23.246094 L 389.542969 23.246094 Z M 389.542969 289.847656 "/>
</g>
<g clip-path="url(#clip-39)">
<path fill-rule="nonzero" fill="rgb(85.098039%, 85.098039%, 85.098039%)" fill-opacity="1" stroke-width="1.066978" stroke-linecap="round" stroke-linejoin="round" stroke="rgb(20%, 20%, 20%)" stroke-opacity="1" stroke-miterlimit="10" d="M 42.152344 23.246094 L 367.132812 23.246094 L 367.132812 5.480469 L 42.152344 5.480469 Z M 42.152344 23.246094 "/>
</g>
<g fill="rgb(10.196078%, 10.196078%, 10.196078%)" fill-opacity="1">
<use xlink:href="#glyph-0-0" x="196.140625" y="17.03125"/>
<use xlink:href="#glyph-0-1" x="203.140625" y="17.03125"/>
<use xlink:href="#glyph-0-2" x="205.140625" y="17.03125"/>
<use xlink:href="#glyph-0-1" x="211.140625" y="17.03125"/>
</g>
<g clip-path="url(#clip-40)">
<path fill-rule="nonzero" fill="rgb(85.098039%, 85.098039%, 85.098039%)" fill-opacity="1" stroke-width="1.066978" stroke-linecap="round" stroke-linejoin="round" stroke="rgb(20%, 20%, 20%)" stroke-opacity="1" stroke-miterlimit="10" d="M 389.542969 23.246094 L 714.523438 23.246094 L 714.523438 5.480469 L 389.542969 5.480469 Z M 389.542969 23.246094 "/>
</g>
<g fill="rgb(10.196078%, 10.196078%, 10.196078%)" fill-opacity="1">
<use xlink:href="#glyph-0-3" x="543.03125" y="17.03125"/>
<use xlink:href="#glyph-0-4" x="548.03125" y="17.03125"/>
<use xlink:href="#glyph-0-5" x="555.03125" y="17.03125"/>
</g>
<path fill="none" stroke-width="1.066978" stroke-linecap="butt" stroke-linejoin="round" stroke="rgb(20%, 20%, 20%)" stroke-opacity="1" stroke-miterlimit="10" d="M 106.160156 292.589844 L 106.160156 289.847656 "/>
<path fill="none" stroke-width="1.066978" stroke-linecap="butt" stroke-linejoin="round" stroke="rgb(20%, 20%, 20%)" stroke-opacity="1" stroke-miterlimit="10" d="M 188.226562 292.589844 L 188.226562 289.847656 "/>
<path fill="none" stroke-width="1.066978" stroke-linecap="butt" stroke-linejoin="round" stroke="rgb(20%, 20%, 20%)" stroke-opacity="1" stroke-miterlimit="10" d="M 270.292969 292.589844 L 270.292969 289.847656 "/>
<path fill="none" stroke-width="1.066978" stroke-linecap="butt" stroke-linejoin="round" stroke="rgb(20%, 20%, 20%)" stroke-opacity="1" stroke-miterlimit="10" d="M 352.359375 292.589844 L 352.359375 289.847656 "/>
<g fill="rgb(30.196078%, 30.196078%, 30.196078%)" fill-opacity="1">
<use xlink:href="#glyph-1-0" x="97.660156" y="300.989258"/>
<use xlink:href="#glyph-1-1" x="102.660156" y="300.989258"/>
<use xlink:href="#glyph-1-2" x="104.660156" y="300.989258"/>
<use xlink:href="#glyph-1-3" x="109.660156" y="300.989258"/>
</g>
<g fill="rgb(30.196078%, 30.196078%, 30.196078%)" fill-opacity="1">
<use xlink:href="#glyph-1-0" x="179.726562" y="300.989258"/>
<use xlink:href="#glyph-1-1" x="184.726562" y="300.989258"/>
<use xlink:href="#glyph-1-3" x="186.726562" y="300.989258"/>
<use xlink:href="#glyph-1-0" x="191.726562" y="300.989258"/>
</g>
<g fill="rgb(30.196078%, 30.196078%, 30.196078%)" fill-opacity="1">
<use xlink:href="#glyph-1-0" x="261.792969" y="300.989258"/>
<use xlink:href="#glyph-1-1" x="266.792969" y="300.989258"/>
<use xlink:href="#glyph-1-4" x="268.792969" y="300.989258"/>
<use xlink:href="#glyph-1-3" x="273.792969" y="300.989258"/>
</g>
<g fill="rgb(30.196078%, 30.196078%, 30.196078%)" fill-opacity="1">
<use xlink:href="#glyph-1-5" x="343.859375" y="300.989258"/>
<use xlink:href="#glyph-1-1" x="348.859375" y="300.989258"/>
<use xlink:href="#glyph-1-0" x="350.859375" y="300.989258"/>
<use xlink:href="#glyph-1-0" x="355.859375" y="300.989258"/>
</g>
<path fill="none" stroke-width="1.066978" stroke-linecap="butt" stroke-linejoin="round" stroke="rgb(20%, 20%, 20%)" stroke-opacity="1" stroke-miterlimit="10" d="M 453.550781 292.589844 L 453.550781 289.847656 "/>
<path fill="none" stroke-width="1.066978" stroke-linecap="butt" stroke-linejoin="round" stroke="rgb(20%, 20%, 20%)" stroke-opacity="1" stroke-miterlimit="10" d="M 535.617188 292.589844 L 535.617188 289.847656 "/>
<path fill="none" stroke-width="1.066978" stroke-linecap="butt" stroke-linejoin="round" stroke="rgb(20%, 20%, 20%)" stroke-opacity="1" stroke-miterlimit="10" d="M 617.683594 292.589844 L 617.683594 289.847656 "/>
<path fill="none" stroke-width="1.066978" stroke-linecap="butt" stroke-linejoin="round" stroke="rgb(20%, 20%, 20%)" stroke-opacity="1" stroke-miterlimit="10" d="M 699.75 292.589844 L 699.75 289.847656 "/>
<g fill="rgb(30.196078%, 30.196078%, 30.196078%)" fill-opacity="1">
<use xlink:href="#glyph-1-0" x="445.050781" y="300.989258"/>
<use xlink:href="#glyph-1-1" x="450.050781" y="300.989258"/>
<use xlink:href="#glyph-1-2" x="452.050781" y="300.989258"/>
<use xlink:href="#glyph-1-3" x="457.050781" y="300.989258"/>
</g>
<g fill="rgb(30.196078%, 30.196078%, 30.196078%)" fill-opacity="1">
<use xlink:href="#glyph-1-0" x="527.117188" y="300.989258"/>
<use xlink:href="#glyph-1-1" x="532.117188" y="300.989258"/>
<use xlink:href="#glyph-1-3" x="534.117188" y="300.989258"/>
<use xlink:href="#glyph-1-0" x="539.117188" y="300.989258"/>
</g>
<g fill="rgb(30.196078%, 30.196078%, 30.196078%)" fill-opacity="1">
<use xlink:href="#glyph-1-0" x="609.183594" y="300.989258"/>
<use xlink:href="#glyph-1-1" x="614.183594" y="300.989258"/>
<use xlink:href="#glyph-1-4" x="616.183594" y="300.989258"/>
<use xlink:href="#glyph-1-3" x="621.183594" y="300.989258"/>
</g>
<g fill="rgb(30.196078%, 30.196078%, 30.196078%)" fill-opacity="1">
<use xlink:href="#glyph-1-5" x="691.25" y="300.989258"/>
<use xlink:href="#glyph-1-1" x="696.25" y="300.989258"/>
<use xlink:href="#glyph-1-0" x="698.25" y="300.989258"/>
<use xlink:href="#glyph-1-0" x="703.25" y="300.989258"/>
</g>
<g fill="rgb(30.196078%, 30.196078%, 30.196078%)" fill-opacity="1">
<use xlink:href="#glyph-1-0" x="372.609375" y="276.981445"/>
<use xlink:href="#glyph-1-1" x="377.609375" y="276.981445"/>
<use xlink:href="#glyph-1-0" x="379.609375" y="276.981445"/>
</g>
<g fill="rgb(30.196078%, 30.196078%, 30.196078%)" fill-opacity="1">
<use xlink:href="#glyph-1-0" x="372.609375" y="206.43457"/>
<use xlink:href="#glyph-1-1" x="377.609375" y="206.43457"/>
<use xlink:href="#glyph-1-5" x="379.609375" y="206.43457"/>
</g>
<g fill="rgb(30.196078%, 30.196078%, 30.196078%)" fill-opacity="1">
<use xlink:href="#glyph-1-0" x="372.609375" y="135.887695"/>
<use xlink:href="#glyph-1-1" x="377.609375" y="135.887695"/>
<use xlink:href="#glyph-1-2" x="379.609375" y="135.887695"/>
</g>
<g fill="rgb(30.196078%, 30.196078%, 30.196078%)" fill-opacity="1">
<use xlink:href="#glyph-1-0" x="372.609375" y="65.336914"/>
<use xlink:href="#glyph-1-1" x="377.609375" y="65.336914"/>
<use xlink:href="#glyph-1-6" x="379.609375" y="65.336914"/>
</g>
<path fill="none" stroke-width="1.066978" stroke-linecap="butt" stroke-linejoin="round" stroke="rgb(20%, 20%, 20%)" stroke-opacity="1" stroke-miterlimit="10" d="M 386.800781 274.273438 L 389.542969 274.273438 "/>
<path fill="none" stroke-width="1.066978" stroke-linecap="butt" stroke-linejoin="round" stroke="rgb(20%, 20%, 20%)" stroke-opacity="1" stroke-miterlimit="10" d="M 386.800781 203.726562 L 389.542969 203.726562 "/>
<path fill="none" stroke-width="1.066978" stroke-linecap="butt" stroke-linejoin="round" stroke="rgb(20%, 20%, 20%)" stroke-opacity="1" stroke-miterlimit="10" d="M 386.800781 133.179688 L 389.542969 133.179688 "/>
<path fill="none" stroke-width="1.066978" stroke-linecap="butt" stroke-linejoin="round" stroke="rgb(20%, 20%, 20%)" stroke-opacity="1" stroke-miterlimit="10" d="M 386.800781 62.628906 L 389.542969 62.628906 "/>
<g fill="rgb(30.196078%, 30.196078%, 30.196078%)" fill-opacity="1">
<use xlink:href="#glyph-1-0" x="20.21875" y="267.368164"/>
<use xlink:href="#glyph-1-1" x="25.21875" y="267.368164"/>
<use xlink:href="#glyph-1-0" x="27.21875" y="267.368164"/>
<use xlink:href="#glyph-1-0" x="32.21875" y="267.368164"/>
</g>
<g fill="rgb(30.196078%, 30.196078%, 30.196078%)" fill-opacity="1">
<use xlink:href="#glyph-1-0" x="20.21875" y="208.05957"/>
<use xlink:href="#glyph-1-1" x="25.21875" y="208.05957"/>
<use xlink:href="#glyph-1-0" x="27.21875" y="208.05957"/>
<use xlink:href="#glyph-1-2" x="32.21875" y="208.05957"/>
</g>
<g fill="rgb(30.196078%, 30.196078%, 30.196078%)" fill-opacity="1">
<use xlink:href="#glyph-1-0" x="20.21875" y="148.754883"/>
<use xlink:href="#glyph-1-1" x="25.21875" y="148.754883"/>
<use xlink:href="#glyph-1-0" x="27.21875" y="148.754883"/>
<use xlink:href="#glyph-1-7" x="32.21875" y="148.754883"/>
</g>
<g fill="rgb(30.196078%, 30.196078%, 30.196078%)" fill-opacity="1">
<use xlink:href="#glyph-1-0" x="20.21875" y="89.446289"/>
<use xlink:href="#glyph-1-1" x="25.21875" y="89.446289"/>
<use xlink:href="#glyph-1-0" x="27.21875" y="89.446289"/>
<use xlink:href="#glyph-1-8" x="32.21875" y="89.446289"/>
</g>
<g fill="rgb(30.196078%, 30.196078%, 30.196078%)" fill-opacity="1">
<use xlink:href="#glyph-1-0" x="20.21875" y="30.141602"/>
<use xlink:href="#glyph-1-1" x="25.21875" y="30.141602"/>
<use xlink:href="#glyph-1-0" x="27.21875" y="30.141602"/>
<use xlink:href="#glyph-1-9" x="32.21875" y="30.141602"/>
</g>
<path fill="none" stroke-width="1.066978" stroke-linecap="butt" stroke-linejoin="round" stroke="rgb(20%, 20%, 20%)" stroke-opacity="1" stroke-miterlimit="10" d="M 39.410156 264.660156 L 42.152344 264.660156 "/>
<path fill="none" stroke-width="1.066978" stroke-linecap="butt" stroke-linejoin="round" stroke="rgb(20%, 20%, 20%)" stroke-opacity="1" stroke-miterlimit="10" d="M 39.410156 205.351562 L 42.152344 205.351562 "/>
<path fill="none" stroke-width="1.066978" stroke-linecap="butt" stroke-linejoin="round" stroke="rgb(20%, 20%, 20%)" stroke-opacity="1" stroke-miterlimit="10" d="M 39.410156 146.046875 L 42.152344 146.046875 "/>
<path fill="none" stroke-width="1.066978" stroke-linecap="butt" stroke-linejoin="round" stroke="rgb(20%, 20%, 20%)" stroke-opacity="1" stroke-miterlimit="10" d="M 39.410156 86.738281 L 42.152344 86.738281 "/>
<path fill="none" stroke-width="1.066978" stroke-linecap="butt" stroke-linejoin="round" stroke="rgb(20%, 20%, 20%)" stroke-opacity="1" stroke-miterlimit="10" d="M 39.410156 27.433594 L 42.152344 27.433594 "/>
<g fill="rgb(0%, 0%, 0%)" fill-opacity="1">
<use xlink:href="#glyph-2-0" x="267.835938" y="314.730469"/>
<use xlink:href="#glyph-2-1" x="272.835938" y="314.730469"/>
<use xlink:href="#glyph-2-2" x="279.835938" y="314.730469"/>
<use xlink:href="#glyph-2-3" x="286.835938" y="314.730469"/>
<use xlink:href="#glyph-2-4" x="289.835938" y="314.730469"/>
<use xlink:href="#glyph-2-5" x="293.835938" y="314.730469"/>
<use xlink:href="#glyph-2-6" x="298.835938" y="314.730469"/>
<use xlink:href="#glyph-2-7" x="305.835938" y="314.730469"/>
<use xlink:href="#glyph-2-8" x="311.835938" y="314.730469"/>
<use xlink:href="#glyph-2-9" x="315.835938" y="314.730469"/>
<use xlink:href="#glyph-2-1" x="318.835938" y="314.730469"/>
<use xlink:href="#glyph-2-10" x="325.835938" y="314.730469"/>
<use xlink:href="#glyph-2-3" x="332.835938" y="314.730469"/>
<use xlink:href="#glyph-2-5" x="335.835938" y="314.730469"/>
<use xlink:href="#glyph-2-6" x="340.835938" y="314.730469"/>
<use xlink:href="#glyph-2-10" x="347.835938" y="314.730469"/>
<use xlink:href="#glyph-2-11" x="354.835938" y="314.730469"/>
<use xlink:href="#glyph-2-12" x="360.835938" y="314.730469"/>
<use xlink:href="#glyph-2-13" x="367.835938" y="314.730469"/>
<use xlink:href="#glyph-2-3" x="374.835938" y="314.730469"/>
<use xlink:href="#glyph-2-14" x="377.835938" y="314.730469"/>
<use xlink:href="#glyph-2-15" x="384.835938" y="314.730469"/>
<use xlink:href="#glyph-2-3" x="391.835938" y="314.730469"/>
<use xlink:href="#glyph-2-2" x="394.835938" y="314.730469"/>
<use xlink:href="#glyph-2-5" x="401.835938" y="314.730469"/>
<use xlink:href="#glyph-2-12" x="405.835938" y="314.730469"/>
<use xlink:href="#glyph-2-13" x="412.835938" y="314.730469"/>
<use xlink:href="#glyph-2-9" x="419.835938" y="314.730469"/>
<use xlink:href="#glyph-2-7" x="422.835938" y="314.730469"/>
<use xlink:href="#glyph-2-8" x="428.835938" y="314.730469"/>
<use xlink:href="#glyph-2-12" x="432.835938" y="314.730469"/>
<use xlink:href="#glyph-2-13" x="439.835938" y="314.730469"/>
<use xlink:href="#glyph-2-3" x="446.835938" y="314.730469"/>
<use xlink:href="#glyph-2-14" x="449.835938" y="314.730469"/>
<use xlink:href="#glyph-2-12" x="456.835938" y="314.730469"/>
<use xlink:href="#glyph-2-10" x="463.835938" y="314.730469"/>
<use xlink:href="#glyph-2-12" x="470.835938" y="314.730469"/>
<use xlink:href="#glyph-2-16" x="477.835938" y="314.730469"/>
<use xlink:href="#glyph-2-8" x="484.835938" y="314.730469"/>
</g>
<g fill="rgb(0%, 0%, 0%)" fill-opacity="1">
<use xlink:href="#glyph-3-0" x="13.691406" y="234.046875"/>
<use xlink:href="#glyph-3-1" x="13.691406" y="225.046875"/>
<use xlink:href="#glyph-3-2" x="13.691406" y="218.046875"/>
<use xlink:href="#glyph-3-3" x="13.691406" y="215.046875"/>
<use xlink:href="#glyph-3-4" x="13.691406" y="208.046875"/>
<use xlink:href="#glyph-3-5" x="13.691406" y="205.046875"/>
<use xlink:href="#glyph-3-6" x="13.691406" y="198.046875"/>
<use xlink:href="#glyph-3-7" x="13.691406" y="191.046875"/>
<use xlink:href="#glyph-3-8" x="13.691406" y="184.046875"/>
<use xlink:href="#glyph-3-4" x="13.691406" y="179.046875"/>
<use xlink:href="#glyph-3-8" x="13.691406" y="176.046875"/>
<use xlink:href="#glyph-3-1" x="13.691406" y="171.046875"/>
<use xlink:href="#glyph-3-3" x="13.691406" y="164.046875"/>
<use xlink:href="#glyph-3-9" x="13.691406" y="157.046875"/>
<use xlink:href="#glyph-3-5" x="13.691406" y="150.046875"/>
<use xlink:href="#glyph-3-10" x="13.691406" y="143.046875"/>
<use xlink:href="#glyph-3-4" x="13.691406" y="132.046875"/>
<use xlink:href="#glyph-3-11" x="13.691406" y="129.046875"/>
<use xlink:href="#glyph-3-1" x="13.691406" y="125.046875"/>
<use xlink:href="#glyph-3-8" x="13.691406" y="118.046875"/>
<use xlink:href="#glyph-3-12" x="13.691406" y="114.046875"/>
<use xlink:href="#glyph-3-7" x="13.691406" y="107.046875"/>
<use xlink:href="#glyph-3-11" x="13.691406" y="100.046875"/>
<use xlink:href="#glyph-3-2" x="13.691406" y="96.046875"/>
<use xlink:href="#glyph-3-3" x="13.691406" y="93.046875"/>
<use xlink:href="#glyph-3-12" x="13.691406" y="86.046875"/>
</g>
</svg>
