<?xml version="1.0" encoding="UTF-8"?>
<svg xmlns="http://www.w3.org/2000/svg" xmlns:xlink="http://www.w3.org/1999/xlink" width="720pt" height="345pt" viewBox="0 0 720 345">
<defs>
<g>
<g id="glyph-0-0">
<path d="M 3 -5.5625 L 1.828125 -2.359375 L 4.1875 -2.359375 Z M 2.515625 -6.40625 L 3.5 -6.40625 L 5.9375 0 L 5.046875 0 L 4.453125 -1.640625 L 1.5625 -1.640625 L 0.984375 0 L 0.0625 0 Z M 2.515625 -6.40625 "/>
</g>
<g id="glyph-0-1">
<path d="M 4 -2.46875 C 4 -3.03125 3.878906 -3.46875 3.640625 -3.78125 C 3.398438 -4.101562 3.066406 -4.265625 2.640625 -4.265625 C 2.222656 -4.265625 1.894531 -4.101562 1.65625 -3.78125 C 1.414062 -3.46875 1.296875 -3.03125 1.296875 -2.46875 C 1.296875 -1.894531 1.414062 -1.445312 1.65625 -1.125 C 1.894531 -0.8125 2.222656 -0.65625 2.640625 -0.65625 C 3.066406 -0.65625 3.398438 -0.8125 3.640625 -1.125 C 3.878906 -1.445312 4 -1.894531 4 -2.46875 Z M 4.78125 -0.59375 C 4.78125 0.21875 4.597656 0.820312 4.234375 1.21875 C 3.867188 1.625 3.3125 1.828125 2.5625 1.828125 C 2.289062 1.828125 2.03125 1.804688 1.78125 1.765625 C 1.53125 1.722656 1.289062 1.660156 1.0625 1.578125 L 1.0625 0.8125 C 1.289062 0.9375 1.519531 1.023438 1.75 1.078125 C 1.976562 1.140625 2.207031 1.171875 2.4375 1.171875 C 2.957031 1.171875 3.347656 1.035156 3.609375 0.765625 C 3.867188 0.492188 4 0.0859375 4 -0.453125 L 4 -0.84375 C 3.832031 -0.5625 3.617188 -0.347656 3.359375 -0.203125 C 3.109375 -0.0664062 2.804688 0 2.453125 0 C 1.859375 0 1.378906 -0.222656 1.015625 -0.671875 C 0.660156 -1.117188 0.484375 -1.71875 0.484375 -2.46875 C 0.484375 -3.207031 0.660156 -3.800781 1.015625 -4.25 C 1.378906 -4.695312 1.859375 -4.921875 2.453125 -4.921875 C 2.804688 -4.921875 3.109375 -4.847656 3.359375 -4.703125 C 3.617188 -4.566406 3.832031 -4.359375 4 -4.078125 L 4 -4.8125 L 4.78125 -4.8125 Z M 4.78125 -0.59375 "/>
</g>
<g id="glyph-0-2">
<path d="M 4.9375 -2.609375 L 4.9375 -2.21875 L 1.3125 -2.21875 C 1.34375 -1.675781 1.503906 -1.257812 1.796875 -0.96875 C 2.085938 -0.6875 2.5 -0.546875 3.03125 -0.546875 C 3.332031 -0.546875 3.625 -0.582031 3.90625 -0.65625 C 4.195312 -0.726562 4.484375 -0.84375 4.765625 -1 L 4.765625 -0.25 C 4.472656 -0.125 4.175781 -0.03125 3.875 0.03125 C 3.582031 0.09375 3.285156 0.125 2.984375 0.125 C 2.210938 0.125 1.601562 -0.0976562 1.15625 -0.546875 C 0.707031 -0.992188 0.484375 -1.597656 0.484375 -2.359375 C 0.484375 -3.148438 0.695312 -3.773438 1.125 -4.234375 C 1.550781 -4.691406 2.125 -4.921875 2.84375 -4.921875 C 3.488281 -4.921875 4 -4.710938 4.375 -4.296875 C 4.75 -3.878906 4.9375 -3.316406 4.9375 -2.609375 Z M 4.15625 -2.828125 C 4.144531 -3.265625 4.019531 -3.609375 3.78125 -3.859375 C 3.550781 -4.117188 3.242188 -4.25 2.859375 -4.25 C 2.410156 -4.25 2.050781 -4.125 1.78125 -3.875 C 1.519531 -3.632812 1.367188 -3.285156 1.328125 -2.828125 Z M 4.15625 -2.828125 "/>
</g>
<g id="glyph-0-3">
<path d="M 0.859375 -6.40625 L 1.734375 -6.40625 L 1.734375 -0.734375 L 4.859375 -0.734375 L 4.859375 0 L 0.859375 0 Z M 0.859375 -6.40625 "/>
</g>
<g id="glyph-0-4">
<path d="M 2.515625 0 L 0.0625 -6.40625 L 0.96875 -6.40625 L 3 -1.015625 L 5.046875 -6.40625 L 5.9375 -6.40625 L 3.5 0 Z M 2.515625 0 "/>
</g>
<g id="glyph-0-5">
<path d="M 0.859375 -6.40625 L 4.921875 -6.40625 L 4.921875 -5.6875 L 1.734375 -5.6875 L 1.734375 -3.78125 L 4.78125 -3.78125 L 4.78125 -3.046875 L 1.734375 -3.046875 L 1.734375 -0.734375 L 5 -0.734375 L 5 0 L 0.859375 0 Z M 0.859375 -6.40625 "/>
</g>
<g id="glyph-0-6">
<path d="M 0.859375 -6.40625 L 4.546875 -6.40625 L 4.546875 -5.6875 L 1.734375 -5.6875 L 1.734375 -3.796875 L 4.28125 -3.796875 L 4.28125 -3.0625 L 1.734375 -3.0625 L 1.734375 0 L 0.859375 0 Z M 0.859375 -6.40625 "/>
</g>
<g id="glyph-0-7">
</g>
<g id="glyph-0-8">
<path d="M 2.734375 -6.671875 C 2.347656 -6.015625 2.0625 -5.363281 1.875 -4.71875 C 1.6875 -4.070312 1.59375 -3.421875 1.59375 -2.765625 C 1.59375 -2.097656 1.6875 -1.441406 1.875 -0.796875 C 2.0625 -0.148438 2.347656 0.5 2.734375 1.15625 L 2.046875 1.15625 C 1.609375 0.488281 1.28125 -0.164062 1.0625 -0.8125 C 0.851562 -1.46875 0.75 -2.117188 0.75 -2.765625 C 0.75 -3.398438 0.851562 -4.039062 1.0625 -4.6875 C 1.28125 -5.332031 1.609375 -5.992188 2.046875 -6.671875 Z M 2.734375 -6.671875 "/>
</g>
<g id="glyph-0-9">
<path d="M 6.390625 -2.828125 C 6.140625 -2.828125 5.941406 -2.71875 5.796875 -2.5 C 5.660156 -2.289062 5.59375 -2 5.59375 -1.625 C 5.59375 -1.25 5.660156 -0.953125 5.796875 -0.734375 C 5.941406 -0.523438 6.140625 -0.421875 6.390625 -0.421875 C 6.640625 -0.421875 6.832031 -0.523438 6.96875 -0.734375 C 7.113281 -0.953125 7.1875 -1.25 7.1875 -1.625 C 7.1875 -2 7.113281 -2.289062 6.96875 -2.5 C 6.832031 -2.71875 6.640625 -2.828125 6.390625 -2.828125 Z M 6.390625 -3.375 C 6.847656 -3.375 7.207031 -3.210938 7.46875 -2.890625 C 7.738281 -2.578125 7.875 -2.15625 7.875 -1.625 C 7.875 -1.082031 7.738281 -0.65625 7.46875 -0.34375 C 7.195312 -0.03125 6.835938 0.125 6.390625 0.125 C 5.929688 0.125 5.566406 -0.03125 5.296875 -0.34375 C 5.035156 -0.65625 4.90625 -1.082031 4.90625 -1.625 C 4.90625 -2.15625 5.039062 -2.578125 5.3125 -2.890625 C 5.582031 -3.210938 5.941406 -3.375 6.390625 -3.375 Z M 1.96875 -5.984375 C 1.71875 -5.984375 1.519531 -5.875 1.375 -5.65625 C 1.238281 -5.445312 1.171875 -5.15625 1.171875 -4.78125 C 1.171875 -4.40625 1.238281 -4.109375 1.375 -3.890625 C 1.519531 -3.679688 1.71875 -3.578125 1.96875 -3.578125 C 2.21875 -3.578125 2.410156 -3.679688 2.546875 -3.890625 C 2.691406 -4.109375 2.765625 -4.40625 2.765625 -4.78125 C 2.765625 -5.15625 2.691406 -5.445312 2.546875 -5.65625 C 2.398438 -5.875 2.207031 -5.984375 1.96875 -5.984375 Z M 5.84375 -6.53125 L 6.53125 -6.53125 L 2.515625 0.125 L 1.828125 0.125 Z M 1.96875 -6.53125 C 2.414062 -6.53125 2.773438 -6.375 3.046875 -6.0625 C 3.316406 -5.75 3.453125 -5.320312 3.453125 -4.78125 C 3.453125 -4.238281 3.316406 -3.8125 3.046875 -3.5 C 2.773438 -3.1875 2.414062 -3.03125 1.96875 -3.03125 C 1.507812 -3.03125 1.144531 -3.1875 0.875 -3.5 C 0.613281 -3.820312 0.484375 -4.25 0.484375 -4.78125 C 0.484375 -5.3125 0.613281 -5.734375 0.875 -6.046875 C 1.144531 -6.367188 1.507812 -6.53125 1.96875 -6.53125 Z M 1.96875 -6.53125 "/>
</g>
<g id="glyph-0-10">
<path d="M 0.703125 -6.671875 L 1.390625 -6.671875 C 1.816406 -5.992188 2.132812 -5.332031 2.34375 -4.6875 C 2.5625 -4.039062 2.671875 -3.398438 2.671875 -2.765625 C 2.671875 -2.117188 2.5625 -1.46875 2.34375 -0.8125 C 2.132812 -0.164062 1.816406 0.488281 1.390625 1.15625 L 0.703125 1.15625 C 1.085938 0.5 1.375 -0.148438 1.5625 -0.796875 C 1.75 -1.441406 1.84375 -2.097656 1.84375 -2.765625 C 1.84375 -3.421875 1.75 -4.070312 1.5625 -4.71875 C 1.375 -5.363281 1.085938 -6.015625 0.703125 -6.671875 Z M 0.703125 -6.671875 "/>
</g>
<g id="glyph-0-11">
<path d="M 1.734375 -3.0625 L 1.734375 -0.71875 L 3.125 -0.71875 C 3.59375 -0.71875 3.9375 -0.8125 4.15625 -1 C 4.382812 -1.195312 4.5 -1.492188 4.5 -1.890625 C 4.5 -2.285156 4.382812 -2.578125 4.15625 -2.765625 C 3.9375 -2.960938 3.59375 -3.0625 3.125 -3.0625 Z M 1.734375 -5.703125 L 1.734375 -3.765625 L 3.015625 -3.765625 C 3.441406 -3.765625 3.757812 -3.84375 3.96875 -4 C 4.175781 -4.164062 4.28125 -4.410156 4.28125 -4.734375 C 4.28125 -5.054688 4.175781 -5.296875 3.96875 -5.453125 C 3.757812 -5.617188 3.441406 -5.703125 3.015625 -5.703125 Z M 0.859375 -6.40625 L 3.078125 -6.40625 C 3.742188 -6.40625 4.253906 -6.269531 4.609375 -6 C 4.960938 -5.726562 5.140625 -5.335938 5.140625 -4.828125 C 5.140625 -4.429688 5.046875 -4.117188 4.859375 -3.890625 C 4.679688 -3.660156 4.414062 -3.515625 4.0625 -3.453125 C 4.488281 -3.359375 4.816406 -3.164062 5.046875 -2.875 C 5.285156 -2.59375 5.40625 -2.234375 5.40625 -1.796875 C 5.40625 -1.222656 5.210938 -0.78125 4.828125 -0.46875 C 4.441406 -0.15625 3.890625 0 3.171875 0 L 0.859375 0 Z M 0.859375 -6.40625 "/>
</g>
<g id="glyph-0-12">
<path d="M 0.859375 -6.40625 L 2.03125 -6.40625 L 4.875 -1.046875 L 4.875 -6.40625 L 5.71875 -6.40625 L 5.71875 0 L 4.546875 0 L 1.703125 -5.359375 L 1.703125 0 L 0.859375 0 Z M 0.859375 -6.40625 "/>
</g>
<g id="glyph-0-13">
<path d="M 1.734375 -5.703125 L 1.734375 -3.296875 L 2.828125 -3.296875 C 3.222656 -3.296875 3.53125 -3.398438 3.75 -3.609375 C 3.976562 -3.816406 4.09375 -4.113281 4.09375 -4.5 C 4.09375 -4.882812 3.976562 -5.179688 3.75 -5.390625 C 3.53125 -5.597656 3.222656 -5.703125 2.828125 -5.703125 Z M 0.859375 -6.40625 L 2.828125 -6.40625 C 3.546875 -6.40625 4.085938 -6.242188 4.453125 -5.921875 C 4.816406 -5.597656 5 -5.125 5 -4.5 C 5 -3.863281 4.816406 -3.382812 4.453125 -3.0625 C 4.085938 -2.738281 3.546875 -2.578125 2.828125 -2.578125 L 1.734375 -2.578125 L 1.734375 0 L 0.859375 0 Z M 0.859375 -6.40625 "/>
</g>
<g id="glyph-0-14">
<path d="M 0.953125 -6.40625 L 4.359375 -6.40625 L 4.359375 -5.6875 L 1.75 -5.6875 L 1.75 -4.109375 C 1.875 -4.148438 2 -4.179688 2.125 -4.203125 C 2.25 -4.222656 2.375 -4.234375 2.5 -4.234375 C 3.21875 -4.234375 3.785156 -4.035156 4.203125 -3.640625 C 4.617188 -3.253906 4.828125 -2.726562 4.828125 -2.0625 C 4.828125 -1.363281 4.613281 -0.820312 4.1875 -0.4375 C 3.757812 -0.0625 3.148438 0.125 2.359375 0.125 C 2.097656 0.125 1.828125 0.0976562 1.546875 0.046875 C 1.265625 0.00390625 0.972656 -0.0625 0.671875 -0.15625 L 0.671875 -1.015625 C 0.929688 -0.878906 1.195312 -0.773438 1.46875 -0.703125 C 1.75 -0.640625 2.039062 -0.609375 2.34375 -0.609375 C 2.84375 -0.609375 3.234375 -0.738281 3.515625 -1 C 3.804688 -1.257812 3.953125 -1.613281 3.953125 -2.0625 C 3.953125 -2.507812 3.804688 -2.863281 3.515625 -3.125 C 3.234375 -3.382812 2.84375 -3.515625 2.34375 -3.515625 C 2.113281 -3.515625 1.882812 -3.488281 1.65625 -3.4375 C 1.425781 -3.382812 1.191406 -3.300781 0.953125 -3.1875 Z M 0.953125 -6.40625 "/>
</g>
<g id="glyph-0-15">
<path d="M 2.796875 -5.84375 C 2.347656 -5.84375 2.007812 -5.617188 1.78125 -5.171875 C 1.5625 -4.734375 1.453125 -4.078125 1.453125 -3.203125 C 1.453125 -2.316406 1.5625 -1.65625 1.78125 -1.21875 C 2.007812 -0.78125 2.347656 -0.5625 2.796875 -0.5625 C 3.242188 -0.5625 3.578125 -0.78125 3.796875 -1.21875 C 4.023438 -1.65625 4.140625 -2.316406 4.140625 -3.203125 C 4.140625 -4.078125 4.023438 -4.734375 3.796875 -5.171875 C 3.578125 -5.617188 3.242188 -5.84375 2.796875 -5.84375 Z M 2.796875 -6.53125 C 3.515625 -6.53125 4.0625 -6.242188 4.4375 -5.671875 C 4.820312 -5.109375 5.015625 -4.285156 5.015625 -3.203125 C 5.015625 -2.117188 4.820312 -1.289062 4.4375 -0.71875 C 4.0625 -0.15625 3.515625 0.125 2.796875 0.125 C 2.078125 0.125 1.523438 -0.15625 1.140625 -0.71875 C 0.765625 -1.289062 0.578125 -2.117188 0.578125 -3.203125 C 0.578125 -4.285156 0.765625 -5.109375 1.140625 -5.671875 C 1.523438 -6.242188 2.078125 -6.53125 2.796875 -6.53125 Z M 2.796875 -6.53125 "/>
</g>
<g id="glyph-0-16">
<path d="M 2.90625 -3.546875 C 2.507812 -3.546875 2.195312 -3.410156 1.96875 -3.140625 C 1.75 -2.878906 1.640625 -2.519531 1.640625 -2.0625 C 1.640625 -1.59375 1.75 -1.222656 1.96875 -0.953125 C 2.195312 -0.691406 2.507812 -0.5625 2.90625 -0.5625 C 3.289062 -0.5625 3.597656 -0.691406 3.828125 -0.953125 C 4.054688 -1.222656 4.171875 -1.59375 4.171875 -2.0625 C 4.171875 -2.519531 4.054688 -2.878906 3.828125 -3.140625 C 3.597656 -3.410156 3.289062 -3.546875 2.90625 -3.546875 Z M 4.625 -6.265625 L 4.625 -5.484375 C 4.40625 -5.585938 4.1875 -5.664062 3.96875 -5.71875 C 3.75 -5.769531 3.53125 -5.796875 3.3125 -5.796875 C 2.738281 -5.796875 2.300781 -5.601562 2 -5.21875 C 1.695312 -4.832031 1.523438 -4.25 1.484375 -3.46875 C 1.648438 -3.71875 1.859375 -3.90625 2.109375 -4.03125 C 2.367188 -4.164062 2.648438 -4.234375 2.953125 -4.234375 C 3.597656 -4.234375 4.109375 -4.035156 4.484375 -3.640625 C 4.859375 -3.253906 5.046875 -2.726562 5.046875 -2.0625 C 5.046875 -1.394531 4.847656 -0.863281 4.453125 -0.46875 C 4.066406 -0.0703125 3.550781 0.125 2.90625 0.125 C 2.164062 0.125 1.597656 -0.15625 1.203125 -0.71875 C 0.804688 -1.289062 0.609375 -2.117188 0.609375 -3.203125 C 0.609375 -4.210938 0.847656 -5.019531 1.328125 -5.625 C 1.816406 -6.226562 2.460938 -6.53125 3.265625 -6.53125 C 3.484375 -6.53125 3.703125 -6.507812 3.921875 -6.46875 C 4.148438 -6.425781 4.382812 -6.359375 4.625 -6.265625 Z M 4.625 -6.265625 "/>
</g>
<g id="glyph-0-17">
<path d="M 0.71875 -6.40625 L 4.84375 -6.40625 L 4.84375 -6.046875 L 2.515625 0 L 1.609375 0 L 3.796875 -5.6875 L 0.71875 -5.6875 Z M 0.71875 -6.40625 "/>
</g>
<g id="glyph-0-18">
<path d="M 3.5625 -3.453125 C 3.976562 -3.367188 4.300781 -3.1875 4.53125 -2.90625 C 4.769531 -2.625 4.890625 -2.273438 4.890625 -1.859375 C 4.890625 -1.234375 4.671875 -0.742188 4.234375 -0.390625 C 3.804688 -0.046875 3.191406 0.125 2.390625 0.125 C 2.117188 0.125 1.835938 0.0976562 1.546875 0.046875 C 1.265625 -0.00390625 0.972656 -0.0820312 0.671875 -0.1875 L 0.671875 -1.03125 C 0.910156 -0.894531 1.171875 -0.789062 1.453125 -0.71875 C 1.742188 -0.644531 2.046875 -0.609375 2.359375 -0.609375 C 2.898438 -0.609375 3.3125 -0.710938 3.59375 -0.921875 C 3.882812 -1.140625 4.03125 -1.453125 4.03125 -1.859375 C 4.03125 -2.242188 3.894531 -2.539062 3.625 -2.75 C 3.363281 -2.96875 3 -3.078125 2.53125 -3.078125 L 1.78125 -3.078125 L 1.78125 -3.78125 L 2.5625 -3.78125 C 2.988281 -3.78125 3.3125 -3.863281 3.53125 -4.03125 C 3.757812 -4.207031 3.875 -4.457031 3.875 -4.78125 C 3.875 -5.101562 3.753906 -5.351562 3.515625 -5.53125 C 3.285156 -5.707031 2.957031 -5.796875 2.53125 -5.796875 C 2.289062 -5.796875 2.035156 -5.769531 1.765625 -5.71875 C 1.492188 -5.664062 1.191406 -5.585938 0.859375 -5.484375 L 0.859375 -6.25 C 1.191406 -6.34375 1.5 -6.410156 1.78125 -6.453125 C 2.070312 -6.503906 2.347656 -6.53125 2.609375 -6.53125 C 3.265625 -6.53125 3.78125 -6.378906 4.15625 -6.078125 C 4.539062 -5.773438 4.734375 -5.367188 4.734375 -4.859375 C 4.734375 -4.503906 4.628906 -4.203125 4.421875 -3.953125 C 4.222656 -3.710938 3.9375 -3.546875 3.5625 -3.453125 Z M 3.5625 -3.453125 "/>
</g>
<g id="glyph-0-19">
<path d="M 3.328125 -5.65625 L 1.140625 -2.234375 L 3.328125 -2.234375 Z M 3.09375 -6.40625 L 4.1875 -6.40625 L 4.1875 -2.234375 L 5.109375 -2.234375 L 5.109375 -1.515625 L 4.1875 -1.515625 L 4.1875 0 L 3.328125 0 L 3.328125 -1.515625 L 0.421875 -1.515625 L 0.421875 -2.34375 Z M 3.09375 -6.40625 "/>
</g>
<g id="glyph-0-20">
<path d="M 1.6875 -0.734375 L 4.71875 -0.734375 L 4.71875 0 L 0.640625 0 L 0.640625 -0.734375 C 0.972656 -1.066406 1.421875 -1.519531 1.984375 -2.09375 C 2.554688 -2.675781 2.914062 -3.050781 3.0625 -3.21875 C 3.34375 -3.53125 3.535156 -3.789062 3.640625 -4 C 3.753906 -4.21875 3.8125 -4.429688 3.8125 -4.640625 C 3.8125 -4.984375 3.691406 -5.257812 3.453125 -5.46875 C 3.210938 -5.6875 2.898438 -5.796875 2.515625 -5.796875 C 2.242188 -5.796875 1.957031 -5.75 1.65625 -5.65625 C 1.351562 -5.5625 1.03125 -5.421875 0.6875 -5.234375 L 0.6875 -6.109375 C 1.039062 -6.242188 1.367188 -6.347656 1.671875 -6.421875 C 1.972656 -6.492188 2.25 -6.53125 2.5 -6.53125 C 3.164062 -6.53125 3.695312 -6.363281 4.09375 -6.03125 C 4.488281 -5.695312 4.6875 -5.253906 4.6875 -4.703125 C 4.6875 -4.429688 4.632812 -4.175781 4.53125 -3.9375 C 4.4375 -3.707031 4.257812 -3.429688 4 -3.109375 C 3.925781 -3.023438 3.695312 -2.785156 3.3125 -2.390625 C 2.925781 -1.992188 2.382812 -1.441406 1.6875 -0.734375 Z M 1.6875 -0.734375 "/>
</g>
<g id="glyph-0-21">
<path d="M 0.421875 -2.765625 L 2.75 -2.765625 L 2.75 -2.0625 L 0.421875 -2.0625 Z M 0.421875 -2.765625 "/>
</g>
<g id="glyph-0-22">
<path d="M 0.9375 -1.09375 L 1.84375 -1.09375 L 1.84375 0 L 0.9375 0 Z M 0.9375 -1.09375 "/>
</g>
<g id="glyph-0-23">
<path d="M 4.296875 -4.625 L 4.296875 -3.890625 C 4.066406 -4.015625 3.835938 -4.101562 3.609375 -4.15625 C 3.390625 -4.21875 3.164062 -4.25 2.9375 -4.25 C 2.425781 -4.25 2.023438 -4.085938 1.734375 -3.765625 C 1.453125 -3.441406 1.3125 -2.988281 1.3125 -2.40625 C 1.3125 -1.8125 1.453125 -1.351562 1.734375 -1.03125 C 2.023438 -0.707031 2.425781 -0.546875 2.9375 -0.546875 C 3.164062 -0.546875 3.390625 -0.578125 3.609375 -0.640625 C 3.835938 -0.703125 4.066406 -0.796875 4.296875 -0.921875 L 4.296875 -0.1875 C 4.066406 -0.0820312 3.832031 -0.00390625 3.59375 0.046875 C 3.363281 0.0976562 3.117188 0.125 2.859375 0.125 C 2.128906 0.125 1.550781 -0.0976562 1.125 -0.546875 C 0.695312 -1.003906 0.484375 -1.625 0.484375 -2.40625 C 0.484375 -3.1875 0.695312 -3.800781 1.125 -4.25 C 1.5625 -4.695312 2.15625 -4.921875 2.90625 -4.921875 C 3.144531 -4.921875 3.378906 -4.894531 3.609375 -4.84375 C 3.847656 -4.800781 4.078125 -4.726562 4.296875 -4.625 Z M 4.296875 -4.625 "/>
</g>
<g id="glyph-0-24">
<path d="M 2.6875 -4.25 C 2.269531 -4.25 1.9375 -4.082031 1.6875 -3.75 C 1.4375 -3.425781 1.3125 -2.976562 1.3125 -2.40625 C 1.3125 -1.820312 1.429688 -1.363281 1.671875 -1.03125 C 1.921875 -0.707031 2.257812 -0.546875 2.6875 -0.546875 C 3.113281 -0.546875 3.445312 -0.710938 3.6875 -1.046875 C 3.9375 -1.378906 4.0625 -1.832031 4.0625 -2.40625 C 4.0625 -2.96875 3.9375 -3.414062 3.6875 -3.75 C 3.445312 -4.082031 3.113281 -4.25 2.6875 -4.25 Z M 2.6875 -4.921875 C 3.375 -4.921875 3.914062 -4.695312 4.3125 -4.25 C 4.707031 -3.8125 4.90625 -3.195312 4.90625 -2.40625 C 4.90625 -1.613281 4.707031 -0.992188 4.3125 -0.546875 C 3.914062 -0.0976562 3.375 0.125 2.6875 0.125 C 2 0.125 1.457031 -0.0976562 1.0625 -0.546875 C 0.675781 -0.992188 0.484375 -1.613281 0.484375 -2.40625 C 0.484375 -3.195312 0.675781 -3.8125 1.0625 -4.25 C 1.457031 -4.695312 2 -4.921875 2.6875 -4.921875 Z M 2.6875 -4.921875 "/>
</g>
<g id="glyph-0-25">
<path d="M 4.828125 -2.90625 L 4.828125 0 L 4.03125 0 L 4.03125 -2.875 C 4.03125 -3.332031 3.941406 -3.671875 3.765625 -3.890625 C 3.585938 -4.117188 3.320312 -4.234375 2.96875 -4.234375 C 2.539062 -4.234375 2.203125 -4.097656 1.953125 -3.828125 C 1.710938 -3.554688 1.59375 -3.1875 1.59375 -2.71875 L 1.59375 0 L 0.796875 0 L 0.796875 -4.8125 L 1.59375 -4.8125 L 1.59375 -4.0625 C 1.78125 -4.351562 2 -4.566406 2.25 -4.703125 C 2.507812 -4.847656 2.8125 -4.921875 3.15625 -4.921875 C 3.707031 -4.921875 4.125 -4.75 4.40625 -4.40625 C 4.6875 -4.070312 4.828125 -3.570312 4.828125 -2.90625 Z M 4.828125 -2.90625 "/>
</g>
<g id="glyph-0-26">
<path d="M 0.859375 -6.40625 L 2.15625 -6.40625 L 3.796875 -2.046875 L 5.4375 -6.40625 L 6.734375 -6.40625 L 6.734375 0 L 5.890625 0 L 5.890625 -5.625 L 4.234375 -1.234375 L 3.359375 -1.234375 L 1.703125 -5.625 L 1.703125 0 L 0.859375 0 Z M 0.859375 -6.40625 "/>
</g>
<g id="glyph-0-27">
<path d="M 1.734375 -5.703125 L 1.734375 -0.71875 L 2.78125 -0.71875 C 3.664062 -0.71875 4.3125 -0.914062 4.71875 -1.3125 C 5.132812 -1.71875 5.34375 -2.351562 5.34375 -3.21875 C 5.34375 -4.070312 5.132812 -4.695312 4.71875 -5.09375 C 4.3125 -5.5 3.664062 -5.703125 2.78125 -5.703125 Z M 0.859375 -6.40625 L 2.640625 -6.40625 C 3.890625 -6.40625 4.800781 -6.144531 5.375 -5.625 C 5.957031 -5.113281 6.25 -4.3125 6.25 -3.21875 C 6.25 -2.113281 5.957031 -1.300781 5.375 -0.78125 C 4.789062 -0.257812 3.878906 0 2.640625 0 L 0.859375 0 Z M 0.859375 -6.40625 "/>
</g>
<g id="glyph-0-28">
<path d="M 3.90625 -3 C 4.09375 -2.9375 4.273438 -2.800781 4.453125 -2.59375 C 4.628906 -2.394531 4.804688 -2.113281 4.984375 -1.75 L 5.859375 0 L 4.921875 0 L 4.109375 -1.640625 C 3.890625 -2.078125 3.679688 -2.363281 3.484375 -2.5 C 3.285156 -2.632812 3.015625 -2.703125 2.671875 -2.703125 L 1.734375 -2.703125 L 1.734375 0 L 0.859375 0 L 0.859375 -6.40625 L 2.828125 -6.40625 C 3.554688 -6.40625 4.097656 -6.253906 4.453125 -5.953125 C 4.816406 -5.648438 5 -5.1875 5 -4.5625 C 5 -4.15625 4.90625 -3.816406 4.71875 -3.546875 C 4.53125 -3.285156 4.257812 -3.101562 3.90625 -3 Z M 1.734375 -5.703125 L 1.734375 -3.421875 L 2.828125 -3.421875 C 3.242188 -3.421875 3.554688 -3.515625 3.765625 -3.703125 C 3.984375 -3.898438 4.09375 -4.1875 4.09375 -4.5625 C 4.09375 -4.9375 3.984375 -5.21875 3.765625 -5.40625 C 3.554688 -5.601562 3.242188 -5.703125 2.828125 -5.703125 Z M 1.734375 -5.703125 "/>
</g>
<g id="glyph-0-29">
<path d="M 0.828125 -6.6875 L 1.625 -6.6875 L 1.625 0 L 0.828125 0 Z M 0.828125 -6.6875 "/>
</g>
<g id="glyph-0-30">
<path d="M 3.015625 -2.421875 C 2.378906 -2.421875 1.9375 -2.347656 1.6875 -2.203125 C 1.4375 -2.054688 1.3125 -1.804688 1.3125 -1.453125 C 1.3125 -1.171875 1.40625 -0.945312 1.59375 -0.78125 C 1.78125 -0.613281 2.03125 -0.53125 2.34375 -0.53125 C 2.78125 -0.53125 3.128906 -0.6875 3.390625 -1 C 3.660156 -1.3125 3.796875 -1.722656 3.796875 -2.234375 L 3.796875 -2.421875 Z M 4.59375 -2.75 L 4.59375 0 L 3.796875 0 L 3.796875 -0.734375 C 3.617188 -0.441406 3.394531 -0.222656 3.125 -0.078125 C 2.851562 0.0546875 2.523438 0.125 2.140625 0.125 C 1.648438 0.125 1.257812 -0.0078125 0.96875 -0.28125 C 0.675781 -0.5625 0.53125 -0.9375 0.53125 -1.40625 C 0.53125 -1.945312 0.707031 -2.351562 1.0625 -2.625 C 1.425781 -2.894531 1.96875 -3.03125 2.6875 -3.03125 L 3.796875 -3.03125 L 3.796875 -3.109375 C 3.796875 -3.472656 3.675781 -3.753906 3.4375 -3.953125 C 3.195312 -4.148438 2.863281 -4.25 2.4375 -4.25 C 2.15625 -4.25 1.882812 -4.21875 1.625 -4.15625 C 1.363281 -4.09375 1.113281 -3.992188 0.875 -3.859375 L 0.875 -4.59375 C 1.164062 -4.707031 1.445312 -4.789062 1.71875 -4.84375 C 1.988281 -4.894531 2.253906 -4.921875 2.515625 -4.921875 C 3.210938 -4.921875 3.734375 -4.738281 4.078125 -4.375 C 4.421875 -4.019531 4.59375 -3.476562 4.59375 -2.75 Z M 4.59375 -2.75 "/>
</g>
<g id="glyph-0-31">
<path d="M 3.609375 -4.078125 C 3.523438 -4.128906 3.429688 -4.164062 3.328125 -4.1875 C 3.222656 -4.207031 3.109375 -4.21875 2.984375 -4.21875 C 2.535156 -4.21875 2.191406 -4.070312 1.953125 -3.78125 C 1.710938 -3.488281 1.59375 -3.070312 1.59375 -2.53125 L 1.59375 0 L 0.796875 0 L 0.796875 -4.8125 L 1.59375 -4.8125 L 1.59375 -4.0625 C 1.757812 -4.351562 1.972656 -4.566406 2.234375 -4.703125 C 2.503906 -4.847656 2.832031 -4.921875 3.21875 -4.921875 C 3.269531 -4.921875 3.328125 -4.914062 3.390625 -4.90625 C 3.453125 -4.90625 3.523438 -4.898438 3.609375 -4.890625 Z M 3.609375 -4.078125 "/>
</g>
<g id="glyph-0-32">
<path d="M 4.703125 -6.203125 L 4.703125 -5.359375 C 4.378906 -5.515625 4.070312 -5.628906 3.78125 -5.703125 C 3.488281 -5.785156 3.203125 -5.828125 2.921875 -5.828125 C 2.453125 -5.828125 2.085938 -5.734375 1.828125 -5.546875 C 1.578125 -5.367188 1.453125 -5.109375 1.453125 -4.765625 C 1.453125 -4.484375 1.535156 -4.269531 1.703125 -4.125 C 1.878906 -3.976562 2.203125 -3.863281 2.671875 -3.78125 L 3.203125 -3.671875 C 3.847656 -3.546875 4.320312 -3.328125 4.625 -3.015625 C 4.9375 -2.703125 5.09375 -2.285156 5.09375 -1.765625 C 5.09375 -1.148438 4.882812 -0.679688 4.46875 -0.359375 C 4.050781 -0.0351562 3.441406 0.125 2.640625 0.125 C 2.335938 0.125 2.015625 0.0859375 1.671875 0.015625 C 1.328125 -0.046875 0.972656 -0.144531 0.609375 -0.28125 L 0.609375 -1.171875 C 0.960938 -0.972656 1.304688 -0.820312 1.640625 -0.71875 C 1.972656 -0.625 2.304688 -0.578125 2.640625 -0.578125 C 3.128906 -0.578125 3.507812 -0.671875 3.78125 -0.859375 C 4.050781 -1.054688 4.1875 -1.335938 4.1875 -1.703125 C 4.1875 -2.015625 4.085938 -2.257812 3.890625 -2.4375 C 3.703125 -2.613281 3.390625 -2.75 2.953125 -2.84375 L 2.421875 -2.953125 C 1.773438 -3.078125 1.304688 -3.273438 1.015625 -3.546875 C 0.722656 -3.828125 0.578125 -4.210938 0.578125 -4.703125 C 0.578125 -5.265625 0.773438 -5.707031 1.171875 -6.03125 C 1.578125 -6.363281 2.128906 -6.53125 2.828125 -6.53125 C 3.128906 -6.53125 3.4375 -6.5 3.75 -6.4375 C 4.0625 -6.382812 4.378906 -6.304688 4.703125 -6.203125 Z M 4.703125 -6.203125 "/>
</g>
<g id="glyph-0-33">
<path d="M 0.546875 -6.40625 L 1.484375 -6.40625 L 3.078125 -4.03125 L 4.6875 -6.40625 L 5.609375 -6.40625 L 3.546875 -3.328125 L 5.75 0 L 4.8125 0 L 3.015625 -2.734375 L 1.203125 0 L 0.265625 0 L 2.546875 -3.421875 Z M 0.546875 -6.40625 "/>
</g>
<g id="glyph-0-34">
<path d="M 5.234375 -0.921875 L 5.234375 -2.640625 L 3.8125 -2.640625 L 3.8125 -3.34375 L 6.09375 -3.34375 L 6.09375 -0.59375 C 5.757812 -0.351562 5.390625 -0.171875 4.984375 -0.046875 C 4.578125 0.0664062 4.144531 0.125 3.6875 0.125 C 2.6875 0.125 1.90625 -0.164062 1.34375 -0.75 C 0.78125 -1.332031 0.5 -2.148438 0.5 -3.203125 C 0.5 -4.242188 0.78125 -5.054688 1.34375 -5.640625 C 1.90625 -6.234375 2.6875 -6.53125 3.6875 -6.53125 C 4.113281 -6.53125 4.515625 -6.476562 4.890625 -6.375 C 5.265625 -6.269531 5.609375 -6.117188 5.921875 -5.921875 L 5.921875 -5 C 5.609375 -5.269531 5.269531 -5.472656 4.90625 -5.609375 C 4.539062 -5.742188 4.160156 -5.8125 3.765625 -5.8125 C 2.984375 -5.8125 2.394531 -5.59375 2 -5.15625 C 1.601562 -4.71875 1.40625 -4.066406 1.40625 -3.203125 C 1.40625 -2.335938 1.601562 -1.6875 2 -1.25 C 2.394531 -0.8125 2.984375 -0.59375 3.765625 -0.59375 C 4.078125 -0.59375 4.351562 -0.617188 4.59375 -0.671875 C 4.832031 -0.722656 5.046875 -0.804688 5.234375 -0.921875 Z M 5.234375 -0.921875 "/>
</g>
<g id="glyph-0-35">
<path d="M 0.75 -1.90625 L 0.75 -4.8125 L 1.53125 -4.8125 L 1.53125 -1.921875 C 1.53125 -1.472656 1.617188 -1.132812 1.796875 -0.90625 C 1.984375 -0.675781 2.253906 -0.5625 2.609375 -0.5625 C 3.035156 -0.5625 3.367188 -0.695312 3.609375 -0.96875 C 3.859375 -1.238281 3.984375 -1.609375 3.984375 -2.078125 L 3.984375 -4.8125 L 4.78125 -4.8125 L 4.78125 0 L 3.984375 0 L 3.984375 -0.734375 C 3.796875 -0.441406 3.570312 -0.222656 3.3125 -0.078125 C 3.0625 0.0546875 2.769531 0.125 2.4375 0.125 C 1.882812 0.125 1.460938 -0.046875 1.171875 -0.390625 C 0.890625 -0.734375 0.75 -1.238281 0.75 -1.90625 Z M 2.734375 -4.921875 Z M 2.734375 -4.921875 "/>
</g>
<g id="glyph-0-36">
<path d="M 3.890625 -4.671875 L 3.890625 -3.921875 C 3.671875 -4.035156 3.441406 -4.117188 3.203125 -4.171875 C 2.960938 -4.234375 2.710938 -4.265625 2.453125 -4.265625 C 2.054688 -4.265625 1.757812 -4.203125 1.5625 -4.078125 C 1.375 -3.960938 1.28125 -3.785156 1.28125 -3.546875 C 1.28125 -3.359375 1.347656 -3.210938 1.484375 -3.109375 C 1.628906 -3.003906 1.910156 -2.90625 2.328125 -2.8125 L 2.609375 -2.75 C 3.160156 -2.632812 3.554688 -2.46875 3.796875 -2.25 C 4.035156 -2.03125 4.15625 -1.722656 4.15625 -1.328125 C 4.15625 -0.878906 3.976562 -0.523438 3.625 -0.265625 C 3.269531 -0.00390625 2.785156 0.125 2.171875 0.125 C 1.910156 0.125 1.640625 0.0976562 1.359375 0.046875 C 1.078125 -0.00390625 0.785156 -0.078125 0.484375 -0.171875 L 0.484375 -1 C 0.773438 -0.84375 1.0625 -0.722656 1.34375 -0.640625 C 1.625 -0.566406 1.90625 -0.53125 2.1875 -0.53125 C 2.550781 -0.53125 2.832031 -0.59375 3.03125 -0.71875 C 3.238281 -0.851562 3.34375 -1.035156 3.34375 -1.265625 C 3.34375 -1.484375 3.269531 -1.648438 3.125 -1.765625 C 2.976562 -1.878906 2.660156 -1.988281 2.171875 -2.09375 L 1.90625 -2.15625 C 1.40625 -2.257812 1.046875 -2.414062 0.828125 -2.625 C 0.617188 -2.84375 0.515625 -3.140625 0.515625 -3.515625 C 0.515625 -3.960938 0.671875 -4.304688 0.984375 -4.546875 C 1.304688 -4.796875 1.765625 -4.921875 2.359375 -4.921875 C 2.648438 -4.921875 2.921875 -4.898438 3.171875 -4.859375 C 3.429688 -4.816406 3.671875 -4.753906 3.890625 -4.671875 Z M 3.890625 -4.671875 "/>
</g>
<g id="glyph-0-37">
<path d="M 3.265625 -6.6875 L 3.265625 -6.03125 L 2.515625 -6.03125 C 2.222656 -6.03125 2.019531 -5.972656 1.90625 -5.859375 C 1.800781 -5.742188 1.75 -5.535156 1.75 -5.234375 L 1.75 -4.8125 L 3.046875 -4.8125 L 3.046875 -4.203125 L 1.75 -4.203125 L 1.75 0 L 0.953125 0 L 0.953125 -4.203125 L 0.203125 -4.203125 L 0.203125 -4.8125 L 0.953125 -4.8125 L 0.953125 -5.140625 C 0.953125 -5.679688 1.078125 -6.070312 1.328125 -6.3125 C 1.578125 -6.5625 1.972656 -6.6875 2.515625 -6.6875 Z M 3.265625 -6.6875 "/>
</g>
<g id="glyph-0-38">
<path d="M 1.609375 -6.171875 L 1.609375 -4.8125 L 3.234375 -4.8125 L 3.234375 -4.203125 L 1.609375 -4.203125 L 1.609375 -1.578125 C 1.609375 -1.191406 1.660156 -0.941406 1.765625 -0.828125 C 1.878906 -0.710938 2.097656 -0.65625 2.421875 -0.65625 L 3.234375 -0.65625 L 3.234375 0 L 2.421875 0 C 1.816406 0 1.394531 -0.113281 1.15625 -0.34375 C 0.925781 -0.570312 0.8125 -0.984375 0.8125 -1.578125 L 0.8125 -4.203125 L 0.234375 -4.203125 L 0.234375 -4.8125 L 0.8125 -4.8125 L 0.8125 -6.171875 Z M 1.609375 -6.171875 "/>
</g>
<g id="glyph-1-0">
<path d="M -8.015625 -1.078125 L -8.015625 -6.15625 L -7.109375 -6.15625 L -7.109375 -2.171875 L -4.734375 -2.171875 L -4.734375 -5.984375 L -3.8125 -5.984375 L -3.8125 -2.171875 L -0.90625 -2.171875 L -0.90625 -6.25 L 0 -6.25 L 0 -1.078125 Z M -8.015625 -1.078125 "/>
</g>
<g id="glyph-1-1">
<path d="M -5.84375 -4.875 L -4.90625 -4.875 C -5.050781 -4.59375 -5.15625 -4.300781 -5.21875 -4 C -5.289062 -3.695312 -5.328125 -3.382812 -5.328125 -3.0625 C -5.328125 -2.570312 -5.25 -2.203125 -5.09375 -1.953125 C -4.945312 -1.710938 -4.726562 -1.59375 -4.4375 -1.59375 C -4.207031 -1.59375 -4.023438 -1.679688 -3.890625 -1.859375 C -3.765625 -2.035156 -3.640625 -2.390625 -3.515625 -2.921875 L -3.4375 -3.25 C -3.289062 -3.957031 -3.078125 -4.457031 -2.796875 -4.75 C -2.523438 -5.039062 -2.144531 -5.1875 -1.65625 -5.1875 C -1.101562 -5.1875 -0.660156 -4.96875 -0.328125 -4.53125 C -0.00390625 -4.09375 0.15625 -3.484375 0.15625 -2.703125 C 0.15625 -2.378906 0.125 -2.039062 0.0625 -1.6875 C 0 -1.34375 -0.09375 -0.976562 -0.21875 -0.59375 L -1.234375 -0.59375 C -1.046875 -0.957031 -0.90625 -1.316406 -0.8125 -1.671875 C -0.71875 -2.023438 -0.671875 -2.378906 -0.671875 -2.734375 C -0.671875 -3.191406 -0.75 -3.546875 -0.90625 -3.796875 C -1.070312 -4.046875 -1.296875 -4.171875 -1.578125 -4.171875 C -1.847656 -4.171875 -2.054688 -4.082031 -2.203125 -3.90625 C -2.347656 -3.726562 -2.484375 -3.332031 -2.609375 -2.71875 L -2.703125 -2.375 C -2.828125 -1.757812 -3.019531 -1.316406 -3.28125 -1.046875 C -3.550781 -0.773438 -3.921875 -0.640625 -4.390625 -0.640625 C -4.953125 -0.640625 -5.382812 -0.835938 -5.6875 -1.234375 C -6 -1.640625 -6.15625 -2.210938 -6.15625 -2.953125 C -6.15625 -3.316406 -6.128906 -3.660156 -6.078125 -3.984375 C -6.023438 -4.304688 -5.945312 -4.601562 -5.84375 -4.875 Z M -5.84375 -4.875 "/>
</g>
<g id="glyph-1-2">
<path d="M -7.71875 -2.015625 L -6.015625 -2.015625 L -6.015625 -4.046875 L -5.25 -4.046875 L -5.25 -2.015625 L -1.984375 -2.015625 C -1.492188 -2.015625 -1.175781 -2.082031 -1.03125 -2.21875 C -0.894531 -2.351562 -0.828125 -2.625 -0.828125 -3.03125 L -0.828125 -4.046875 L 0 -4.046875 L 0 -3.03125 C 0 -2.269531 -0.140625 -1.742188 -0.421875 -1.453125 C -0.710938 -1.160156 -1.234375 -1.015625 -1.984375 -1.015625 L -5.25 -1.015625 L -5.25 -0.296875 L -6.015625 -0.296875 L -6.015625 -1.015625 L -7.71875 -1.015625 Z M -7.71875 -2.015625 "/>
</g>
<g id="glyph-1-3">
<path d="M -6.015625 -1.03125 L -6.015625 -2.03125 L 0 -2.03125 L 0 -1.03125 Z M -8.359375 -1.03125 L -8.359375 -2.03125 L -7.109375 -2.03125 L -7.109375 -1.03125 Z M -8.359375 -1.03125 "/>
</g>
<g id="glyph-1-4">
<path d="M -4.859375 -5.71875 C -5.304688 -5.96875 -5.632812 -6.265625 -5.84375 -6.609375 C -6.050781 -6.953125 -6.15625 -7.359375 -6.15625 -7.828125 C -6.15625 -8.453125 -5.9375 -8.929688 -5.5 -9.265625 C -5.0625 -9.609375 -4.4375 -9.78125 -3.625 -9.78125 L 0 -9.78125 L 0 -8.78125 L -3.59375 -8.78125 C -4.175781 -8.78125 -4.601562 -8.675781 -4.875 -8.46875 C -5.15625 -8.269531 -5.296875 -7.960938 -5.296875 -7.546875 C -5.296875 -7.035156 -5.125 -6.628906 -4.78125 -6.328125 C -4.445312 -6.035156 -3.988281 -5.890625 -3.40625 -5.890625 L 0 -5.890625 L 0 -4.890625 L -3.59375 -4.890625 C -4.175781 -4.890625 -4.601562 -4.785156 -4.875 -4.578125 C -5.15625 -4.378906 -5.296875 -4.066406 -5.296875 -3.640625 C -5.296875 -3.140625 -5.125 -2.738281 -4.78125 -2.4375 C -4.445312 -2.144531 -3.988281 -2 -3.40625 -2 L 0 -2 L 0 -1 L -6.015625 -1 L -6.015625 -2 L -5.078125 -2 C -5.453125 -2.21875 -5.722656 -2.484375 -5.890625 -2.796875 C -6.066406 -3.117188 -6.15625 -3.492188 -6.15625 -3.921875 C -6.15625 -4.359375 -6.046875 -4.726562 -5.828125 -5.03125 C -5.609375 -5.34375 -5.285156 -5.570312 -4.859375 -5.71875 Z M -4.859375 -5.71875 "/>
</g>
<g id="glyph-1-5">
<path d="M -3.03125 -3.765625 C -3.03125 -2.972656 -2.9375 -2.421875 -2.75 -2.109375 C -2.5625 -1.804688 -2.25 -1.65625 -1.8125 -1.65625 C -1.46875 -1.65625 -1.191406 -1.769531 -0.984375 -2 C -0.773438 -2.226562 -0.671875 -2.539062 -0.671875 -2.9375 C -0.671875 -3.488281 -0.863281 -3.925781 -1.25 -4.25 C -1.644531 -4.582031 -2.160156 -4.75 -2.796875 -4.75 L -3.03125 -4.75 Z M -3.4375 -5.734375 L 0 -5.734375 L 0 -4.75 L -0.90625 -4.75 C -0.539062 -4.53125 -0.269531 -4.25 -0.09375 -3.90625 C 0.0703125 -3.570312 0.15625 -3.160156 0.15625 -2.671875 C 0.15625 -2.054688 -0.015625 -1.566406 -0.359375 -1.203125 C -0.703125 -0.835938 -1.164062 -0.65625 -1.75 -0.65625 C -2.425781 -0.65625 -2.9375 -0.878906 -3.28125 -1.328125 C -3.625 -1.785156 -3.796875 -2.46875 -3.796875 -3.375 L -3.796875 -4.75 L -3.890625 -4.75 C -4.347656 -4.75 -4.703125 -4.597656 -4.953125 -4.296875 C -5.203125 -4.003906 -5.328125 -3.585938 -5.328125 -3.046875 C -5.328125 -2.703125 -5.285156 -2.363281 -5.203125 -2.03125 C -5.117188 -1.707031 -4.992188 -1.394531 -4.828125 -1.09375 L -5.734375 -1.09375 C -5.878906 -1.457031 -5.984375 -1.8125 -6.046875 -2.15625 C -6.117188 -2.5 -6.15625 -2.828125 -6.15625 -3.140625 C -6.15625 -4.015625 -5.929688 -4.664062 -5.484375 -5.09375 C -5.035156 -5.519531 -4.351562 -5.734375 -3.4375 -5.734375 Z M -3.4375 -5.734375 "/>
</g>
<g id="glyph-1-6">
<path d="M -3.25 -6.1875 L -2.765625 -6.1875 L -2.765625 -1.640625 C -2.085938 -1.679688 -1.570312 -1.882812 -1.21875 -2.25 C -0.863281 -2.613281 -0.6875 -3.125 -0.6875 -3.78125 C -0.6875 -4.164062 -0.734375 -4.535156 -0.828125 -4.890625 C -0.921875 -5.242188 -1.054688 -5.597656 -1.234375 -5.953125 L -0.3125 -5.953125 C -0.15625 -5.597656 -0.0390625 -5.234375 0.03125 -4.859375 C 0.113281 -4.484375 0.15625 -4.109375 0.15625 -3.734375 C 0.15625 -2.765625 -0.117188 -2 -0.671875 -1.4375 C -1.234375 -0.882812 -1.992188 -0.609375 -2.953125 -0.609375 C -3.929688 -0.609375 -4.707031 -0.875 -5.28125 -1.40625 C -5.863281 -1.9375 -6.15625 -2.65625 -6.15625 -3.5625 C -6.15625 -4.363281 -5.894531 -5 -5.375 -5.46875 C -4.851562 -5.945312 -4.144531 -6.1875 -3.25 -6.1875 Z M -3.546875 -5.1875 C -4.085938 -5.1875 -4.519531 -5.035156 -4.84375 -4.734375 C -5.164062 -4.441406 -5.328125 -4.050781 -5.328125 -3.5625 C -5.328125 -3.007812 -5.171875 -2.566406 -4.859375 -2.234375 C -4.546875 -1.910156 -4.109375 -1.722656 -3.546875 -1.671875 Z M -3.546875 -5.1875 "/>
</g>
<g id="glyph-1-7">
<path d="M -5.109375 -5 L -8.359375 -5 L -8.359375 -5.984375 L 0 -5.984375 L 0 -5 L -0.90625 -5 C -0.539062 -4.789062 -0.269531 -4.523438 -0.09375 -4.203125 C 0.0703125 -3.890625 0.15625 -3.507812 0.15625 -3.0625 C 0.15625 -2.34375 -0.128906 -1.753906 -0.703125 -1.296875 C -1.285156 -0.835938 -2.050781 -0.609375 -3 -0.609375 C -3.945312 -0.609375 -4.707031 -0.835938 -5.28125 -1.296875 C -5.863281 -1.753906 -6.15625 -2.34375 -6.15625 -3.0625 C -6.15625 -3.507812 -6.066406 -3.890625 -5.890625 -4.203125 C -5.722656 -4.523438 -5.460938 -4.789062 -5.109375 -5 Z M -3 -1.625 C -2.269531 -1.625 -1.695312 -1.773438 -1.28125 -2.078125 C -0.875 -2.378906 -0.671875 -2.789062 -0.671875 -3.3125 C -0.671875 -3.832031 -0.875 -4.242188 -1.28125 -4.546875 C -1.695312 -4.847656 -2.269531 -5 -3 -5 C -3.726562 -5 -4.296875 -4.847656 -4.703125 -4.546875 C -5.117188 -4.242188 -5.328125 -3.832031 -5.328125 -3.3125 C -5.328125 -2.789062 -5.117188 -2.378906 -4.703125 -2.078125 C -4.296875 -1.773438 -3.726562 -1.625 -3 -1.625 Z M -3 -1.625 "/>
</g>
<g id="glyph-1-8">
</g>
<g id="glyph-1-9">
<path d="M -8.015625 -1.078125 L -8.015625 -2.171875 L -4.734375 -2.171875 L -4.734375 -6.109375 L -8.015625 -6.109375 L -8.015625 -7.1875 L 0 -7.1875 L 0 -6.109375 L -3.8125 -6.109375 L -3.8125 -2.171875 L 0 -2.171875 L 0 -1.078125 Z M -8.015625 -1.078125 "/>
</g>
<g id="glyph-1-10">
<path d="M -8.015625 0.03125 L -8.015625 -6.75 L -7.109375 -6.75 L -7.109375 -3.90625 L 0 -3.90625 L 0 -2.8125 L -7.109375 -2.8125 L -7.109375 0.03125 Z M -8.015625 0.03125 "/>
</g>
<g id="glyph-1-11">
<path d="M -1.359375 -1.296875 L -1.359375 -2.421875 L 0 -2.421875 L 0 -1.296875 Z M -5.6875 -1.296875 L -5.6875 -2.421875 L -4.328125 -2.421875 L -4.328125 -1.296875 Z M -5.6875 -1.296875 "/>
</g>
<g id="glyph-1-12">
<path d="M -5.09375 -4.515625 C -5.15625 -4.410156 -5.203125 -4.289062 -5.234375 -4.15625 C -5.265625 -4.03125 -5.28125 -3.890625 -5.28125 -3.734375 C -5.28125 -3.171875 -5.097656 -2.738281 -4.734375 -2.4375 C -4.367188 -2.144531 -3.847656 -2 -3.171875 -2 L 0 -2 L 0 -1 L -6.015625 -1 L -6.015625 -2 L -5.078125 -2 C -5.441406 -2.195312 -5.710938 -2.460938 -5.890625 -2.796875 C -6.066406 -3.128906 -6.15625 -3.535156 -6.15625 -4.015625 C -6.15625 -4.085938 -6.148438 -4.160156 -6.140625 -4.234375 C -6.140625 -4.316406 -6.128906 -4.410156 -6.109375 -4.515625 Z M -5.09375 -4.515625 "/>
</g>
<g id="glyph-1-13">
<path d="M -8.359375 -1 L -8.359375 -2 L -3.421875 -2 L -6.015625 -4.9375 L -6.015625 -6.203125 L -3.203125 -3.015625 L 0 -6.34375 L 0 -5.046875 L -2.9375 -2 L 0 -2 L 0 -1 Z M -8.359375 -1 "/>
</g>
<g id="glyph-1-14">
<path d="M -2.375 -0.9375 L -6.015625 -0.9375 L -6.015625 -1.921875 L -2.40625 -1.921875 C -1.84375 -1.921875 -1.414062 -2.03125 -1.125 -2.25 C -0.84375 -2.476562 -0.703125 -2.8125 -0.703125 -3.25 C -0.703125 -3.789062 -0.867188 -4.210938 -1.203125 -4.515625 C -1.546875 -4.828125 -2.015625 -4.984375 -2.609375 -4.984375 L -6.015625 -4.984375 L -6.015625 -5.96875 L 0 -5.96875 L 0 -4.984375 L -0.921875 -4.984375 C -0.554688 -4.742188 -0.285156 -4.460938 -0.109375 -4.140625 C 0.0664062 -3.828125 0.15625 -3.460938 0.15625 -3.046875 C 0.15625 -2.359375 -0.0546875 -1.832031 -0.484375 -1.46875 C -0.921875 -1.113281 -1.550781 -0.9375 -2.375 -0.9375 Z M -6.15625 -3.421875 Z M -6.15625 -3.421875 "/>
</g>
<g id="glyph-1-15">
<path d="M -5.78125 -5.359375 L -4.859375 -5.359375 C -5.015625 -5.085938 -5.128906 -4.8125 -5.203125 -4.53125 C -5.285156 -4.25 -5.328125 -3.960938 -5.328125 -3.671875 C -5.328125 -3.035156 -5.125 -2.539062 -4.71875 -2.1875 C -4.3125 -1.832031 -3.738281 -1.65625 -3 -1.65625 C -2.269531 -1.65625 -1.703125 -1.832031 -1.296875 -2.1875 C -0.890625 -2.539062 -0.6875 -3.035156 -0.6875 -3.671875 C -0.6875 -3.960938 -0.722656 -4.25 -0.796875 -4.53125 C -0.867188 -4.8125 -0.984375 -5.085938 -1.140625 -5.359375 L -0.234375 -5.359375 C -0.0976562 -5.085938 0 -4.800781 0.0625 -4.5 C 0.125 -4.207031 0.15625 -3.894531 0.15625 -3.5625 C 0.15625 -2.65625 -0.125 -1.9375 -0.6875 -1.40625 C -1.257812 -0.875 -2.03125 -0.609375 -3 -0.609375 C -3.976562 -0.609375 -4.75 -0.875 -5.3125 -1.40625 C -5.875 -1.945312 -6.15625 -2.6875 -6.15625 -3.625 C -6.15625 -3.9375 -6.125 -4.234375 -6.0625 -4.515625 C -6 -4.804688 -5.90625 -5.085938 -5.78125 -5.359375 Z M -5.78125 -5.359375 "/>
</g>
<g id="glyph-1-16">
<path d="M -5.328125 -3.375 C -5.328125 -2.84375 -5.117188 -2.421875 -4.703125 -2.109375 C -4.285156 -1.804688 -3.71875 -1.65625 -3 -1.65625 C -2.28125 -1.65625 -1.710938 -1.804688 -1.296875 -2.109375 C -0.890625 -2.410156 -0.6875 -2.832031 -0.6875 -3.375 C -0.6875 -3.894531 -0.890625 -4.304688 -1.296875 -4.609375 C -1.710938 -4.921875 -2.28125 -5.078125 -3 -5.078125 C -3.71875 -5.078125 -4.285156 -4.921875 -4.703125 -4.609375 C -5.117188 -4.304688 -5.328125 -3.894531 -5.328125 -3.375 Z M -6.15625 -3.375 C -6.15625 -4.226562 -5.875 -4.898438 -5.3125 -5.390625 C -4.757812 -5.878906 -3.988281 -6.125 -3 -6.125 C -2.019531 -6.125 -1.25 -5.878906 -0.6875 -5.390625 C -0.125 -4.898438 0.15625 -4.226562 0.15625 -3.375 C 0.15625 -2.507812 -0.125 -1.832031 -0.6875 -1.34375 C -1.25 -0.851562 -2.019531 -0.609375 -3 -0.609375 C -3.988281 -0.609375 -4.757812 -0.851562 -5.3125 -1.34375 C -5.875 -1.832031 -6.15625 -2.507812 -6.15625 -3.375 Z M -6.15625 -3.375 "/>
</g>
<g id="glyph-1-17">
<path d="M -3.625 -6.03125 L 0 -6.03125 L 0 -5.046875 L -3.59375 -5.046875 C -4.164062 -5.046875 -4.59375 -4.9375 -4.875 -4.71875 C -5.15625 -4.5 -5.296875 -4.164062 -5.296875 -3.71875 C -5.296875 -3.1875 -5.125 -2.765625 -4.78125 -2.453125 C -4.445312 -2.148438 -3.988281 -2 -3.40625 -2 L 0 -2 L 0 -1 L -6.015625 -1 L -6.015625 -2 L -5.078125 -2 C -5.441406 -2.226562 -5.710938 -2.503906 -5.890625 -2.828125 C -6.066406 -3.148438 -6.15625 -3.519531 -6.15625 -3.9375 C -6.15625 -4.625 -5.941406 -5.144531 -5.515625 -5.5 C -5.085938 -5.851562 -4.457031 -6.03125 -3.625 -6.03125 Z M -3.625 -6.03125 "/>
</g>
</g>
<clipPath id="clip-0">
<path clip-rule="nonzero" d="M 43.152344 23.246094 L 263.289062 23.246094 L 263.289062 286.390625 L 43.152344 286.390625 Z M 43.152344 23.246094 "/>
</clipPath>
<clipPath id="clip-1">
<path clip-rule="nonzero" d="M 43.152344 235 L 263.289062 235 L 263.289062 237 L 43.152344 237 Z M 43.152344 235 "/>
</clipPath>
<clipPath id="clip-2">
<path clip-rule="nonzero" d="M 43.152344 158 L 263.289062 158 L 263.289062 160 L 43.152344 160 Z M 43.152344 158 "/>
</clipPath>
<clipPath id="clip-3">
<path clip-rule="nonzero" d="M 43.152344 82 L 263.289062 82 L 263.289062 83 L 43.152344 83 Z M 43.152344 82 "/>
</clipPath>
<clipPath id="clip-4">
<path clip-rule="nonzero" d="M 49 23.246094 L 50 23.246094 L 50 286.390625 L 49 286.390625 Z M 49 23.246094 "/>
</clipPath>
<clipPath id="clip-5">
<path clip-rule="nonzero" d="M 87 23.246094 L 89 23.246094 L 89 286.390625 L 87 286.390625 Z M 87 23.246094 "/>
</clipPath>
<clipPath id="clip-6">
<path clip-rule="nonzero" d="M 126 23.246094 L 127 23.246094 L 127 286.390625 L 126 286.390625 Z M 126 23.246094 "/>
</clipPath>
<clipPath id="clip-7">
<path clip-rule="nonzero" d="M 164 23.246094 L 166 23.246094 L 166 286.390625 L 164 286.390625 Z M 164 23.246094 "/>
</clipPath>
<clipPath id="clip-8">
<path clip-rule="nonzero" d="M 202 23.246094 L 204 23.246094 L 204 286.390625 L 202 286.390625 Z M 202 23.246094 "/>
</clipPath>
<clipPath id="clip-9">
<path clip-rule="nonzero" d="M 241 23.246094 L 242 23.246094 L 242 286.390625 L 241 286.390625 Z M 241 23.246094 "/>
</clipPath>
<clipPath id="clip-10">
<path clip-rule="nonzero" d="M 43.152344 273 L 263.289062 273 L 263.289062 276 L 43.152344 276 Z M 43.152344 273 "/>
</clipPath>
<clipPath id="clip-11">
<path clip-rule="nonzero" d="M 43.152344 197 L 263.289062 197 L 263.289062 199 L 43.152344 199 Z M 43.152344 197 "/>
</clipPath>
<clipPath id="clip-12">
<path clip-rule="nonzero" d="M 43.152344 120 L 263.289062 120 L 263.289062 122 L 43.152344 122 Z M 43.152344 120 "/>
</clipPath>
<clipPath id="clip-13">
<path clip-rule="nonzero" d="M 43.152344 43 L 263.289062 43 L 263.289062 45 L 43.152344 45 Z M 43.152344 43 "/>
</clipPath>
<clipPath id="clip-14">
<path clip-rule="nonzero" d="M 68 23.246094 L 70 23.246094 L 70 286.390625 L 68 286.390625 Z M 68 23.246094 "/>
</clipPath>
<clipPath id="clip-15">
<path clip-rule="nonzero" d="M 106 23.246094 L 108 23.246094 L 108 286.390625 L 106 286.390625 Z M 106 23.246094 "/>
</clipPath>
<clipPath id="clip-16">
<path clip-rule="nonzero" d="M 144 23.246094 L 147 23.246094 L 147 286.390625 L 144 286.390625 Z M 144 23.246094 "/>
</clipPath>
<clipPath id="clip-17">
<path clip-rule="nonzero" d="M 183 23.246094 L 185 23.246094 L 185 286.390625 L 183 286.390625 Z M 183 23.246094 "/>
</clipPath>
<clipPath id="clip-18">
<path clip-rule="nonzero" d="M 221 23.246094 L 224 23.246094 L 224 286.390625 L 221 286.390625 Z M 221 23.246094 "/>
</clipPath>
<clipPath id="clip-19">
<path clip-rule="nonzero" d="M 260 23.246094 L 262 23.246094 L 262 286.390625 L 260 286.390625 Z M 260 23.246094 "/>
</clipPath>
<clipPath id="clip-20">
<path clip-rule="nonzero" d="M 43.152344 197 L 263.289062 197 L 263.289062 199 L 43.152344 199 Z M 43.152344 197 "/>
</clipPath>
<clipPath id="clip-21">
<path clip-rule="nonzero" d="M 43.152344 23.246094 L 263.289062 23.246094 L 263.289062 286.390625 L 43.152344 286.390625 Z M 43.152344 23.246094 "/>
</clipPath>
<clipPath id="clip-22">
<path clip-rule="nonzero" d="M 268.765625 23.246094 L 488.902344 23.246094 L 488.902344 286.390625 L 268.765625 286.390625 Z M 268.765625 23.246094 "/>
</clipPath>
<clipPath id="clip-23">
<path clip-rule="nonzero" d="M 268.765625 235 L 488.902344 235 L 488.902344 237 L 268.765625 237 Z M 268.765625 235 "/>
</clipPath>
<clipPath id="clip-24">
<path clip-rule="nonzero" d="M 268.765625 158 L 488.902344 158 L 488.902344 160 L 268.765625 160 Z M 268.765625 158 "/>
</clipPath>
<clipPath id="clip-25">
<path clip-rule="nonzero" d="M 268.765625 82 L 488.902344 82 L 488.902344 83 L 268.765625 83 Z M 268.765625 82 "/>
</clipPath>
<clipPath id="clip-26">
<path clip-rule="nonzero" d="M 290 23.246094 L 292 23.246094 L 292 286.390625 L 290 286.390625 Z M 290 23.246094 "/>
</clipPath>
<clipPath id="clip-27">
<path clip-rule="nonzero" d="M 330 23.246094 L 332 23.246094 L 332 286.390625 L 330 286.390625 Z M 330 23.246094 "/>
</clipPath>
<clipPath id="clip-28">
<path clip-rule="nonzero" d="M 370 23.246094 L 372 23.246094 L 372 286.390625 L 370 286.390625 Z M 370 23.246094 "/>
</clipPath>
<clipPath id="clip-29">
<path clip-rule="nonzero" d="M 410 23.246094 L 412 23.246094 L 412 286.390625 L 410 286.390625 Z M 410 23.246094 "/>
</clipPath>
<clipPath id="clip-30">
<path clip-rule="nonzero" d="M 450 23.246094 L 452 23.246094 L 452 286.390625 L 450 286.390625 Z M 450 23.246094 "/>
</clipPath>
<clipPath id="clip-31">
<path clip-rule="nonzero" d="M 268.765625 273 L 488.902344 273 L 488.902344 276 L 268.765625 276 Z M 268.765625 273 "/>
</clipPath>
<clipPath id="clip-32">
<path clip-rule="nonzero" d="M 268.765625 197 L 488.902344 197 L 488.902344 199 L 268.765625 199 Z M 268.765625 197 "/>
</clipPath>
<clipPath id="clip-33">
<path clip-rule="nonzero" d="M 268.765625 120 L 488.902344 120 L 488.902344 122 L 268.765625 122 Z M 268.765625 120 "/>
</clipPath>
<clipPath id="clip-34">
<path clip-rule="nonzero" d="M 268.765625 43 L 488.902344 43 L 488.902344 45 L 268.765625 45 Z M 268.765625 43 "/>
</clipPath>
<clipPath id="clip-35">
<path clip-rule="nonzero" d="M 270 23.246094 L 272 23.246094 L 272 286.390625 L 270 286.390625 Z M 270 23.246094 "/>
</clipPath>
<clipPath id="clip-36">
<path clip-rule="nonzero" d="M 310 23.246094 L 312 23.246094 L 312 286.390625 L 310 286.390625 Z M 310 23.246094 "/>
</clipPath>
<clipPath id="clip-37">
<path clip-rule="nonzero" d="M 350 23.246094 L 352 23.246094 L 352 286.390625 L 350 286.390625 Z M 350 23.246094 "/>
</clipPath>
<clipPath id="clip-38">
<path clip-rule="nonzero" d="M 390 23.246094 L 392 23.246094 L 392 286.390625 L 390 286.390625 Z M 390 23.246094 "/>
</clipPath>
<clipPath id="clip-39">
<path clip-rule="nonzero" d="M 430 23.246094 L 432 23.246094 L 432 286.390625 L 430 286.390625 Z M 430 23.246094 "/>
</clipPath>
<clipPath id="clip-40">
<path clip-rule="nonzero" d="M 470 23.246094 L 472 23.246094 L 472 286.390625 L 470 286.390625 Z M 470 23.246094 "/>
</clipPath>
<clipPath id="clip-41">
<path clip-rule="nonzero" d="M 268.765625 197 L 488.902344 197 L 488.902344 199 L 268.765625 199 Z M 268.765625 197 "/>
</clipPath>
<clipPath id="clip-42">
<path clip-rule="nonzero" d="M 268.765625 23.246094 L 488.902344 23.246094 L 488.902344 286.390625 L 268.765625 286.390625 Z M 268.765625 23.246094 "/>
</clipPath>
<clipPath id="clip-43">
<path clip-rule="nonzero" d="M 494.382812 23.246094 L 714.519531 23.246094 L 714.519531 286.390625 L 494.382812 286.390625 Z M 494.382812 23.246094 "/>
</clipPath>
<clipPath id="clip-44">
<path clip-rule="nonzero" d="M 494.382812 235 L 714.519531 235 L 714.519531 237 L 494.382812 237 Z M 494.382812 235 "/>
</clipPath>
<clipPath id="clip-45">
<path clip-rule="nonzero" d="M 494.382812 158 L 714.519531 158 L 714.519531 160 L 494.382812 160 Z M 494.382812 158 "/>
</clipPath>
<clipPath id="clip-46">
<path clip-rule="nonzero" d="M 494.382812 82 L 714.519531 82 L 714.519531 83 L 494.382812 83 Z M 494.382812 82 "/>
</clipPath>
<clipPath id="clip-47">
<path clip-rule="nonzero" d="M 531 23.246094 L 533 23.246094 L 533 286.390625 L 531 286.390625 Z M 531 23.246094 "/>
</clipPath>
<clipPath id="clip-48">
<path clip-rule="nonzero" d="M 599 23.246094 L 600 23.246094 L 600 286.390625 L 599 286.390625 Z M 599 23.246094 "/>
</clipPath>
<clipPath id="clip-49">
<path clip-rule="nonzero" d="M 666 23.246094 L 668 23.246094 L 668 286.390625 L 666 286.390625 Z M 666 23.246094 "/>
</clipPath>
<clipPath id="clip-50">
<path clip-rule="nonzero" d="M 494.382812 273 L 714.519531 273 L 714.519531 276 L 494.382812 276 Z M 494.382812 273 "/>
</clipPath>
<clipPath id="clip-51">
<path clip-rule="nonzero" d="M 494.382812 197 L 714.519531 197 L 714.519531 199 L 494.382812 199 Z M 494.382812 197 "/>
</clipPath>
<clipPath id="clip-52">
<path clip-rule="nonzero" d="M 494.382812 120 L 714.519531 120 L 714.519531 122 L 494.382812 122 Z M 494.382812 120 "/>
</clipPath>
<clipPath id="clip-53">
<path clip-rule="nonzero" d="M 494.382812 43 L 714.519531 43 L 714.519531 45 L 494.382812 45 Z M 494.382812 43 "/>
</clipPath>
<clipPath id="clip-54">
<path clip-rule="nonzero" d="M 497 23.246094 L 499 23.246094 L 499 286.390625 L 497 286.390625 Z M 497 23.246094 "/>
</clipPath>
<clipPath id="clip-55">
<path clip-rule="nonzero" d="M 565 23.246094 L 567 23.246094 L 567 286.390625 L 565 286.390625 Z M 565 23.246094 "/>
</clipPath>
<clipPath id="clip-56">
<path clip-rule="nonzero" d="M 632 23.246094 L 634 23.246094 L 634 286.390625 L 632 286.390625 Z M 632 23.246094 "/>
</clipPath>
<clipPath id="clip-57">
<path clip-rule="nonzero" d="M 700 23.246094 L 702 23.246094 L 702 286.390625 L 700 286.390625 Z M 700 23.246094 "/>
</clipPath>
<clipPath id="clip-58">
<path clip-rule="nonzero" d="M 494.382812 197 L 714.519531 197 L 714.519531 199 L 494.382812 199 Z M 494.382812 197 "/>
</clipPath>
<clipPath id="clip-59">
<path clip-rule="nonzero" d="M 494.382812 23.246094 L 714.519531 23.246094 L 714.519531 286.390625 L 494.382812 286.390625 Z M 494.382812 23.246094 "/>
</clipPath>
<clipPath id="clip-60">
<path clip-rule="nonzero" d="M 43.152344 5.480469 L 263.289062 5.480469 L 263.289062 23.246094 L 43.152344 23.246094 Z M 43.152344 5.480469 "/>
</clipPath>
<clipPath id="clip-61">
<path clip-rule="nonzero" d="M 268.765625 5.480469 L 488.902344 5.480469 L 488.902344 23.246094 L 268.765625 23.246094 Z M 268.765625 5.480469 "/>
</clipPath>
<clipPath id="clip-62">
<path clip-rule="nonzero" d="M 494.382812 5.480469 L 714.519531 5.480469 L 714.519531 23.246094 L 494.382812 23.246094 Z M 494.382812 5.480469 "/>
</clipPath>
</defs>
<rect x="-72" y="-34.5" width="864" height="414" fill="rgb(100%, 100%, 100%)" fill-opacity="1"/>
<rect x="-72" y="-34.5" width="864" height="414" fill="rgb(100%, 100%, 100%)" fill-opacity="1"/>
<path fill="none" stroke-width="1.066978" stroke-linecap="round" stroke-linejoin="round" stroke="rgb(100%, 100%, 100%)" stroke-opacity="1" stroke-miterlimit="10" d="M 0 345 L 720 345 L 720 0 L 0 0 Z M 0 345 "/>
<g clip-path="url(#clip-0)">
<path fill-rule="nonzero" fill="rgb(100%, 100%, 100%)" fill-opacity="1" d="M 43.152344 286.390625 L 263.289062 286.390625 L 263.289062 23.246094 L 43.152344 23.246094 Z M 43.152344 286.390625 "/>
</g>
<g clip-path="url(#clip-1)">
<path fill="none" stroke-width="0.533489" stroke-linecap="butt" stroke-linejoin="round" stroke="rgb(92.156863%, 92.156863%, 92.156863%)" stroke-opacity="1" stroke-miterlimit="10" d="M 43.152344 236.09375 L 263.289062 236.09375 "/>
</g>
<g clip-path="url(#clip-2)">
<path fill="none" stroke-width="0.533489" stroke-linecap="butt" stroke-linejoin="round" stroke="rgb(92.156863%, 92.156863%, 92.156863%)" stroke-opacity="1" stroke-miterlimit="10" d="M 43.152344 159.261719 L 263.289062 159.261719 "/>
</g>
<g clip-path="url(#clip-3)">
<path fill="none" stroke-width="0.533489" stroke-linecap="butt" stroke-linejoin="round" stroke="rgb(92.156863%, 92.156863%, 92.156863%)" stroke-opacity="1" stroke-miterlimit="10" d="M 43.152344 82.425781 L 263.289062 82.425781 "/>
</g>
<g clip-path="url(#clip-4)">
<path fill="none" stroke-width="0.533489" stroke-linecap="butt" stroke-linejoin="round" stroke="rgb(92.156863%, 92.156863%, 92.156863%)" stroke-opacity="1" stroke-miterlimit="10" d="M 49.308594 286.390625 L 49.308594 23.246094 "/>
</g>
<g clip-path="url(#clip-5)">
<path fill="none" stroke-width="0.533489" stroke-linecap="butt" stroke-linejoin="round" stroke="rgb(92.156863%, 92.156863%, 92.156863%)" stroke-opacity="1" stroke-miterlimit="10" d="M 87.792969 286.390625 L 87.792969 23.246094 "/>
</g>
<g clip-path="url(#clip-6)">
<path fill="none" stroke-width="0.533489" stroke-linecap="butt" stroke-linejoin="round" stroke="rgb(92.156863%, 92.156863%, 92.156863%)" stroke-opacity="1" stroke-miterlimit="10" d="M 126.28125 286.390625 L 126.28125 23.246094 "/>
</g>
<g clip-path="url(#clip-7)">
<path fill="none" stroke-width="0.533489" stroke-linecap="butt" stroke-linejoin="round" stroke="rgb(92.156863%, 92.156863%, 92.156863%)" stroke-opacity="1" stroke-miterlimit="10" d="M 164.765625 286.390625 L 164.765625 23.246094 "/>
</g>
<g clip-path="url(#clip-8)">
<path fill="none" stroke-width="0.533489" stroke-linecap="butt" stroke-linejoin="round" stroke="rgb(92.156863%, 92.156863%, 92.156863%)" stroke-opacity="1" stroke-miterlimit="10" d="M 203.25 286.390625 L 203.25 23.246094 "/>
</g>
<g clip-path="url(#clip-9)">
<path fill="none" stroke-width="0.533489" stroke-linecap="butt" stroke-linejoin="round" stroke="rgb(92.156863%, 92.156863%, 92.156863%)" stroke-opacity="1" stroke-miterlimit="10" d="M 241.734375 286.390625 L 241.734375 23.246094 "/>
</g>
<g clip-path="url(#clip-10)">
<path fill="none" stroke-width="1.066978" stroke-linecap="butt" stroke-linejoin="round" stroke="rgb(92.156863%, 92.156863%, 92.156863%)" stroke-opacity="1" stroke-miterlimit="10" d="M 43.152344 274.507812 L 263.289062 274.507812 "/>
</g>
<g clip-path="url(#clip-11)">
<path fill="none" stroke-width="1.066978" stroke-linecap="butt" stroke-linejoin="round" stroke="rgb(92.156863%, 92.156863%, 92.156863%)" stroke-opacity="1" stroke-miterlimit="10" d="M 43.152344 197.675781 L 263.289062 197.675781 "/>
</g>
<g clip-path="url(#clip-12)">
<path fill="none" stroke-width="1.066978" stroke-linecap="butt" stroke-linejoin="round" stroke="rgb(92.156863%, 92.156863%, 92.156863%)" stroke-opacity="1" stroke-miterlimit="10" d="M 43.152344 120.84375 L 263.289062 120.84375 "/>
</g>
<g clip-path="url(#clip-13)">
<path fill="none" stroke-width="1.066978" stroke-linecap="butt" stroke-linejoin="round" stroke="rgb(92.156863%, 92.156863%, 92.156863%)" stroke-opacity="1" stroke-miterlimit="10" d="M 43.152344 44.011719 L 263.289062 44.011719 "/>
</g>
<g clip-path="url(#clip-14)">
<path fill="none" stroke-width="1.066978" stroke-linecap="butt" stroke-linejoin="round" stroke="rgb(92.156863%, 92.156863%, 92.156863%)" stroke-opacity="1" stroke-miterlimit="10" d="M 68.550781 286.390625 L 68.550781 23.246094 "/>
</g>
<g clip-path="url(#clip-15)">
<path fill="none" stroke-width="1.066978" stroke-linecap="butt" stroke-linejoin="round" stroke="rgb(92.156863%, 92.156863%, 92.156863%)" stroke-opacity="1" stroke-miterlimit="10" d="M 107.035156 286.390625 L 107.035156 23.246094 "/>
</g>
<g clip-path="url(#clip-16)">
<path fill="none" stroke-width="1.066978" stroke-linecap="butt" stroke-linejoin="round" stroke="rgb(92.156863%, 92.156863%, 92.156863%)" stroke-opacity="1" stroke-miterlimit="10" d="M 145.523438 286.390625 L 145.523438 23.246094 "/>
</g>
<g clip-path="url(#clip-17)">
<path fill="none" stroke-width="1.066978" stroke-linecap="butt" stroke-linejoin="round" stroke="rgb(92.156863%, 92.156863%, 92.156863%)" stroke-opacity="1" stroke-miterlimit="10" d="M 184.007812 286.390625 L 184.007812 23.246094 "/>
</g>
<g clip-path="url(#clip-18)">
<path fill="none" stroke-width="1.066978" stroke-linecap="butt" stroke-linejoin="round" stroke="rgb(92.156863%, 92.156863%, 92.156863%)" stroke-opacity="1" stroke-miterlimit="10" d="M 222.492188 286.390625 L 222.492188 23.246094 "/>
</g>
<g clip-path="url(#clip-19)">
<path fill="none" stroke-width="1.066978" stroke-linecap="butt" stroke-linejoin="round" stroke="rgb(92.156863%, 92.156863%, 92.156863%)" stroke-opacity="1" stroke-miterlimit="10" d="M 260.980469 286.390625 L 260.980469 23.246094 "/>
</g>
<g clip-path="url(#clip-20)">
<path fill="none" stroke-width="1.066978" stroke-linecap="butt" stroke-linejoin="round" stroke="rgb(54.901961%, 54.901961%, 54.901961%)" stroke-opacity="1" stroke-dasharray="4.267913 4.267913" stroke-miterlimit="10" d="M 43.152344 197.675781 L 263.289062 197.675781 "/>
</g>
<path fill="none" stroke-width="2.347352" stroke-linecap="butt" stroke-linejoin="round" stroke="rgb(88.235294%, 34.117647%, 34.901961%)" stroke-opacity="1" stroke-miterlimit="10" d="M 53.15625 156.191406 L 61.496094 156.191406 L 69.832031 157.292969 L 78.171875 127.84375 L 86.511719 182.347656 L 94.847656 183.914062 L 103.1875 186.800781 L 111.527344 179.472656 L 119.863281 178.453125 L 128.203125 176.652344 L 136.542969 178.449219 L 144.878906 177.851562 L 153.21875 170.941406 L 161.558594 213.019531 L 169.894531 202.640625 L 178.234375 212.171875 L 186.574219 216.808594 L 194.910156 233.328125 L 203.25 231.59375 L 211.589844 258.589844 L 219.925781 259.101562 L 228.265625 227.410156 L 236.605469 202.351562 L 244.941406 190.027344 L 253.28125 208.679688 "/>
<path fill="none" stroke-width="2.347352" stroke-linecap="butt" stroke-linejoin="round" stroke="rgb(69.019608%, 47.843137%, 63.137255%)" stroke-opacity="1" stroke-miterlimit="10" d="M 53.15625 154.359375 L 61.496094 159.496094 L 69.832031 161.128906 L 78.171875 147.988281 L 86.511719 190.328125 L 94.847656 190.664062 L 103.1875 190.839844 L 111.527344 190.316406 L 119.863281 187.519531 L 128.203125 185.363281 L 136.542969 186.738281 L 144.878906 188.453125 L 153.21875 187.78125 L 161.558594 190.757812 L 169.894531 195.988281 L 178.234375 199.519531 L 186.574219 216.980469 L 194.910156 230.300781 L 203.25 231.945312 L 211.589844 258.113281 L 219.925781 257.105469 L 228.265625 224.285156 L 236.605469 219.640625 L 244.941406 215.125 L 253.28125 215.125 "/>
<path fill="none" stroke-width="2.347352" stroke-linecap="butt" stroke-linejoin="round" stroke="rgb(34.901961%, 63.137255%, 30.980392%)" stroke-opacity="1" stroke-miterlimit="10" d="M 53.15625 190.34375 L 61.496094 190.410156 L 69.832031 191.550781 L 78.171875 191.613281 L 86.511719 190.113281 L 94.847656 190.371094 L 103.1875 190.78125 L 111.527344 190.660156 L 119.863281 194.792969 L 128.203125 194.382812 L 136.542969 194.308594 L 144.878906 197.078125 L 153.21875 197.328125 L 161.558594 197.101562 L 169.894531 197.832031 L 178.234375 200.066406 L 186.574219 202.695312 L 194.910156 205.949219 L 203.25 209.210938 L 211.589844 211.511719 L 219.925781 213.421875 L 228.265625 213.273438 L 236.605469 213.34375 L 244.941406 213.695312 L 253.28125 213.894531 "/>
<path fill="none" stroke-width="2.347352" stroke-linecap="butt" stroke-linejoin="round" stroke="rgb(94.901961%, 55.686275%, 16.862745%)" stroke-opacity="1" stroke-miterlimit="10" d="M 53.15625 161.507812 L 61.496094 165.269531 L 69.832031 166.894531 L 78.171875 165.613281 L 86.511719 186.148438 L 94.847656 195.640625 L 103.1875 197.960938 L 111.527344 187.410156 L 119.863281 180.523438 L 128.203125 180.984375 L 136.542969 186.683594 L 144.878906 183.640625 L 153.21875 186.898438 L 161.558594 195.171875 L 169.894531 197.351562 L 178.234375 201.082031 L 186.574219 222.433594 L 194.910156 226.839844 L 203.25 229.628906 L 211.589844 251.777344 L 219.925781 239.613281 L 228.265625 229.710938 L 236.605469 216.652344 L 244.941406 219.238281 L 253.28125 221.949219 "/>
<path fill="none" stroke-width="2.347352" stroke-linecap="butt" stroke-linejoin="round" stroke="rgb(30.588235%, 47.45098%, 65.490196%)" stroke-opacity="1" stroke-miterlimit="10" d="M 53.15625 184.738281 L 61.496094 184.714844 L 69.832031 185.300781 L 78.171875 187.464844 L 86.511719 188.460938 L 94.847656 189.292969 L 103.1875 189.882812 L 111.527344 190.675781 L 119.863281 191.238281 L 128.203125 192.078125 L 136.542969 194.226562 L 144.878906 195.804688 L 153.21875 196.875 L 161.558594 199.03125 L 169.894531 200.753906 L 178.234375 202.429688 L 186.574219 203.910156 L 194.910156 204.941406 L 203.25 206.019531 L 211.589844 206.445312 L 219.925781 206.699219 L 228.265625 206.28125 L 236.605469 206.097656 L 244.941406 206.152344 L 253.28125 206.136719 "/>
<g clip-path="url(#clip-21)">
<path fill="none" stroke-width="1.066978" stroke-linecap="round" stroke-linejoin="round" stroke="rgb(20%, 20%, 20%)" stroke-opacity="1" stroke-miterlimit="10" d="M 43.152344 286.390625 L 263.289062 286.390625 L 263.289062 23.246094 L 43.152344 23.246094 Z M 43.152344 286.390625 "/>
</g>
<g clip-path="url(#clip-22)">
<path fill-rule="nonzero" fill="rgb(100%, 100%, 100%)" fill-opacity="1" d="M 268.765625 286.390625 L 488.902344 286.390625 L 488.902344 23.246094 L 268.765625 23.246094 Z M 268.765625 286.390625 "/>
</g>
<g clip-path="url(#clip-23)">
<path fill="none" stroke-width="0.533489" stroke-linecap="butt" stroke-linejoin="round" stroke="rgb(92.156863%, 92.156863%, 92.156863%)" stroke-opacity="1" stroke-miterlimit="10" d="M 268.765625 236.09375 L 488.902344 236.09375 "/>
</g>
<g clip-path="url(#clip-24)">
<path fill="none" stroke-width="0.533489" stroke-linecap="butt" stroke-linejoin="round" stroke="rgb(92.156863%, 92.156863%, 92.156863%)" stroke-opacity="1" stroke-miterlimit="10" d="M 268.765625 159.261719 L 488.902344 159.261719 "/>
</g>
<g clip-path="url(#clip-25)">
<path fill="none" stroke-width="0.533489" stroke-linecap="butt" stroke-linejoin="round" stroke="rgb(92.156863%, 92.156863%, 92.156863%)" stroke-opacity="1" stroke-miterlimit="10" d="M 268.765625 82.425781 L 488.902344 82.425781 "/>
</g>
<g clip-path="url(#clip-26)">
<path fill="none" stroke-width="0.533489" stroke-linecap="butt" stroke-linejoin="round" stroke="rgb(92.156863%, 92.156863%, 92.156863%)" stroke-opacity="1" stroke-miterlimit="10" d="M 290.78125 286.390625 L 290.78125 23.246094 "/>
</g>
<g clip-path="url(#clip-27)">
<path fill="none" stroke-width="0.533489" stroke-linecap="butt" stroke-linejoin="round" stroke="rgb(92.156863%, 92.156863%, 92.156863%)" stroke-opacity="1" stroke-miterlimit="10" d="M 330.804688 286.390625 L 330.804688 23.246094 "/>
</g>
<g clip-path="url(#clip-28)">
<path fill="none" stroke-width="0.533489" stroke-linecap="butt" stroke-linejoin="round" stroke="rgb(92.156863%, 92.156863%, 92.156863%)" stroke-opacity="1" stroke-miterlimit="10" d="M 370.832031 286.390625 L 370.832031 23.246094 "/>
</g>
<g clip-path="url(#clip-29)">
<path fill="none" stroke-width="0.533489" stroke-linecap="butt" stroke-linejoin="round" stroke="rgb(92.156863%, 92.156863%, 92.156863%)" stroke-opacity="1" stroke-miterlimit="10" d="M 410.855469 286.390625 L 410.855469 23.246094 "/>
</g>
<g clip-path="url(#clip-30)">
<path fill="none" stroke-width="0.533489" stroke-linecap="butt" stroke-linejoin="round" stroke="rgb(92.156863%, 92.156863%, 92.156863%)" stroke-opacity="1" stroke-miterlimit="10" d="M 450.878906 286.390625 L 450.878906 23.246094 "/>
</g>
<g clip-path="url(#clip-31)">
<path fill="none" stroke-width="1.066978" stroke-linecap="butt" stroke-linejoin="round" stroke="rgb(92.156863%, 92.156863%, 92.156863%)" stroke-opacity="1" stroke-miterlimit="10" d="M 268.765625 274.507812 L 488.902344 274.507812 "/>
</g>
<g clip-path="url(#clip-32)">
<path fill="none" stroke-width="1.066978" stroke-linecap="butt" stroke-linejoin="round" stroke="rgb(92.156863%, 92.156863%, 92.156863%)" stroke-opacity="1" stroke-miterlimit="10" d="M 268.765625 197.675781 L 488.902344 197.675781 "/>
</g>
<g clip-path="url(#clip-33)">
<path fill="none" stroke-width="1.066978" stroke-linecap="butt" stroke-linejoin="round" stroke="rgb(92.156863%, 92.156863%, 92.156863%)" stroke-opacity="1" stroke-miterlimit="10" d="M 268.765625 120.84375 L 488.902344 120.84375 "/>
</g>
<g clip-path="url(#clip-34)">
<path fill="none" stroke-width="1.066978" stroke-linecap="butt" stroke-linejoin="round" stroke="rgb(92.156863%, 92.156863%, 92.156863%)" stroke-opacity="1" stroke-miterlimit="10" d="M 268.765625 44.011719 L 488.902344 44.011719 "/>
</g>
<g clip-path="url(#clip-35)">
<path fill="none" stroke-width="1.066978" stroke-linecap="butt" stroke-linejoin="round" stroke="rgb(92.156863%, 92.156863%, 92.156863%)" stroke-opacity="1" stroke-miterlimit="10" d="M 270.769531 286.390625 L 270.769531 23.246094 "/>
</g>
<g clip-path="url(#clip-36)">
<path fill="none" stroke-width="1.066978" stroke-linecap="butt" stroke-linejoin="round" stroke="rgb(92.156863%, 92.156863%, 92.156863%)" stroke-opacity="1" stroke-miterlimit="10" d="M 310.792969 286.390625 L 310.792969 23.246094 "/>
</g>
<g clip-path="url(#clip-37)">
<path fill="none" stroke-width="1.066978" stroke-linecap="butt" stroke-linejoin="round" stroke="rgb(92.156863%, 92.156863%, 92.156863%)" stroke-opacity="1" stroke-miterlimit="10" d="M 350.816406 286.390625 L 350.816406 23.246094 "/>
</g>
<g clip-path="url(#clip-38)">
<path fill="none" stroke-width="1.066978" stroke-linecap="butt" stroke-linejoin="round" stroke="rgb(92.156863%, 92.156863%, 92.156863%)" stroke-opacity="1" stroke-miterlimit="10" d="M 390.84375 286.390625 L 390.84375 23.246094 "/>
</g>
<g clip-path="url(#clip-39)">
<path fill="none" stroke-width="1.066978" stroke-linecap="butt" stroke-linejoin="round" stroke="rgb(92.156863%, 92.156863%, 92.156863%)" stroke-opacity="1" stroke-miterlimit="10" d="M 430.867188 286.390625 L 430.867188 23.246094 "/>
</g>
<g clip-path="url(#clip-40)">
<path fill="none" stroke-width="1.066978" stroke-linecap="butt" stroke-linejoin="round" stroke="rgb(92.156863%, 92.156863%, 92.156863%)" stroke-opacity="1" stroke-miterlimit="10" d="M 470.894531 286.390625 L 470.894531 23.246094 "/>
</g>
<g clip-path="url(#clip-41)">
<path fill="none" stroke-width="1.066978" stroke-linecap="butt" stroke-linejoin="round" stroke="rgb(54.901961%, 54.901961%, 54.901961%)" stroke-opacity="1" stroke-dasharray="4.267913 4.267913" stroke-miterlimit="10" d="M 268.765625 197.675781 L 488.902344 197.675781 "/>
</g>
<path fill="none" stroke-width="2.347352" stroke-linecap="butt" stroke-linejoin="round" stroke="rgb(88.235294%, 34.117647%, 34.901961%)" stroke-opacity="1" stroke-miterlimit="10" d="M 278.773438 167.675781 L 295.449219 167.675781 L 303.789062 170.074219 L 328.804688 170.074219 L 337.144531 169.28125 L 345.480469 198.816406 L 353.820312 198.917969 L 362.160156 205.761719 L 370.496094 206.277344 L 378.835938 212.558594 L 387.175781 202.8125 L 395.511719 167.539062 L 403.851562 173.441406 L 412.191406 184.792969 L 420.527344 197.496094 L 428.867188 155.121094 L 437.207031 174.683594 L 445.542969 164.464844 L 453.882812 202.871094 L 462.222656 211.285156 L 470.558594 210.640625 L 478.898438 174.808594 "/>
<path fill="none" stroke-width="2.347352" stroke-linecap="butt" stroke-linejoin="round" stroke="rgb(69.019608%, 47.843137%, 63.137255%)" stroke-opacity="1" stroke-miterlimit="10" d="M 278.773438 177.816406 L 287.113281 177.816406 L 295.449219 176.742188 L 303.789062 176.652344 L 312.128906 178.492188 L 320.464844 178.492188 L 328.804688 177.402344 L 337.144531 171.847656 L 345.480469 190.324219 L 353.820312 189.8125 L 362.160156 188.210938 L 370.496094 188.644531 L 378.835938 201.542969 L 387.175781 195.722656 L 395.511719 181.242188 L 403.851562 176.335938 L 412.191406 193.242188 L 420.527344 198.019531 L 428.867188 206.769531 L 437.207031 204.417969 L 445.542969 198.691406 L 453.882812 200.472656 L 462.222656 225.496094 L 470.558594 235.449219 L 478.898438 224.949219 "/>
<path fill="none" stroke-width="2.347352" stroke-linecap="butt" stroke-linejoin="round" stroke="rgb(34.901961%, 63.137255%, 30.980392%)" stroke-opacity="1" stroke-miterlimit="10" d="M 278.773438 175.890625 L 287.113281 175.890625 L 295.449219 176.34375 L 303.789062 178.398438 L 312.128906 183.097656 L 320.464844 183.097656 L 328.804688 182.898438 L 337.144531 182.742188 L 345.480469 186.996094 L 353.820312 187.585938 L 362.160156 186.554688 L 370.496094 187.160156 L 378.835938 190.214844 L 387.175781 191.386719 L 395.511719 194.785156 L 403.851562 196.792969 L 412.191406 200.109375 L 420.527344 204.074219 L 428.867188 209.199219 L 437.207031 211.152344 L 445.542969 211.035156 L 453.882812 213.953125 L 462.222656 220.191406 L 470.558594 221.503906 L 478.898438 223.195312 "/>
<path fill="none" stroke-width="2.347352" stroke-linecap="butt" stroke-linejoin="round" stroke="rgb(94.901961%, 55.686275%, 16.862745%)" stroke-opacity="1" stroke-miterlimit="10" d="M 278.773438 168.015625 L 287.113281 167.355469 L 295.449219 173.628906 L 303.789062 177.492188 L 312.128906 178.570312 L 320.464844 177.960938 L 328.804688 177.269531 L 337.144531 175.886719 L 345.480469 185.816406 L 353.820312 185.894531 L 362.160156 185.234375 L 370.496094 187.625 L 378.835938 201.546875 L 387.175781 200.003906 L 395.511719 181.050781 L 403.851562 175.066406 L 412.191406 212.90625 L 420.527344 212.703125 L 428.867188 210.738281 L 437.207031 198.859375 L 445.542969 195.257812 L 453.882812 208.902344 L 462.222656 223.828125 L 470.558594 233.984375 L 478.898438 227.148438 "/>
<path fill="none" stroke-width="2.347352" stroke-linecap="butt" stroke-linejoin="round" stroke="rgb(30.588235%, 47.45098%, 65.490196%)" stroke-opacity="1" stroke-miterlimit="10" d="M 278.773438 178.652344 L 287.113281 180.964844 L 295.449219 182.527344 L 303.789062 183.496094 L 312.128906 184.019531 L 320.464844 184.898438 L 328.804688 185.382812 L 337.144531 186.773438 L 345.480469 187.398438 L 353.820312 188.425781 L 362.160156 189.460938 L 370.496094 194.96875 L 378.835938 197.117188 L 387.175781 197.652344 L 395.511719 191.28125 L 403.851562 189.4375 L 412.191406 200.378906 L 420.527344 201.679688 L 428.867188 203.902344 L 437.207031 205.128906 L 445.542969 206.363281 L 453.882812 208.414062 L 462.222656 210.710938 L 470.558594 212.867188 L 478.898438 213.113281 "/>
<g clip-path="url(#clip-42)">
<path fill="none" stroke-width="1.066978" stroke-linecap="round" stroke-linejoin="round" stroke="rgb(20%, 20%, 20%)" stroke-opacity="1" stroke-miterlimit="10" d="M 268.765625 286.390625 L 488.902344 286.390625 L 488.902344 23.246094 L 268.765625 23.246094 Z M 268.765625 286.390625 "/>
</g>
<g clip-path="url(#clip-43)">
<path fill-rule="nonzero" fill="rgb(100%, 100%, 100%)" fill-opacity="1" d="M 494.382812 286.390625 L 714.519531 286.390625 L 714.519531 23.246094 L 494.382812 23.246094 Z M 494.382812 286.390625 "/>
</g>
<g clip-path="url(#clip-44)">
<path fill="none" stroke-width="0.533489" stroke-linecap="butt" stroke-linejoin="round" stroke="rgb(92.156863%, 92.156863%, 92.156863%)" stroke-opacity="1" stroke-miterlimit="10" d="M 494.382812 236.09375 L 714.519531 236.09375 "/>
</g>
<g clip-path="url(#clip-45)">
<path fill="none" stroke-width="0.533489" stroke-linecap="butt" stroke-linejoin="round" stroke="rgb(92.156863%, 92.156863%, 92.156863%)" stroke-opacity="1" stroke-miterlimit="10" d="M 494.382812 159.261719 L 714.519531 159.261719 "/>
</g>
<g clip-path="url(#clip-46)">
<path fill="none" stroke-width="0.533489" stroke-linecap="butt" stroke-linejoin="round" stroke="rgb(92.156863%, 92.156863%, 92.156863%)" stroke-opacity="1" stroke-miterlimit="10" d="M 494.382812 82.425781 L 714.519531 82.425781 "/>
</g>
<g clip-path="url(#clip-47)">
<path fill="none" stroke-width="0.533489" stroke-linecap="butt" stroke-linejoin="round" stroke="rgb(92.156863%, 92.156863%, 92.156863%)" stroke-opacity="1" stroke-miterlimit="10" d="M 531.804688 286.390625 L 531.804688 23.246094 "/>
</g>
<g clip-path="url(#clip-48)">
<path fill="none" stroke-width="0.533489" stroke-linecap="butt" stroke-linejoin="round" stroke="rgb(92.156863%, 92.156863%, 92.156863%)" stroke-opacity="1" stroke-miterlimit="10" d="M 599.492188 286.390625 L 599.492188 23.246094 "/>
</g>
<g clip-path="url(#clip-49)">
<path fill="none" stroke-width="0.533489" stroke-linecap="butt" stroke-linejoin="round" stroke="rgb(92.156863%, 92.156863%, 92.156863%)" stroke-opacity="1" stroke-miterlimit="10" d="M 667.183594 286.390625 L 667.183594 23.246094 "/>
</g>
<g clip-path="url(#clip-50)">
<path fill="none" stroke-width="1.066978" stroke-linecap="butt" stroke-linejoin="round" stroke="rgb(92.156863%, 92.156863%, 92.156863%)" stroke-opacity="1" stroke-miterlimit="10" d="M 494.382812 274.507812 L 714.519531 274.507812 "/>
</g>
<g clip-path="url(#clip-51)">
<path fill="none" stroke-width="1.066978" stroke-linecap="butt" stroke-linejoin="round" stroke="rgb(92.156863%, 92.156863%, 92.156863%)" stroke-opacity="1" stroke-miterlimit="10" d="M 494.382812 197.675781 L 714.519531 197.675781 "/>
</g>
<g clip-path="url(#clip-52)">
<path fill="none" stroke-width="1.066978" stroke-linecap="butt" stroke-linejoin="round" stroke="rgb(92.156863%, 92.156863%, 92.156863%)" stroke-opacity="1" stroke-miterlimit="10" d="M 494.382812 120.84375 L 714.519531 120.84375 "/>
</g>
<g clip-path="url(#clip-53)">
<path fill="none" stroke-width="1.066978" stroke-linecap="butt" stroke-linejoin="round" stroke="rgb(92.156863%, 92.156863%, 92.156863%)" stroke-opacity="1" stroke-miterlimit="10" d="M 494.382812 44.011719 L 714.519531 44.011719 "/>
</g>
<g clip-path="url(#clip-54)">
<path fill="none" stroke-width="1.066978" stroke-linecap="butt" stroke-linejoin="round" stroke="rgb(92.156863%, 92.156863%, 92.156863%)" stroke-opacity="1" stroke-miterlimit="10" d="M 497.960938 286.390625 L 497.960938 23.246094 "/>
</g>
<g clip-path="url(#clip-55)">
<path fill="none" stroke-width="1.066978" stroke-linecap="butt" stroke-linejoin="round" stroke="rgb(92.156863%, 92.156863%, 92.156863%)" stroke-opacity="1" stroke-miterlimit="10" d="M 565.648438 286.390625 L 565.648438 23.246094 "/>
</g>
<g clip-path="url(#clip-56)">
<path fill="none" stroke-width="1.066978" stroke-linecap="butt" stroke-linejoin="round" stroke="rgb(92.156863%, 92.156863%, 92.156863%)" stroke-opacity="1" stroke-miterlimit="10" d="M 633.339844 286.390625 L 633.339844 23.246094 "/>
</g>
<g clip-path="url(#clip-57)">
<path fill="none" stroke-width="1.066978" stroke-linecap="butt" stroke-linejoin="round" stroke="rgb(92.156863%, 92.156863%, 92.156863%)" stroke-opacity="1" stroke-miterlimit="10" d="M 701.027344 286.390625 L 701.027344 23.246094 "/>
</g>
<g clip-path="url(#clip-58)">
<path fill="none" stroke-width="1.066978" stroke-linecap="butt" stroke-linejoin="round" stroke="rgb(54.901961%, 54.901961%, 54.901961%)" stroke-opacity="1" stroke-dasharray="4.267913 4.267913" stroke-miterlimit="10" d="M 494.382812 197.675781 L 714.519531 197.675781 "/>
</g>
<path fill="none" stroke-width="2.347352" stroke-linecap="butt" stroke-linejoin="round" stroke="rgb(88.235294%, 34.117647%, 34.901961%)" stroke-opacity="1" stroke-miterlimit="10" d="M 504.390625 174.671875 L 512.726562 237.910156 L 521.066406 274.429688 L 529.40625 163.621094 L 537.742188 206.722656 L 546.082031 157.140625 L 554.421875 234.238281 L 562.757812 196.523438 L 571.097656 169.914062 L 579.4375 164.945312 L 587.773438 160.863281 L 596.113281 151.066406 L 604.453125 157.722656 L 621.128906 157.722656 L 629.46875 153.167969 L 637.804688 39.453125 L 646.144531 39.453125 L 654.484375 56.546875 L 662.820312 56.546875 L 671.160156 62.929688 L 679.5 62.929688 L 687.835938 35.207031 L 696.175781 35.207031 L 704.515625 55.324219 "/>
<path fill="none" stroke-width="2.347352" stroke-linecap="butt" stroke-linejoin="round" stroke="rgb(69.019608%, 47.843137%, 63.137255%)" stroke-opacity="1" stroke-miterlimit="10" d="M 504.390625 195.703125 L 512.726562 236.953125 L 521.066406 253.167969 L 529.40625 162 L 537.742188 222.847656 L 546.082031 163.035156 L 554.421875 234.503906 L 562.757812 182.191406 L 571.097656 171.429688 L 579.4375 164.535156 L 587.773438 160.566406 L 596.113281 157.191406 L 604.453125 162.824219 L 621.128906 162.824219 L 629.46875 163.371094 L 637.804688 120.457031 L 679.5 120.457031 L 687.835938 90.425781 L 704.515625 90.425781 "/>
<path fill="none" stroke-width="2.347352" stroke-linecap="butt" stroke-linejoin="round" stroke="rgb(34.901961%, 63.137255%, 30.980392%)" stroke-opacity="1" stroke-miterlimit="10" d="M 504.390625 211.886719 L 512.726562 211.414062 L 521.066406 209.4375 L 529.40625 200.589844 L 537.742188 197.238281 L 546.082031 193.859375 L 554.421875 194.398438 L 562.757812 194.609375 L 571.097656 172.808594 L 579.4375 174.050781 L 587.773438 173.578125 L 596.113281 172.753906 L 604.453125 173.167969 L 612.789062 177.25 L 621.128906 178.074219 L 629.46875 177.867188 L 637.804688 177.867188 L 646.144531 177.644531 L 654.484375 176.976562 L 662.820312 176.6875 L 704.515625 176.6875 "/>
<path fill="none" stroke-width="2.347352" stroke-linecap="butt" stroke-linejoin="round" stroke="rgb(94.901961%, 55.686275%, 16.862745%)" stroke-opacity="1" stroke-miterlimit="10" d="M 504.390625 216.347656 L 512.726562 238.113281 L 521.066406 252.40625 L 529.40625 163.464844 L 537.742188 209.707031 L 546.082031 179.105469 L 554.421875 219.613281 L 562.757812 192.554688 L 571.097656 155.960938 L 579.4375 163.828125 L 587.773438 161.851562 L 596.113281 152.980469 L 604.453125 165.582031 L 612.789062 167.496094 L 621.128906 163.652344 L 629.46875 159.160156 L 637.804688 160 L 646.144531 160.121094 L 654.484375 146.796875 L 662.820312 146.210938 L 671.160156 142.691406 L 679.5 142.421875 L 687.835938 135.050781 L 696.175781 137.871094 L 704.515625 137.980469 "/>
<path fill="none" stroke-width="2.347352" stroke-linecap="butt" stroke-linejoin="round" stroke="rgb(30.588235%, 47.45098%, 65.490196%)" stroke-opacity="1" stroke-miterlimit="10" d="M 504.390625 214.527344 L 512.726562 216.925781 L 521.066406 212.550781 L 529.40625 191.886719 L 537.742188 191.996094 L 546.082031 186.527344 L 554.421875 185.894531 L 562.757812 180.582031 L 571.097656 177.796875 L 579.4375 177.453125 L 587.773438 177.414062 L 596.113281 176.785156 L 604.453125 176.519531 L 612.789062 176.386719 L 621.128906 176.300781 L 629.46875 175.800781 L 637.804688 174.578125 L 646.144531 173.964844 L 654.484375 173.441406 L 662.820312 173.050781 L 671.160156 172.503906 L 679.5 172.121094 L 687.835938 171.691406 L 696.175781 171.734375 L 704.515625 171.59375 "/>
<g clip-path="url(#clip-59)">
<path fill="none" stroke-width="1.066978" stroke-linecap="round" stroke-linejoin="round" stroke="rgb(20%, 20%, 20%)" stroke-opacity="1" stroke-miterlimit="10" d="M 494.382812 286.390625 L 714.519531 286.390625 L 714.519531 23.246094 L 494.382812 23.246094 Z M 494.382812 286.390625 "/>
</g>
<g clip-path="url(#clip-60)">
<path fill-rule="nonzero" fill="rgb(85.098039%, 85.098039%, 85.098039%)" fill-opacity="1" stroke-width="1.066978" stroke-linecap="round" stroke-linejoin="round" stroke="rgb(20%, 20%, 20%)" stroke-opacity="1" stroke-miterlimit="10" d="M 43.152344 23.246094 L 263.289062 23.246094 L 263.289062 5.480469 L 43.152344 5.480469 Z M 43.152344 23.246094 "/>
</g>
<g fill="rgb(10.196078%, 10.196078%, 10.196078%)" fill-opacity="1">
<use xlink:href="#glyph-0-0" x="144.71875" y="17.03125"/>
<use xlink:href="#glyph-0-1" x="150.71875" y="17.03125"/>
<use xlink:href="#glyph-0-2" x="156.71875" y="17.03125"/>
</g>
<g clip-path="url(#clip-61)">
<path fill-rule="nonzero" fill="rgb(85.098039%, 85.098039%, 85.098039%)" fill-opacity="1" stroke-width="1.066978" stroke-linecap="round" stroke-linejoin="round" stroke="rgb(20%, 20%, 20%)" stroke-opacity="1" stroke-miterlimit="10" d="M 268.765625 23.246094 L 488.902344 23.246094 L 488.902344 5.480469 L 268.765625 5.480469 Z M 268.765625 23.246094 "/>
</g>
<g fill="rgb(10.196078%, 10.196078%, 10.196078%)" fill-opacity="1">
<use xlink:href="#glyph-0-3" x="359.835938" y="17.03125"/>
<use xlink:href="#glyph-0-4" x="363.835938" y="17.03125"/>
<use xlink:href="#glyph-0-5" x="369.835938" y="17.03125"/>
<use xlink:href="#glyph-0-6" x="375.835938" y="17.03125"/>
<use xlink:href="#glyph-0-7" x="380.835938" y="17.03125"/>
<use xlink:href="#glyph-0-8" x="383.835938" y="17.03125"/>
<use xlink:href="#glyph-0-9" x="386.835938" y="17.03125"/>
<use xlink:href="#glyph-0-10" x="394.835938" y="17.03125"/>
</g>
<g clip-path="url(#clip-62)">
<path fill-rule="nonzero" fill="rgb(85.098039%, 85.098039%, 85.098039%)" fill-opacity="1" stroke-width="1.066978" stroke-linecap="round" stroke-linejoin="round" stroke="rgb(20%, 20%, 20%)" stroke-opacity="1" stroke-miterlimit="10" d="M 494.382812 23.246094 L 714.519531 23.246094 L 714.519531 5.480469 L 494.382812 5.480469 Z M 494.382812 23.246094 "/>
</g>
<g fill="rgb(10.196078%, 10.196078%, 10.196078%)" fill-opacity="1">
<use xlink:href="#glyph-0-11" x="595.453125" y="17.03125"/>
<use xlink:href="#glyph-0-12" x="601.453125" y="17.03125"/>
<use xlink:href="#glyph-0-13" x="608.453125" y="17.03125"/>
</g>
<path fill="none" stroke-width="1.066978" stroke-linecap="butt" stroke-linejoin="round" stroke="rgb(20%, 20%, 20%)" stroke-opacity="1" stroke-miterlimit="10" d="M 68.550781 289.132812 L 68.550781 286.390625 "/>
<path fill="none" stroke-width="1.066978" stroke-linecap="butt" stroke-linejoin="round" stroke="rgb(20%, 20%, 20%)" stroke-opacity="1" stroke-miterlimit="10" d="M 107.035156 289.132812 L 107.035156 286.390625 "/>
<path fill="none" stroke-width="1.066978" stroke-linecap="butt" stroke-linejoin="round" stroke="rgb(20%, 20%, 20%)" stroke-opacity="1" stroke-miterlimit="10" d="M 145.523438 289.132812 L 145.523438 286.390625 "/>
<path fill="none" stroke-width="1.066978" stroke-linecap="butt" stroke-linejoin="round" stroke="rgb(20%, 20%, 20%)" stroke-opacity="1" stroke-miterlimit="10" d="M 184.007812 289.132812 L 184.007812 286.390625 "/>
<path fill="none" stroke-width="1.066978" stroke-linecap="butt" stroke-linejoin="round" stroke="rgb(20%, 20%, 20%)" stroke-opacity="1" stroke-miterlimit="10" d="M 222.492188 289.132812 L 222.492188 286.390625 "/>
<path fill="none" stroke-width="1.066978" stroke-linecap="butt" stroke-linejoin="round" stroke="rgb(20%, 20%, 20%)" stroke-opacity="1" stroke-miterlimit="10" d="M 260.980469 289.132812 L 260.980469 286.390625 "/>
<g fill="rgb(30.196078%, 30.196078%, 30.196078%)" fill-opacity="1">
<use xlink:href="#glyph-0-14" x="62.550781" y="297.492188"/>
<use xlink:href="#glyph-0-15" x="68.550781" y="297.492188"/>
</g>
<g fill="rgb(30.196078%, 30.196078%, 30.196078%)" fill-opacity="1">
<use xlink:href="#glyph-0-14" x="101.035156" y="297.492188"/>
<use xlink:href="#glyph-0-14" x="107.035156" y="297.492188"/>
</g>
<g fill="rgb(30.196078%, 30.196078%, 30.196078%)" fill-opacity="1">
<use xlink:href="#glyph-0-16" x="139.523438" y="297.492188"/>
<use xlink:href="#glyph-0-15" x="145.523438" y="297.492188"/>
</g>
<g fill="rgb(30.196078%, 30.196078%, 30.196078%)" fill-opacity="1">
<use xlink:href="#glyph-0-16" x="178.007812" y="297.492188"/>
<use xlink:href="#glyph-0-14" x="184.007812" y="297.492188"/>
</g>
<g fill="rgb(30.196078%, 30.196078%, 30.196078%)" fill-opacity="1">
<use xlink:href="#glyph-0-17" x="216.492188" y="297.492188"/>
<use xlink:href="#glyph-0-15" x="222.492188" y="297.492188"/>
</g>
<g fill="rgb(30.196078%, 30.196078%, 30.196078%)" fill-opacity="1">
<use xlink:href="#glyph-0-17" x="254.980469" y="297.492188"/>
<use xlink:href="#glyph-0-14" x="260.980469" y="297.492188"/>
</g>
<path fill="none" stroke-width="1.066978" stroke-linecap="butt" stroke-linejoin="round" stroke="rgb(20%, 20%, 20%)" stroke-opacity="1" stroke-miterlimit="10" d="M 270.769531 289.132812 L 270.769531 286.390625 "/>
<path fill="none" stroke-width="1.066978" stroke-linecap="butt" stroke-linejoin="round" stroke="rgb(20%, 20%, 20%)" stroke-opacity="1" stroke-miterlimit="10" d="M 310.792969 289.132812 L 310.792969 286.390625 "/>
<path fill="none" stroke-width="1.066978" stroke-linecap="butt" stroke-linejoin="round" stroke="rgb(20%, 20%, 20%)" stroke-opacity="1" stroke-miterlimit="10" d="M 350.816406 289.132812 L 350.816406 286.390625 "/>
<path fill="none" stroke-width="1.066978" stroke-linecap="butt" stroke-linejoin="round" stroke="rgb(20%, 20%, 20%)" stroke-opacity="1" stroke-miterlimit="10" d="M 390.84375 289.132812 L 390.84375 286.390625 "/>
<path fill="none" stroke-width="1.066978" stroke-linecap="butt" stroke-linejoin="round" stroke="rgb(20%, 20%, 20%)" stroke-opacity="1" stroke-miterlimit="10" d="M 430.867188 289.132812 L 430.867188 286.390625 "/>
<path fill="none" stroke-width="1.066978" stroke-linecap="butt" stroke-linejoin="round" stroke="rgb(20%, 20%, 20%)" stroke-opacity="1" stroke-miterlimit="10" d="M 470.894531 289.132812 L 470.894531 286.390625 "/>
<g fill="rgb(30.196078%, 30.196078%, 30.196078%)" fill-opacity="1">
<use xlink:href="#glyph-0-18" x="264.769531" y="297.492188"/>
<use xlink:href="#glyph-0-14" x="270.769531" y="297.492188"/>
</g>
<g fill="rgb(30.196078%, 30.196078%, 30.196078%)" fill-opacity="1">
<use xlink:href="#glyph-0-19" x="304.792969" y="297.492188"/>
<use xlink:href="#glyph-0-15" x="310.792969" y="297.492188"/>
</g>
<g fill="rgb(30.196078%, 30.196078%, 30.196078%)" fill-opacity="1">
<use xlink:href="#glyph-0-19" x="344.816406" y="297.492188"/>
<use xlink:href="#glyph-0-14" x="350.816406" y="297.492188"/>
</g>
<g fill="rgb(30.196078%, 30.196078%, 30.196078%)" fill-opacity="1">
<use xlink:href="#glyph-0-14" x="384.84375" y="297.492188"/>
<use xlink:href="#glyph-0-15" x="390.84375" y="297.492188"/>
</g>
<g fill="rgb(30.196078%, 30.196078%, 30.196078%)" fill-opacity="1">
<use xlink:href="#glyph-0-14" x="424.867188" y="297.492188"/>
<use xlink:href="#glyph-0-14" x="430.867188" y="297.492188"/>
</g>
<g fill="rgb(30.196078%, 30.196078%, 30.196078%)" fill-opacity="1">
<use xlink:href="#glyph-0-16" x="464.894531" y="297.492188"/>
<use xlink:href="#glyph-0-15" x="470.894531" y="297.492188"/>
</g>
<path fill="none" stroke-width="1.066978" stroke-linecap="butt" stroke-linejoin="round" stroke="rgb(20%, 20%, 20%)" stroke-opacity="1" stroke-miterlimit="10" d="M 497.960938 289.132812 L 497.960938 286.390625 "/>
<path fill="none" stroke-width="1.066978" stroke-linecap="butt" stroke-linejoin="round" stroke="rgb(20%, 20%, 20%)" stroke-opacity="1" stroke-miterlimit="10" d="M 565.648438 289.132812 L 565.648438 286.390625 "/>
<path fill="none" stroke-width="1.066978" stroke-linecap="butt" stroke-linejoin="round" stroke="rgb(20%, 20%, 20%)" stroke-opacity="1" stroke-miterlimit="10" d="M 633.339844 289.132812 L 633.339844 286.390625 "/>
<path fill="none" stroke-width="1.066978" stroke-linecap="butt" stroke-linejoin="round" stroke="rgb(20%, 20%, 20%)" stroke-opacity="1" stroke-miterlimit="10" d="M 701.027344 289.132812 L 701.027344 286.390625 "/>
<g fill="rgb(30.196078%, 30.196078%, 30.196078%)" fill-opacity="1">
<use xlink:href="#glyph-0-15" x="494.960938" y="297.492188"/>
</g>
<g fill="rgb(30.196078%, 30.196078%, 30.196078%)" fill-opacity="1">
<use xlink:href="#glyph-0-20" x="556.648438" y="297.492188"/>
<use xlink:href="#glyph-0-15" x="562.648438" y="297.492188"/>
<use xlink:href="#glyph-0-15" x="568.648438" y="297.492188"/>
</g>
<g fill="rgb(30.196078%, 30.196078%, 30.196078%)" fill-opacity="1">
<use xlink:href="#glyph-0-19" x="624.339844" y="297.492188"/>
<use xlink:href="#glyph-0-15" x="630.339844" y="297.492188"/>
<use xlink:href="#glyph-0-15" x="636.339844" y="297.492188"/>
</g>
<g fill="rgb(30.196078%, 30.196078%, 30.196078%)" fill-opacity="1">
<use xlink:href="#glyph-0-16" x="692.027344" y="297.492188"/>
<use xlink:href="#glyph-0-15" x="698.027344" y="297.492188"/>
<use xlink:href="#glyph-0-15" x="704.027344" y="297.492188"/>
</g>
<g fill="rgb(30.196078%, 30.196078%, 30.196078%)" fill-opacity="1">
<use xlink:href="#glyph-0-21" x="20.21875" y="277.175781"/>
<use xlink:href="#glyph-0-15" x="23.21875" y="277.175781"/>
<use xlink:href="#glyph-0-22" x="29.21875" y="277.175781"/>
<use xlink:href="#glyph-0-20" x="32.21875" y="277.175781"/>
</g>
<g fill="rgb(30.196078%, 30.196078%, 30.196078%)" fill-opacity="1">
<use xlink:href="#glyph-0-15" x="23.21875" y="200.34375"/>
<use xlink:href="#glyph-0-22" x="29.21875" y="200.34375"/>
<use xlink:href="#glyph-0-15" x="32.21875" y="200.34375"/>
</g>
<g fill="rgb(30.196078%, 30.196078%, 30.196078%)" fill-opacity="1">
<use xlink:href="#glyph-0-15" x="23.21875" y="123.511719"/>
<use xlink:href="#glyph-0-22" x="29.21875" y="123.511719"/>
<use xlink:href="#glyph-0-20" x="32.21875" y="123.511719"/>
</g>
<g fill="rgb(30.196078%, 30.196078%, 30.196078%)" fill-opacity="1">
<use xlink:href="#glyph-0-15" x="23.21875" y="46.679688"/>
<use xlink:href="#glyph-0-22" x="29.21875" y="46.679688"/>
<use xlink:href="#glyph-0-19" x="32.21875" y="46.679688"/>
</g>
<path fill="none" stroke-width="1.066978" stroke-linecap="butt" stroke-linejoin="round" stroke="rgb(20%, 20%, 20%)" stroke-opacity="1" stroke-miterlimit="10" d="M 40.410156 274.507812 L 43.152344 274.507812 "/>
<path fill="none" stroke-width="1.066978" stroke-linecap="butt" stroke-linejoin="round" stroke="rgb(20%, 20%, 20%)" stroke-opacity="1" stroke-miterlimit="10" d="M 40.410156 197.675781 L 43.152344 197.675781 "/>
<path fill="none" stroke-width="1.066978" stroke-linecap="butt" stroke-linejoin="round" stroke="rgb(20%, 20%, 20%)" stroke-opacity="1" stroke-miterlimit="10" d="M 40.410156 120.84375 L 43.152344 120.84375 "/>
<path fill="none" stroke-width="1.066978" stroke-linecap="butt" stroke-linejoin="round" stroke="rgb(20%, 20%, 20%)" stroke-opacity="1" stroke-miterlimit="10" d="M 40.410156 44.011719 L 43.152344 44.011719 "/>
<g fill="rgb(0%, 0%, 0%)" fill-opacity="1">
<use xlink:href="#glyph-1-0" x="13.691406" y="236.320312"/>
<use xlink:href="#glyph-1-1" x="13.691406" y="229.320312"/>
<use xlink:href="#glyph-1-2" x="13.691406" y="223.320312"/>
<use xlink:href="#glyph-1-3" x="13.691406" y="219.320312"/>
<use xlink:href="#glyph-1-4" x="13.691406" y="216.320312"/>
<use xlink:href="#glyph-1-5" x="13.691406" y="205.320312"/>
<use xlink:href="#glyph-1-2" x="13.691406" y="198.320312"/>
<use xlink:href="#glyph-1-6" x="13.691406" y="194.320312"/>
<use xlink:href="#glyph-1-7" x="13.691406" y="187.320312"/>
<use xlink:href="#glyph-1-8" x="13.691406" y="180.320312"/>
<use xlink:href="#glyph-1-9" x="13.691406" y="177.320312"/>
<use xlink:href="#glyph-1-10" x="13.691406" y="169.320312"/>
<use xlink:href="#glyph-1-0" x="13.691406" y="162.320312"/>
<use xlink:href="#glyph-1-11" x="13.691406" y="155.320312"/>
<use xlink:href="#glyph-1-8" x="13.691406" y="151.320312"/>
<use xlink:href="#glyph-1-12" x="13.691406" y="148.320312"/>
<use xlink:href="#glyph-1-3" x="13.691406" y="143.320312"/>
<use xlink:href="#glyph-1-1" x="13.691406" y="140.320312"/>
<use xlink:href="#glyph-1-13" x="13.691406" y="134.320312"/>
<use xlink:href="#glyph-1-8" x="13.691406" y="128.320312"/>
<use xlink:href="#glyph-1-12" x="13.691406" y="125.320312"/>
<use xlink:href="#glyph-1-6" x="13.691406" y="121.320312"/>
<use xlink:href="#glyph-1-7" x="13.691406" y="114.320312"/>
<use xlink:href="#glyph-1-14" x="13.691406" y="107.320312"/>
<use xlink:href="#glyph-1-15" x="13.691406" y="100.320312"/>
<use xlink:href="#glyph-1-2" x="13.691406" y="94.320312"/>
<use xlink:href="#glyph-1-3" x="13.691406" y="90.320312"/>
<use xlink:href="#glyph-1-16" x="13.691406" y="87.320312"/>
<use xlink:href="#glyph-1-17" x="13.691406" y="80.320312"/>
</g>
<path fill-rule="nonzero" fill="rgb(100%, 100%, 100%)" fill-opacity="1" d="M 110 339.519531 L 647.675781 339.519531 L 647.675781 311.28125 L 110 311.28125 Z M 110 339.519531 "/>
<path fill-rule="nonzero" fill="rgb(100%, 100%, 100%)" fill-opacity="1" d="M 115.476562 334.042969 L 132.757812 334.042969 L 132.757812 316.761719 L 115.476562 316.761719 Z M 115.476562 334.042969 "/>
<path fill="none" stroke-width="2.347352" stroke-linecap="butt" stroke-linejoin="round" stroke="rgb(88.235294%, 34.117647%, 34.901961%)" stroke-opacity="1" stroke-miterlimit="10" d="M 117.207031 325.402344 L 131.03125 325.402344 "/>
<path fill-rule="nonzero" fill="rgb(100%, 100%, 100%)" fill-opacity="1" d="M 227.71875 334.042969 L 245 334.042969 L 245 316.761719 L 227.71875 316.761719 Z M 227.71875 334.042969 "/>
<path fill="none" stroke-width="2.347352" stroke-linecap="butt" stroke-linejoin="round" stroke="rgb(69.019608%, 47.843137%, 63.137255%)" stroke-opacity="1" stroke-miterlimit="10" d="M 229.445312 325.402344 L 243.269531 325.402344 "/>
<path fill-rule="nonzero" fill="rgb(100%, 100%, 100%)" fill-opacity="1" d="M 332.957031 334.042969 L 350.238281 334.042969 L 350.238281 316.761719 L 332.957031 316.761719 Z M 332.957031 334.042969 "/>
<path fill="none" stroke-width="2.347352" stroke-linecap="butt" stroke-linejoin="round" stroke="rgb(34.901961%, 63.137255%, 30.980392%)" stroke-opacity="1" stroke-miterlimit="10" d="M 334.683594 325.402344 L 348.507812 325.402344 "/>
<path fill-rule="nonzero" fill="rgb(100%, 100%, 100%)" fill-opacity="1" d="M 438.195312 334.042969 L 455.476562 334.042969 L 455.476562 316.761719 L 438.195312 316.761719 Z M 438.195312 334.042969 "/>
<path fill="none" stroke-width="2.347352" stroke-linecap="butt" stroke-linejoin="round" stroke="rgb(94.901961%, 55.686275%, 16.862745%)" stroke-opacity="1" stroke-miterlimit="10" d="M 439.921875 325.402344 L 453.746094 325.402344 "/>
<path fill-rule="nonzero" fill="rgb(100%, 100%, 100%)" fill-opacity="1" d="M 543.433594 334.042969 L 560.714844 334.042969 L 560.714844 316.761719 L 543.433594 316.761719 Z M 543.433594 334.042969 "/>
<path fill="none" stroke-width="2.347352" stroke-linecap="butt" stroke-linejoin="round" stroke="rgb(30.588235%, 47.45098%, 65.490196%)" stroke-opacity="1" stroke-miterlimit="10" d="M 545.160156 325.402344 L 558.984375 325.402344 "/>
<g fill="rgb(0%, 0%, 0%)" fill-opacity="1">
<use xlink:href="#glyph-0-5" x="138.238281" y="328.070312"/>
<use xlink:href="#glyph-0-23" x="144.238281" y="328.070312"/>
<use xlink:href="#glyph-0-24" x="149.238281" y="328.070312"/>
<use xlink:href="#glyph-0-25" x="154.238281" y="328.070312"/>
<use xlink:href="#glyph-0-26" x="160.238281" y="328.070312"/>
<use xlink:href="#glyph-0-3" x="168.238281" y="328.070312"/>
<use xlink:href="#glyph-0-7" x="173.238281" y="328.070312"/>
<use xlink:href="#glyph-0-27" x="176.238281" y="328.070312"/>
<use xlink:href="#glyph-0-28" x="183.238281" y="328.070312"/>
<use xlink:href="#glyph-0-21" x="189.238281" y="328.070312"/>
<use xlink:href="#glyph-0-29" x="192.238281" y="328.070312"/>
<use xlink:href="#glyph-0-2" x="194.238281" y="328.070312"/>
<use xlink:href="#glyph-0-30" x="199.238281" y="328.070312"/>
<use xlink:href="#glyph-0-31" x="204.238281" y="328.070312"/>
<use xlink:href="#glyph-0-25" x="207.238281" y="328.070312"/>
<use xlink:href="#glyph-0-2" x="213.238281" y="328.070312"/>
<use xlink:href="#glyph-0-31" x="218.238281" y="328.070312"/>
</g>
<g fill="rgb(0%, 0%, 0%)" fill-opacity="1">
<use xlink:href="#glyph-0-5" x="250.476562" y="328.070312"/>
<use xlink:href="#glyph-0-23" x="256.476562" y="328.070312"/>
<use xlink:href="#glyph-0-24" x="261.476562" y="328.070312"/>
<use xlink:href="#glyph-0-25" x="266.476562" y="328.070312"/>
<use xlink:href="#glyph-0-26" x="272.476562" y="328.070312"/>
<use xlink:href="#glyph-0-3" x="280.476562" y="328.070312"/>
<use xlink:href="#glyph-0-7" x="285.476562" y="328.070312"/>
<use xlink:href="#glyph-0-28" x="288.476562" y="328.070312"/>
<use xlink:href="#glyph-0-21" x="294.476562" y="328.070312"/>
<use xlink:href="#glyph-0-29" x="297.476562" y="328.070312"/>
<use xlink:href="#glyph-0-2" x="299.476562" y="328.070312"/>
<use xlink:href="#glyph-0-30" x="304.476562" y="328.070312"/>
<use xlink:href="#glyph-0-31" x="309.476562" y="328.070312"/>
<use xlink:href="#glyph-0-25" x="312.476562" y="328.070312"/>
<use xlink:href="#glyph-0-2" x="318.476562" y="328.070312"/>
<use xlink:href="#glyph-0-31" x="323.476562" y="328.070312"/>
</g>
<g fill="rgb(0%, 0%, 0%)" fill-opacity="1">
<use xlink:href="#glyph-0-5" x="355.714844" y="328.070312"/>
<use xlink:href="#glyph-0-23" x="361.714844" y="328.070312"/>
<use xlink:href="#glyph-0-24" x="366.714844" y="328.070312"/>
<use xlink:href="#glyph-0-25" x="371.714844" y="328.070312"/>
<use xlink:href="#glyph-0-26" x="377.714844" y="328.070312"/>
<use xlink:href="#glyph-0-3" x="385.714844" y="328.070312"/>
<use xlink:href="#glyph-0-7" x="390.714844" y="328.070312"/>
<use xlink:href="#glyph-0-32" x="393.714844" y="328.070312"/>
<use xlink:href="#glyph-0-21" x="399.714844" y="328.070312"/>
<use xlink:href="#glyph-0-29" x="402.714844" y="328.070312"/>
<use xlink:href="#glyph-0-2" x="404.714844" y="328.070312"/>
<use xlink:href="#glyph-0-30" x="409.714844" y="328.070312"/>
<use xlink:href="#glyph-0-31" x="414.714844" y="328.070312"/>
<use xlink:href="#glyph-0-25" x="417.714844" y="328.070312"/>
<use xlink:href="#glyph-0-2" x="423.714844" y="328.070312"/>
<use xlink:href="#glyph-0-31" x="428.714844" y="328.070312"/>
</g>
<g fill="rgb(0%, 0%, 0%)" fill-opacity="1">
<use xlink:href="#glyph-0-5" x="460.953125" y="328.070312"/>
<use xlink:href="#glyph-0-23" x="466.953125" y="328.070312"/>
<use xlink:href="#glyph-0-24" x="471.953125" y="328.070312"/>
<use xlink:href="#glyph-0-25" x="476.953125" y="328.070312"/>
<use xlink:href="#glyph-0-26" x="482.953125" y="328.070312"/>
<use xlink:href="#glyph-0-3" x="490.953125" y="328.070312"/>
<use xlink:href="#glyph-0-7" x="495.953125" y="328.070312"/>
<use xlink:href="#glyph-0-33" x="498.953125" y="328.070312"/>
<use xlink:href="#glyph-0-21" x="504.953125" y="328.070312"/>
<use xlink:href="#glyph-0-29" x="507.953125" y="328.070312"/>
<use xlink:href="#glyph-0-2" x="509.953125" y="328.070312"/>
<use xlink:href="#glyph-0-30" x="514.953125" y="328.070312"/>
<use xlink:href="#glyph-0-31" x="519.953125" y="328.070312"/>
<use xlink:href="#glyph-0-25" x="522.953125" y="328.070312"/>
<use xlink:href="#glyph-0-2" x="528.953125" y="328.070312"/>
<use xlink:href="#glyph-0-31" x="533.953125" y="328.070312"/>
</g>
<g fill="rgb(0%, 0%, 0%)" fill-opacity="1">
<use xlink:href="#glyph-0-34" x="566.191406" y="328.070312"/>
<use xlink:href="#glyph-0-28" x="573.191406" y="328.070312"/>
<use xlink:href="#glyph-0-6" x="579.191406" y="328.070312"/>
<use xlink:href="#glyph-0-7" x="584.191406" y="328.070312"/>
<use xlink:href="#glyph-0-23" x="587.191406" y="328.070312"/>
<use xlink:href="#glyph-0-30" x="592.191406" y="328.070312"/>
<use xlink:href="#glyph-0-35" x="597.191406" y="328.070312"/>
<use xlink:href="#glyph-0-36" x="603.191406" y="328.070312"/>
<use xlink:href="#glyph-0-30" x="608.191406" y="328.070312"/>
<use xlink:href="#glyph-0-29" x="613.191406" y="328.070312"/>
<use xlink:href="#glyph-0-7" x="615.191406" y="328.070312"/>
<use xlink:href="#glyph-0-37" x="618.191406" y="328.070312"/>
<use xlink:href="#glyph-0-24" x="621.191406" y="328.070312"/>
<use xlink:href="#glyph-0-31" x="626.191406" y="328.070312"/>
<use xlink:href="#glyph-0-2" x="629.191406" y="328.070312"/>
<use xlink:href="#glyph-0-36" x="634.191406" y="328.070312"/>
<use xlink:href="#glyph-0-38" x="639.191406" y="328.070312"/>
</g>
</svg>
