<?xml version="1.0" encoding="UTF-8"?>
<svg xmlns="http://www.w3.org/2000/svg" xmlns:xlink="http://www.w3.org/1999/xlink" width="648pt" height="324pt" viewBox="0 0 648 324">
<defs>
<g>
<g id="glyph-0-0">
<path d="M 6.546875 -1.140625 L 6.546875 -3.296875 L 4.78125 -3.296875 L 4.78125 -4.1875 L 7.625 -4.1875 L 7.625 -0.75 C 7.207031 -0.445312 6.742188 -0.21875 6.234375 -0.0625 C 5.734375 0.0820312 5.195312 0.15625 4.625 0.15625 C 3.363281 0.15625 2.378906 -0.207031 1.671875 -0.9375 C 0.972656 -1.675781 0.625 -2.695312 0.625 -4 C 0.625 -5.3125 0.972656 -6.332031 1.671875 -7.0625 C 2.378906 -7.800781 3.363281 -8.171875 4.625 -8.171875 C 5.144531 -8.171875 5.640625 -8.101562 6.109375 -7.96875 C 6.578125 -7.84375 7.007812 -7.65625 7.40625 -7.40625 L 7.40625 -6.25 C 7.007812 -6.582031 6.582031 -6.832031 6.125 -7 C 5.675781 -7.175781 5.203125 -7.265625 4.703125 -7.265625 C 3.722656 -7.265625 2.988281 -6.988281 2.5 -6.4375 C 2.007812 -5.894531 1.765625 -5.082031 1.765625 -4 C 1.765625 -2.914062 2.007812 -2.097656 2.5 -1.546875 C 2.988281 -1.003906 3.722656 -0.734375 4.703125 -0.734375 C 5.085938 -0.734375 5.429688 -0.765625 5.734375 -0.828125 C 6.035156 -0.898438 6.304688 -1.003906 6.546875 -1.140625 Z M 6.546875 -1.140625 "/>
</g>
<g id="glyph-0-1">
<path d="M 1.359375 -0.90625 L 3.140625 -0.90625 L 3.140625 -7.03125 L 1.203125 -6.640625 L 1.203125 -7.625 L 3.125 -8.015625 L 4.21875 -8.015625 L 4.21875 -0.90625 L 5.984375 -0.90625 L 5.984375 0 L 1.359375 0 Z M 1.359375 -0.90625 "/>
</g>
<g id="glyph-0-2">
<path d="M 2.109375 -0.90625 L 5.890625 -0.90625 L 5.890625 0 L 0.8125 0 L 0.8125 -0.90625 C 1.21875 -1.332031 1.773438 -1.90625 2.484375 -2.625 C 3.203125 -3.34375 3.648438 -3.804688 3.828125 -4.015625 C 4.171875 -4.410156 4.410156 -4.742188 4.546875 -5.015625 C 4.691406 -5.285156 4.765625 -5.550781 4.765625 -5.8125 C 4.765625 -6.238281 4.613281 -6.582031 4.3125 -6.84375 C 4.019531 -7.113281 3.628906 -7.25 3.140625 -7.25 C 2.804688 -7.25 2.445312 -7.1875 2.0625 -7.0625 C 1.6875 -6.945312 1.285156 -6.769531 0.859375 -6.53125 L 0.859375 -7.625 C 1.296875 -7.800781 1.703125 -7.9375 2.078125 -8.03125 C 2.460938 -8.125 2.8125 -8.171875 3.125 -8.171875 C 3.957031 -8.171875 4.617188 -7.960938 5.109375 -7.546875 C 5.609375 -7.128906 5.859375 -6.570312 5.859375 -5.875 C 5.859375 -5.539062 5.796875 -5.226562 5.671875 -4.9375 C 5.546875 -4.644531 5.320312 -4.296875 5 -3.890625 C 4.90625 -3.785156 4.617188 -3.484375 4.140625 -2.984375 C 3.660156 -2.492188 2.984375 -1.800781 2.109375 -0.90625 Z M 2.109375 -0.90625 "/>
</g>
<g id="glyph-0-3">
<path d="M 4.46875 -4.328125 C 4.988281 -4.210938 5.394531 -3.976562 5.6875 -3.625 C 5.976562 -3.28125 6.125 -2.847656 6.125 -2.328125 C 6.125 -1.535156 5.847656 -0.921875 5.296875 -0.484375 C 4.753906 -0.0546875 3.984375 0.15625 2.984375 0.15625 C 2.640625 0.15625 2.289062 0.117188 1.9375 0.046875 C 1.582031 -0.015625 1.21875 -0.109375 0.84375 -0.234375 L 0.84375 -1.296875 C 1.144531 -1.117188 1.472656 -0.984375 1.828125 -0.890625 C 2.179688 -0.796875 2.554688 -0.75 2.953125 -0.75 C 3.628906 -0.75 4.144531 -0.882812 4.5 -1.15625 C 4.851562 -1.425781 5.03125 -1.816406 5.03125 -2.328125 C 5.03125 -2.804688 4.863281 -3.175781 4.53125 -3.4375 C 4.207031 -3.707031 3.75 -3.84375 3.15625 -3.84375 L 2.21875 -3.84375 L 2.21875 -4.734375 L 3.203125 -4.734375 C 3.734375 -4.734375 4.140625 -4.835938 4.421875 -5.046875 C 4.703125 -5.265625 4.84375 -5.570312 4.84375 -5.96875 C 4.84375 -6.382812 4.695312 -6.703125 4.40625 -6.921875 C 4.113281 -7.140625 3.695312 -7.25 3.15625 -7.25 C 2.863281 -7.25 2.546875 -7.21875 2.203125 -7.15625 C 1.859375 -7.09375 1.484375 -6.992188 1.078125 -6.859375 L 1.078125 -7.828125 C 1.492188 -7.941406 1.878906 -8.023438 2.234375 -8.078125 C 2.597656 -8.140625 2.9375 -8.171875 3.25 -8.171875 C 4.070312 -8.171875 4.722656 -7.984375 5.203125 -7.609375 C 5.691406 -7.234375 5.9375 -6.722656 5.9375 -6.078125 C 5.9375 -5.640625 5.804688 -5.265625 5.546875 -4.953125 C 5.296875 -4.648438 4.9375 -4.441406 4.46875 -4.328125 Z M 4.46875 -4.328125 "/>
</g>
<g id="glyph-0-4">
<path d="M 4.15625 -7.078125 L 1.421875 -2.796875 L 4.15625 -2.796875 Z M 3.875 -8.015625 L 5.234375 -8.015625 L 5.234375 -2.796875 L 6.375 -2.796875 L 6.375 -1.890625 L 5.234375 -1.890625 L 5.234375 0 L 4.15625 0 L 4.15625 -1.890625 L 0.53125 -1.890625 L 0.53125 -2.9375 Z M 3.875 -8.015625 "/>
</g>
<g id="glyph-0-5">
<path d="M 1.1875 -8.015625 L 5.453125 -8.015625 L 5.453125 -7.109375 L 2.1875 -7.109375 L 2.1875 -5.140625 C 2.34375 -5.191406 2.5 -5.226562 2.65625 -5.25 C 2.8125 -5.28125 2.96875 -5.296875 3.125 -5.296875 C 4.019531 -5.296875 4.726562 -5.050781 5.25 -4.5625 C 5.769531 -4.070312 6.03125 -3.410156 6.03125 -2.578125 C 6.03125 -1.710938 5.757812 -1.039062 5.21875 -0.5625 C 4.6875 -0.0820312 3.929688 0.15625 2.953125 0.15625 C 2.617188 0.15625 2.273438 0.125 1.921875 0.0625 C 1.578125 0.0078125 1.21875 -0.0703125 0.84375 -0.1875 L 0.84375 -1.28125 C 1.164062 -1.101562 1.5 -0.96875 1.84375 -0.875 C 2.1875 -0.789062 2.550781 -0.75 2.9375 -0.75 C 3.5625 -0.75 4.050781 -0.910156 4.40625 -1.234375 C 4.769531 -1.566406 4.953125 -2.015625 4.953125 -2.578125 C 4.953125 -3.128906 4.769531 -3.566406 4.40625 -3.890625 C 4.050781 -4.222656 3.5625 -4.390625 2.9375 -4.390625 C 2.644531 -4.390625 2.351562 -4.351562 2.0625 -4.28125 C 1.78125 -4.21875 1.488281 -4.117188 1.1875 -3.984375 Z M 1.1875 -8.015625 "/>
</g>
<g id="glyph-0-6">
<path d="M 1.078125 -8.015625 L 2.703125 -8.015625 L 4.75 -2.5625 L 6.796875 -8.015625 L 8.421875 -8.015625 L 8.421875 0 L 7.359375 0 L 7.359375 -7.046875 L 5.296875 -1.546875 L 4.203125 -1.546875 L 2.125 -7.046875 L 2.125 0 L 1.078125 0 Z M 1.078125 -8.015625 "/>
</g>
<g id="glyph-0-7">
<path d="M 6.1875 -3.25 L 6.1875 -2.765625 L 1.640625 -2.765625 C 1.679688 -2.085938 1.882812 -1.570312 2.25 -1.21875 C 2.613281 -0.863281 3.125 -0.6875 3.78125 -0.6875 C 4.164062 -0.6875 4.535156 -0.734375 4.890625 -0.828125 C 5.242188 -0.921875 5.597656 -1.054688 5.953125 -1.234375 L 5.953125 -0.3125 C 5.597656 -0.15625 5.234375 -0.0390625 4.859375 0.03125 C 4.484375 0.113281 4.109375 0.15625 3.734375 0.15625 C 2.765625 0.15625 2 -0.117188 1.4375 -0.671875 C 0.882812 -1.234375 0.609375 -1.992188 0.609375 -2.953125 C 0.609375 -3.929688 0.875 -4.707031 1.40625 -5.28125 C 1.9375 -5.863281 2.65625 -6.15625 3.5625 -6.15625 C 4.363281 -6.15625 5 -5.894531 5.46875 -5.375 C 5.945312 -4.851562 6.1875 -4.144531 6.1875 -3.25 Z M 5.1875 -3.546875 C 5.1875 -4.085938 5.035156 -4.519531 4.734375 -4.84375 C 4.441406 -5.164062 4.050781 -5.328125 3.5625 -5.328125 C 3.007812 -5.328125 2.566406 -5.171875 2.234375 -4.859375 C 1.910156 -4.546875 1.722656 -4.109375 1.671875 -3.546875 Z M 5.1875 -3.546875 "/>
</g>
<g id="glyph-0-8">
<path d="M 3.765625 -3.03125 C 2.972656 -3.03125 2.421875 -2.9375 2.109375 -2.75 C 1.804688 -2.5625 1.65625 -2.25 1.65625 -1.8125 C 1.65625 -1.46875 1.769531 -1.191406 2 -0.984375 C 2.226562 -0.773438 2.539062 -0.671875 2.9375 -0.671875 C 3.488281 -0.671875 3.925781 -0.863281 4.25 -1.25 C 4.582031 -1.644531 4.75 -2.160156 4.75 -2.796875 L 4.75 -3.03125 Z M 5.734375 -3.4375 L 5.734375 0 L 4.75 0 L 4.75 -0.90625 C 4.53125 -0.539062 4.25 -0.269531 3.90625 -0.09375 C 3.570312 0.0703125 3.160156 0.15625 2.671875 0.15625 C 2.054688 0.15625 1.566406 -0.015625 1.203125 -0.359375 C 0.835938 -0.703125 0.65625 -1.164062 0.65625 -1.75 C 0.65625 -2.425781 0.878906 -2.9375 1.328125 -3.28125 C 1.785156 -3.625 2.46875 -3.796875 3.375 -3.796875 L 4.75 -3.796875 L 4.75 -3.890625 C 4.75 -4.347656 4.597656 -4.703125 4.296875 -4.953125 C 4.003906 -5.203125 3.585938 -5.328125 3.046875 -5.328125 C 2.703125 -5.328125 2.363281 -5.285156 2.03125 -5.203125 C 1.707031 -5.117188 1.394531 -4.992188 1.09375 -4.828125 L 1.09375 -5.734375 C 1.457031 -5.878906 1.8125 -5.984375 2.15625 -6.046875 C 2.5 -6.117188 2.828125 -6.15625 3.140625 -6.15625 C 4.015625 -6.15625 4.664062 -5.929688 5.09375 -5.484375 C 5.519531 -5.035156 5.734375 -4.351562 5.734375 -3.4375 Z M 5.734375 -3.4375 "/>
</g>
<g id="glyph-0-9">
<path d="M 6.03125 -3.625 L 6.03125 0 L 5.046875 0 L 5.046875 -3.59375 C 5.046875 -4.164062 4.9375 -4.59375 4.71875 -4.875 C 4.5 -5.15625 4.164062 -5.296875 3.71875 -5.296875 C 3.1875 -5.296875 2.765625 -5.125 2.453125 -4.78125 C 2.148438 -4.445312 2 -3.988281 2 -3.40625 L 2 0 L 1 0 L 1 -6.015625 L 2 -6.015625 L 2 -5.078125 C 2.226562 -5.441406 2.503906 -5.710938 2.828125 -5.890625 C 3.148438 -6.066406 3.519531 -6.15625 3.9375 -6.15625 C 4.625 -6.15625 5.144531 -5.941406 5.5 -5.515625 C 5.851562 -5.085938 6.03125 -4.457031 6.03125 -3.625 Z M 6.03125 -3.625 "/>
</g>
<g id="glyph-0-10">
</g>
<g id="glyph-0-11">
<path d="M 4.328125 -7.28125 C 3.546875 -7.28125 2.921875 -6.984375 2.453125 -6.390625 C 1.992188 -5.804688 1.765625 -5.007812 1.765625 -4 C 1.765625 -2.988281 1.992188 -2.1875 2.453125 -1.59375 C 2.921875 -1.007812 3.546875 -0.71875 4.328125 -0.71875 C 5.117188 -0.71875 5.742188 -1.007812 6.203125 -1.59375 C 6.660156 -2.1875 6.890625 -2.988281 6.890625 -4 C 6.890625 -5.007812 6.660156 -5.804688 6.203125 -6.390625 C 5.742188 -6.984375 5.117188 -7.28125 4.328125 -7.28125 Z M 4.328125 -8.171875 C 5.453125 -8.171875 6.351562 -7.789062 7.03125 -7.03125 C 7.707031 -6.28125 8.046875 -5.269531 8.046875 -4 C 8.046875 -2.738281 7.707031 -1.726562 7.03125 -0.96875 C 6.351562 -0.21875 5.453125 0.15625 4.328125 0.15625 C 3.203125 0.15625 2.300781 -0.21875 1.625 -0.96875 C 0.957031 -1.71875 0.625 -2.726562 0.625 -4 C 0.625 -5.269531 0.957031 -6.28125 1.625 -7.03125 C 2.300781 -7.789062 3.203125 -8.171875 4.328125 -8.171875 Z M 4.328125 -8.171875 "/>
</g>
<g id="glyph-0-12">
<path d="M 2.171875 -3.828125 L 2.171875 -0.890625 L 3.90625 -0.890625 C 4.488281 -0.890625 4.921875 -1.007812 5.203125 -1.25 C 5.484375 -1.488281 5.625 -1.859375 5.625 -2.359375 C 5.625 -2.859375 5.484375 -3.226562 5.203125 -3.46875 C 4.921875 -3.707031 4.488281 -3.828125 3.90625 -3.828125 Z M 2.171875 -7.125 L 2.171875 -4.703125 L 3.765625 -4.703125 C 4.296875 -4.703125 4.691406 -4.800781 4.953125 -5 C 5.210938 -5.207031 5.34375 -5.515625 5.34375 -5.921875 C 5.34375 -6.328125 5.210938 -6.628906 4.953125 -6.828125 C 4.691406 -7.023438 4.296875 -7.125 3.765625 -7.125 Z M 1.078125 -8.015625 L 3.84375 -8.015625 C 4.675781 -8.015625 5.316406 -7.84375 5.765625 -7.5 C 6.210938 -7.15625 6.4375 -6.664062 6.4375 -6.03125 C 6.4375 -5.539062 6.320312 -5.148438 6.09375 -4.859375 C 5.863281 -4.578125 5.523438 -4.398438 5.078125 -4.328125 C 5.609375 -4.210938 6.019531 -3.972656 6.3125 -3.609375 C 6.613281 -3.242188 6.765625 -2.789062 6.765625 -2.25 C 6.765625 -1.53125 6.519531 -0.972656 6.03125 -0.578125 C 5.550781 -0.191406 4.859375 0 3.953125 0 L 1.078125 0 Z M 1.078125 -8.015625 "/>
</g>
<g id="glyph-0-13">
<path d="M 2 -0.90625 L 2 2.28125 L 1 2.28125 L 1 -6.015625 L 2 -6.015625 L 2 -5.109375 C 2.195312 -5.460938 2.453125 -5.722656 2.765625 -5.890625 C 3.085938 -6.066406 3.472656 -6.15625 3.921875 -6.15625 C 4.648438 -6.15625 5.238281 -5.863281 5.6875 -5.28125 C 6.144531 -4.707031 6.375 -3.945312 6.375 -3 C 6.375 -2.050781 6.144531 -1.285156 5.6875 -0.703125 C 5.238281 -0.128906 4.648438 0.15625 3.921875 0.15625 C 3.472656 0.15625 3.085938 0.0703125 2.765625 -0.09375 C 2.453125 -0.269531 2.195312 -0.539062 2 -0.90625 Z M 5.359375 -3 C 5.359375 -3.726562 5.207031 -4.296875 4.90625 -4.703125 C 4.601562 -5.117188 4.191406 -5.328125 3.671875 -5.328125 C 3.148438 -5.328125 2.738281 -5.117188 2.4375 -4.703125 C 2.144531 -4.296875 2 -3.726562 2 -3 C 2 -2.269531 2.144531 -1.695312 2.4375 -1.28125 C 2.738281 -0.875 3.148438 -0.671875 3.671875 -0.671875 C 4.191406 -0.671875 4.601562 -0.875 4.90625 -1.28125 C 5.207031 -1.695312 5.359375 -2.269531 5.359375 -3 Z M 5.359375 -3 "/>
</g>
<g id="glyph-0-14">
<path d="M 4.515625 -5.09375 C 4.410156 -5.15625 4.289062 -5.203125 4.15625 -5.234375 C 4.03125 -5.265625 3.890625 -5.28125 3.734375 -5.28125 C 3.171875 -5.28125 2.738281 -5.097656 2.4375 -4.734375 C 2.144531 -4.367188 2 -3.847656 2 -3.171875 L 2 0 L 1 0 L 1 -6.015625 L 2 -6.015625 L 2 -5.078125 C 2.195312 -5.441406 2.460938 -5.710938 2.796875 -5.890625 C 3.128906 -6.066406 3.535156 -6.15625 4.015625 -6.15625 C 4.085938 -6.15625 4.160156 -6.148438 4.234375 -6.140625 C 4.316406 -6.140625 4.410156 -6.128906 4.515625 -6.109375 Z M 4.515625 -5.09375 "/>
</g>
<g id="glyph-0-15">
<path d="M 5 -5.109375 L 5 -8.359375 L 5.984375 -8.359375 L 5.984375 0 L 5 0 L 5 -0.90625 C 4.789062 -0.539062 4.523438 -0.269531 4.203125 -0.09375 C 3.890625 0.0703125 3.507812 0.15625 3.0625 0.15625 C 2.34375 0.15625 1.753906 -0.128906 1.296875 -0.703125 C 0.835938 -1.285156 0.609375 -2.050781 0.609375 -3 C 0.609375 -3.945312 0.835938 -4.707031 1.296875 -5.28125 C 1.753906 -5.863281 2.34375 -6.15625 3.0625 -6.15625 C 3.507812 -6.15625 3.890625 -6.066406 4.203125 -5.890625 C 4.523438 -5.722656 4.789062 -5.460938 5 -5.109375 Z M 1.625 -3 C 1.625 -2.269531 1.773438 -1.695312 2.078125 -1.28125 C 2.378906 -0.875 2.789062 -0.671875 3.3125 -0.671875 C 3.832031 -0.671875 4.242188 -0.875 4.546875 -1.28125 C 4.847656 -1.695312 5 -2.269531 5 -3 C 5 -3.726562 4.847656 -4.296875 4.546875 -4.703125 C 4.242188 -5.117188 3.832031 -5.328125 3.3125 -5.328125 C 2.789062 -5.328125 2.378906 -5.117188 2.078125 -4.703125 C 1.773438 -4.296875 1.625 -3.726562 1.625 -3 Z M 1.625 -3 "/>
</g>
<g id="glyph-0-16">
<path d="M 1.03125 -6.015625 L 2.03125 -6.015625 L 2.03125 0 L 1.03125 0 Z M 1.03125 -8.359375 L 2.03125 -8.359375 L 2.03125 -7.109375 L 1.03125 -7.109375 Z M 1.03125 -8.359375 "/>
</g>
<g id="glyph-0-17">
<path d="M 5.359375 -5.78125 L 5.359375 -4.859375 C 5.085938 -5.015625 4.8125 -5.128906 4.53125 -5.203125 C 4.25 -5.285156 3.960938 -5.328125 3.671875 -5.328125 C 3.035156 -5.328125 2.539062 -5.125 2.1875 -4.71875 C 1.832031 -4.3125 1.65625 -3.738281 1.65625 -3 C 1.65625 -2.269531 1.832031 -1.703125 2.1875 -1.296875 C 2.539062 -0.890625 3.035156 -0.6875 3.671875 -0.6875 C 3.960938 -0.6875 4.25 -0.722656 4.53125 -0.796875 C 4.8125 -0.867188 5.085938 -0.984375 5.359375 -1.140625 L 5.359375 -0.234375 C 5.085938 -0.0976562 4.800781 0 4.5 0.0625 C 4.207031 0.125 3.894531 0.15625 3.5625 0.15625 C 2.65625 0.15625 1.9375 -0.125 1.40625 -0.6875 C 0.875 -1.257812 0.609375 -2.03125 0.609375 -3 C 0.609375 -3.976562 0.875 -4.75 1.40625 -5.3125 C 1.945312 -5.875 2.6875 -6.15625 3.625 -6.15625 C 3.9375 -6.15625 4.234375 -6.125 4.515625 -6.0625 C 4.804688 -6 5.085938 -5.90625 5.359375 -5.78125 Z M 5.359375 -5.78125 "/>
</g>
<g id="glyph-0-18">
<path d="M 2.015625 -7.71875 L 2.015625 -6.015625 L 4.046875 -6.015625 L 4.046875 -5.25 L 2.015625 -5.25 L 2.015625 -1.984375 C 2.015625 -1.492188 2.082031 -1.175781 2.21875 -1.03125 C 2.351562 -0.894531 2.625 -0.828125 3.03125 -0.828125 L 4.046875 -0.828125 L 4.046875 0 L 3.03125 0 C 2.269531 0 1.742188 -0.140625 1.453125 -0.421875 C 1.160156 -0.710938 1.015625 -1.234375 1.015625 -1.984375 L 1.015625 -5.25 L 0.296875 -5.25 L 0.296875 -6.015625 L 1.015625 -6.015625 L 1.015625 -7.71875 Z M 2.015625 -7.71875 "/>
</g>
<g id="glyph-0-19">
<path d="M 7.078125 -7.40625 L 7.078125 -6.25 C 6.710938 -6.59375 6.320312 -6.847656 5.90625 -7.015625 C 5.5 -7.179688 5.0625 -7.265625 4.59375 -7.265625 C 3.675781 -7.265625 2.972656 -6.984375 2.484375 -6.421875 C 2.003906 -5.867188 1.765625 -5.0625 1.765625 -4 C 1.765625 -2.945312 2.003906 -2.140625 2.484375 -1.578125 C 2.972656 -1.015625 3.675781 -0.734375 4.59375 -0.734375 C 5.0625 -0.734375 5.5 -0.816406 5.90625 -0.984375 C 6.320312 -1.148438 6.710938 -1.40625 7.078125 -1.75 L 7.078125 -0.625 C 6.703125 -0.363281 6.300781 -0.164062 5.875 -0.03125 C 5.457031 0.09375 5.007812 0.15625 4.53125 0.15625 C 3.320312 0.15625 2.367188 -0.210938 1.671875 -0.953125 C 0.972656 -1.703125 0.625 -2.71875 0.625 -4 C 0.625 -5.289062 0.972656 -6.304688 1.671875 -7.046875 C 2.367188 -7.796875 3.320312 -8.171875 4.53125 -8.171875 C 5.007812 -8.171875 5.460938 -8.101562 5.890625 -7.96875 C 6.316406 -7.84375 6.710938 -7.65625 7.078125 -7.40625 Z M 7.078125 -7.40625 "/>
</g>
<g id="glyph-0-20">
<path d="M 3.765625 -6.953125 L 2.28125 -2.953125 L 5.234375 -2.953125 Z M 3.140625 -8.015625 L 4.375 -8.015625 L 7.4375 0 L 6.3125 0 L 5.578125 -2.0625 L 1.953125 -2.0625 L 1.234375 0 L 0.09375 0 Z M 3.140625 -8.015625 "/>
</g>
<g id="glyph-0-21">
<path d="M -0.03125 -8.015625 L 6.75 -8.015625 L 6.75 -7.109375 L 3.90625 -7.109375 L 3.90625 0 L 2.8125 0 L 2.8125 -7.109375 L -0.03125 -7.109375 Z M -0.03125 -8.015625 "/>
</g>
<g id="glyph-0-22">
<path d="M 1.078125 -8.015625 L 6.15625 -8.015625 L 6.15625 -7.109375 L 2.171875 -7.109375 L 2.171875 -4.734375 L 5.984375 -4.734375 L 5.984375 -3.8125 L 2.171875 -3.8125 L 2.171875 -0.90625 L 6.25 -0.90625 L 6.25 0 L 1.078125 0 Z M 1.078125 -8.015625 "/>
</g>
<g id="glyph-1-0">
<path d="M 0.40625 -2.15625 L 2.65625 -2.15625 L 2.65625 -2.765625 L 0.40625 -2.765625 Z M 0.40625 -2.15625 "/>
</g>
<g id="glyph-1-1">
<path d="M 2.453125 0.109375 C 3.671875 0.109375 4.453125 -1 4.453125 -3.25 C 4.453125 -5.484375 3.671875 -6.5625 2.453125 -6.5625 C 1.21875 -6.5625 0.4375 -5.484375 0.4375 -3.25 C 0.4375 -1 1.21875 0.109375 2.453125 0.109375 Z M 2.453125 -0.53125 C 1.71875 -0.53125 1.21875 -1.359375 1.21875 -3.25 C 1.21875 -5.125 1.71875 -5.921875 2.453125 -5.921875 C 3.171875 -5.921875 3.671875 -5.125 3.671875 -3.25 C 3.671875 -1.359375 3.171875 -0.53125 2.453125 -0.53125 Z M 2.453125 -0.53125 "/>
</g>
<g id="glyph-1-2">
<path d="M 1.21875 0.109375 C 1.546875 0.109375 1.796875 -0.125 1.796875 -0.5 C 1.796875 -0.859375 1.546875 -1.109375 1.21875 -1.109375 C 0.890625 -1.109375 0.640625 -0.859375 0.640625 -0.5 C 0.640625 -0.125 0.890625 0.109375 1.21875 0.109375 Z M 1.21875 0.109375 "/>
</g>
<g id="glyph-1-3">
<path d="M 0.78125 0 L 4.3125 0 L 4.3125 -0.671875 L 3.015625 -0.671875 L 3.015625 -6.453125 L 2.40625 -6.453125 C 2.046875 -6.25 1.640625 -6.09375 1.0625 -5.984375 L 1.0625 -5.484375 L 2.21875 -5.484375 L 2.21875 -0.671875 L 0.78125 -0.671875 Z M 0.78125 0 "/>
</g>
<g id="glyph-1-4">
<path d="M 0.390625 0 L 4.4375 0 L 4.4375 -0.6875 L 2.65625 -0.6875 C 2.328125 -0.6875 1.9375 -0.65625 1.59375 -0.640625 C 3.109375 -2.0625 4.140625 -3.375 4.140625 -4.671875 C 4.140625 -5.8125 3.40625 -6.5625 2.25 -6.5625 C 1.4375 -6.5625 0.875 -6.1875 0.359375 -5.625 L 0.8125 -5.15625 C 1.171875 -5.59375 1.625 -5.90625 2.15625 -5.90625 C 2.953125 -5.90625 3.34375 -5.375 3.34375 -4.640625 C 3.34375 -3.53125 2.40625 -2.25 0.390625 -0.46875 Z M 0.390625 0 "/>
</g>
<g id="glyph-1-5">
<path d="M 2.3125 0.109375 C 3.390625 0.109375 4.421875 -0.6875 4.421875 -2.09375 C 4.421875 -3.515625 3.53125 -4.15625 2.46875 -4.15625 C 2.078125 -4.15625 1.796875 -4.0625 1.5 -3.890625 L 1.671875 -5.765625 L 4.09375 -5.765625 L 4.09375 -6.453125 L 0.96875 -6.453125 L 0.75 -3.4375 L 1.1875 -3.171875 C 1.5625 -3.40625 1.828125 -3.546875 2.265625 -3.546875 C 3.0625 -3.546875 3.59375 -3 3.59375 -2.078125 C 3.59375 -1.140625 2.984375 -0.546875 2.21875 -0.546875 C 1.484375 -0.546875 1 -0.890625 0.640625 -1.265625 L 0.234375 -0.734375 C 0.671875 -0.3125 1.296875 0.109375 2.3125 0.109375 Z M 2.3125 0.109375 "/>
</g>
<g id="glyph-2-0">
<path d="M -7.125 -2.171875 L -0.890625 -2.171875 L -0.890625 -3.46875 C -0.890625 -4.582031 -1.140625 -5.394531 -1.640625 -5.90625 C -2.140625 -6.414062 -2.929688 -6.671875 -4.015625 -6.671875 C -5.085938 -6.671875 -5.875 -6.414062 -6.375 -5.90625 C -6.875 -5.394531 -7.125 -4.582031 -7.125 -3.46875 Z M -8.015625 -1.078125 L -8.015625 -3.3125 C -8.015625 -4.863281 -7.691406 -6.003906 -7.046875 -6.734375 C -6.398438 -7.460938 -5.390625 -7.828125 -4.015625 -7.828125 C -2.628906 -7.828125 -1.613281 -7.457031 -0.96875 -6.71875 C -0.320312 -5.988281 0 -4.851562 0 -3.3125 L 0 -1.078125 Z M -8.015625 -1.078125 "/>
</g>
<g id="glyph-2-1">
<path d="M -5.328125 -3.375 C -5.328125 -2.84375 -5.117188 -2.421875 -4.703125 -2.109375 C -4.285156 -1.804688 -3.71875 -1.65625 -3 -1.65625 C -2.28125 -1.65625 -1.710938 -1.804688 -1.296875 -2.109375 C -0.890625 -2.410156 -0.6875 -2.832031 -0.6875 -3.375 C -0.6875 -3.894531 -0.890625 -4.304688 -1.296875 -4.609375 C -1.710938 -4.921875 -2.28125 -5.078125 -3 -5.078125 C -3.71875 -5.078125 -4.285156 -4.921875 -4.703125 -4.609375 C -5.117188 -4.304688 -5.328125 -3.894531 -5.328125 -3.375 Z M -6.15625 -3.375 C -6.15625 -4.226562 -5.875 -4.898438 -5.3125 -5.390625 C -4.757812 -5.878906 -3.988281 -6.125 -3 -6.125 C -2.019531 -6.125 -1.25 -5.878906 -0.6875 -5.390625 C -0.125 -4.898438 0.15625 -4.226562 0.15625 -3.375 C 0.15625 -2.507812 -0.125 -1.832031 -0.6875 -1.34375 C -1.25 -0.851562 -2.019531 -0.609375 -3 -0.609375 C -3.988281 -0.609375 -4.757812 -0.851562 -5.3125 -1.34375 C -5.875 -1.832031 -6.15625 -2.507812 -6.15625 -3.375 Z M -6.15625 -3.375 "/>
</g>
<g id="glyph-2-2">
<path d="M -2.375 -0.9375 L -6.015625 -0.9375 L -6.015625 -1.921875 L -2.40625 -1.921875 C -1.84375 -1.921875 -1.414062 -2.03125 -1.125 -2.25 C -0.84375 -2.476562 -0.703125 -2.8125 -0.703125 -3.25 C -0.703125 -3.789062 -0.867188 -4.210938 -1.203125 -4.515625 C -1.546875 -4.828125 -2.015625 -4.984375 -2.609375 -4.984375 L -6.015625 -4.984375 L -6.015625 -5.96875 L 0 -5.96875 L 0 -4.984375 L -0.921875 -4.984375 C -0.554688 -4.742188 -0.285156 -4.460938 -0.109375 -4.140625 C 0.0664062 -3.828125 0.15625 -3.460938 0.15625 -3.046875 C 0.15625 -2.359375 -0.0546875 -1.832031 -0.484375 -1.46875 C -0.921875 -1.113281 -1.550781 -0.9375 -2.375 -0.9375 Z M -6.15625 -3.421875 Z M -6.15625 -3.421875 "/>
</g>
<g id="glyph-2-3">
<path d="M -3 -5.359375 C -3.726562 -5.359375 -4.296875 -5.207031 -4.703125 -4.90625 C -5.117188 -4.601562 -5.328125 -4.191406 -5.328125 -3.671875 C -5.328125 -3.148438 -5.117188 -2.738281 -4.703125 -2.4375 C -4.296875 -2.144531 -3.726562 -2 -3 -2 C -2.269531 -2 -1.695312 -2.144531 -1.28125 -2.4375 C -0.875 -2.738281 -0.671875 -3.148438 -0.671875 -3.671875 C -0.671875 -4.191406 -0.875 -4.601562 -1.28125 -4.90625 C -1.695312 -5.207031 -2.269531 -5.359375 -3 -5.359375 Z M -5.109375 -2 C -5.460938 -2.195312 -5.722656 -2.453125 -5.890625 -2.765625 C -6.066406 -3.085938 -6.15625 -3.472656 -6.15625 -3.921875 C -6.15625 -4.648438 -5.863281 -5.238281 -5.28125 -5.6875 C -4.707031 -6.144531 -3.945312 -6.375 -3 -6.375 C -2.050781 -6.375 -1.285156 -6.144531 -0.703125 -5.6875 C -0.128906 -5.238281 0.15625 -4.648438 0.15625 -3.921875 C 0.15625 -3.472656 0.0703125 -3.085938 -0.09375 -2.765625 C -0.269531 -2.453125 -0.539062 -2.195312 -0.90625 -2 L 0 -2 L 0 -1 L -8.359375 -1 L -8.359375 -2 Z M -5.109375 -2 "/>
</g>
<g id="glyph-2-4">
<path d="M -8.359375 -1.03125 L -8.359375 -2.03125 L 0 -2.03125 L 0 -1.03125 Z M -8.359375 -1.03125 "/>
</g>
<g id="glyph-2-5">
<path d="M 0.5625 -3.546875 C 1.28125 -3.265625 1.742188 -2.988281 1.953125 -2.71875 C 2.171875 -2.457031 2.28125 -2.101562 2.28125 -1.65625 L 2.28125 -0.875 L 1.46875 -0.875 L 1.46875 -1.453125 C 1.46875 -1.722656 1.398438 -1.929688 1.265625 -2.078125 C 1.140625 -2.234375 0.835938 -2.398438 0.359375 -2.578125 L -0.09375 -2.765625 L -6.015625 -0.328125 L -6.015625 -1.375 L -1.3125 -3.25 L -6.015625 -5.140625 L -6.015625 -6.1875 Z M 0.5625 -3.546875 "/>
</g>
<g id="glyph-2-6">
</g>
<g id="glyph-2-7">
<path d="M -5.09375 -4.515625 C -5.15625 -4.410156 -5.203125 -4.289062 -5.234375 -4.15625 C -5.265625 -4.03125 -5.28125 -3.890625 -5.28125 -3.734375 C -5.28125 -3.171875 -5.097656 -2.738281 -4.734375 -2.4375 C -4.367188 -2.144531 -3.847656 -2 -3.171875 -2 L 0 -2 L 0 -1 L -6.015625 -1 L -6.015625 -2 L -5.078125 -2 C -5.441406 -2.195312 -5.710938 -2.460938 -5.890625 -2.796875 C -6.066406 -3.128906 -6.15625 -3.535156 -6.15625 -4.015625 C -6.15625 -4.085938 -6.148438 -4.160156 -6.140625 -4.234375 C -6.140625 -4.316406 -6.128906 -4.410156 -6.109375 -4.515625 Z M -5.09375 -4.515625 "/>
</g>
<g id="glyph-2-8">
<path d="M -5.84375 -4.875 L -4.90625 -4.875 C -5.050781 -4.59375 -5.15625 -4.300781 -5.21875 -4 C -5.289062 -3.695312 -5.328125 -3.382812 -5.328125 -3.0625 C -5.328125 -2.570312 -5.25 -2.203125 -5.09375 -1.953125 C -4.945312 -1.710938 -4.726562 -1.59375 -4.4375 -1.59375 C -4.207031 -1.59375 -4.023438 -1.679688 -3.890625 -1.859375 C -3.765625 -2.035156 -3.640625 -2.390625 -3.515625 -2.921875 L -3.4375 -3.25 C -3.289062 -3.957031 -3.078125 -4.457031 -2.796875 -4.75 C -2.523438 -5.039062 -2.144531 -5.1875 -1.65625 -5.1875 C -1.101562 -5.1875 -0.660156 -4.96875 -0.328125 -4.53125 C -0.00390625 -4.09375 0.15625 -3.484375 0.15625 -2.703125 C 0.15625 -2.378906 0.125 -2.039062 0.0625 -1.6875 C 0 -1.34375 -0.09375 -0.976562 -0.21875 -0.59375 L -1.234375 -0.59375 C -1.046875 -0.957031 -0.90625 -1.316406 -0.8125 -1.671875 C -0.71875 -2.023438 -0.671875 -2.378906 -0.671875 -2.734375 C -0.671875 -3.191406 -0.75 -3.546875 -0.90625 -3.796875 C -1.070312 -4.046875 -1.296875 -4.171875 -1.578125 -4.171875 C -1.847656 -4.171875 -2.054688 -4.082031 -2.203125 -3.90625 C -2.347656 -3.726562 -2.484375 -3.332031 -2.609375 -2.71875 L -2.703125 -2.375 C -2.828125 -1.757812 -3.019531 -1.316406 -3.28125 -1.046875 C -3.550781 -0.773438 -3.921875 -0.640625 -4.390625 -0.640625 C -4.953125 -0.640625 -5.382812 -0.835938 -5.6875 -1.234375 C -6 -1.640625 -6.15625 -2.210938 -6.15625 -2.953125 C -6.15625 -3.316406 -6.128906 -3.660156 -6.078125 -3.984375 C -6.023438 -4.304688 -5.945312 -4.601562 -5.84375 -4.875 Z M -5.84375 -4.875 "/>
</g>
<g id="glyph-2-9">
<path d="M -7.71875 -2.015625 L -6.015625 -2.015625 L -6.015625 -4.046875 L -5.25 -4.046875 L -5.25 -2.015625 L -1.984375 -2.015625 C -1.492188 -2.015625 -1.175781 -2.082031 -1.03125 -2.21875 C -0.894531 -2.351562 -0.828125 -2.625 -0.828125 -3.03125 L -0.828125 -4.046875 L 0 -4.046875 L 0 -3.03125 C 0 -2.269531 -0.140625 -1.742188 -0.421875 -1.453125 C -0.710938 -1.160156 -1.234375 -1.015625 -1.984375 -1.015625 L -5.25 -1.015625 L -5.25 -0.296875 L -6.015625 -0.296875 L -6.015625 -1.015625 L -7.71875 -1.015625 Z M -7.71875 -2.015625 "/>
</g>
<g id="glyph-2-10">
<path d="M -1.140625 -6.546875 L -3.296875 -6.546875 L -3.296875 -4.78125 L -4.1875 -4.78125 L -4.1875 -7.625 L -0.75 -7.625 C -0.445312 -7.207031 -0.21875 -6.742188 -0.0625 -6.234375 C 0.0820312 -5.734375 0.15625 -5.195312 0.15625 -4.625 C 0.15625 -3.363281 -0.207031 -2.378906 -0.9375 -1.671875 C -1.675781 -0.972656 -2.695312 -0.625 -4 -0.625 C -5.3125 -0.625 -6.332031 -0.972656 -7.0625 -1.671875 C -7.800781 -2.378906 -8.171875 -3.363281 -8.171875 -4.625 C -8.171875 -5.144531 -8.101562 -5.640625 -7.96875 -6.109375 C -7.84375 -6.578125 -7.65625 -7.007812 -7.40625 -7.40625 L -6.25 -7.40625 C -6.582031 -7.007812 -6.832031 -6.582031 -7 -6.125 C -7.175781 -5.675781 -7.265625 -5.203125 -7.265625 -4.703125 C -7.265625 -3.722656 -6.988281 -2.988281 -6.4375 -2.5 C -5.894531 -2.007812 -5.082031 -1.765625 -4 -1.765625 C -2.914062 -1.765625 -2.097656 -2.007812 -1.546875 -2.5 C -1.003906 -2.988281 -0.734375 -3.722656 -0.734375 -4.703125 C -0.734375 -5.085938 -0.765625 -5.429688 -0.828125 -5.734375 C -0.898438 -6.035156 -1.003906 -6.304688 -1.140625 -6.546875 Z M -1.140625 -6.546875 "/>
</g>
<g id="glyph-2-11">
<path d="M -6.953125 -3.765625 L -2.953125 -2.28125 L -2.953125 -5.234375 Z M -8.015625 -3.140625 L -8.015625 -4.375 L 0 -7.4375 L 0 -6.3125 L -2.0625 -5.578125 L -2.0625 -1.953125 L 0 -1.234375 L 0 -0.09375 Z M -8.015625 -3.140625 "/>
</g>
<g id="glyph-2-12">
<path d="M -8.015625 0.03125 L -8.015625 -6.75 L -7.109375 -6.75 L -7.109375 -3.90625 L 0 -3.90625 L 0 -2.8125 L -7.109375 -2.8125 L -7.109375 0.03125 Z M -8.015625 0.03125 "/>
</g>
<g id="glyph-2-13">
<path d="M -8.015625 -1.078125 L -8.015625 -6.15625 L -7.109375 -6.15625 L -7.109375 -2.171875 L -4.734375 -2.171875 L -4.734375 -5.984375 L -3.8125 -5.984375 L -3.8125 -2.171875 L -0.90625 -2.171875 L -0.90625 -6.25 L 0 -6.25 L 0 -1.078125 Z M -8.015625 -1.078125 "/>
</g>
<g id="glyph-3-0">
<path d="M 7.859375 -1.375 L 7.859375 -3.953125 L 5.734375 -3.953125 L 5.734375 -5.03125 L 9.140625 -5.03125 L 9.140625 -0.890625 C 8.640625 -0.535156 8.085938 -0.265625 7.484375 -0.078125 C 6.878906 0.0976562 6.234375 0.1875 5.546875 0.1875 C 4.035156 0.1875 2.851562 -0.25 2 -1.125 C 1.15625 -2.007812 0.734375 -3.234375 0.734375 -4.796875 C 0.734375 -6.367188 1.15625 -7.59375 2 -8.46875 C 2.851562 -9.351562 4.035156 -9.796875 5.546875 -9.796875 C 6.171875 -9.796875 6.765625 -9.71875 7.328125 -9.5625 C 7.898438 -9.40625 8.421875 -9.179688 8.890625 -8.890625 L 8.890625 -7.5 C 8.410156 -7.90625 7.898438 -8.210938 7.359375 -8.421875 C 6.816406 -8.628906 6.25 -8.734375 5.65625 -8.734375 C 4.476562 -8.734375 3.59375 -8.398438 3 -7.734375 C 2.40625 -7.078125 2.109375 -6.097656 2.109375 -4.796875 C 2.109375 -3.503906 2.40625 -2.53125 3 -1.875 C 3.59375 -1.21875 4.476562 -0.890625 5.65625 -0.890625 C 6.113281 -0.890625 6.519531 -0.925781 6.875 -1 C 7.238281 -1.082031 7.566406 -1.207031 7.859375 -1.375 Z M 7.859375 -1.375 "/>
</g>
<g id="glyph-3-1">
<path d="M 5.859375 -4.515625 C 6.140625 -4.421875 6.410156 -4.21875 6.671875 -3.90625 C 6.941406 -3.59375 7.207031 -3.164062 7.46875 -2.625 L 8.796875 0 L 7.390625 0 L 6.15625 -2.46875 C 5.84375 -3.113281 5.535156 -3.539062 5.234375 -3.75 C 4.941406 -3.957031 4.535156 -4.0625 4.015625 -4.0625 L 2.59375 -4.0625 L 2.59375 0 L 1.296875 0 L 1.296875 -9.625 L 4.234375 -9.625 C 5.335938 -9.625 6.160156 -9.394531 6.703125 -8.9375 C 7.242188 -8.476562 7.515625 -7.785156 7.515625 -6.859375 C 7.515625 -6.242188 7.375 -5.738281 7.09375 -5.34375 C 6.8125 -4.945312 6.398438 -4.671875 5.859375 -4.515625 Z M 2.59375 -8.5625 L 2.59375 -5.140625 L 4.234375 -5.140625 C 4.859375 -5.140625 5.332031 -5.285156 5.65625 -5.578125 C 5.976562 -5.867188 6.140625 -6.296875 6.140625 -6.859375 C 6.140625 -7.421875 5.976562 -7.84375 5.65625 -8.125 C 5.332031 -8.414062 4.859375 -8.5625 4.234375 -8.5625 Z M 2.59375 -8.5625 "/>
</g>
<g id="glyph-3-2">
<path d="M 1.296875 -9.625 L 6.828125 -9.625 L 6.828125 -8.53125 L 2.59375 -8.53125 L 2.59375 -5.6875 L 6.421875 -5.6875 L 6.421875 -4.59375 L 2.59375 -4.59375 L 2.59375 0 L 1.296875 0 Z M 1.296875 -9.625 "/>
</g>
<g id="glyph-3-3">
</g>
<g id="glyph-3-4">
<path d="M 6 -3.6875 C 6 -4.550781 5.820312 -5.21875 5.46875 -5.6875 C 5.113281 -6.164062 4.613281 -6.40625 3.96875 -6.40625 C 3.332031 -6.40625 2.835938 -6.164062 2.484375 -5.6875 C 2.128906 -5.21875 1.953125 -4.550781 1.953125 -3.6875 C 1.953125 -2.832031 2.128906 -2.171875 2.484375 -1.703125 C 2.835938 -1.234375 3.332031 -1 3.96875 -1 C 4.613281 -1 5.113281 -1.234375 5.46875 -1.703125 C 5.820312 -2.171875 6 -2.832031 6 -3.6875 Z M 7.1875 -0.890625 C 7.1875 0.335938 6.910156 1.25 6.359375 1.84375 C 5.816406 2.445312 4.984375 2.75 3.859375 2.75 C 3.441406 2.75 3.046875 2.71875 2.671875 2.65625 C 2.304688 2.59375 1.945312 2.492188 1.59375 2.359375 L 1.59375 1.21875 C 1.945312 1.40625 2.289062 1.539062 2.625 1.625 C 2.96875 1.71875 3.316406 1.765625 3.671875 1.765625 C 4.441406 1.765625 5.019531 1.5625 5.40625 1.15625 C 5.800781 0.75 6 0.132812 6 -0.6875 L 6 -1.265625 C 5.75 -0.835938 5.429688 -0.519531 5.046875 -0.3125 C 4.671875 -0.101562 4.21875 0 3.6875 0 C 2.800781 0 2.085938 -0.335938 1.546875 -1.015625 C 1.003906 -1.691406 0.734375 -2.582031 0.734375 -3.6875 C 0.734375 -4.8125 1.003906 -5.707031 1.546875 -6.375 C 2.085938 -7.050781 2.800781 -7.390625 3.6875 -7.390625 C 4.21875 -7.390625 4.671875 -7.285156 5.046875 -7.078125 C 5.429688 -6.867188 5.75 -6.550781 6 -6.125 L 6 -7.21875 L 7.1875 -7.21875 Z M 7.1875 -0.890625 "/>
</g>
<g id="glyph-3-5">
<path d="M 5.421875 -6.109375 C 5.296875 -6.191406 5.148438 -6.25 4.984375 -6.28125 C 4.828125 -6.320312 4.65625 -6.34375 4.46875 -6.34375 C 3.800781 -6.34375 3.285156 -6.125 2.921875 -5.6875 C 2.566406 -5.25 2.390625 -4.617188 2.390625 -3.796875 L 2.390625 0 L 1.203125 0 L 1.203125 -7.21875 L 2.390625 -7.21875 L 2.390625 -6.09375 C 2.640625 -6.53125 2.960938 -6.851562 3.359375 -7.0625 C 3.765625 -7.28125 4.253906 -7.390625 4.828125 -7.390625 C 4.898438 -7.390625 4.984375 -7.382812 5.078125 -7.375 C 5.179688 -7.363281 5.296875 -7.347656 5.421875 -7.328125 Z M 5.421875 -6.109375 "/>
</g>
<g id="glyph-3-6">
<path d="M 4.046875 -6.390625 C 3.410156 -6.390625 2.90625 -6.140625 2.53125 -5.640625 C 2.164062 -5.148438 1.984375 -4.472656 1.984375 -3.609375 C 1.984375 -2.742188 2.164062 -2.0625 2.53125 -1.5625 C 2.894531 -1.0625 3.398438 -0.8125 4.046875 -0.8125 C 4.671875 -0.8125 5.164062 -1.0625 5.53125 -1.5625 C 5.90625 -2.0625 6.09375 -2.742188 6.09375 -3.609375 C 6.09375 -4.460938 5.90625 -5.140625 5.53125 -5.640625 C 5.164062 -6.140625 4.671875 -6.390625 4.046875 -6.390625 Z M 4.046875 -7.390625 C 5.078125 -7.390625 5.882812 -7.054688 6.46875 -6.390625 C 7.0625 -5.722656 7.359375 -4.796875 7.359375 -3.609375 C 7.359375 -2.421875 7.0625 -1.488281 6.46875 -0.8125 C 5.882812 -0.144531 5.078125 0.1875 4.046875 0.1875 C 3.003906 0.1875 2.191406 -0.144531 1.609375 -0.8125 C 1.023438 -1.488281 0.734375 -2.421875 0.734375 -3.609375 C 0.734375 -4.796875 1.023438 -5.722656 1.609375 -6.390625 C 2.191406 -7.054688 3.003906 -7.390625 4.046875 -7.390625 Z M 4.046875 -7.390625 "/>
</g>
<g id="glyph-3-7">
<path d="M 1.125 -2.84375 L 1.125 -7.21875 L 2.3125 -7.21875 L 2.3125 -2.890625 C 2.3125 -2.210938 2.441406 -1.703125 2.703125 -1.359375 C 2.972656 -1.015625 3.375 -0.84375 3.90625 -0.84375 C 4.550781 -0.84375 5.054688 -1.046875 5.421875 -1.453125 C 5.796875 -1.859375 5.984375 -2.414062 5.984375 -3.125 L 5.984375 -7.21875 L 7.171875 -7.21875 L 7.171875 0 L 5.984375 0 L 5.984375 -1.109375 C 5.691406 -0.671875 5.351562 -0.34375 4.96875 -0.125 C 4.59375 0.0820312 4.15625 0.1875 3.65625 0.1875 C 2.820312 0.1875 2.191406 -0.0664062 1.765625 -0.578125 C 1.335938 -1.097656 1.125 -1.851562 1.125 -2.84375 Z M 4.109375 -7.390625 Z M 4.109375 -7.390625 "/>
</g>
<g id="glyph-3-8">
<path d="M 2.390625 -1.078125 L 2.390625 2.75 L 1.203125 2.75 L 1.203125 -7.21875 L 2.390625 -7.21875 L 2.390625 -6.125 C 2.640625 -6.550781 2.953125 -6.867188 3.328125 -7.078125 C 3.710938 -7.285156 4.171875 -7.390625 4.703125 -7.390625 C 5.578125 -7.390625 6.285156 -7.039062 6.828125 -6.34375 C 7.378906 -5.65625 7.65625 -4.742188 7.65625 -3.609375 C 7.65625 -2.472656 7.378906 -1.554688 6.828125 -0.859375 C 6.285156 -0.160156 5.578125 0.1875 4.703125 0.1875 C 4.171875 0.1875 3.710938 0.0820312 3.328125 -0.125 C 2.953125 -0.332031 2.640625 -0.648438 2.390625 -1.078125 Z M 6.421875 -3.609375 C 6.421875 -4.472656 6.238281 -5.15625 5.875 -5.65625 C 5.519531 -6.15625 5.03125 -6.40625 4.40625 -6.40625 C 3.78125 -6.40625 3.285156 -6.15625 2.921875 -5.65625 C 2.566406 -5.15625 2.390625 -4.472656 2.390625 -3.609375 C 2.390625 -2.734375 2.566406 -2.046875 2.921875 -1.546875 C 3.285156 -1.054688 3.78125 -0.8125 4.40625 -0.8125 C 5.03125 -0.8125 5.519531 -1.054688 5.875 -1.546875 C 6.238281 -2.046875 6.421875 -2.734375 6.421875 -3.609375 Z M 6.421875 -3.609375 "/>
</g>
<g id="glyph-3-9">
<path d="M 7.421875 -3.90625 L 7.421875 -3.328125 L 1.96875 -3.328125 C 2.019531 -2.515625 2.265625 -1.890625 2.703125 -1.453125 C 3.140625 -1.023438 3.753906 -0.8125 4.546875 -0.8125 C 5.003906 -0.8125 5.445312 -0.867188 5.875 -0.984375 C 6.300781 -1.097656 6.722656 -1.265625 7.140625 -1.484375 L 7.140625 -0.375 C 6.710938 -0.1875 6.273438 -0.046875 5.828125 0.046875 C 5.378906 0.140625 4.925781 0.1875 4.46875 0.1875 C 3.320312 0.1875 2.410156 -0.144531 1.734375 -0.8125 C 1.066406 -1.488281 0.734375 -2.398438 0.734375 -3.546875 C 0.734375 -4.722656 1.050781 -5.65625 1.6875 -6.34375 C 2.320312 -7.039062 3.179688 -7.390625 4.265625 -7.390625 C 5.234375 -7.390625 6 -7.078125 6.5625 -6.453125 C 7.132812 -5.828125 7.421875 -4.976562 7.421875 -3.90625 Z M 6.234375 -4.25 C 6.222656 -4.90625 6.039062 -5.425781 5.6875 -5.8125 C 5.332031 -6.195312 4.863281 -6.390625 4.28125 -6.390625 C 3.613281 -6.390625 3.082031 -6.203125 2.6875 -5.828125 C 2.289062 -5.453125 2.0625 -4.925781 2 -4.25 Z M 6.234375 -4.25 "/>
</g>
<g id="glyph-3-10">
<path d="M 6 -6.125 L 6 -10.03125 L 7.1875 -10.03125 L 7.1875 0 L 6 0 L 6 -1.078125 C 5.75 -0.648438 5.429688 -0.332031 5.046875 -0.125 C 4.671875 0.0820312 4.21875 0.1875 3.6875 0.1875 C 2.8125 0.1875 2.097656 -0.160156 1.546875 -0.859375 C 1.003906 -1.554688 0.734375 -2.472656 0.734375 -3.609375 C 0.734375 -4.742188 1.003906 -5.65625 1.546875 -6.34375 C 2.097656 -7.039062 2.8125 -7.390625 3.6875 -7.390625 C 4.21875 -7.390625 4.671875 -7.285156 5.046875 -7.078125 C 5.429688 -6.867188 5.75 -6.550781 6 -6.125 Z M 1.953125 -3.609375 C 1.953125 -2.734375 2.128906 -2.046875 2.484375 -1.546875 C 2.847656 -1.054688 3.34375 -0.8125 3.96875 -0.8125 C 4.59375 -0.8125 5.085938 -1.054688 5.453125 -1.546875 C 5.816406 -2.046875 6 -2.734375 6 -3.609375 C 6 -4.472656 5.816406 -5.15625 5.453125 -5.65625 C 5.085938 -6.15625 4.59375 -6.40625 3.96875 -6.40625 C 3.34375 -6.40625 2.847656 -6.15625 2.484375 -5.65625 C 2.128906 -5.15625 1.953125 -4.472656 1.953125 -3.609375 Z M 1.953125 -3.609375 "/>
</g>
<g id="glyph-3-11">
<path d="M 6.4375 -6.9375 L 6.4375 -5.828125 C 6.101562 -6.015625 5.765625 -6.15625 5.421875 -6.25 C 5.085938 -6.34375 4.75 -6.390625 4.40625 -6.390625 C 3.632812 -6.390625 3.035156 -6.144531 2.609375 -5.65625 C 2.191406 -5.164062 1.984375 -4.484375 1.984375 -3.609375 C 1.984375 -2.722656 2.191406 -2.035156 2.609375 -1.546875 C 3.035156 -1.054688 3.632812 -0.8125 4.40625 -0.8125 C 4.75 -0.8125 5.085938 -0.859375 5.421875 -0.953125 C 5.765625 -1.046875 6.101562 -1.1875 6.4375 -1.375 L 6.4375 -0.28125 C 6.101562 -0.125 5.757812 -0.0078125 5.40625 0.0625 C 5.050781 0.144531 4.675781 0.1875 4.28125 0.1875 C 3.195312 0.1875 2.332031 -0.148438 1.6875 -0.828125 C 1.050781 -1.515625 0.734375 -2.441406 0.734375 -3.609375 C 0.734375 -4.785156 1.054688 -5.707031 1.703125 -6.375 C 2.347656 -7.050781 3.234375 -7.390625 4.359375 -7.390625 C 4.722656 -7.390625 5.078125 -7.351562 5.421875 -7.28125 C 5.773438 -7.207031 6.113281 -7.09375 6.4375 -6.9375 Z M 6.4375 -6.9375 "/>
</g>
<g id="glyph-3-12">
<path d="M 4.53125 -3.625 C 3.570312 -3.625 2.90625 -3.515625 2.53125 -3.296875 C 2.164062 -3.078125 1.984375 -2.703125 1.984375 -2.171875 C 1.984375 -1.753906 2.117188 -1.421875 2.390625 -1.171875 C 2.671875 -0.929688 3.050781 -0.8125 3.53125 -0.8125 C 4.1875 -0.8125 4.710938 -1.039062 5.109375 -1.5 C 5.503906 -1.96875 5.703125 -2.585938 5.703125 -3.359375 L 5.703125 -3.625 Z M 6.890625 -4.125 L 6.890625 0 L 5.703125 0 L 5.703125 -1.09375 C 5.429688 -0.65625 5.09375 -0.332031 4.6875 -0.125 C 4.289062 0.0820312 3.796875 0.1875 3.203125 0.1875 C 2.472656 0.1875 1.890625 -0.0195312 1.453125 -0.4375 C 1.015625 -0.851562 0.796875 -1.410156 0.796875 -2.109375 C 0.796875 -2.910156 1.066406 -3.519531 1.609375 -3.9375 C 2.148438 -4.351562 2.960938 -4.5625 4.046875 -4.5625 L 5.703125 -4.5625 L 5.703125 -4.671875 C 5.703125 -5.222656 5.519531 -5.644531 5.15625 -5.9375 C 4.800781 -6.238281 4.300781 -6.390625 3.65625 -6.390625 C 3.238281 -6.390625 2.832031 -6.335938 2.4375 -6.234375 C 2.050781 -6.140625 1.679688 -5.992188 1.328125 -5.796875 L 1.328125 -6.890625 C 1.753906 -7.054688 2.171875 -7.179688 2.578125 -7.265625 C 2.992188 -7.347656 3.394531 -7.390625 3.78125 -7.390625 C 4.820312 -7.390625 5.597656 -7.117188 6.109375 -6.578125 C 6.628906 -6.035156 6.890625 -5.21875 6.890625 -4.125 Z M 6.890625 -4.125 "/>
</g>
<g id="glyph-3-13">
<path d="M 1.25 -10.03125 L 2.4375 -10.03125 L 2.4375 0 L 1.25 0 Z M 1.25 -10.03125 "/>
</g>
<g id="glyph-3-14">
<path d="M 1.25 -7.21875 L 2.4375 -7.21875 L 2.4375 0 L 1.25 0 Z M 1.25 -10.03125 L 2.4375 -10.03125 L 2.4375 -8.53125 L 1.25 -8.53125 Z M 1.25 -10.03125 "/>
</g>
<g id="glyph-3-15">
<path d="M 6.421875 -3.609375 C 6.421875 -4.472656 6.238281 -5.15625 5.875 -5.65625 C 5.519531 -6.15625 5.03125 -6.40625 4.40625 -6.40625 C 3.78125 -6.40625 3.285156 -6.15625 2.921875 -5.65625 C 2.566406 -5.15625 2.390625 -4.472656 2.390625 -3.609375 C 2.390625 -2.734375 2.566406 -2.046875 2.921875 -1.546875 C 3.285156 -1.054688 3.78125 -0.8125 4.40625 -0.8125 C 5.03125 -0.8125 5.519531 -1.054688 5.875 -1.546875 C 6.238281 -2.046875 6.421875 -2.734375 6.421875 -3.609375 Z M 2.390625 -6.125 C 2.640625 -6.550781 2.953125 -6.867188 3.328125 -7.078125 C 3.710938 -7.285156 4.171875 -7.390625 4.703125 -7.390625 C 5.578125 -7.390625 6.285156 -7.039062 6.828125 -6.34375 C 7.378906 -5.65625 7.65625 -4.742188 7.65625 -3.609375 C 7.65625 -2.472656 7.378906 -1.554688 6.828125 -0.859375 C 6.285156 -0.160156 5.578125 0.1875 4.703125 0.1875 C 4.171875 0.1875 3.710938 0.0820312 3.328125 -0.125 C 2.953125 -0.332031 2.640625 -0.648438 2.390625 -1.078125 L 2.390625 0 L 1.203125 0 L 1.203125 -10.03125 L 2.390625 -10.03125 Z M 2.390625 -6.125 "/>
</g>
<g id="glyph-3-16">
<path d="M 2.421875 -9.265625 L 2.421875 -7.21875 L 4.859375 -7.21875 L 4.859375 -6.296875 L 2.421875 -6.296875 L 2.421875 -2.375 C 2.421875 -1.789062 2.5 -1.414062 2.65625 -1.25 C 2.820312 -1.082031 3.148438 -1 3.640625 -1 L 4.859375 -1 L 4.859375 0 L 3.640625 0 C 2.722656 0 2.085938 -0.171875 1.734375 -0.515625 C 1.390625 -0.859375 1.21875 -1.476562 1.21875 -2.375 L 1.21875 -6.296875 L 0.359375 -6.296875 L 0.359375 -7.21875 L 1.21875 -7.21875 L 1.21875 -9.265625 Z M 2.421875 -9.265625 "/>
</g>
<g id="glyph-3-17">
<path d="M 7.25 -4.359375 L 7.25 0 L 6.0625 0 L 6.0625 -4.3125 C 6.0625 -5 5.925781 -5.507812 5.65625 -5.84375 C 5.394531 -6.1875 5 -6.359375 4.46875 -6.359375 C 3.820312 -6.359375 3.3125 -6.15625 2.9375 -5.75 C 2.570312 -5.34375 2.390625 -4.785156 2.390625 -4.078125 L 2.390625 0 L 1.203125 0 L 1.203125 -7.21875 L 2.390625 -7.21875 L 2.390625 -6.09375 C 2.671875 -6.53125 3.003906 -6.851562 3.390625 -7.0625 C 3.773438 -7.28125 4.21875 -7.390625 4.71875 -7.390625 C 5.550781 -7.390625 6.179688 -7.132812 6.609375 -6.625 C 7.035156 -6.113281 7.25 -5.359375 7.25 -4.359375 Z M 7.25 -4.359375 "/>
</g>
</g>
<clipPath id="clip-0">
<path clip-rule="nonzero" d="M 227.804688 0 L 420.195312 0 L 420.195312 324 L 227.804688 324 Z M 227.804688 0 "/>
</clipPath>
<clipPath id="clip-1">
<path clip-rule="nonzero" d="M 267.957031 23.957031 L 414.714844 23.957031 L 414.714844 289.847656 L 267.957031 289.847656 Z M 267.957031 23.957031 "/>
</clipPath>
<clipPath id="clip-2">
<path clip-rule="nonzero" d="M 267.957031 221 L 414.714844 221 L 414.714844 222 L 267.957031 222 Z M 267.957031 221 "/>
</clipPath>
<clipPath id="clip-3">
<path clip-rule="nonzero" d="M 267.957031 150 L 414.714844 150 L 414.714844 152 L 267.957031 152 Z M 267.957031 150 "/>
</clipPath>
<clipPath id="clip-4">
<path clip-rule="nonzero" d="M 267.957031 79 L 414.714844 79 L 414.714844 81 L 267.957031 81 Z M 267.957031 79 "/>
</clipPath>
<clipPath id="clip-5">
<path clip-rule="nonzero" d="M 278 23.957031 L 280 23.957031 L 280 289.847656 L 278 289.847656 Z M 278 23.957031 "/>
</clipPath>
<clipPath id="clip-6">
<path clip-rule="nonzero" d="M 314 23.957031 L 315 23.957031 L 315 289.847656 L 314 289.847656 Z M 314 23.957031 "/>
</clipPath>
<clipPath id="clip-7">
<path clip-rule="nonzero" d="M 349 23.957031 L 351 23.957031 L 351 289.847656 L 349 289.847656 Z M 349 23.957031 "/>
</clipPath>
<clipPath id="clip-8">
<path clip-rule="nonzero" d="M 385 23.957031 L 386 23.957031 L 386 289.847656 L 385 289.847656 Z M 385 23.957031 "/>
</clipPath>
<clipPath id="clip-9">
<path clip-rule="nonzero" d="M 267.957031 256 L 414.714844 256 L 414.714844 258 L 267.957031 258 Z M 267.957031 256 "/>
</clipPath>
<clipPath id="clip-10">
<path clip-rule="nonzero" d="M 267.957031 185 L 414.714844 185 L 414.714844 187 L 267.957031 187 Z M 267.957031 185 "/>
</clipPath>
<clipPath id="clip-11">
<path clip-rule="nonzero" d="M 267.957031 114 L 414.714844 114 L 414.714844 116 L 267.957031 116 Z M 267.957031 114 "/>
</clipPath>
<clipPath id="clip-12">
<path clip-rule="nonzero" d="M 267.957031 44 L 414.714844 44 L 414.714844 46 L 267.957031 46 Z M 267.957031 44 "/>
</clipPath>
<clipPath id="clip-13">
<path clip-rule="nonzero" d="M 296 23.957031 L 298 23.957031 L 298 289.847656 L 296 289.847656 Z M 296 23.957031 "/>
</clipPath>
<clipPath id="clip-14">
<path clip-rule="nonzero" d="M 331 23.957031 L 333 23.957031 L 333 289.847656 L 331 289.847656 Z M 331 23.957031 "/>
</clipPath>
<clipPath id="clip-15">
<path clip-rule="nonzero" d="M 367 23.957031 L 369 23.957031 L 369 289.847656 L 367 289.847656 Z M 367 23.957031 "/>
</clipPath>
<clipPath id="clip-16">
<path clip-rule="nonzero" d="M 402 23.957031 L 404 23.957031 L 404 289.847656 L 402 289.847656 Z M 402 23.957031 "/>
</clipPath>
<clipPath id="clip-17">
<path clip-rule="nonzero" d="M 267.957031 23.957031 L 414.714844 23.957031 L 414.714844 289.847656 L 267.957031 289.847656 Z M 267.957031 23.957031 "/>
</clipPath>
<clipPath id="clip-18">
<path clip-rule="nonzero" d="M 400 78 L 414.714844 78 L 414.714844 87 L 400 87 Z M 400 78 "/>
</clipPath>
<clipPath id="clip-19">
<path clip-rule="nonzero" d="M 267.957031 23.957031 L 414.714844 23.957031 L 414.714844 289.847656 L 267.957031 289.847656 Z M 267.957031 23.957031 "/>
</clipPath>
</defs>
<rect x="-64.8" y="-32.4" width="777.6" height="388.8" fill="rgb(100%, 100%, 100%)" fill-opacity="1"/>
<g clip-path="url(#clip-0)">
<path fill-rule="nonzero" fill="rgb(100%, 100%, 100%)" fill-opacity="1" stroke-width="1.066978" stroke-linecap="round" stroke-linejoin="round" stroke="rgb(100%, 100%, 100%)" stroke-opacity="1" stroke-miterlimit="10" d="M 227.804688 324 L 420.195312 324 L 420.195312 0 L 227.804688 0 Z M 227.804688 324 "/>
</g>
<g clip-path="url(#clip-1)">
<path fill-rule="nonzero" fill="rgb(100%, 100%, 100%)" fill-opacity="1" d="M 267.957031 289.847656 L 414.714844 289.847656 L 414.714844 23.957031 L 267.957031 23.957031 Z M 267.957031 289.847656 "/>
</g>
<g clip-path="url(#clip-2)">
<path fill="none" stroke-width="0.533489" stroke-linecap="butt" stroke-linejoin="round" stroke="rgb(92.156863%, 92.156863%, 92.156863%)" stroke-opacity="1" stroke-miterlimit="10" d="M 267.957031 221.445312 L 414.714844 221.445312 "/>
</g>
<g clip-path="url(#clip-3)">
<path fill="none" stroke-width="0.533489" stroke-linecap="butt" stroke-linejoin="round" stroke="rgb(92.156863%, 92.156863%, 92.156863%)" stroke-opacity="1" stroke-miterlimit="10" d="M 267.957031 150.742188 L 414.714844 150.742188 "/>
</g>
<g clip-path="url(#clip-4)">
<path fill="none" stroke-width="0.533489" stroke-linecap="butt" stroke-linejoin="round" stroke="rgb(92.156863%, 92.156863%, 92.156863%)" stroke-opacity="1" stroke-miterlimit="10" d="M 267.957031 80.042969 L 414.714844 80.042969 "/>
</g>
<g clip-path="url(#clip-5)">
<path fill="none" stroke-width="0.533489" stroke-linecap="butt" stroke-linejoin="round" stroke="rgb(92.156863%, 92.156863%, 92.156863%)" stroke-opacity="1" stroke-miterlimit="10" d="M 279.253906 289.847656 L 279.253906 23.957031 "/>
</g>
<g clip-path="url(#clip-6)">
<path fill="none" stroke-width="0.533489" stroke-linecap="butt" stroke-linejoin="round" stroke="rgb(92.156863%, 92.156863%, 92.156863%)" stroke-opacity="1" stroke-miterlimit="10" d="M 314.605469 289.847656 L 314.605469 23.957031 "/>
</g>
<g clip-path="url(#clip-7)">
<path fill="none" stroke-width="0.533489" stroke-linecap="butt" stroke-linejoin="round" stroke="rgb(92.156863%, 92.156863%, 92.156863%)" stroke-opacity="1" stroke-miterlimit="10" d="M 349.957031 289.847656 L 349.957031 23.957031 "/>
</g>
<g clip-path="url(#clip-8)">
<path fill="none" stroke-width="0.533489" stroke-linecap="butt" stroke-linejoin="round" stroke="rgb(92.156863%, 92.156863%, 92.156863%)" stroke-opacity="1" stroke-miterlimit="10" d="M 385.308594 289.847656 L 385.308594 23.957031 "/>
</g>
<g clip-path="url(#clip-9)">
<path fill="none" stroke-width="1.066978" stroke-linecap="butt" stroke-linejoin="round" stroke="rgb(92.156863%, 92.156863%, 92.156863%)" stroke-opacity="1" stroke-miterlimit="10" d="M 267.957031 256.796875 L 414.714844 256.796875 "/>
</g>
<g clip-path="url(#clip-10)">
<path fill="none" stroke-width="1.066978" stroke-linecap="butt" stroke-linejoin="round" stroke="rgb(92.156863%, 92.156863%, 92.156863%)" stroke-opacity="1" stroke-miterlimit="10" d="M 267.957031 186.09375 L 414.714844 186.09375 "/>
</g>
<g clip-path="url(#clip-11)">
<path fill="none" stroke-width="1.066978" stroke-linecap="butt" stroke-linejoin="round" stroke="rgb(92.156863%, 92.156863%, 92.156863%)" stroke-opacity="1" stroke-miterlimit="10" d="M 267.957031 115.390625 L 414.714844 115.390625 "/>
</g>
<g clip-path="url(#clip-12)">
<path fill="none" stroke-width="1.066978" stroke-linecap="butt" stroke-linejoin="round" stroke="rgb(92.156863%, 92.156863%, 92.156863%)" stroke-opacity="1" stroke-miterlimit="10" d="M 267.957031 44.691406 L 414.714844 44.691406 "/>
</g>
<g clip-path="url(#clip-13)">
<path fill="none" stroke-width="1.066978" stroke-linecap="butt" stroke-linejoin="round" stroke="rgb(92.156863%, 92.156863%, 92.156863%)" stroke-opacity="1" stroke-miterlimit="10" d="M 296.929688 289.847656 L 296.929688 23.957031 "/>
</g>
<g clip-path="url(#clip-14)">
<path fill="none" stroke-width="1.066978" stroke-linecap="butt" stroke-linejoin="round" stroke="rgb(92.156863%, 92.156863%, 92.156863%)" stroke-opacity="1" stroke-miterlimit="10" d="M 332.28125 289.847656 L 332.28125 23.957031 "/>
</g>
<g clip-path="url(#clip-15)">
<path fill="none" stroke-width="1.066978" stroke-linecap="butt" stroke-linejoin="round" stroke="rgb(92.156863%, 92.156863%, 92.156863%)" stroke-opacity="1" stroke-miterlimit="10" d="M 367.632812 289.847656 L 367.632812 23.957031 "/>
</g>
<g clip-path="url(#clip-16)">
<path fill="none" stroke-width="1.066978" stroke-linecap="butt" stroke-linejoin="round" stroke="rgb(92.156863%, 92.156863%, 92.156863%)" stroke-opacity="1" stroke-miterlimit="10" d="M 402.984375 289.847656 L 402.984375 23.957031 "/>
</g>
<g clip-path="url(#clip-17)">
<path fill="none" stroke-width="1.066978" stroke-linecap="butt" stroke-linejoin="round" stroke="rgb(54.901961%, 54.901961%, 54.901961%)" stroke-opacity="1" stroke-dasharray="4.267913 4.267913" stroke-miterlimit="10" d="M 121.199219 397.175781 L 561.472656 -43.097656 "/>
</g>
<path fill="none" stroke-width="1.066978" stroke-linecap="butt" stroke-linejoin="round" stroke="rgb(0%, 0%, 0%)" stroke-opacity="1" stroke-miterlimit="10" d="M 274.628906 193.386719 L 274.628906 193.386719 "/>
<path fill="none" stroke-width="1.066978" stroke-linecap="butt" stroke-linejoin="round" stroke="rgb(0%, 0%, 0%)" stroke-opacity="1" stroke-miterlimit="10" d="M 274.628906 193.386719 L 274.628906 262.320312 "/>
<path fill="none" stroke-width="1.066978" stroke-linecap="butt" stroke-linejoin="round" stroke="rgb(0%, 0%, 0%)" stroke-opacity="1" stroke-miterlimit="10" d="M 274.628906 262.320312 L 274.628906 262.320312 "/>
<path fill="none" stroke-width="1.066978" stroke-linecap="butt" stroke-linejoin="round" stroke="rgb(0%, 0%, 0%)" stroke-opacity="1" stroke-miterlimit="10" d="M 299.949219 163.902344 L 299.949219 163.902344 "/>
<path fill="none" stroke-width="1.066978" stroke-linecap="butt" stroke-linejoin="round" stroke="rgb(0%, 0%, 0%)" stroke-opacity="1" stroke-miterlimit="10" d="M 299.949219 163.902344 L 299.949219 229.050781 "/>
<path fill="none" stroke-width="1.066978" stroke-linecap="butt" stroke-linejoin="round" stroke="rgb(0%, 0%, 0%)" stroke-opacity="1" stroke-miterlimit="10" d="M 299.949219 229.050781 L 299.949219 229.050781 "/>
<path fill="none" stroke-width="1.066978" stroke-linecap="butt" stroke-linejoin="round" stroke="rgb(0%, 0%, 0%)" stroke-opacity="1" stroke-miterlimit="10" d="M 320.027344 189.589844 L 320.027344 189.589844 "/>
<path fill="none" stroke-width="1.066978" stroke-linecap="butt" stroke-linejoin="round" stroke="rgb(0%, 0%, 0%)" stroke-opacity="1" stroke-miterlimit="10" d="M 320.027344 189.589844 L 320.027344 277.761719 "/>
<path fill="none" stroke-width="1.066978" stroke-linecap="butt" stroke-linejoin="round" stroke="rgb(0%, 0%, 0%)" stroke-opacity="1" stroke-miterlimit="10" d="M 320.027344 277.761719 L 320.027344 277.761719 "/>
<path fill="none" stroke-width="1.066978" stroke-linecap="butt" stroke-linejoin="round" stroke="rgb(0%, 0%, 0%)" stroke-opacity="1" stroke-miterlimit="10" d="M 347.550781 171.914062 L 347.550781 171.914062 "/>
<path fill="none" stroke-width="1.066978" stroke-linecap="butt" stroke-linejoin="round" stroke="rgb(0%, 0%, 0%)" stroke-opacity="1" stroke-miterlimit="10" d="M 347.550781 171.914062 L 347.550781 251.503906 "/>
<path fill="none" stroke-width="1.066978" stroke-linecap="butt" stroke-linejoin="round" stroke="rgb(0%, 0%, 0%)" stroke-opacity="1" stroke-miterlimit="10" d="M 347.550781 251.503906 L 347.550781 251.503906 "/>
<path fill="none" stroke-width="1.066978" stroke-linecap="butt" stroke-linejoin="round" stroke="rgb(0%, 0%, 0%)" stroke-opacity="1" stroke-miterlimit="10" d="M 406.628906 36.042969 L 406.628906 36.042969 "/>
<path fill="none" stroke-width="1.066978" stroke-linecap="butt" stroke-linejoin="round" stroke="rgb(0%, 0%, 0%)" stroke-opacity="1" stroke-miterlimit="10" d="M 406.628906 36.042969 L 406.628906 132.867188 "/>
<path fill="none" stroke-width="1.066978" stroke-linecap="butt" stroke-linejoin="round" stroke="rgb(0%, 0%, 0%)" stroke-opacity="1" stroke-miterlimit="10" d="M 406.628906 132.867188 L 406.628906 132.867188 "/>
<path fill="none" stroke-width="1.066978" stroke-linecap="butt" stroke-linejoin="round" stroke="rgb(30.588235%, 47.45098%, 65.490196%)" stroke-opacity="1" stroke-miterlimit="10" d="M 274.628906 227.855469 L 299.949219 196.476562 L 320.027344 233.675781 L 347.550781 211.707031 L 406.628906 84.457031 "/>
<path fill-rule="nonzero" fill="rgb(30.588235%, 47.45098%, 65.490196%)" fill-opacity="1" stroke-width="0.708661" stroke-linecap="round" stroke-linejoin="round" stroke="rgb(30.588235%, 47.45098%, 65.490196%)" stroke-opacity="1" stroke-miterlimit="10" d="M 277.648438 227.855469 C 277.648438 231.882812 271.605469 231.882812 271.605469 227.855469 C 271.605469 223.824219 277.648438 223.824219 277.648438 227.855469 "/>
<path fill-rule="nonzero" fill="rgb(30.588235%, 47.45098%, 65.490196%)" fill-opacity="1" stroke-width="0.708661" stroke-linecap="round" stroke-linejoin="round" stroke="rgb(30.588235%, 47.45098%, 65.490196%)" stroke-opacity="1" stroke-miterlimit="10" d="M 302.972656 196.476562 C 302.972656 200.503906 296.925781 200.503906 296.925781 196.476562 C 296.925781 192.445312 302.972656 192.445312 302.972656 196.476562 "/>
<path fill-rule="nonzero" fill="rgb(30.588235%, 47.45098%, 65.490196%)" fill-opacity="1" stroke-width="0.708661" stroke-linecap="round" stroke-linejoin="round" stroke="rgb(30.588235%, 47.45098%, 65.490196%)" stroke-opacity="1" stroke-miterlimit="10" d="M 323.050781 233.675781 C 323.050781 237.707031 317.003906 237.707031 317.003906 233.675781 C 317.003906 229.648438 323.050781 229.648438 323.050781 233.675781 "/>
<path fill-rule="nonzero" fill="rgb(30.588235%, 47.45098%, 65.490196%)" fill-opacity="1" stroke-width="0.708661" stroke-linecap="round" stroke-linejoin="round" stroke="rgb(30.588235%, 47.45098%, 65.490196%)" stroke-opacity="1" stroke-miterlimit="10" d="M 350.570312 211.707031 C 350.570312 215.738281 344.527344 215.738281 344.527344 211.707031 C 344.527344 207.679688 350.570312 207.679688 350.570312 211.707031 "/>
<path fill-rule="nonzero" fill="rgb(30.588235%, 47.45098%, 65.490196%)" fill-opacity="1" stroke-width="0.708661" stroke-linecap="round" stroke-linejoin="round" stroke="rgb(30.588235%, 47.45098%, 65.490196%)" stroke-opacity="1" stroke-miterlimit="10" d="M 409.652344 84.457031 C 409.652344 88.484375 403.609375 88.484375 403.609375 84.457031 C 403.609375 80.429688 409.652344 80.429688 409.652344 84.457031 "/>
<g fill="rgb(0%, 0%, 0%)" fill-opacity="1">
<use xlink:href="#glyph-0-0" x="268.042969" y="230.152344"/>
<use xlink:href="#glyph-0-1" x="277.042969" y="230.152344"/>
</g>
<g fill="rgb(0%, 0%, 0%)" fill-opacity="1">
<use xlink:href="#glyph-0-0" x="293.363281" y="198.773438"/>
<use xlink:href="#glyph-0-2" x="302.363281" y="198.773438"/>
</g>
<g fill="rgb(0%, 0%, 0%)" fill-opacity="1">
<use xlink:href="#glyph-0-0" x="313.441406" y="235.972656"/>
<use xlink:href="#glyph-0-3" x="322.441406" y="235.972656"/>
</g>
<g fill="rgb(0%, 0%, 0%)" fill-opacity="1">
<use xlink:href="#glyph-0-0" x="340.964844" y="214.003906"/>
<use xlink:href="#glyph-0-4" x="349.964844" y="214.003906"/>
</g>
<g clip-path="url(#clip-18)">
<g fill="rgb(0%, 0%, 0%)" fill-opacity="1">
<use xlink:href="#glyph-0-0" x="400.042969" y="86.753906"/>
<use xlink:href="#glyph-0-5" x="409.042969" y="86.753906"/>
</g>
</g>
<g clip-path="url(#clip-19)">
<path fill="none" stroke-width="1.066978" stroke-linecap="round" stroke-linejoin="round" stroke="rgb(20%, 20%, 20%)" stroke-opacity="1" stroke-miterlimit="10" d="M 267.957031 289.847656 L 414.714844 289.847656 L 414.714844 23.957031 L 267.957031 23.957031 Z M 267.957031 289.847656 "/>
</g>
<g fill="rgb(30.196078%, 30.196078%, 30.196078%)" fill-opacity="1">
<use xlink:href="#glyph-1-0" x="248.023438" y="259.504883"/>
<use xlink:href="#glyph-1-1" x="251.023438" y="259.504883"/>
<use xlink:href="#glyph-1-2" x="256.023438" y="259.504883"/>
<use xlink:href="#glyph-1-3" x="258.023438" y="259.504883"/>
</g>
<g fill="rgb(30.196078%, 30.196078%, 30.196078%)" fill-opacity="1">
<use xlink:href="#glyph-1-1" x="251.023438" y="188.801758"/>
<use xlink:href="#glyph-1-2" x="256.023438" y="188.801758"/>
<use xlink:href="#glyph-1-1" x="258.023438" y="188.801758"/>
</g>
<g fill="rgb(30.196078%, 30.196078%, 30.196078%)" fill-opacity="1">
<use xlink:href="#glyph-1-1" x="251.023438" y="118.098633"/>
<use xlink:href="#glyph-1-2" x="256.023438" y="118.098633"/>
<use xlink:href="#glyph-1-3" x="258.023438" y="118.098633"/>
</g>
<g fill="rgb(30.196078%, 30.196078%, 30.196078%)" fill-opacity="1">
<use xlink:href="#glyph-1-1" x="251.023438" y="47.399414"/>
<use xlink:href="#glyph-1-2" x="256.023438" y="47.399414"/>
<use xlink:href="#glyph-1-4" x="258.023438" y="47.399414"/>
</g>
<path fill="none" stroke-width="1.066978" stroke-linecap="butt" stroke-linejoin="round" stroke="rgb(20%, 20%, 20%)" stroke-opacity="1" stroke-miterlimit="10" d="M 265.214844 256.796875 L 267.957031 256.796875 "/>
<path fill="none" stroke-width="1.066978" stroke-linecap="butt" stroke-linejoin="round" stroke="rgb(20%, 20%, 20%)" stroke-opacity="1" stroke-miterlimit="10" d="M 265.214844 186.09375 L 267.957031 186.09375 "/>
<path fill="none" stroke-width="1.066978" stroke-linecap="butt" stroke-linejoin="round" stroke="rgb(20%, 20%, 20%)" stroke-opacity="1" stroke-miterlimit="10" d="M 265.214844 115.390625 L 267.957031 115.390625 "/>
<path fill="none" stroke-width="1.066978" stroke-linecap="butt" stroke-linejoin="round" stroke="rgb(20%, 20%, 20%)" stroke-opacity="1" stroke-miterlimit="10" d="M 265.214844 44.691406 L 267.957031 44.691406 "/>
<path fill="none" stroke-width="1.066978" stroke-linecap="butt" stroke-linejoin="round" stroke="rgb(20%, 20%, 20%)" stroke-opacity="1" stroke-miterlimit="10" d="M 296.929688 292.589844 L 296.929688 289.847656 "/>
<path fill="none" stroke-width="1.066978" stroke-linecap="butt" stroke-linejoin="round" stroke="rgb(20%, 20%, 20%)" stroke-opacity="1" stroke-miterlimit="10" d="M 332.28125 292.589844 L 332.28125 289.847656 "/>
<path fill="none" stroke-width="1.066978" stroke-linecap="butt" stroke-linejoin="round" stroke="rgb(20%, 20%, 20%)" stroke-opacity="1" stroke-miterlimit="10" d="M 367.632812 292.589844 L 367.632812 289.847656 "/>
<path fill="none" stroke-width="1.066978" stroke-linecap="butt" stroke-linejoin="round" stroke="rgb(20%, 20%, 20%)" stroke-opacity="1" stroke-miterlimit="10" d="M 402.984375 292.589844 L 402.984375 289.847656 "/>
<g fill="rgb(30.196078%, 30.196078%, 30.196078%)" fill-opacity="1">
<use xlink:href="#glyph-1-0" x="286.929688" y="300.989258"/>
<use xlink:href="#glyph-1-1" x="289.929688" y="300.989258"/>
<use xlink:href="#glyph-1-2" x="294.929688" y="300.989258"/>
<use xlink:href="#glyph-1-1" x="296.929688" y="300.989258"/>
<use xlink:href="#glyph-1-5" x="301.929688" y="300.989258"/>
</g>
<g fill="rgb(30.196078%, 30.196078%, 30.196078%)" fill-opacity="1">
<use xlink:href="#glyph-1-1" x="323.78125" y="300.989258"/>
<use xlink:href="#glyph-1-2" x="328.78125" y="300.989258"/>
<use xlink:href="#glyph-1-1" x="330.78125" y="300.989258"/>
<use xlink:href="#glyph-1-1" x="335.78125" y="300.989258"/>
</g>
<g fill="rgb(30.196078%, 30.196078%, 30.196078%)" fill-opacity="1">
<use xlink:href="#glyph-1-1" x="359.132812" y="300.989258"/>
<use xlink:href="#glyph-1-2" x="364.132812" y="300.989258"/>
<use xlink:href="#glyph-1-1" x="366.132812" y="300.989258"/>
<use xlink:href="#glyph-1-5" x="371.132812" y="300.989258"/>
</g>
<g fill="rgb(30.196078%, 30.196078%, 30.196078%)" fill-opacity="1">
<use xlink:href="#glyph-1-1" x="394.484375" y="300.989258"/>
<use xlink:href="#glyph-1-2" x="399.484375" y="300.989258"/>
<use xlink:href="#glyph-1-3" x="401.484375" y="300.989258"/>
<use xlink:href="#glyph-1-1" x="406.484375" y="300.989258"/>
</g>
<g fill="rgb(0%, 0%, 0%)" fill-opacity="1">
<use xlink:href="#glyph-0-6" x="268.335938" y="314.730469"/>
<use xlink:href="#glyph-0-7" x="277.335938" y="314.730469"/>
<use xlink:href="#glyph-0-8" x="284.335938" y="314.730469"/>
<use xlink:href="#glyph-0-9" x="291.335938" y="314.730469"/>
<use xlink:href="#glyph-0-10" x="298.335938" y="314.730469"/>
<use xlink:href="#glyph-0-11" x="301.335938" y="314.730469"/>
<use xlink:href="#glyph-0-11" x="310.335938" y="314.730469"/>
<use xlink:href="#glyph-0-12" x="319.335938" y="314.730469"/>
<use xlink:href="#glyph-0-10" x="327.335938" y="314.730469"/>
<use xlink:href="#glyph-0-13" x="330.335938" y="314.730469"/>
<use xlink:href="#glyph-0-14" x="337.335938" y="314.730469"/>
<use xlink:href="#glyph-0-7" x="341.335938" y="314.730469"/>
<use xlink:href="#glyph-0-15" x="348.335938" y="314.730469"/>
<use xlink:href="#glyph-0-16" x="355.335938" y="314.730469"/>
<use xlink:href="#glyph-0-17" x="358.335938" y="314.730469"/>
<use xlink:href="#glyph-0-18" x="364.335938" y="314.730469"/>
<use xlink:href="#glyph-0-7" x="368.335938" y="314.730469"/>
<use xlink:href="#glyph-0-15" x="375.335938" y="314.730469"/>
<use xlink:href="#glyph-0-10" x="382.335938" y="314.730469"/>
<use xlink:href="#glyph-0-19" x="385.335938" y="314.730469"/>
<use xlink:href="#glyph-0-20" x="393.335938" y="314.730469"/>
<use xlink:href="#glyph-0-21" x="400.335938" y="314.730469"/>
<use xlink:href="#glyph-0-22" x="407.335938" y="314.730469"/>
</g>
<g fill="rgb(0%, 0%, 0%)" fill-opacity="1">
<use xlink:href="#glyph-2-0" x="241.496094" y="211.902344"/>
<use xlink:href="#glyph-2-1" x="241.496094" y="203.902344"/>
<use xlink:href="#glyph-2-2" x="241.496094" y="196.902344"/>
<use xlink:href="#glyph-2-3" x="241.496094" y="189.902344"/>
<use xlink:href="#glyph-2-4" x="241.496094" y="182.902344"/>
<use xlink:href="#glyph-2-5" x="241.496094" y="179.902344"/>
<use xlink:href="#glyph-2-6" x="241.496094" y="172.902344"/>
<use xlink:href="#glyph-2-7" x="241.496094" y="169.902344"/>
<use xlink:href="#glyph-2-1" x="241.496094" y="165.902344"/>
<use xlink:href="#glyph-2-3" x="241.496094" y="158.902344"/>
<use xlink:href="#glyph-2-2" x="241.496094" y="151.902344"/>
<use xlink:href="#glyph-2-8" x="241.496094" y="144.902344"/>
<use xlink:href="#glyph-2-9" x="241.496094" y="138.902344"/>
<use xlink:href="#glyph-2-6" x="241.496094" y="134.902344"/>
<use xlink:href="#glyph-2-10" x="241.496094" y="131.902344"/>
<use xlink:href="#glyph-2-11" x="241.496094" y="122.902344"/>
<use xlink:href="#glyph-2-12" x="241.496094" y="115.902344"/>
<use xlink:href="#glyph-2-13" x="241.496094" y="108.902344"/>
</g>
<g fill="rgb(0%, 0%, 0%)" fill-opacity="1">
<use xlink:href="#glyph-3-0" x="267.957031" y="14.732422"/>
<use xlink:href="#glyph-3-1" x="277.957031" y="14.732422"/>
<use xlink:href="#glyph-3-2" x="286.957031" y="14.732422"/>
<use xlink:href="#glyph-3-3" x="294.957031" y="14.732422"/>
<use xlink:href="#glyph-3-4" x="298.957031" y="14.732422"/>
<use xlink:href="#glyph-3-5" x="306.957031" y="14.732422"/>
<use xlink:href="#glyph-3-6" x="311.957031" y="14.732422"/>
<use xlink:href="#glyph-3-7" x="319.957031" y="14.732422"/>
<use xlink:href="#glyph-3-8" x="327.957031" y="14.732422"/>
<use xlink:href="#glyph-3-9" x="335.957031" y="14.732422"/>
<use xlink:href="#glyph-3-10" x="343.957031" y="14.732422"/>
<use xlink:href="#glyph-3-3" x="351.957031" y="14.732422"/>
<use xlink:href="#glyph-3-11" x="355.957031" y="14.732422"/>
<use xlink:href="#glyph-3-12" x="362.957031" y="14.732422"/>
<use xlink:href="#glyph-3-13" x="370.957031" y="14.732422"/>
<use xlink:href="#glyph-3-14" x="374.957031" y="14.732422"/>
<use xlink:href="#glyph-3-15" x="378.957031" y="14.732422"/>
<use xlink:href="#glyph-3-5" x="386.957031" y="14.732422"/>
<use xlink:href="#glyph-3-12" x="391.957031" y="14.732422"/>
<use xlink:href="#glyph-3-16" x="399.957031" y="14.732422"/>
<use xlink:href="#glyph-3-14" x="404.957031" y="14.732422"/>
<use xlink:href="#glyph-3-6" x="408.957031" y="14.732422"/>
<use xlink:href="#glyph-3-17" x="416.957031" y="14.732422"/>
</g>
</svg>
