<?xml version="1.0" encoding="UTF-8"?>
<svg xmlns="http://www.w3.org/2000/svg" xmlns:xlink="http://www.w3.org/1999/xlink" width="720pt" height="360pt" viewBox="0 0 720 360">
<defs>
<g>
<g id="glyph-0-0">
<path d="M 2.3125 0.109375 C 3.390625 0.109375 4.421875 -0.6875 4.421875 -2.09375 C 4.421875 -3.515625 3.53125 -4.15625 2.46875 -4.15625 C 2.078125 -4.15625 1.796875 -4.0625 1.5 -3.890625 L 1.671875 -5.765625 L 4.09375 -5.765625 L 4.09375 -6.453125 L 0.96875 -6.453125 L 0.75 -3.4375 L 1.1875 -3.171875 C 1.5625 -3.40625 1.828125 -3.546875 2.265625 -3.546875 C 3.0625 -3.546875 3.59375 -3 3.59375 -2.078125 C 3.59375 -1.140625 2.984375 -0.546875 2.21875 -0.546875 C 1.484375 -0.546875 1 -0.890625 0.640625 -1.265625 L 0.234375 -0.734375 C 0.671875 -0.3125 1.296875 0.109375 2.3125 0.109375 Z M 2.3125 0.109375 "/>
</g>
<g id="glyph-0-1">
<path d="M 2.640625 0.109375 C 3.65625 0.109375 4.5 -0.734375 4.5 -1.984375 C 4.5 -3.328125 3.796875 -4 2.703125 -4 C 2.203125 -4 1.640625 -3.71875 1.25 -3.234375 C 1.28125 -5.21875 2.015625 -5.90625 2.90625 -5.90625 C 3.296875 -5.90625 3.6875 -5.703125 3.9375 -5.40625 L 4.390625 -5.90625 C 4.03125 -6.296875 3.546875 -6.5625 2.875 -6.5625 C 1.625 -6.5625 0.5 -5.609375 0.5 -3.078125 C 0.5 -0.953125 1.421875 0.109375 2.640625 0.109375 Z M 1.265625 -2.59375 C 1.6875 -3.1875 2.1875 -3.40625 2.578125 -3.40625 C 3.359375 -3.40625 3.734375 -2.84375 3.734375 -1.984375 C 3.734375 -1.09375 3.265625 -0.515625 2.640625 -0.515625 C 1.84375 -0.515625 1.359375 -1.25 1.265625 -2.59375 Z M 1.265625 -2.59375 "/>
</g>
<g id="glyph-0-2">
<path d="M 2.453125 0.109375 C 3.671875 0.109375 4.453125 -1 4.453125 -3.25 C 4.453125 -5.484375 3.671875 -6.5625 2.453125 -6.5625 C 1.21875 -6.5625 0.4375 -5.484375 0.4375 -3.25 C 0.4375 -1 1.21875 0.109375 2.453125 0.109375 Z M 2.453125 -0.53125 C 1.71875 -0.53125 1.21875 -1.359375 1.21875 -3.25 C 1.21875 -5.125 1.71875 -5.921875 2.453125 -5.921875 C 3.171875 -5.921875 3.671875 -5.125 3.671875 -3.25 C 3.671875 -1.359375 3.171875 -0.53125 2.453125 -0.53125 Z M 2.453125 -0.53125 "/>
</g>
<g id="glyph-0-3">
<path d="M 1.734375 0 L 2.578125 0 C 2.6875 -2.53125 2.953125 -4.03125 4.46875 -5.96875 L 4.46875 -6.453125 L 0.4375 -6.453125 L 0.4375 -5.765625 L 3.5625 -5.765625 C 2.296875 -4 1.859375 -2.453125 1.734375 0 Z M 1.734375 0 "/>
</g>
<g id="glyph-0-4">
<path d="M 0.390625 0 L 4.4375 0 L 4.4375 -0.6875 L 2.65625 -0.6875 C 2.328125 -0.6875 1.9375 -0.65625 1.59375 -0.640625 C 3.109375 -2.0625 4.140625 -3.375 4.140625 -4.671875 C 4.140625 -5.8125 3.40625 -6.5625 2.25 -6.5625 C 1.4375 -6.5625 0.875 -6.1875 0.359375 -5.625 L 0.8125 -5.15625 C 1.171875 -5.59375 1.625 -5.90625 2.15625 -5.90625 C 2.953125 -5.90625 3.34375 -5.375 3.34375 -4.640625 C 3.34375 -3.53125 2.40625 -2.25 0.390625 -0.46875 Z M 0.390625 0 "/>
</g>
<g id="glyph-0-5">
<path d="M 2.3125 0.109375 C 3.46875 0.109375 4.390625 -0.578125 4.390625 -1.71875 C 4.390625 -2.609375 3.78125 -3.171875 3.03125 -3.359375 L 3.03125 -3.40625 C 3.71875 -3.640625 4.171875 -4.171875 4.171875 -4.953125 C 4.171875 -5.96875 3.375 -6.5625 2.28125 -6.5625 C 1.546875 -6.5625 0.96875 -6.234375 0.5 -5.796875 L 0.921875 -5.28125 C 1.296875 -5.65625 1.734375 -5.90625 2.265625 -5.90625 C 2.9375 -5.90625 3.359375 -5.5 3.359375 -4.890625 C 3.359375 -4.203125 2.90625 -3.65625 1.5625 -3.65625 L 1.5625 -3.046875 C 3.0625 -3.046875 3.578125 -2.53125 3.578125 -1.75 C 3.578125 -1.015625 3.03125 -0.546875 2.265625 -0.546875 C 1.53125 -0.546875 1.046875 -0.90625 0.671875 -1.296875 L 0.25 -0.78125 C 0.671875 -0.3125 1.3125 0.109375 2.3125 0.109375 Z M 2.3125 0.109375 "/>
</g>
<g id="glyph-0-6">
<path d="M 2.984375 0 L 3.75 0 L 3.75 -1.78125 L 4.609375 -1.78125 L 4.609375 -2.421875 L 3.75 -2.421875 L 3.75 -6.453125 L 2.859375 -6.453125 L 0.171875 -2.3125 L 0.171875 -1.78125 L 2.984375 -1.78125 Z M 2.984375 -2.421875 L 1.015625 -2.421875 L 2.484375 -4.625 C 2.671875 -4.9375 2.84375 -5.265625 3 -5.5625 L 3.03125 -5.5625 C 3.015625 -5.25 2.984375 -4.71875 2.984375 -4.40625 Z M 2.984375 -2.421875 "/>
</g>
<g id="glyph-1-0">
<path d="M 5.359375 -3 C 5.359375 -3.726562 5.207031 -4.296875 4.90625 -4.703125 C 4.601562 -5.117188 4.191406 -5.328125 3.671875 -5.328125 C 3.148438 -5.328125 2.738281 -5.117188 2.4375 -4.703125 C 2.144531 -4.296875 2 -3.726562 2 -3 C 2 -2.269531 2.144531 -1.695312 2.4375 -1.28125 C 2.738281 -0.875 3.148438 -0.671875 3.671875 -0.671875 C 4.191406 -0.671875 4.601562 -0.875 4.90625 -1.28125 C 5.207031 -1.695312 5.359375 -2.269531 5.359375 -3 Z M 2 -5.109375 C 2.195312 -5.460938 2.453125 -5.722656 2.765625 -5.890625 C 3.085938 -6.066406 3.472656 -6.15625 3.921875 -6.15625 C 4.648438 -6.15625 5.238281 -5.863281 5.6875 -5.28125 C 6.144531 -4.707031 6.375 -3.945312 6.375 -3 C 6.375 -2.050781 6.144531 -1.285156 5.6875 -0.703125 C 5.238281 -0.128906 4.648438 0.15625 3.921875 0.15625 C 3.472656 0.15625 3.085938 0.0703125 2.765625 -0.09375 C 2.453125 -0.269531 2.195312 -0.539062 2 -0.90625 L 2 0 L 1 0 L 1 -8.359375 L 2 -8.359375 Z M 2 -5.109375 "/>
</g>
<g id="glyph-1-1">
<path d="M 5.71875 -4.859375 C 5.96875 -5.304688 6.265625 -5.632812 6.609375 -5.84375 C 6.953125 -6.050781 7.359375 -6.15625 7.828125 -6.15625 C 8.453125 -6.15625 8.929688 -5.9375 9.265625 -5.5 C 9.609375 -5.0625 9.78125 -4.4375 9.78125 -3.625 L 9.78125 0 L 8.78125 0 L 8.78125 -3.59375 C 8.78125 -4.175781 8.675781 -4.601562 8.46875 -4.875 C 8.269531 -5.15625 7.960938 -5.296875 7.546875 -5.296875 C 7.035156 -5.296875 6.628906 -5.125 6.328125 -4.78125 C 6.035156 -4.445312 5.890625 -3.988281 5.890625 -3.40625 L 5.890625 0 L 4.890625 0 L 4.890625 -3.59375 C 4.890625 -4.175781 4.785156 -4.601562 4.578125 -4.875 C 4.378906 -5.15625 4.066406 -5.296875 3.640625 -5.296875 C 3.140625 -5.296875 2.738281 -5.125 2.4375 -4.78125 C 2.144531 -4.445312 2 -3.988281 2 -3.40625 L 2 0 L 1 0 L 1 -6.015625 L 2 -6.015625 L 2 -5.078125 C 2.21875 -5.453125 2.484375 -5.722656 2.796875 -5.890625 C 3.117188 -6.066406 3.492188 -6.15625 3.921875 -6.15625 C 4.359375 -6.15625 4.726562 -6.046875 5.03125 -5.828125 C 5.34375 -5.609375 5.570312 -5.285156 5.71875 -4.859375 Z M 5.71875 -4.859375 "/>
</g>
<g id="glyph-1-2">
<path d="M 1.03125 -6.015625 L 2.03125 -6.015625 L 2.03125 0 L 1.03125 0 Z M 1.03125 -8.359375 L 2.03125 -8.359375 L 2.03125 -7.109375 L 1.03125 -7.109375 Z M 1.03125 -8.359375 "/>
</g>
<g id="glyph-2-0">
<path d="M -3.25 -6.1875 L -2.765625 -6.1875 L -2.765625 -1.640625 C -2.085938 -1.679688 -1.570312 -1.882812 -1.21875 -2.25 C -0.863281 -2.613281 -0.6875 -3.125 -0.6875 -3.78125 C -0.6875 -4.164062 -0.734375 -4.535156 -0.828125 -4.890625 C -0.921875 -5.242188 -1.054688 -5.597656 -1.234375 -5.953125 L -0.3125 -5.953125 C -0.15625 -5.597656 -0.0390625 -5.234375 0.03125 -4.859375 C 0.113281 -4.484375 0.15625 -4.109375 0.15625 -3.734375 C 0.15625 -2.765625 -0.117188 -2 -0.671875 -1.4375 C -1.234375 -0.882812 -1.992188 -0.609375 -2.953125 -0.609375 C -3.929688 -0.609375 -4.707031 -0.875 -5.28125 -1.40625 C -5.863281 -1.9375 -6.15625 -2.65625 -6.15625 -3.5625 C -6.15625 -4.363281 -5.894531 -5 -5.375 -5.46875 C -4.851562 -5.945312 -4.144531 -6.1875 -3.25 -6.1875 Z M -3.546875 -5.1875 C -4.085938 -5.1875 -4.519531 -5.035156 -4.84375 -4.734375 C -5.164062 -4.441406 -5.328125 -4.050781 -5.328125 -3.5625 C -5.328125 -3.007812 -5.171875 -2.566406 -4.859375 -2.234375 C -4.546875 -1.910156 -4.109375 -1.722656 -3.546875 -1.671875 Z M -3.546875 -5.1875 "/>
</g>
<g id="glyph-2-1">
<path d="M -5.84375 -4.875 L -4.90625 -4.875 C -5.050781 -4.59375 -5.15625 -4.300781 -5.21875 -4 C -5.289062 -3.695312 -5.328125 -3.382812 -5.328125 -3.0625 C -5.328125 -2.570312 -5.25 -2.203125 -5.09375 -1.953125 C -4.945312 -1.710938 -4.726562 -1.59375 -4.4375 -1.59375 C -4.207031 -1.59375 -4.023438 -1.679688 -3.890625 -1.859375 C -3.765625 -2.035156 -3.640625 -2.390625 -3.515625 -2.921875 L -3.4375 -3.25 C -3.289062 -3.957031 -3.078125 -4.457031 -2.796875 -4.75 C -2.523438 -5.039062 -2.144531 -5.1875 -1.65625 -5.1875 C -1.101562 -5.1875 -0.660156 -4.96875 -0.328125 -4.53125 C -0.00390625 -4.09375 0.15625 -3.484375 0.15625 -2.703125 C 0.15625 -2.378906 0.125 -2.039062 0.0625 -1.6875 C 0 -1.34375 -0.09375 -0.976562 -0.21875 -0.59375 L -1.234375 -0.59375 C -1.046875 -0.957031 -0.90625 -1.316406 -0.8125 -1.671875 C -0.71875 -2.023438 -0.671875 -2.378906 -0.671875 -2.734375 C -0.671875 -3.191406 -0.75 -3.546875 -0.90625 -3.796875 C -1.070312 -4.046875 -1.296875 -4.171875 -1.578125 -4.171875 C -1.847656 -4.171875 -2.054688 -4.082031 -2.203125 -3.90625 C -2.347656 -3.726562 -2.484375 -3.332031 -2.609375 -2.71875 L -2.703125 -2.375 C -2.828125 -1.757812 -3.019531 -1.316406 -3.28125 -1.046875 C -3.550781 -0.773438 -3.921875 -0.640625 -4.390625 -0.640625 C -4.953125 -0.640625 -5.382812 -0.835938 -5.6875 -1.234375 C -6 -1.640625 -6.15625 -2.210938 -6.15625 -2.953125 C -6.15625 -3.316406 -6.128906 -3.660156 -6.078125 -3.984375 C -6.023438 -4.304688 -5.945312 -4.601562 -5.84375 -4.875 Z M -5.84375 -4.875 "/>
</g>
<g id="glyph-2-2">
<path d="M -7.71875 -2.015625 L -6.015625 -2.015625 L -6.015625 -4.046875 L -5.25 -4.046875 L -5.25 -2.015625 L -1.984375 -2.015625 C -1.492188 -2.015625 -1.175781 -2.082031 -1.03125 -2.21875 C -0.894531 -2.351562 -0.828125 -2.625 -0.828125 -3.03125 L -0.828125 -4.046875 L 0 -4.046875 L 0 -3.03125 C 0 -2.269531 -0.140625 -1.742188 -0.421875 -1.453125 C -0.710938 -1.160156 -1.234375 -1.015625 -1.984375 -1.015625 L -5.25 -1.015625 L -5.25 -0.296875 L -6.015625 -0.296875 L -6.015625 -1.015625 L -7.71875 -1.015625 Z M -7.71875 -2.015625 "/>
</g>
<g id="glyph-2-3">
<path d="M -6.015625 -1.03125 L -6.015625 -2.03125 L 0 -2.03125 L 0 -1.03125 Z M -8.359375 -1.03125 L -8.359375 -2.03125 L -7.109375 -2.03125 L -7.109375 -1.03125 Z M -8.359375 -1.03125 "/>
</g>
<g id="glyph-2-4">
<path d="M -4.859375 -5.71875 C -5.304688 -5.96875 -5.632812 -6.265625 -5.84375 -6.609375 C -6.050781 -6.953125 -6.15625 -7.359375 -6.15625 -7.828125 C -6.15625 -8.453125 -5.9375 -8.929688 -5.5 -9.265625 C -5.0625 -9.609375 -4.4375 -9.78125 -3.625 -9.78125 L 0 -9.78125 L 0 -8.78125 L -3.59375 -8.78125 C -4.175781 -8.78125 -4.601562 -8.675781 -4.875 -8.46875 C -5.15625 -8.269531 -5.296875 -7.960938 -5.296875 -7.546875 C -5.296875 -7.035156 -5.125 -6.628906 -4.78125 -6.328125 C -4.445312 -6.035156 -3.988281 -5.890625 -3.40625 -5.890625 L 0 -5.890625 L 0 -4.890625 L -3.59375 -4.890625 C -4.175781 -4.890625 -4.601562 -4.785156 -4.875 -4.578125 C -5.15625 -4.378906 -5.296875 -4.066406 -5.296875 -3.640625 C -5.296875 -3.140625 -5.125 -2.738281 -4.78125 -2.4375 C -4.445312 -2.144531 -3.988281 -2 -3.40625 -2 L 0 -2 L 0 -1 L -6.015625 -1 L -6.015625 -2 L -5.078125 -2 C -5.453125 -2.21875 -5.722656 -2.484375 -5.890625 -2.796875 C -6.066406 -3.117188 -6.15625 -3.492188 -6.15625 -3.921875 C -6.15625 -4.359375 -6.046875 -4.726562 -5.828125 -5.03125 C -5.609375 -5.34375 -5.285156 -5.570312 -4.859375 -5.71875 Z M -4.859375 -5.71875 "/>
</g>
<g id="glyph-2-5">
<path d="M -3.03125 -3.765625 C -3.03125 -2.972656 -2.9375 -2.421875 -2.75 -2.109375 C -2.5625 -1.804688 -2.25 -1.65625 -1.8125 -1.65625 C -1.46875 -1.65625 -1.191406 -1.769531 -0.984375 -2 C -0.773438 -2.226562 -0.671875 -2.539062 -0.671875 -2.9375 C -0.671875 -3.488281 -0.863281 -3.925781 -1.25 -4.25 C -1.644531 -4.582031 -2.160156 -4.75 -2.796875 -4.75 L -3.03125 -4.75 Z M -3.4375 -5.734375 L 0 -5.734375 L 0 -4.75 L -0.90625 -4.75 C -0.539062 -4.53125 -0.269531 -4.25 -0.09375 -3.90625 C 0.0703125 -3.570312 0.15625 -3.160156 0.15625 -2.671875 C 0.15625 -2.054688 -0.015625 -1.566406 -0.359375 -1.203125 C -0.703125 -0.835938 -1.164062 -0.65625 -1.75 -0.65625 C -2.425781 -0.65625 -2.9375 -0.878906 -3.28125 -1.328125 C -3.625 -1.785156 -3.796875 -2.46875 -3.796875 -3.375 L -3.796875 -4.75 L -3.890625 -4.75 C -4.347656 -4.75 -4.703125 -4.597656 -4.953125 -4.296875 C -5.203125 -4.003906 -5.328125 -3.585938 -5.328125 -3.046875 C -5.328125 -2.703125 -5.285156 -2.363281 -5.203125 -2.03125 C -5.117188 -1.707031 -4.992188 -1.394531 -4.828125 -1.09375 L -5.734375 -1.09375 C -5.878906 -1.457031 -5.984375 -1.8125 -6.046875 -2.15625 C -6.117188 -2.5 -6.15625 -2.828125 -6.15625 -3.140625 C -6.15625 -4.015625 -5.929688 -4.664062 -5.484375 -5.09375 C -5.035156 -5.519531 -4.351562 -5.734375 -3.4375 -5.734375 Z M -3.4375 -5.734375 "/>
</g>
</g>
<clipPath id="clip-0">
<path clip-rule="nonzero" d="M 35.152344 5.480469 L 714.523438 5.480469 L 714.523438 325.851562 L 35.152344 325.851562 Z M 35.152344 5.480469 "/>
</clipPath>
<clipPath id="clip-1">
<path clip-rule="nonzero" d="M 35.152344 249 L 714.523438 249 L 714.523438 250 L 35.152344 250 Z M 35.152344 249 "/>
</clipPath>
<clipPath id="clip-2">
<path clip-rule="nonzero" d="M 35.152344 166 L 714.523438 166 L 714.523438 167 L 35.152344 167 Z M 35.152344 166 "/>
</clipPath>
<clipPath id="clip-3">
<path clip-rule="nonzero" d="M 35.152344 83 L 714.523438 83 L 714.523438 84 L 35.152344 84 Z M 35.152344 83 "/>
</clipPath>
<clipPath id="clip-4">
<path clip-rule="nonzero" d="M 131 5.480469 L 133 5.480469 L 133 325.851562 L 131 325.851562 Z M 131 5.480469 "/>
</clipPath>
<clipPath id="clip-5">
<path clip-rule="nonzero" d="M 352 5.480469 L 354 5.480469 L 354 325.851562 L 352 325.851562 Z M 352 5.480469 "/>
</clipPath>
<clipPath id="clip-6">
<path clip-rule="nonzero" d="M 573 5.480469 L 575 5.480469 L 575 325.851562 L 573 325.851562 Z M 573 5.480469 "/>
</clipPath>
<clipPath id="clip-7">
<path clip-rule="nonzero" d="M 35.152344 290 L 714.523438 290 L 714.523438 292 L 35.152344 292 Z M 35.152344 290 "/>
</clipPath>
<clipPath id="clip-8">
<path clip-rule="nonzero" d="M 35.152344 207 L 714.523438 207 L 714.523438 209 L 35.152344 209 Z M 35.152344 207 "/>
</clipPath>
<clipPath id="clip-9">
<path clip-rule="nonzero" d="M 35.152344 124 L 714.523438 124 L 714.523438 126 L 35.152344 126 Z M 35.152344 124 "/>
</clipPath>
<clipPath id="clip-10">
<path clip-rule="nonzero" d="M 35.152344 41 L 714.523438 41 L 714.523438 43 L 35.152344 43 Z M 35.152344 41 "/>
</clipPath>
<clipPath id="clip-11">
<path clip-rule="nonzero" d="M 241 5.480469 L 244 5.480469 L 244 325.851562 L 241 325.851562 Z M 241 5.480469 "/>
</clipPath>
<clipPath id="clip-12">
<path clip-rule="nonzero" d="M 463 5.480469 L 465 5.480469 L 465 325.851562 L 463 325.851562 Z M 463 5.480469 "/>
</clipPath>
<clipPath id="clip-13">
<path clip-rule="nonzero" d="M 684 5.480469 L 686 5.480469 L 686 325.851562 L 684 325.851562 Z M 684 5.480469 "/>
</clipPath>
</defs>
<rect x="-72" y="-36" width="864" height="432" fill="rgb(100%, 100%, 100%)" fill-opacity="1"/>
<rect x="-72" y="-36" width="864" height="432" fill="rgb(100%, 100%, 100%)" fill-opacity="1"/>
<path fill="none" stroke-width="1.066978" stroke-linecap="round" stroke-linejoin="round" stroke="rgb(100%, 100%, 100%)" stroke-opacity="1" stroke-miterlimit="10" d="M 0 360 L 720 360 L 720 0 L 0 0 Z M 0 360 "/>
<g clip-path="url(#clip-0)">
<path fill-rule="nonzero" fill="rgb(92.156863%, 92.156863%, 92.156863%)" fill-opacity="1" d="M 35.152344 325.847656 L 714.523438 325.847656 L 714.523438 5.476562 L 35.152344 5.476562 Z M 35.152344 325.847656 "/>
</g>
<g clip-path="url(#clip-1)">
<path fill="none" stroke-width="0.533489" stroke-linecap="butt" stroke-linejoin="round" stroke="rgb(100%, 100%, 100%)" stroke-opacity="1" stroke-miterlimit="10" d="M 35.152344 249.414062 L 714.519531 249.414062 "/>
</g>
<g clip-path="url(#clip-2)">
<path fill="none" stroke-width="0.533489" stroke-linecap="butt" stroke-linejoin="round" stroke="rgb(100%, 100%, 100%)" stroke-opacity="1" stroke-miterlimit="10" d="M 35.152344 166.34375 L 714.519531 166.34375 "/>
</g>
<g clip-path="url(#clip-3)">
<path fill="none" stroke-width="0.533489" stroke-linecap="butt" stroke-linejoin="round" stroke="rgb(100%, 100%, 100%)" stroke-opacity="1" stroke-miterlimit="10" d="M 35.152344 83.277344 L 714.519531 83.277344 "/>
</g>
<g clip-path="url(#clip-4)">
<path fill="none" stroke-width="0.533489" stroke-linecap="butt" stroke-linejoin="round" stroke="rgb(100%, 100%, 100%)" stroke-opacity="1" stroke-miterlimit="10" d="M 132.003906 325.847656 L 132.003906 5.480469 "/>
</g>
<g clip-path="url(#clip-5)">
<path fill="none" stroke-width="0.533489" stroke-linecap="butt" stroke-linejoin="round" stroke="rgb(100%, 100%, 100%)" stroke-opacity="1" stroke-miterlimit="10" d="M 353.042969 325.847656 L 353.042969 5.480469 "/>
</g>
<g clip-path="url(#clip-6)">
<path fill="none" stroke-width="0.533489" stroke-linecap="butt" stroke-linejoin="round" stroke="rgb(100%, 100%, 100%)" stroke-opacity="1" stroke-miterlimit="10" d="M 574.082031 325.847656 L 574.082031 5.480469 "/>
</g>
<g clip-path="url(#clip-7)">
<path fill="none" stroke-width="1.066978" stroke-linecap="butt" stroke-linejoin="round" stroke="rgb(100%, 100%, 100%)" stroke-opacity="1" stroke-miterlimit="10" d="M 35.152344 290.949219 L 714.519531 290.949219 "/>
</g>
<g clip-path="url(#clip-8)">
<path fill="none" stroke-width="1.066978" stroke-linecap="butt" stroke-linejoin="round" stroke="rgb(100%, 100%, 100%)" stroke-opacity="1" stroke-miterlimit="10" d="M 35.152344 207.878906 L 714.519531 207.878906 "/>
</g>
<g clip-path="url(#clip-9)">
<path fill="none" stroke-width="1.066978" stroke-linecap="butt" stroke-linejoin="round" stroke="rgb(100%, 100%, 100%)" stroke-opacity="1" stroke-miterlimit="10" d="M 35.152344 124.808594 L 714.519531 124.808594 "/>
</g>
<g clip-path="url(#clip-10)">
<path fill="none" stroke-width="1.066978" stroke-linecap="butt" stroke-linejoin="round" stroke="rgb(100%, 100%, 100%)" stroke-opacity="1" stroke-miterlimit="10" d="M 35.152344 41.742188 L 714.519531 41.742188 "/>
</g>
<g clip-path="url(#clip-11)">
<path fill="none" stroke-width="1.066978" stroke-linecap="butt" stroke-linejoin="round" stroke="rgb(100%, 100%, 100%)" stroke-opacity="1" stroke-miterlimit="10" d="M 242.523438 325.847656 L 242.523438 5.480469 "/>
</g>
<g clip-path="url(#clip-12)">
<path fill="none" stroke-width="1.066978" stroke-linecap="butt" stroke-linejoin="round" stroke="rgb(100%, 100%, 100%)" stroke-opacity="1" stroke-miterlimit="10" d="M 463.5625 325.847656 L 463.5625 5.480469 "/>
</g>
<g clip-path="url(#clip-13)">
<path fill="none" stroke-width="1.066978" stroke-linecap="butt" stroke-linejoin="round" stroke="rgb(100%, 100%, 100%)" stroke-opacity="1" stroke-miterlimit="10" d="M 684.601562 325.847656 L 684.601562 5.480469 "/>
</g>
<path fill-rule="nonzero" fill="rgb(20%, 20%, 20%)" fill-opacity="0.101961" d="M 66.03125 20.042969 L 78.636719 25.5625 L 91.238281 31.011719 L 103.84375 36.363281 L 116.449219 41.585938 L 129.050781 46.632812 L 141.65625 51.445312 L 154.261719 55.933594 L 166.867188 59.996094 L 179.46875 63.570312 L 192.074219 66.707031 L 204.679688 69.566406 L 217.28125 72.410156 L 229.886719 75.492188 L 242.492188 79.03125 L 255.09375 83.105469 L 267.699219 87.53125 L 280.304688 92.015625 L 292.90625 96.34375 L 305.511719 100.460938 L 318.117188 104.476562 L 330.71875 108.558594 L 343.324219 112.8125 L 355.929688 117.25 L 368.535156 121.832031 L 381.136719 126.492188 L 393.742188 131.140625 L 406.347656 135.683594 L 418.949219 140.027344 L 431.554688 144.113281 L 444.160156 147.910156 L 456.761719 151.433594 L 469.367188 154.722656 L 481.972656 157.824219 L 494.574219 160.773438 L 507.179688 163.597656 L 519.785156 166.328125 L 532.390625 168.980469 L 544.992188 171.570312 L 557.597656 174.105469 L 570.203125 176.601562 L 582.804688 179.0625 L 595.410156 181.492188 L 608.015625 183.894531 L 620.617188 186.28125 L 633.222656 188.644531 L 645.828125 190.996094 L 658.429688 193.332031 L 671.035156 195.65625 L 683.640625 197.972656 L 683.640625 311.285156 L 671.035156 304.269531 L 658.429688 297.261719 L 645.828125 290.265625 L 633.222656 283.28125 L 620.617188 276.316406 L 608.015625 269.367188 L 595.410156 262.4375 L 582.804688 255.535156 L 570.203125 248.660156 L 557.597656 241.824219 L 544.992188 235.027344 L 532.390625 228.28125 L 519.785156 221.601562 L 507.179688 215 L 494.574219 208.492188 L 481.972656 202.109375 L 469.367188 195.878906 L 456.761719 189.835938 L 444.160156 184.027344 L 431.554688 178.496094 L 418.949219 173.269531 L 406.347656 168.320312 L 393.742188 163.589844 L 381.136719 159 L 368.535156 154.457031 L 355.929688 149.878906 L 343.324219 145.199219 L 330.71875 140.394531 L 318.117188 135.484375 L 305.511719 130.578125 L 292.90625 125.917969 L 280.304688 121.710938 L 267.699219 117.984375 L 255.09375 114.621094 L 242.492188 111.421875 L 229.886719 108.25 L 217.28125 105.132812 L 204.679688 102.199219 L 192.074219 99.636719 L 179.46875 97.613281 L 166.867188 96.222656 L 154.261719 95.429688 L 141.65625 95.101562 L 129.050781 95.097656 L 116.449219 95.328125 L 103.84375 95.730469 L 91.238281 96.265625 L 78.636719 96.894531 L 66.03125 97.597656 Z M 66.03125 20.042969 "/>
<path fill="none" stroke-width="1.066978" stroke-linecap="butt" stroke-linejoin="round" stroke="rgb(0%, 0%, 0%)" stroke-opacity="1" stroke-miterlimit="10" d="M 66.03125 58.820312 L 78.636719 61.230469 L 91.238281 63.636719 L 116.449219 68.457031 L 129.050781 70.863281 L 154.261719 75.683594 L 166.867188 78.109375 L 179.46875 80.59375 L 192.074219 83.171875 L 204.679688 85.882812 L 217.28125 88.769531 L 229.886719 91.871094 L 242.492188 95.226562 L 255.09375 98.863281 L 267.699219 102.757812 L 280.304688 106.863281 L 292.90625 111.132812 L 305.511719 115.519531 L 318.117188 119.980469 L 330.71875 124.476562 L 343.324219 129.007812 L 355.929688 133.5625 L 368.535156 138.144531 L 381.136719 142.746094 L 393.742188 147.367188 L 406.347656 152 L 418.949219 156.648438 L 431.554688 161.304688 L 444.160156 165.96875 L 456.761719 170.632812 L 469.367188 175.300781 L 481.972656 179.964844 L 494.574219 184.632812 L 507.179688 189.300781 L 519.785156 193.964844 L 532.390625 198.632812 L 544.992188 203.300781 L 557.597656 207.964844 L 570.203125 212.632812 L 582.804688 217.296875 L 608.015625 226.632812 L 620.617188 231.296875 L 633.222656 235.964844 L 645.828125 240.628906 L 658.429688 245.296875 L 671.035156 249.964844 L 683.640625 254.628906 "/>
<path fill="none" stroke-width="1.066978" stroke-linecap="butt" stroke-linejoin="round" stroke="rgb(0%, 0%, 0%)" stroke-opacity="1" stroke-miterlimit="10" d="M 66.03125 58.820312 L 78.636719 61.230469 L 91.238281 63.636719 L 116.449219 68.457031 L 129.050781 70.863281 L 154.261719 75.683594 L 166.867188 78.109375 L 179.46875 80.59375 L 192.074219 83.171875 L 204.679688 85.882812 L 217.28125 88.769531 L 229.886719 91.871094 L 242.492188 95.226562 L 255.09375 98.863281 L 267.699219 102.757812 L 280.304688 106.863281 L 292.90625 111.132812 L 305.511719 115.519531 L 318.117188 119.980469 L 330.71875 124.476562 L 343.324219 129.007812 L 355.929688 133.5625 L 368.535156 138.144531 L 381.136719 142.746094 L 393.742188 147.367188 L 406.347656 152 L 418.949219 156.648438 L 431.554688 161.304688 L 444.160156 165.96875 L 456.761719 170.632812 L 469.367188 175.300781 L 481.972656 179.964844 L 494.574219 184.632812 L 507.179688 189.300781 L 519.785156 193.964844 L 532.390625 198.632812 L 544.992188 203.300781 L 557.597656 207.964844 L 570.203125 212.632812 L 582.804688 217.296875 L 608.015625 226.632812 L 620.617188 231.296875 L 633.222656 235.964844 L 645.828125 240.628906 L 658.429688 245.296875 L 671.035156 249.964844 L 683.640625 254.628906 "/>
<g fill="rgb(30.196078%, 30.196078%, 30.196078%)" fill-opacity="1">
<use xlink:href="#glyph-0-0" x="20.21875" y="293.657227"/>
<use xlink:href="#glyph-0-0" x="25.21875" y="293.657227"/>
</g>
<g fill="rgb(30.196078%, 30.196078%, 30.196078%)" fill-opacity="1">
<use xlink:href="#glyph-0-1" x="20.21875" y="210.586914"/>
<use xlink:href="#glyph-0-2" x="25.21875" y="210.586914"/>
</g>
<g fill="rgb(30.196078%, 30.196078%, 30.196078%)" fill-opacity="1">
<use xlink:href="#glyph-0-1" x="20.21875" y="127.516602"/>
<use xlink:href="#glyph-0-0" x="25.21875" y="127.516602"/>
</g>
<g fill="rgb(30.196078%, 30.196078%, 30.196078%)" fill-opacity="1">
<use xlink:href="#glyph-0-3" x="20.21875" y="44.450195"/>
<use xlink:href="#glyph-0-2" x="25.21875" y="44.450195"/>
</g>
<path fill="none" stroke-width="1.066978" stroke-linecap="butt" stroke-linejoin="round" stroke="rgb(20%, 20%, 20%)" stroke-opacity="1" stroke-miterlimit="10" d="M 32.410156 290.949219 L 35.152344 290.949219 "/>
<path fill="none" stroke-width="1.066978" stroke-linecap="butt" stroke-linejoin="round" stroke="rgb(20%, 20%, 20%)" stroke-opacity="1" stroke-miterlimit="10" d="M 32.410156 207.878906 L 35.152344 207.878906 "/>
<path fill="none" stroke-width="1.066978" stroke-linecap="butt" stroke-linejoin="round" stroke="rgb(20%, 20%, 20%)" stroke-opacity="1" stroke-miterlimit="10" d="M 32.410156 124.808594 L 35.152344 124.808594 "/>
<path fill="none" stroke-width="1.066978" stroke-linecap="butt" stroke-linejoin="round" stroke="rgb(20%, 20%, 20%)" stroke-opacity="1" stroke-miterlimit="10" d="M 32.410156 41.742188 L 35.152344 41.742188 "/>
<path fill="none" stroke-width="1.066978" stroke-linecap="butt" stroke-linejoin="round" stroke="rgb(20%, 20%, 20%)" stroke-opacity="1" stroke-miterlimit="10" d="M 242.523438 328.589844 L 242.523438 325.847656 "/>
<path fill="none" stroke-width="1.066978" stroke-linecap="butt" stroke-linejoin="round" stroke="rgb(20%, 20%, 20%)" stroke-opacity="1" stroke-miterlimit="10" d="M 463.5625 328.589844 L 463.5625 325.847656 "/>
<path fill="none" stroke-width="1.066978" stroke-linecap="butt" stroke-linejoin="round" stroke="rgb(20%, 20%, 20%)" stroke-opacity="1" stroke-miterlimit="10" d="M 684.601562 328.589844 L 684.601562 325.847656 "/>
<g fill="rgb(30.196078%, 30.196078%, 30.196078%)" fill-opacity="1">
<use xlink:href="#glyph-0-4" x="237.523438" y="336.989258"/>
<use xlink:href="#glyph-0-2" x="242.523438" y="336.989258"/>
</g>
<g fill="rgb(30.196078%, 30.196078%, 30.196078%)" fill-opacity="1">
<use xlink:href="#glyph-0-5" x="458.5625" y="336.989258"/>
<use xlink:href="#glyph-0-2" x="463.5625" y="336.989258"/>
</g>
<g fill="rgb(30.196078%, 30.196078%, 30.196078%)" fill-opacity="1">
<use xlink:href="#glyph-0-6" x="679.601562" y="336.989258"/>
<use xlink:href="#glyph-0-2" x="684.601562" y="336.989258"/>
</g>
<g fill="rgb(0%, 0%, 0%)" fill-opacity="1">
<use xlink:href="#glyph-1-0" x="364.335938" y="350.730469"/>
<use xlink:href="#glyph-1-1" x="371.335938" y="350.730469"/>
<use xlink:href="#glyph-1-2" x="382.335938" y="350.730469"/>
</g>
<g fill="rgb(0%, 0%, 0%)" fill-opacity="1">
<use xlink:href="#glyph-2-0" x="13.691406" y="190.164062"/>
<use xlink:href="#glyph-2-1" x="13.691406" y="183.164062"/>
<use xlink:href="#glyph-2-2" x="13.691406" y="177.164062"/>
<use xlink:href="#glyph-2-3" x="13.691406" y="173.164062"/>
<use xlink:href="#glyph-2-4" x="13.691406" y="170.164062"/>
<use xlink:href="#glyph-2-5" x="13.691406" y="159.164062"/>
<use xlink:href="#glyph-2-2" x="13.691406" y="152.164062"/>
<use xlink:href="#glyph-2-0" x="13.691406" y="148.164062"/>
</g>
</svg>
